<svg width="393" height="852" viewBox="0 0 393 852" fill="none" xmlns="http://www.w3.org/2000/svg">
<rect width="393" height="852" fill="#E4EBF5"/>
<path d="M299 727.852C307.75 736.432 320.44 732.755 323.33 727.852C323.755 727.132 324 726.295 324 725.402C324 722.695 321.763 720.5 319 720.5C316.237 720.5 314 722.695 314 725.402M336.5 735.32C336.5 731.278 339.3 728 342.75 728C346.2 728 349 731.278 349 735.32C349.015 737.003 348.504 738.649 347.538 740.027C342.365 748.477 317.19 745.29 304 742.64M326.713 762.717C327.228 764.34 328.618 765.5 330.25 765.5C332.32 765.5 334 763.632 334 761.327C334 760.545 333.805 759.81 333.467 759.185C330.25 752.98 314 748.81 299 759.935M341.5 751.75H346.5" stroke="#161D24" stroke-width="3" stroke-linecap="round" stroke-linejoin="round"/>
<g clip-path="url(#clip0_45_7722)">
<path d="M67.6989 607.465C67.1344 606.041 66.5457 604.623 66.0087 603.188C62.8762 594.783 63.0104 586.388 66.4941 578.159C67.637 575.454 69.5853 573.104 70.8762 570.448C71.8642 568.422 72.5527 566.21 73.0966 564.011C74.4012 558.754 76.5011 553.803 79.1379 549.134C81.6233 544.73 84.2223 540.289 87.4374 536.415C93.9125 528.615 100.887 521.249 110.408 516.965C111.61 516.425 112.725 515.692 113.882 515.046C114.825 514.894 115.806 514.86 116.704 514.571C121.586 513.009 126.584 512.104 131.703 512.028C143.779 511.846 155.104 514.781 165.848 520.244C174.023 524.404 181.338 529.647 186.691 537.141C189.259 540.736 190.918 544.961 193.163 548.804C196.998 555.369 199.294 562.446 200.295 569.929C200.877 574.285 201.294 578.685 201.39 583.072C201.473 586.873 201.108 590.699 200.75 594.498C200.22 600.078 199.273 605.586 197.19 610.847C196.984 611.37 197.163 612.282 197.517 612.75C200.519 616.727 202.746 621.107 204.154 625.851C207.39 636.754 207.335 647.836 205.507 658.956C205.321 660.095 205.634 660.569 206.495 661.158C208.805 662.727 211.17 664.258 213.28 666.078C218.757 670.805 223.125 676.489 226.275 682.967C228.864 688.286 231.122 693.791 233.108 699.361C233.986 701.828 234.736 704.075 236.929 705.709C239.796 707.842 242.254 710.412 245.79 711.726C251.68 713.915 257.401 716.564 263.177 719.062C263.576 719.234 263.831 719.746 264.151 720.101C263.638 720.059 263.101 720.101 262.619 719.96C255.497 717.864 248.833 719.272 242.464 722.654C237.511 725.282 233.975 729.356 231.194 734.145C226.912 733.006 222.612 731.922 218.347 730.718C214.023 729.493 209.8 727.842 205.418 726.927C197.944 725.365 190.991 722.722 184.739 718.343C181.755 716.251 178.908 713.97 175.996 711.775C175.534 710.137 175.214 708.444 174.581 706.875C172.433 701.529 168.577 697.593 163.81 694.534C154.763 688.727 145.059 685.782 134.174 687.629C121.93 689.707 111.864 701.229 111.82 713.591C111.809 716.316 112.188 719.041 112.384 721.769C110.298 721.398 108.216 721.03 106.129 720.658C104.556 720.094 102.983 719.533 101.413 718.969C100.945 717.926 100.487 716.88 100.009 715.845C97.9367 711.365 95.8678 706.886 93.7852 702.416C91.527 697.572 89.2206 692.749 87.0037 687.887C86.2085 686.143 85.2343 684.35 85.0312 682.506C84.8316 680.71 85.4822 678.811 85.8161 676.967C86.4185 673.619 87.1001 670.285 87.6784 666.934C88.2946 663.363 88.8213 659.778 89.3962 656.196C89.8161 653.589 90.2464 650.981 90.6698 648.373C91.527 643.405 92.3876 638.44 93.2482 633.458C94.5976 633.63 95.6647 633.764 96.7284 633.902C99.6613 637.294 103.517 638.677 107.84 639.3C111.111 639.771 114.329 640.614 117.568 641.289C117.854 642.09 118.102 642.906 118.429 643.69C120.966 649.804 124.973 654.979 128.963 660.167L129.717 661.192C129.927 661.416 130.14 661.639 130.35 661.866C130.46 662.293 130.436 662.847 130.701 663.119C132.333 664.801 133.927 666.542 135.723 668.035C139.548 671.207 143.916 673.427 148.77 674.51C151.025 675.013 153.386 675.243 155.693 675.226C157.479 675.212 159.321 674.799 161.035 674.252C164.887 673.021 168.481 671.287 170.739 667.681C173.855 662.702 174.254 657.184 173.593 651.572C172.629 643.398 169.565 635.966 164.959 629.171C164.45 628.418 163.641 627.867 162.97 627.22C162.808 627.062 162.608 626.928 162.488 626.742C158.512 620.608 153.121 616.2 146.357 613.438C145.892 613.248 145.441 612.753 145.218 612.285C143.407 608.476 140.419 605.927 136.656 604.224C130.873 601.609 124.904 601.52 118.908 603.257C112.883 605.002 108.994 608.934 107.469 615.089C104.195 615.21 101.162 616.004 98.6114 618.196C98.4599 618.327 98.1776 618.313 97.9573 618.364C97.1174 618.296 96.2499 618.33 95.4375 618.144C91.4719 617.226 87.5201 616.252 83.5613 615.296C82.3462 613.909 81.1482 612.512 79.909 611.15C79.4271 610.62 78.8591 610.173 78.329 609.687C78.7214 609.746 79.1276 609.756 79.4994 609.87C82.6422 610.85 85.792 611.191 89.1208 610.782C100.649 609.361 108.925 597.663 106.477 586.323C104.136 575.489 93.8437 568.401 83.2997 570.125C75.4683 571.405 69.9434 575.705 67.1344 583.082C64.1705 590.868 65.606 598.12 71.1964 604.258C73.1792 606.433 75.94 607.898 78.3462 609.691C74.8005 608.955 71.2549 608.215 67.7127 607.479L67.6989 607.465ZM124.701 589.22C126.309 587.475 128.343 587.438 130.274 588.821C130.784 589.185 131.248 589.619 131.727 590.025C134.563 592.426 137.417 592.316 140.143 589.739C140.884 589.041 141.72 588.446 142.581 587.747V585.552C141.094 586.681 139.899 587.51 138.791 588.442C136.842 590.083 135.076 590.197 133.052 588.687C132.412 588.208 131.806 587.678 131.186 587.173C129.696 585.955 127.951 585.597 126.188 586.172C125.1 586.526 124.085 587.286 123.207 588.06C120.791 590.183 118.966 590.293 116.525 588.274C116.085 587.909 115.72 587.414 115.228 587.159C114.174 586.615 113.059 586.196 111.803 585.652V587.61C112.677 588.071 113.414 588.459 114.147 588.852C110.185 591.181 122.605 591.508 124.704 589.227L124.701 589.22ZM191.17 595.901C190.801 584.283 182.275 575.334 170.488 575.361C158.777 575.389 150.047 584.265 149.989 595.833C149.927 607.547 159.073 616.472 170.505 616.489C181.944 616.507 190.839 607.63 191.17 595.901ZM148.546 566.289C144.987 566.285 142.068 569.096 142.006 572.592C141.94 576.156 144.873 579.077 148.519 579.081C152.161 579.081 155.138 576.142 155.063 572.623C154.987 569.11 152.088 566.292 148.55 566.289H148.546ZM110.505 565.257C106.832 565.219 103.854 568.047 103.827 571.597C103.799 575.093 106.687 578.014 110.209 578.048C113.923 578.086 116.828 575.334 116.887 571.725C116.942 568.274 113.999 565.291 110.505 565.257Z" fill="#E3F9B8"/>
<path d="M264.144 720.094C263.824 719.74 263.569 719.23 263.17 719.055C257.394 716.557 251.673 713.911 245.783 711.72C242.247 710.405 239.79 707.835 236.922 705.702C234.726 704.068 233.979 701.825 233.101 699.354C231.118 693.784 228.857 688.279 226.268 682.96C223.118 676.485 218.75 670.798 213.273 666.071C211.166 664.251 208.801 662.72 206.488 661.151C205.624 660.566 205.311 660.088 205.5 658.949C207.328 647.829 207.383 636.751 204.147 625.844C202.739 621.1 200.512 616.72 197.511 612.743C197.159 612.275 196.977 611.363 197.184 610.84C199.266 605.58 200.216 600.075 200.743 594.491C201.104 590.692 201.466 586.867 201.383 583.065C201.287 578.678 200.874 574.278 200.289 569.922C199.287 562.439 196.991 555.362 193.156 548.797C190.912 544.958 189.252 540.729 186.684 537.134C181.331 529.64 174.016 524.397 165.841 520.237C155.094 514.77 143.772 511.839 131.696 512.021C126.577 512.097 121.579 513.005 116.698 514.564C115.799 514.853 114.818 514.887 113.875 515.039C112.952 506.372 119.128 499.264 126.419 496.315C134.016 493.24 141.779 493.37 149.441 495.803C153.331 497.038 157.152 498.748 160.674 500.809C165.221 503.472 168.567 507.28 168.736 513.264C169.342 512.93 169.772 512.727 170.164 512.469C176.467 508.323 183.28 507.783 189.992 510.759C199.958 515.176 205.851 523.238 208.326 533.741C209.473 538.61 208.464 543.162 204.984 547.118C213.514 552.953 217.445 561.328 218.306 571.226C219.142 580.835 218.461 590.132 211.036 597.016C213.369 599.101 215.931 601.021 218.024 603.357C220.629 606.264 221.507 610.001 221.769 613.833C222.258 621.003 220.671 627.585 216.048 633.265C215.91 633.434 215.838 633.658 215.669 633.981C221.951 636.864 225.944 641.526 226.998 648.445C227.993 654.982 226.974 661.189 223.958 666.649C226.932 667.998 230.02 668.971 232.63 670.674C237.793 674.043 239.982 679.245 240.365 685.266C240.74 691.187 239.597 696.767 236.488 701.883C236.347 702.117 236.237 702.375 235.934 702.977C237.469 702.165 238.643 701.412 239.917 700.896C246.13 698.37 252.251 698.893 258.168 701.821C264.351 704.883 269.576 709.06 272.585 715.47C273.907 718.288 274.396 721.26 272.812 724.216C269.917 722.839 267.026 721.463 264.131 720.087L264.144 720.094Z" fill="#57B761"/>
<path d="M90.6631 648.359C90.2397 650.967 89.8094 653.575 89.3894 656.183C88.8146 659.761 88.2879 663.349 87.6717 666.921C87.0934 670.272 86.4118 673.605 85.8094 676.953C85.4789 678.797 84.8283 680.696 85.0245 682.492C85.2276 684.34 86.2018 686.129 86.997 687.873C89.2139 692.735 91.5203 697.558 93.7785 702.403C95.8611 706.875 97.9334 711.355 100.002 715.831C100.481 716.867 100.939 717.913 101.407 718.955C101.989 720.39 102.567 721.824 103.149 723.259C103.94 725.031 104.736 726.803 105.527 728.578C104.529 730.78 103.717 732.979 104.295 735.497C105.29 739.815 108.371 742.075 112.133 743.703C117.507 746.025 123.211 746.782 128.984 747.188C138.374 747.845 147.717 747.683 156.911 745.358C169.91 745.371 182.908 745.389 195.91 745.395C205.359 745.402 214.809 745.413 224.258 745.389C229.177 745.375 232.664 741.986 232.764 737.204C237.308 737.152 241.848 737.1 246.392 737.049C248.33 737.097 250.268 737.118 252.203 737.197C254.361 737.286 256.547 737.248 258.671 737.582C262.454 738.174 265.38 741.191 266 745.392C266.523 748.956 265.184 751.95 262.22 754.169C260.241 755.652 257.962 756.013 255.614 756.099C252.65 756.209 249.687 756.212 246.719 756.261C241.27 756.219 235.821 756.175 230.371 756.133C230.031 756.12 229.693 756.102 229.353 756.089C228.609 756.102 227.865 756.13 227.118 756.13C188.963 756.13 150.808 756.102 112.656 756.14C104.729 756.147 99.6408 752.07 96.2432 745.333C93.6063 740.104 90.9936 734.864 88.3774 729.624C87.8955 728.657 87.4548 727.666 86.9936 726.689C86.9041 726.177 86.9213 725.612 86.7078 725.158C84.9522 721.446 83.1794 717.741 81.355 714.059C80.5391 712.411 79.6028 710.825 78.7216 709.208C78.5563 709.225 78.3911 709.239 78.2224 709.256C77.9436 710.023 77.5615 710.773 77.4031 711.565C76.9006 714.076 76.4462 716.598 76.04 719.127C75.8816 720.121 75.8919 721.143 75.8231 722.151C75.5856 723.424 75.3205 724.69 75.1174 725.967C74.5391 729.603 73.9883 733.244 73.4272 736.88C73.2551 737.235 72.99 737.575 72.9246 737.95C72.4186 740.864 71.9022 743.778 71.4788 746.71C70.8558 751.017 68.3187 753.863 64.8213 754.055C59.372 754.355 55.8023 750.109 56.8557 744.731C57.5545 741.167 58.0536 737.561 58.6423 733.973C59.5028 729.063 60.3634 724.157 61.224 719.247C61.5373 718.408 61.9538 717.589 62.1397 716.722C62.5184 714.947 62.7697 713.141 63.0795 711.351C63.5786 708.492 64.0743 705.637 64.5872 702.781C65.2482 699.093 65.9745 695.415 66.5735 691.716C66.8144 690.234 67.7645 688.575 65.9883 687.33C65.9883 687.227 66.0055 687.127 66.0365 687.027C66.4702 686.628 67.1724 686.294 67.2895 685.816C67.5717 684.67 67.3962 683.401 67.7473 682.289C68.1914 680.899 67.4065 678.684 69.9539 678.598C70.305 676.771 70.6286 675.051 70.9694 673.33C71.4134 671.097 71.9057 668.871 72.3084 666.628C72.6768 664.571 72.694 662.413 73.3377 660.456C74.274 657.614 74.5425 654.71 74.9522 651.793C75.2379 649.752 75.8644 647.757 76.336 645.744C78.336 646.136 80.3326 646.553 82.3395 646.917C85.1071 647.42 87.8817 647.881 90.6528 648.362L90.6631 648.359ZM260.84 746.71C260.833 744.177 258.795 742.196 256.224 742.223C253.669 742.251 251.628 744.312 251.683 746.806C251.738 749.242 253.752 751.186 256.237 751.203C258.816 751.224 260.847 749.238 260.84 746.71ZM63.7714 742.051C61.2068 742.086 59.224 744.122 59.2825 746.665C59.3411 749.135 61.3204 751.041 63.8265 751.041C66.4048 751.041 68.4427 749.042 68.4289 746.527C68.4151 744.036 66.3153 742.02 63.7714 742.051Z" fill="#CBF8A6"/>
<path d="M61.2378 719.251C60.3773 724.161 59.5167 729.067 58.6561 733.976C52.5252 736.134 48.8419 742.956 50.2911 749.469C51.6199 755.435 57.076 760.001 63.1587 760.228C69.5959 760.468 75.3068 756.471 77.1209 750.457C78.6149 745.499 77.0039 739.557 73.441 736.884C74.0021 733.247 74.5529 729.607 75.1312 725.97C75.3343 724.694 75.5994 723.428 75.8369 722.155C76.4703 722.33 77.2139 722.347 77.7164 722.705C79.7922 724.174 81.7956 725.743 83.8266 727.278C91.8233 736.048 94.0746 745.991 89.6064 757.107C85.5134 767.288 75.4169 773.611 64.4461 773.986C53.1448 774.372 42.2085 767.164 37.9675 756.949C32.5044 743.796 38.3909 728.131 51.2584 721.966C51.761 721.725 52.2154 721.388 52.6905 721.092C53.1793 720.982 53.6715 720.868 54.1603 720.765C56.5184 720.259 58.8798 719.753 61.2378 719.251Z" fill="#383838"/>
<path d="M230.375 756.133C235.824 756.175 241.273 756.219 246.723 756.261C247.022 756.598 247.284 756.987 247.631 757.265C253.366 761.824 262.268 760.978 266.864 755.449C271.831 749.472 271.129 741.188 265.222 736.106C259.852 731.485 250.867 731.936 246.395 737.049C241.852 737.1 237.311 737.152 232.767 737.204C231.821 737.176 230.874 737.152 229.931 737.124C230.351 736.127 230.771 735.129 231.187 734.135C233.965 729.345 237.5 725.272 242.457 722.643C248.826 719.265 255.49 717.854 262.612 719.949C263.094 720.09 263.631 720.049 264.144 720.09C267.039 721.467 269.931 722.843 272.826 724.219C272.919 724.295 273.012 724.374 273.108 724.45C274.141 725.382 275.201 726.287 276.196 727.257C279.243 730.212 281.229 733.849 282.843 737.72C284.23 742.351 284.554 747.064 283.683 751.812C281.38 764.37 269.855 773.783 257.07 773.941C245.036 774.093 236.633 768.43 230.819 758.301C230.567 757.864 230.464 757.344 230.292 756.863C230.32 756.618 230.347 756.374 230.378 756.13L230.375 756.133Z" fill="#383838"/>
<path d="M78.3221 609.67C78.8522 610.155 79.4202 610.606 79.9021 611.133C81.1414 612.495 82.3393 613.895 83.5545 615.282C83.5751 615.736 83.5338 616.204 83.6233 616.644C84.4874 620.89 83.6061 624.54 80.1293 627.389C79.6336 627.795 79.3582 628.469 78.9796 629.016C78.3668 629.092 77.7575 629.185 77.1448 629.247C75.1172 629.45 73.0862 629.825 71.0656 629.78C69.2618 629.742 67.4649 629.243 65.6645 628.948C64.6284 628.703 63.5991 628.425 62.5561 628.222C56.6249 627.076 50.6455 626.137 44.7728 624.75C39.8605 623.594 37.1996 619.81 36.9311 615.089C36.6626 610.414 39.5025 606.364 43.9157 604.792C46.6936 603.801 49.4131 604.162 52.1877 604.671C57.1171 605.576 62.0535 606.426 66.9864 607.3C67.2239 607.355 67.4649 607.41 67.7024 607.465C71.248 608.201 74.7937 608.941 78.3393 609.677L78.3255 609.67H78.3221Z" fill="#363736"/>
<path d="M66.9829 607.3C62.05 606.426 57.1102 605.58 52.1842 604.671C49.4097 604.162 46.6902 603.801 43.9122 604.792C39.4991 606.367 36.6591 610.414 36.9276 615.089C37.1996 619.81 39.8605 623.594 44.7694 624.75C50.642 626.133 56.6214 627.073 62.5526 628.222C63.5956 628.425 64.6249 628.703 65.6611 628.948C62.2049 638.347 60.4321 648.063 60.1223 658.061C58.1326 656.114 55.957 654.318 54.1911 652.185C51.2754 648.665 48.6523 644.908 45.8399 641.299C45.3477 640.666 44.6144 640.043 43.8709 639.806C35.7848 637.236 31.8915 631.452 31.0997 623.288C30.277 614.835 34.7245 606.956 42.4767 603.526C48.284 600.956 54.2393 601.503 60.0225 603.687C62.4493 604.606 64.6697 606.078 66.9829 607.296V607.3Z" fill="#57B660"/>
<path d="M60.1223 658.058C60.4321 648.06 62.2084 638.344 65.6611 628.944C67.4614 629.24 69.2549 629.742 71.0621 629.777C73.0828 629.818 75.1138 629.443 77.1414 629.243C77.7541 629.181 78.3634 629.092 78.9761 629.013C78.5217 631.851 78.057 634.686 77.6095 637.525C77.1792 640.263 76.7661 643.002 76.3462 645.741C75.8711 647.757 75.2481 649.749 74.9623 651.789C74.5527 654.703 74.2842 657.611 73.3479 660.452C72.7042 662.41 72.6869 664.571 72.3186 666.625C71.9159 668.864 71.4236 671.09 70.9795 673.327C70.6387 675.047 70.3152 676.771 69.964 678.594C67.4167 678.684 68.2015 680.896 67.7575 682.286C67.4029 683.397 67.5819 684.667 67.2996 685.812C67.1826 686.291 66.4838 686.624 66.0466 687.024C64.3874 681.457 62.4115 675.959 61.1722 670.303C60.3013 666.332 60.4356 662.145 60.1223 658.054V658.058Z" fill="#E3F9B8"/>
<path d="M61.2377 719.251C58.8762 719.757 56.5182 720.259 54.1602 720.765C53.6679 720.871 53.1791 720.982 52.6903 721.092C47.1447 715.7 46.439 706.934 51.0827 700.755C53.4614 697.586 56.4322 695.099 60.0535 693.478C61.6818 692.749 62.9417 691.775 63.8195 690.182C64.3909 689.146 65.2653 688.276 66.0054 687.333C67.7816 688.579 66.8281 690.237 66.5906 691.72C65.9916 695.418 65.2687 699.096 64.6043 702.785C64.0914 705.64 63.5957 708.496 63.0966 711.355C62.7833 713.147 62.5355 714.95 62.1568 716.726C61.9709 717.593 61.5544 718.411 61.2411 719.251H61.2377Z" fill="#57B761"/>
<path d="M83.8264 727.274C81.7954 725.74 79.7919 724.171 77.7162 722.702C77.2136 722.344 76.4701 722.327 75.8367 722.151C75.9055 721.143 75.8917 720.121 76.0535 719.127C76.4597 716.598 76.9107 714.076 77.4167 711.565C77.5751 710.774 77.9572 710.024 78.236 709.256C78.4012 709.239 78.5665 709.225 78.7351 709.208C79.6164 710.822 80.5527 712.411 81.3686 714.059C83.1896 717.741 84.9658 721.446 86.7214 725.158C86.9348 725.613 86.9176 726.177 87.0071 726.689C85.9469 726.886 84.8901 727.078 83.8298 727.274H83.8264Z" fill="#57B660"/>
<path d="M282.84 737.723C281.229 733.853 279.239 730.216 276.193 727.26C275.195 726.294 274.134 725.389 273.105 724.453C275.077 725.643 277.053 726.827 279.016 728.028C280.317 728.822 281.604 729.634 282.888 730.457C283.367 730.759 283.855 731.062 284.272 731.441C286.713 733.677 286.592 734.475 283.745 736.244C283.305 736.515 283.136 737.221 282.84 737.723Z" fill="#E3F9B8"/>
<path d="M230.375 756.133C230.347 756.378 230.32 756.622 230.289 756.866C229.979 756.608 229.666 756.347 229.356 756.089C229.697 756.102 230.034 756.12 230.375 756.133Z" fill="#A2A2A1"/>
<path d="M156.918 745.358C147.72 747.683 138.381 747.849 128.987 747.188C123.214 746.782 117.51 746.025 112.136 743.703C108.374 742.075 105.293 739.815 104.298 735.497C103.716 732.979 104.532 730.78 105.531 728.578C107.758 726.772 110.006 724.993 112.181 723.128C112.446 722.901 112.326 722.224 112.381 721.752C112.181 719.027 111.806 716.299 111.816 713.574C111.861 701.212 121.927 689.693 134.171 687.612C145.056 685.764 154.763 688.706 163.806 694.517C168.571 697.579 172.426 701.512 174.577 706.858C175.207 708.427 175.528 710.12 175.992 711.758C176.192 717.197 175.349 722.409 172.708 727.257C172.443 727.742 172.44 728.592 172.684 729.091C173.786 731.365 173.459 733.498 172.326 735.621C172.061 736.113 171.824 736.619 171.572 737.121C170.443 738.081 169.338 739.068 168.182 739.994C164.853 742.664 160.811 743.851 156.922 745.351L156.918 745.358Z" fill="#57B660"/>
<path d="M107.458 615.072C108.983 608.917 112.87 604.984 118.897 603.24C124.897 601.503 130.866 601.592 136.646 604.207C140.409 605.91 143.397 608.459 145.207 612.268C145.428 612.732 145.882 613.231 146.347 613.421C153.114 616.183 158.502 620.591 162.478 626.725C162.598 626.911 162.798 627.045 162.96 627.203C163.169 627.668 163.338 628.16 163.6 628.593C168.615 636.978 171.514 645.937 170.529 655.804C169.948 661.626 167.393 666.281 161.806 668.975C154.904 672.302 148.071 671.751 141.249 668.947C137.183 667.278 133.565 664.849 130.34 661.849C130.13 661.626 129.916 661.402 129.706 661.178C129.455 660.838 129.204 660.494 128.952 660.153C124.963 654.968 120.956 649.79 118.419 643.676C118.092 642.892 117.844 642.077 117.558 641.275C121.534 642.008 125.517 642.723 129.489 643.473C133.369 644.203 136.794 643.116 139.648 640.566C143.042 637.535 144.109 633.558 143.121 629.185C142.037 624.392 138.89 621.365 134.119 620.36C125.255 618.492 116.346 616.823 107.455 615.072H107.458Z" fill="#57B660"/>
<path d="M78.336 609.677C75.9298 607.888 73.169 606.423 71.1862 604.245C65.5958 598.107 64.1604 590.854 67.1243 583.068C69.9332 575.692 75.4582 571.391 83.2896 570.111C93.837 568.388 104.13 575.475 106.467 586.309C108.918 597.653 100.639 609.347 89.1106 610.768C85.7819 611.177 82.6355 610.833 79.4892 609.856C79.1175 609.739 78.7113 609.732 78.3188 609.674L78.3326 609.681L78.336 609.677Z" fill="#ED7C76"/>
<path d="M191.17 595.901C190.836 607.63 181.941 616.507 170.505 616.49C159.073 616.472 149.927 607.548 149.989 595.833C150.051 584.266 158.781 575.392 170.488 575.362C182.275 575.334 190.802 584.283 191.17 595.901Z" fill="#ED7C76"/>
<path d="M107.458 615.072C116.35 616.823 125.255 618.492 134.123 620.36C138.894 621.365 142.04 624.392 143.125 629.185C144.113 633.558 143.045 637.535 139.651 640.566C136.798 643.116 133.372 644.203 129.493 643.474C125.52 642.727 121.538 642.008 117.562 641.275C114.319 640.597 111.104 639.754 107.834 639.286C103.51 638.664 99.651 637.281 96.7216 633.888C96.5495 633.413 96.4152 632.921 96.1949 632.471C94.5942 629.195 94.2638 625.868 95.8266 622.49C96.4772 621.083 97.2414 619.727 97.954 618.351C98.1743 618.299 98.4531 618.313 98.608 618.182C101.159 615.987 104.192 615.196 107.465 615.075L107.458 615.072Z" fill="#363736"/>
<path d="M97.9471 618.351C97.2345 619.73 96.4703 621.083 95.8197 622.49C94.2603 625.865 94.5873 629.195 96.188 632.471C96.4083 632.921 96.5426 633.413 96.7147 633.888C95.651 633.754 94.5839 633.616 93.2345 633.444C92.3739 638.426 91.5167 643.391 90.6561 648.359C87.885 647.881 85.1105 647.416 82.3428 646.914C80.3359 646.549 78.3428 646.133 76.3394 645.741C76.7593 643.002 77.1724 640.264 77.6027 637.525C78.0502 634.686 78.5115 631.848 78.9693 629.013C79.348 628.463 79.6234 627.792 80.1191 627.386C83.5959 624.537 84.4771 620.886 83.6131 616.641C83.5236 616.2 83.5649 615.733 83.5442 615.278C87.5029 616.235 91.4548 617.212 95.4204 618.127C96.2328 618.316 97.1003 618.282 97.9402 618.347L97.9471 618.351Z" fill="#040604"/>
<path d="M130.34 661.849C133.565 664.849 137.183 667.275 141.249 668.947C148.071 671.748 154.901 672.302 161.806 668.975C167.397 666.281 169.951 661.626 170.529 655.804C171.514 645.937 168.615 636.978 163.6 628.593C163.338 628.156 163.173 627.668 162.96 627.203C163.631 627.847 164.436 628.401 164.949 629.154C169.555 635.949 172.619 643.377 173.583 651.555C174.247 657.17 173.848 662.685 170.729 667.664C168.471 671.273 164.877 673.003 161.025 674.235C159.307 674.786 157.469 675.195 155.683 675.209C153.373 675.226 151.011 674.996 148.76 674.493C143.91 673.409 139.538 671.19 135.713 668.018C133.916 666.528 132.323 664.784 130.691 663.102C130.426 662.826 130.45 662.272 130.34 661.849Z" fill="#CBF8A6"/>
<path d="M148.546 566.289C152.085 566.292 154.984 569.113 155.059 572.623C155.135 576.142 152.154 579.084 148.515 579.081C144.87 579.081 141.94 576.156 142.002 572.592C142.064 569.096 144.984 566.285 148.543 566.289H148.546ZM150.681 571.928C151.142 571.243 151.583 570.878 151.565 570.541C151.545 570.173 151.097 569.829 150.839 569.475C150.522 569.781 150.009 570.053 149.947 570.4C149.889 570.744 150.292 571.167 150.684 571.928H150.681Z" fill="#040604"/>
<path d="M110.505 565.257C113.999 565.291 116.942 568.274 116.887 571.725C116.828 575.334 113.923 578.086 110.209 578.048C106.687 578.011 103.799 575.093 103.827 571.597C103.854 568.047 106.832 565.219 110.505 565.257ZM113.18 568.69C112.567 568.25 112.161 567.751 111.885 567.816C111.544 567.895 111.083 568.443 111.09 568.78C111.097 569.11 111.603 569.64 111.94 569.681C112.229 569.719 112.591 569.189 113.18 568.69Z" fill="#040604"/>
<path d="M114.147 588.845C113.41 588.456 112.673 588.067 111.802 587.603V585.645C113.059 586.189 114.174 586.612 115.228 587.152C115.72 587.407 116.085 587.902 116.525 588.267C118.969 590.286 120.79 590.176 123.207 588.054C124.085 587.283 125.1 586.519 126.188 586.165C127.951 585.59 129.696 585.948 131.186 587.166C131.806 587.672 132.408 588.201 133.052 588.68C135.076 590.19 136.842 590.077 138.791 588.435C139.899 587.503 141.097 586.67 142.581 585.545V587.74C141.72 588.439 140.884 589.034 140.143 589.733C137.417 592.309 134.563 592.423 131.727 590.018C131.245 589.612 130.784 589.179 130.274 588.814C128.343 587.434 126.309 587.469 124.701 589.213C122.601 591.491 120.181 592.172 117.262 591.35C116.222 590.514 115.183 589.674 114.143 588.838L114.147 588.845Z" fill="#040604"/>
<path d="M112.901 588.188C114.099 588.577 115.558 590.035 116.45 590.703C115.965 591.584 115.193 592.196 114.815 593.094C114.419 594.026 114.205 594.993 113.92 595.925C110.557 595.01 108.939 589.671 112.901 588.188Z" fill="#FEFEFE"/>
<path d="M106.126 720.648C105.135 721.518 104.143 722.392 103.152 723.263C102.57 721.828 101.992 720.393 101.41 718.958C102.983 719.523 104.556 720.084 106.126 720.648Z" fill="#57B761"/>
<path d="M171.566 737.128C191.018 737.128 210.475 737.128 229.927 737.128C230.874 737.155 231.821 737.18 232.764 737.207C232.664 741.989 229.177 745.382 224.258 745.392C214.808 745.416 205.359 745.402 195.91 745.399C182.912 745.392 169.91 745.375 156.911 745.361C160.801 743.861 164.843 742.674 168.171 740.004C169.328 739.079 170.433 738.091 171.562 737.131L171.566 737.128Z" fill="#040604"/>
<path d="M73.4408 736.88C77.0037 739.553 78.6147 745.495 77.1207 750.453C75.3066 756.47 69.5957 760.468 63.1585 760.224C57.0758 759.997 51.6197 755.431 50.2909 749.466C48.8417 742.949 52.5216 736.13 58.6559 733.973C58.0672 737.558 57.5681 741.164 56.8693 744.728C55.8159 750.106 59.3857 754.348 64.8349 754.052C68.3324 753.859 70.8728 751.014 71.4925 746.706C71.9159 743.778 72.4322 740.864 72.9382 737.947C73.0036 737.572 73.2687 737.231 73.4408 736.877V736.88Z" fill="#A2A2A1"/>
<path d="M246.396 737.049C250.867 731.933 259.852 731.482 265.222 736.106C271.129 741.188 271.831 749.476 266.864 755.449C262.268 760.974 253.37 761.821 247.631 757.265C247.284 756.987 247.022 756.598 246.723 756.261C249.686 756.213 252.654 756.209 255.618 756.099C257.965 756.013 260.241 755.652 262.224 754.169C265.187 751.95 266.526 748.953 266.003 745.392C265.387 741.188 262.458 738.17 258.674 737.582C256.55 737.252 254.365 737.286 252.206 737.197C250.272 737.118 248.334 737.097 246.396 737.049Z" fill="#A2A2A1"/>
<path d="M260.84 746.71C260.847 749.242 258.816 751.224 256.237 751.203C253.752 751.186 251.738 749.242 251.683 746.806C251.628 744.308 253.666 742.251 256.223 742.223C258.795 742.196 260.833 744.178 260.84 746.71Z" fill="#040604"/>
<path d="M63.7714 742.051C66.3153 742.02 68.4151 744.036 68.4289 746.527C68.4426 749.042 66.4048 751.041 63.8264 751.041C61.3204 751.041 59.341 749.135 59.2825 746.665C59.224 744.122 61.2068 742.086 63.7714 742.051Z" fill="#040604"/>
<path d="M150.681 571.928C150.288 571.167 149.885 570.744 149.944 570.4C150.002 570.049 150.519 569.781 150.835 569.475C151.097 569.829 151.545 570.173 151.562 570.541C151.579 570.882 151.138 571.243 150.677 571.928H150.681Z" fill="#040604"/>
<path d="M113.179 568.69C112.591 569.189 112.229 569.719 111.94 569.681C111.603 569.636 111.097 569.107 111.09 568.78C111.083 568.443 111.541 567.896 111.885 567.816C112.16 567.754 112.563 568.25 113.179 568.69Z" fill="#FEFEFE"/>
<path d="M112.137 569.788C112.713 569.788 113.18 569.321 113.18 568.745C113.18 568.17 112.713 567.703 112.137 567.703C111.56 567.703 111.094 568.17 111.094 568.745C111.094 569.321 111.56 569.788 112.137 569.788Z" fill="#FEFEFE"/>
<path d="M150.753 571.539C151.329 571.539 151.796 571.072 151.796 570.497C151.796 569.921 151.329 569.454 150.753 569.454C150.177 569.454 149.71 569.921 149.71 570.497C149.71 571.072 150.177 571.539 150.753 571.539Z" fill="#FEFEFE"/>
</g>
<defs>
<clipPath id="clip0_45_7722">
<rect width="255" height="280" fill="white" transform="translate(31 494)"/>
</clipPath>
</defs>
</svg>
