<svg width="393" height="852" viewBox="0 0 393 852" fill="none" xmlns="http://www.w3.org/2000/svg">
<rect width="393" height="852" fill="#E4EBF5"/>
<path d="M299 727.852C307.75 736.432 320.44 732.755 323.33 727.852C323.755 727.132 324 726.295 324 725.402C324 722.695 321.763 720.5 319 720.5C316.237 720.5 314 722.695 314 725.402M336.5 735.32C336.5 731.278 339.3 728 342.75 728C346.2 728 349 731.278 349 735.32C349.015 737.003 348.504 738.649 347.538 740.027C342.365 748.477 317.19 745.29 304 742.64M326.713 762.717C327.228 764.34 328.618 765.5 330.25 765.5C332.32 765.5 334 763.632 334 761.327C334 760.545 333.805 759.81 333.467 759.185C330.25 752.98 314 748.81 299 759.935M341.5 751.75H346.5" stroke="#161D24" stroke-width="3" stroke-linecap="round" stroke-linejoin="round"/>
<path d="M156.543 523.328C165.504 523.938 173.736 526.775 181.318 531.541C192.32 538.454 200.56 548.007 207.328 558.944C216.434 573.656 222.172 589.688 225.548 606.583C226.719 612.453 227.36 618.427 228.242 624.353C228.094 624.373 227.946 624.409 227.797 624.409C207.324 624.405 186.847 624.397 166.374 624.389C165.235 623.799 164.105 623.193 162.954 622.624C154.417 618.395 145.408 616.874 135.977 618.078C132.669 618.499 129.458 619.414 126.527 621.115C124.594 622.239 122.633 623.306 120.681 624.397C108.15 624.405 95.6244 624.413 83.0944 624.417C81.4985 624.417 79.9027 624.373 78.3069 624.353C78.7038 620.947 79.0567 617.532 79.5058 614.134C79.8626 611.426 80.3398 608.734 80.7648 606.034C81.9596 601.444 83.0182 596.81 84.3734 592.268C89.1088 576.408 95.9291 561.564 106.338 548.556C113.992 538.988 123.082 531.224 134.642 526.703C141.154 524.155 147.914 523.023 154.903 523.288C154.758 526.418 154.658 529.551 154.453 532.677C154.317 534.811 153.968 536.929 153.88 539.064C153.86 539.573 154.494 540.115 154.826 540.641C155.195 540.199 155.757 539.81 155.885 539.305C156.117 538.402 156.138 537.435 156.166 536.492C156.302 532.107 156.41 527.722 156.53 523.336L156.543 523.328ZM112.284 622.632C114.373 622.491 116.502 622.556 118.543 622.162C120.957 621.701 123.64 621.36 125.608 620.064C130.961 616.533 132.966 610.684 131.266 604.437C129.421 597.664 125.729 592.328 118.62 590.242C112.878 588.557 107.32 589.464 102.1 592.22C98.6797 594.026 96.2138 596.802 95.6445 600.746C95.3558 602.732 94.4696 604.268 93.4312 605.877C91.266 609.227 90.8089 614.676 94.5739 617.777C95.9011 618.868 97.4648 619.783 99.0647 620.413C103.295 622.074 107.753 622.58 112.284 622.632ZM137.116 577.732C134.233 577.732 131.867 580.075 131.843 582.956C131.823 585.897 134.237 588.3 137.176 588.268C140.047 588.236 142.385 585.853 142.373 582.968C142.356 580.088 139.995 577.736 137.116 577.732ZM117.93 572.621C115.043 572.597 112.657 574.92 112.613 577.797C112.569 580.737 114.963 583.165 117.898 583.157C120.773 583.149 123.13 580.782 123.138 577.905C123.146 575.024 120.805 572.649 117.926 572.625L117.93 572.621Z" fill="#FECC4A"/>
<path d="M166.374 624.385C186.847 624.393 207.324 624.401 227.797 624.405C227.946 624.405 228.094 624.369 228.242 624.349C228.467 624.734 228.868 625.107 228.884 625.5C229.092 630.604 229.445 635.711 229.377 640.811C229.209 653.076 227.196 665.024 222.645 676.474C220.416 682.079 217.645 687.399 214.137 692.318C213.335 692.334 212.537 692.362 211.735 692.362C174.979 692.362 138.222 692.362 101.466 692.362C100.765 692.362 100.067 692.39 99.3653 692.406C99.1047 692.109 98.7598 691.857 98.5995 691.511C97.0999 688.314 95.6765 685.076 94.1368 681.894C93.1143 679.776 92.6051 677.598 92.7695 675.246C92.8256 674.452 92.7294 673.65 92.7053 672.851C92.9299 672.314 93.1985 671.788 93.3709 671.23C93.6877 670.191 93.9483 669.14 94.233 668.093C96.4463 671.066 99.4375 672.968 102.946 673.898C105.684 674.625 108.519 675.263 111.338 675.387C126.546 676.061 140.652 672.009 153.912 664.811C161.174 660.871 167.421 655.683 171.899 648.618C174.06 645.212 175.356 641.517 174.935 637.38C174.489 632.983 172.184 629.633 169.028 626.752C168.154 625.954 167.264 625.171 166.378 624.381L166.374 624.385ZM181.703 666.283C180.327 667.74 179.056 669.068 177.813 670.428C177.481 670.793 177.22 671.234 176.987 671.672C175.572 674.356 176.627 677.71 179.325 679.15C182.036 680.599 185.279 679.644 186.859 676.964C188.287 674.54 187.485 670.753 184.854 669.513C183.663 670.793 182.453 672.093 181.177 673.461C181.799 674.027 182.256 674.444 182.717 674.865C183.539 674.095 184.237 673.445 184.967 672.763C186.246 675.05 184.265 677.586 182.28 677.63C180.865 677.658 179.722 677.22 179.012 675.945C178.222 674.516 178.383 673.12 179.417 671.9C180.608 670.496 181.891 669.172 183.214 667.72C182.721 667.25 182.296 666.845 181.703 666.279V666.283ZM205.833 643.246C202.673 643.162 200.111 645.585 200.063 648.702C200.019 651.772 202.436 654.319 205.464 654.392C208.599 654.468 211.161 652.032 211.226 648.907C211.29 645.81 208.924 643.326 205.833 643.242V643.246ZM197.461 652.265C194.289 652.173 191.731 654.564 191.663 657.686C191.598 660.751 194.004 663.314 197.032 663.407C200.167 663.503 202.737 661.08 202.821 657.954C202.902 654.853 200.552 652.357 197.461 652.265ZM195.255 665.092C194.433 665.95 193.828 666.608 193.194 667.242C191.602 668.839 189.602 668.996 188.134 667.656C186.643 666.291 186.667 664.185 188.198 662.456C188.784 661.794 189.365 661.132 190.027 660.378C189.449 659.876 188.992 659.475 188.511 659.058C186.161 661.236 184.06 663.363 185.107 666.773C185.777 668.955 187.332 670.308 189.618 670.649C192.974 671.15 194.77 668.895 196.667 666.604C196.202 666.103 195.801 665.678 195.251 665.088L195.255 665.092Z" fill="#14B953"/>
<path d="M191.113 713.084C192.007 714.689 193.09 716.218 193.764 717.911C195.716 722.818 194.622 727.275 191.145 731.083C189.682 732.684 187.805 733.907 186.117 735.299C185.103 735.817 184.124 736.427 183.062 736.828C180.327 737.863 177.561 738.806 174.806 739.785C174.61 739.901 174.413 740.014 174.217 740.13C172.493 740.319 170.764 740.467 169.048 740.704C163.876 741.426 158.696 741.31 153.507 740.932C147.412 739.937 141.454 738.517 136.085 735.291C135.905 735.187 135.724 735.083 135.544 734.979C131.362 731.937 128.688 727.837 127.18 722.75C123.936 725.727 120.199 727.484 116.278 728.904C115.861 728.23 115.376 727.588 115.039 726.878C113.96 724.587 112.934 722.272 111.887 719.965C110.015 715.837 108.142 711.708 106.27 707.58C106.707 707.809 107.184 707.981 107.573 708.274C112.116 711.68 117.036 714.433 122.264 716.627C123.804 717.273 125.4 717.787 127.072 718.397C128.503 712.559 132.469 709.373 137.292 707.006C143.96 703.732 151.145 702.577 158.455 702.284C162.224 702.131 166.045 702.412 169.798 702.87C174.778 703.476 179.626 704.824 183.9 707.54C186.45 709.161 188.715 711.227 191.109 713.089L191.113 713.084Z" fill="#FC6F22"/>
<path d="M97.4727 731.789C98.459 734.437 99.8424 737.009 100.36 739.749C101.775 747.216 100.432 754.273 95.9851 760.54C90.9611 767.617 84.1487 771.605 75.3957 772.247C69.9106 772.648 64.654 772.046 59.646 769.671C53.9202 766.959 50.0951 762.433 47.3565 756.869C45.0269 752.13 44.1207 747.067 44.7903 741.875C46.0012 732.511 50.7767 725.382 59.1087 720.856C61.3541 719.636 63.9042 718.978 66.318 718.064C67.4366 717.847 68.5553 717.626 69.678 717.41C69.8384 717.767 70.0028 718.124 70.1632 718.481C70.0629 719.548 69.9587 720.615 69.8584 721.683C69.7903 721.907 69.7221 722.128 69.658 722.353L69.4655 723.271L68.8039 727.203C68.7358 727.661 68.6716 728.118 68.6034 728.571C68.5032 728.832 68.403 729.089 68.2987 729.35L68.3468 729.891C68.2265 730.469 68.1062 731.047 67.986 731.625C67.2321 732.154 66.5104 732.744 65.7165 733.201C59.0686 737.049 57.3284 744.439 59.9587 750.521C62.9499 757.442 69.7903 760.03 76.4222 758.301C82.5369 756.704 86.0052 752.239 86.7189 746.493C87.2522 742.208 85.9851 738.317 82.4526 735.456C82.4526 735.235 82.4567 735.019 82.4607 734.798C82.613 733.655 82.7654 732.511 82.9178 731.368C82.9739 730.605 83.03 729.847 83.0862 729.085C83.2305 728.443 83.3789 727.801 83.5232 727.155C83.5874 726.553 83.6515 725.951 83.7157 725.346C83.844 724.852 83.9723 724.359 84.1046 723.865C84.1327 723.689 84.1648 723.512 84.1928 723.336C84.2209 723.087 84.249 722.838 84.277 722.589C84.3011 722.308 84.3211 722.028 84.3452 721.747C84.7582 721.297 85.1752 720.848 85.5882 720.403C90.6563 723.047 94.6178 726.842 97.4807 731.789H97.4727Z" fill="#3A3A3A"/>
<path d="M191.113 713.084C188.72 711.219 186.454 709.157 183.904 707.536C179.63 704.816 174.782 703.467 169.802 702.866C166.049 702.412 162.228 702.131 158.459 702.28C151.15 702.573 143.964 703.732 137.296 707.002C132.473 709.369 128.507 712.559 127.076 718.392C125.404 717.783 123.808 717.269 122.268 716.623C117.04 714.433 112.12 711.68 107.577 708.27C107.188 707.977 106.711 707.805 106.274 707.576C106.154 707.492 105.977 707.431 105.925 707.315C104.822 704.88 103.724 702.444 102.653 700.001C101.547 697.473 100.464 694.938 99.3694 692.406C100.071 692.39 100.769 692.362 101.47 692.362C138.227 692.362 174.983 692.362 211.739 692.362C212.541 692.362 213.339 692.334 214.141 692.318C208.403 700.711 201.105 707.419 192.336 712.535C191.951 712.76 191.526 712.904 191.117 713.084H191.113Z" fill="#FCCC4A"/>
<path d="M294 748.856C293.972 749.149 293.944 749.438 293.916 749.731C293.723 750.176 293.507 750.614 293.338 751.071C292.48 753.374 291.799 755.761 290.732 757.96C289.778 759.93 288.399 761.691 287.204 763.545C286.895 763.862 286.582 764.179 286.273 764.5C286.041 764.728 285.808 764.957 285.58 765.186L285.548 765.23C283.96 766.341 282.4 767.493 280.776 768.548C279.553 769.342 278.25 770.012 276.983 770.738C276.799 770.787 276.61 770.831 276.426 770.879C276.017 771.059 275.608 771.24 275.199 771.42C275.01 771.453 274.822 771.485 274.63 771.521C274.168 771.549 273.711 771.581 273.25 771.609C272.994 771.725 272.737 771.838 272.48 771.954C271.63 772.046 270.784 772.143 269.934 772.235C269.477 772.343 269.024 772.452 268.567 772.56C266.967 772.56 265.367 772.56 263.767 772.56C263.21 772.448 262.653 772.339 262.095 772.227C261.249 772.127 260.399 772.03 259.553 771.93L258.792 771.577C258.33 771.553 257.869 771.529 257.412 771.505C257.224 771.465 257.035 771.424 256.851 771.384C255.147 770.578 253.447 769.771 251.743 768.965C251.602 768.905 251.466 768.845 251.326 768.789C250.784 768.411 250.247 768.038 249.706 767.661C249.666 767.593 249.606 767.561 249.525 767.561C248.282 766.502 247.043 765.442 245.8 764.387C245.612 764.179 245.427 763.97 245.239 763.761L245.163 763.801L245.231 763.749C245.051 763.541 244.87 763.336 244.69 763.127C244.69 763.127 244.658 763.091 244.658 763.095C243.772 761.888 242.885 760.68 241.995 759.472C242.007 759.392 241.979 759.332 241.915 759.284C241.33 758.249 240.74 757.218 240.155 756.182C240.115 755.926 240.079 755.673 240.039 755.416C240.123 755.131 240.203 754.846 240.287 754.562C240.921 754.65 241.554 754.814 242.188 754.818C246.113 754.842 250.035 754.842 253.96 754.818C254.421 754.818 254.878 754.614 255.339 754.505C255.885 754.558 256.43 754.61 256.979 754.662C257.34 755.296 257.541 756.199 258.086 756.524C261.634 758.638 265.327 759.745 269.573 758.562C272.308 757.799 274.702 756.644 276.502 754.53C279.662 750.826 281.093 746.678 279.758 741.707C278.904 738.513 277.332 735.865 274.738 734.012C270.76 731.167 266.298 730.248 261.562 731.913C259.481 732.644 257.344 733.442 256.39 735.753C255.548 735.809 254.702 735.865 253.86 735.917C249.265 735.893 244.674 735.809 240.143 734.89C240.371 734.345 240.576 733.787 240.832 733.257C244.213 726.328 249.63 721.598 256.819 719.063C262.753 716.968 268.832 716.864 274.882 718.87C282.913 721.534 288.555 726.798 291.895 734.525C292.737 736.471 293.286 738.545 293.968 740.559C293.976 740.808 293.98 741.053 293.988 741.302C293.988 743.825 293.992 746.353 293.996 748.876L294 748.856Z" fill="#3A3A3A"/>
<path d="M80.7686 606.026C80.3436 608.726 79.8705 611.418 79.5096 614.126C79.0605 617.524 78.7077 620.939 78.3107 624.345C78.0982 624.63 77.7213 624.903 77.6973 625.2C77.5088 627.723 77.3845 630.251 77.2402 632.778C76.8593 632.811 76.4623 632.931 76.1054 632.863C74.5457 632.558 72.998 632.177 71.4423 631.868C67.4888 631.077 63.5553 630.175 59.5738 629.569C55.7406 628.983 51.8673 628.622 47.998 628.349C46.1215 628.217 44.3693 628.843 43.2386 630.556C42.982 630.792 42.7254 631.033 42.4688 631.27C42.3806 631.286 42.3204 631.334 42.2924 631.422C42.2563 631.462 42.2162 631.503 42.1761 631.543C39.7142 633.196 38.4231 635.402 38.9203 638.452C38.9283 638.985 38.9363 639.515 38.9403 640.048C38.9002 640.381 38.7679 640.734 38.8321 641.043C39.6781 645.2 42.1921 648.008 46.0534 649.561C47.0919 649.978 48.3549 649.85 49.5137 649.97C49.7422 650.014 49.9708 650.063 50.2033 650.107C51.1576 650.375 52.0959 650.725 53.0662 650.893C55.1712 651.258 57.2923 651.535 59.4094 651.848C59.654 651.88 59.8946 651.908 60.1392 651.94C61.4503 652.305 62.7414 652.783 64.0726 653.007C66.2859 653.381 68.5313 653.593 70.7606 653.874C70.9892 653.918 71.2177 653.962 71.4463 654.01C71.9555 654.215 72.4607 654.584 72.9739 654.596C74.7462 654.636 76.5184 654.552 78.2947 654.516C78.407 655.595 78.5192 656.67 78.6315 657.75C68.7117 657.974 58.9122 657.176 49.6099 653.453C46.5385 652.221 43.5153 650.584 40.885 648.59C34.5297 643.772 33.2306 635.575 37.4327 628.742C40.4239 623.876 44.7703 620.441 49.6059 617.617C58.7037 612.301 68.5072 608.802 78.7879 606.591C79.4575 606.447 80.1111 606.218 80.7726 606.026H80.7686Z" fill="#FCB601"/>
<path d="M186.975 735.785C187.428 735.725 187.881 735.669 188.338 735.609C188.828 735.649 189.321 735.729 189.81 735.729C206.269 735.737 222.729 735.737 239.188 735.737C240.175 735.813 241.161 735.889 242.5 735.99C242.091 737.177 241.791 738.269 241.35 739.3C240.05 742.325 237.761 743.448 234.445 743.44C199.842 743.364 165.239 743.392 130.632 743.404C130.063 743.404 129.493 743.613 128.924 743.725C128.804 743.745 128.683 743.765 128.559 743.789L127.809 743.476C127.641 743.52 127.477 743.565 127.308 743.609C127.184 743.601 127.06 743.589 126.939 743.581C126.578 743.4 126.213 743.22 125.853 743.039C125.492 742.834 125.131 742.63 124.774 742.425C124.525 742.253 124.273 742.08 124.024 741.904L123.379 741.302L122.557 740.319C122.581 740.214 122.545 740.138 122.448 740.094C122.039 739.083 121.63 738.076 121.222 737.065C121.193 736.872 121.161 736.68 121.133 736.487C121.398 735.966 121.663 735.448 121.923 734.927C122.192 734.975 122.464 735.023 122.733 735.075C123.214 735.288 123.691 735.677 124.177 735.681C127.545 735.705 130.909 735.645 134.277 735.613C134.866 735.645 135.452 735.681 136.041 735.713C139.385 737.161 142.657 738.814 146.093 739.986C148.443 740.788 151.017 740.925 153.491 741.358C153.699 741.39 153.912 741.426 154.12 741.458C154.606 741.49 155.087 741.518 155.572 741.55C156.522 741.587 157.468 741.619 158.419 741.655C160.44 741.655 162.46 741.663 164.485 741.667L167.011 741.559C167.496 741.53 167.982 741.498 168.467 741.47C168.675 741.422 168.888 741.378 169.096 741.33C169.553 741.238 170.011 741.141 170.468 741.049C171.209 740.961 171.955 740.876 172.697 740.788C173.134 740.668 173.575 740.547 174.012 740.423L174.12 740.447L174.217 740.391C174.421 740.359 174.622 740.331 174.826 740.299C175.119 740.243 175.411 740.186 175.704 740.13C176.013 740.014 176.326 739.897 176.634 739.785C177.128 739.685 177.617 739.585 178.11 739.484C178.322 739.384 178.535 739.288 178.743 739.187C179.136 739.087 179.529 738.983 179.922 738.882C180.139 738.786 180.355 738.69 180.572 738.598C180.853 738.501 181.133 738.405 181.414 738.309C181.642 738.208 181.875 738.108 182.104 738.008C182.38 737.899 182.653 737.791 182.93 737.683C183.25 737.482 183.571 737.286 183.892 737.085L184.401 736.892C184.622 736.756 184.838 736.62 185.059 736.483C185.343 736.403 185.628 736.323 185.913 736.242C186.266 736.086 186.618 735.934 186.975 735.777V735.785Z" fill="#0B0D0A"/>
<path d="M156.542 523.328C156.422 527.714 156.314 532.099 156.177 536.484C156.149 537.427 156.129 538.394 155.897 539.297C155.768 539.798 155.203 540.191 154.838 540.633C154.505 540.107 153.872 539.569 153.892 539.056C153.98 536.921 154.329 534.803 154.465 532.669C154.666 529.543 154.77 526.41 154.914 523.28C154.882 520.115 154.846 516.945 154.814 513.78C154.63 513.679 154.441 513.579 154.257 513.479C152.669 514.253 150.989 514.879 149.517 515.83C146.57 517.732 143.387 519.036 139.999 519.75C137.132 520.356 134.417 520.059 132.569 517.246C131.246 515.232 131.322 513.009 132.97 511.196C135.797 508.091 139.353 506.594 143.515 506.626C147.112 506.654 150.56 507.332 153.487 509.443C157.188 503.713 162.653 501.647 169.149 502.048C174.173 502.361 177.797 507.216 176.975 512.042C176.699 513.679 175.837 514.634 174.237 515.007C170.893 515.786 167.521 515.93 164.104 515.641C161.218 515.397 158.503 514.71 155.945 512.624C156.157 516.428 156.346 519.878 156.538 523.328H156.542Z" fill="#80BA64"/>
<path d="M79.0125 666.424C79.0926 665.854 79.1688 665.28 79.249 664.715C79.3733 664.695 79.4976 664.675 79.6219 664.655C79.5698 664.546 79.5177 664.438 79.4695 664.334C79.5457 663.9 79.6219 663.467 79.6981 663.03L79.7703 662.977L79.7181 662.901C79.7181 662.685 79.7141 662.464 79.7101 662.247C79.9266 661.645 80.2153 661.056 80.3396 660.434C80.7005 658.64 80.9972 656.831 81.318 655.026C81.318 654.921 81.318 654.817 81.318 654.713C81.306 654.432 81.2899 654.151 81.2779 653.87C81.3621 652.434 82.6131 651.78 83.3148 650.757C84.2009 649.461 84.8424 647.996 85.5922 646.604C85.7767 646.191 85.9651 645.782 86.1496 645.368C86.1496 644.281 86.1496 643.194 86.1496 642.107C85.9651 641.794 85.7807 641.481 85.5962 641.168C86.0172 640.875 86.4383 640.582 86.8593 640.293C87.1079 640.317 87.3525 640.341 87.601 640.365C89.7662 641.677 92.0838 642.103 94.5698 641.589C94.9747 641.613 95.3797 641.637 95.7847 641.657C96.1736 642.532 96.8111 642.512 97.5449 642.147C97.9619 642.195 98.3749 642.243 98.7919 642.291C99.1728 642.644 99.5497 642.993 100.015 643.427C99.5417 644.285 99.0164 645.172 98.5553 646.091C97.4286 648.333 96.6066 650.62 97.2722 653.212C97.6331 654.616 97.8135 656.065 98.0581 657.393C97.188 657.613 96.6387 657.754 96.0854 657.894C96.0052 658.031 95.921 658.171 95.8408 658.307C95.4439 658.933 94.8184 659.519 94.6901 660.197C93.8961 664.366 93.2105 668.558 92.4888 672.739C91.7029 672.723 90.8929 672.819 90.1351 672.671C86.8232 672.029 83.5273 671.291 80.2113 670.641C79.3493 670.472 79.0525 670.055 79.0806 669.216C79.1087 668.289 79.0445 667.359 79.0205 666.428L79.0125 666.424Z" fill="#0B0D0A"/>
<path d="M69.6742 717.406C68.5555 717.626 67.4328 717.843 66.3141 718.06C64.3534 714.244 63.3269 710.336 65.1112 706.144C66.282 703.391 68.2748 701.329 70.6726 699.628C71.4023 699.11 72.1842 698.661 72.942 698.184C72.6493 700.394 72.4288 702.617 72.0438 704.812C71.3061 709.016 70.4681 713.209 69.6742 717.406Z" fill="#FC6F22"/>
<path d="M91.5063 715.143C91.7749 715.885 91.9754 716.659 92.3242 717.358C94.5616 721.807 96.8351 726.236 99.0845 730.678C99.2368 730.975 99.2649 731.336 99.3531 731.665C98.7276 731.709 98.1021 731.749 97.4726 731.789C94.6097 726.838 90.6442 723.043 85.5801 720.399C86.0131 716.916 86.4341 713.43 86.8912 709.947C86.9233 709.694 87.1719 709.297 87.3443 709.281C87.633 709.253 88.0099 709.414 88.2304 709.622C88.6755 710.043 89.0444 710.549 89.4413 711.018C89.5255 711.079 89.6137 711.139 89.6979 711.199C89.6979 711.331 89.6979 711.46 89.6979 711.592C89.7982 711.801 89.9024 712.009 90.0027 712.214C90.0267 712.29 90.0749 712.346 90.147 712.382L90.8968 713.803C90.9249 713.935 90.9489 714.072 90.977 714.204C91.1534 714.469 91.3259 714.738 91.5023 715.002L91.5063 715.135V715.143Z" fill="#FC6F22"/>
<path d="M120.432 735.276C117.833 734.321 116.53 732.054 115.4 729.835C113.307 725.727 111.518 721.462 109.558 717.285C108.736 715.536 107.797 713.839 106.911 712.118C105.941 709.903 104.991 707.68 103.992 705.482C102.38 701.931 100.761 698.384 99.0965 694.862C97.3043 691.066 95.4558 687.299 93.6154 683.527C93.5432 683.383 93.2986 683.323 93.1343 683.223C92.621 681.233 92.0436 679.255 91.6347 677.245C91.4943 676.55 91.783 675.772 91.8552 675.026C91.9314 674.231 91.763 673.734 90.7726 673.642C89.6058 673.533 88.459 673.2 87.3163 672.928C84.6419 672.286 81.9715 671.624 79.3011 670.97C79.0886 671.363 78.8761 671.752 78.6635 672.145C78.5593 672.847 78.451 673.545 78.3468 674.248C78.1664 674.761 77.9899 675.279 77.8095 675.792C77.7895 676.177 77.7654 676.567 77.7453 676.952C77.5609 677.566 77.3805 678.179 77.196 678.789C77.172 679.271 77.1479 679.752 77.1198 680.234C76.9073 679.913 76.6948 679.596 76.4863 679.275C76.5144 678.697 76.5425 678.123 76.5705 677.545C76.747 676.924 76.9234 676.302 77.0998 675.68C77.1239 675.299 77.1479 674.918 77.172 674.536C77.3524 673.818 77.5328 673.1 77.7133 672.382C77.7333 671.997 77.7574 671.612 77.7774 671.226C77.7935 671.03 77.8055 670.837 77.8215 670.641C77.8376 670.448 77.8536 670.255 77.8696 670.063C78.018 669.638 78.1704 669.208 78.3227 668.783C78.5513 667.993 78.7798 667.206 79.0044 666.416C79.0284 667.347 79.0926 668.273 79.0645 669.204C79.0405 670.039 79.3372 670.46 80.1952 670.629C83.5072 671.279 86.8031 672.017 90.119 672.659C90.8808 672.807 91.6868 672.711 92.4727 672.727C92.5248 672.807 92.597 672.847 92.6932 672.855C92.7213 673.654 92.8135 674.456 92.7573 675.251C92.593 677.602 93.1022 679.78 94.1246 681.899C95.6643 685.08 97.0877 688.314 98.5873 691.516C98.7477 691.857 99.0965 692.113 99.3532 692.41C100.444 694.942 101.526 697.482 102.633 700.005C103.708 702.453 104.806 704.888 105.905 707.319C105.957 707.436 106.133 707.496 106.254 707.58C108.126 711.708 109.999 715.837 111.871 719.965C112.918 722.272 113.94 724.587 115.023 726.878C115.36 727.592 115.845 728.23 116.262 728.904C116.334 729.177 116.366 729.466 116.482 729.719C117.525 731.958 119.425 733.326 121.434 734.581L120.42 735.276H120.432Z" fill="#B1B0AB"/>
<path d="M76.4903 679.279C76.7028 679.6 76.9153 679.916 77.1278 680.237C77.0837 680.924 77.1118 681.626 76.9755 682.296C76.6828 683.728 76.2618 685.132 75.9731 686.565C75.6082 688.386 75.2914 690.216 75.0027 692.049C74.69 694.027 74.4334 696.009 74.1527 697.991C74.1447 698.48 74.1327 698.97 74.1246 699.459C73.9362 699.873 73.7517 700.29 73.5633 700.703C73.459 701.806 73.3548 702.906 73.2505 704.009C73.1503 704.31 73.0541 704.611 72.9538 704.912C72.6531 707.223 72.4847 709.566 72.0196 711.841C71.5585 714.088 70.7927 716.27 70.1631 718.481C70.0028 718.124 69.8384 717.767 69.678 717.41C70.4719 713.213 71.3059 709.024 72.0477 704.816C72.4326 702.621 72.6531 700.398 72.9458 698.188C73.3187 695.688 73.6756 693.184 74.0725 690.689C74.5978 687.379 75.1311 684.073 75.7205 680.775C75.8167 680.249 76.2297 679.78 76.4943 679.283L76.4903 679.279Z" fill="#C8C8C8"/>
<path d="M81.2738 653.866C81.2858 654.147 81.3019 654.428 81.3139 654.709C81.3139 654.813 81.3139 654.917 81.3139 655.022C80.9931 656.827 80.6964 658.632 80.3355 660.43C80.2112 661.052 79.9185 661.637 79.702 662.243C79.5978 661.93 79.4895 661.617 79.3853 661.304C79.1326 660.121 78.876 658.937 78.6234 657.758C78.5112 656.679 78.3989 655.603 78.2866 654.524C78.9161 653.276 80.0829 654.139 80.953 653.842C81.0573 653.854 81.1655 653.862 81.2698 653.874L81.2738 653.866Z" fill="#14B953"/>
<path d="M218.988 755.119C219.489 754.846 219.99 754.333 220.492 754.333C224.505 754.329 228.515 754.421 232.529 754.481C235.115 754.501 237.701 754.521 240.291 754.542C240.207 754.826 240.127 755.111 240.043 755.396C236.558 755.332 233.074 755.256 229.589 755.208C226.057 755.159 222.521 755.143 218.988 755.111V755.119Z" fill="#6E6E6E"/>
<path d="M181.414 738.317C181.133 738.413 180.853 738.509 180.572 738.606C180.355 738.702 180.139 738.798 179.922 738.89C179.529 738.991 179.136 739.095 178.743 739.195C178.531 739.296 178.318 739.392 178.11 739.492C177.617 739.592 177.128 739.693 176.634 739.793C176.326 739.909 176.013 740.026 175.704 740.138C175.411 740.194 175.119 740.25 174.826 740.307C174.818 740.13 174.81 739.958 174.802 739.781C177.557 738.802 180.323 737.859 183.058 736.824C184.116 736.423 185.099 735.809 186.113 735.296C186.137 735.432 186.165 735.564 186.193 735.701C186.101 735.881 186.009 736.062 185.917 736.246C185.632 736.327 185.347 736.407 185.063 736.487C184.842 736.624 184.626 736.76 184.405 736.896C184.237 736.961 184.064 737.025 183.896 737.089C183.575 737.29 183.254 737.486 182.934 737.687C182.657 737.795 182.384 737.903 182.108 738.012C181.879 738.112 181.646 738.212 181.418 738.313L181.414 738.317Z" fill="#B1B0AB"/>
<path d="M100.524 733.847C100.636 733.763 100.752 733.675 100.865 733.59C101.566 735.115 102.276 736.632 102.954 738.168C102.994 738.26 102.753 738.473 102.645 738.634C101.939 737.037 101.234 735.444 100.524 733.847Z" fill="#C8C8C8"/>
<path d="M79.3893 661.296C79.4935 661.609 79.6018 661.922 79.7061 662.235C79.7061 662.452 79.7101 662.673 79.7141 662.889L79.6539 662.945L79.694 663.018C79.6178 663.451 79.5417 663.884 79.4695 664.317C79.3652 664.35 79.261 664.386 79.1567 664.418C79.2329 663.375 79.3091 662.331 79.3893 661.288V661.296Z" fill="#B1B0AB"/>
<path d="M273.246 771.601C273.707 771.573 274.164 771.541 274.626 771.513C274.076 771.717 273.523 771.922 272.974 772.127C273.066 771.95 273.158 771.778 273.25 771.601H273.246Z" fill="#C8C8C8"/>
<path d="M249.706 767.653C250.243 768.03 250.784 768.407 251.326 768.78C250.788 768.403 250.247 768.03 249.706 767.653Z" fill="#C8C8C8"/>
<path d="M185.917 736.25C186.009 736.07 186.101 735.885 186.194 735.705C186.454 735.733 186.715 735.757 186.975 735.785C186.623 735.941 186.27 736.094 185.913 736.25H185.917Z" fill="#9F9F9D"/>
<path d="M285.576 765.182C285.808 764.953 286.041 764.724 286.269 764.496C286.037 764.724 285.804 764.953 285.576 765.182Z" fill="#C8C8C8"/>
<path d="M79.1567 664.426C79.261 664.394 79.3652 664.358 79.4695 664.326C79.5176 664.434 79.5697 664.542 79.6219 664.651C79.4976 664.671 79.3733 664.695 79.249 664.711C79.2209 664.614 79.1888 664.522 79.1607 664.426H79.1567Z" fill="#14B953"/>
<path d="M95.8328 658.3C95.913 658.163 95.9972 658.023 96.0774 657.886C97.3484 658.384 98.6957 658.749 99.8785 659.407C101.47 660.294 102.81 661.774 104.478 662.344C107.236 663.283 110.163 663.728 113.034 664.322C119.137 665.581 125.235 666.885 131.37 667.993C133.106 668.306 135.043 668.354 136.735 667.921C141.454 666.713 144.57 663.668 145.656 658.825C146.875 653.401 144.036 647.892 139.093 645.689C136.583 644.574 133.736 644.165 131.001 643.615C125.091 642.428 119.129 641.473 113.239 640.197C109.04 639.29 105.147 639.507 101.454 641.862C101.009 642.147 100.267 641.97 99.666 642.01C104.77 636.269 110.656 631.443 116.963 627.097C118.226 626.227 119.449 625.296 120.692 624.397C122.641 623.306 124.606 622.239 126.538 621.115C129.469 619.41 132.681 618.5 135.989 618.078C145.42 616.871 154.433 618.395 162.966 622.624C164.117 623.194 165.247 623.799 166.386 624.389C167.268 625.18 168.158 625.962 169.032 626.76C172.188 629.641 174.493 632.991 174.938 637.388C175.355 641.525 174.06 645.22 171.903 648.626C167.424 655.692 161.177 660.875 153.916 664.819C140.656 672.013 126.554 676.065 111.342 675.395C108.527 675.271 105.692 674.637 102.95 673.907C99.4414 672.976 96.4503 671.074 94.241 668.101C94.7742 664.835 95.3075 661.569 95.8408 658.3H95.8328Z" fill="#FCB601"/>
<path d="M112.284 622.632C107.753 622.58 103.295 622.074 99.0645 620.413C97.4646 619.783 95.9009 618.868 94.5737 617.777C90.8087 614.676 91.2658 609.231 93.431 605.877C94.4694 604.268 95.3556 602.732 95.6443 600.746C96.2136 596.798 98.6835 594.022 102.1 592.22C107.32 589.464 112.878 588.561 118.619 590.242C125.728 592.328 129.421 597.665 131.266 604.437C132.966 610.684 130.961 616.533 125.608 620.064C123.639 621.364 120.961 621.701 118.543 622.162C116.502 622.552 114.373 622.491 112.284 622.632Z" fill="#FC6F22"/>
<path d="M120.684 624.393C119.441 625.296 118.219 626.223 116.955 627.093C110.648 631.438 104.762 636.265 99.658 642.006C99.3653 642.098 99.0766 642.191 98.7839 642.283C98.3669 642.235 97.9539 642.187 97.5369 642.139C96.9515 641.974 96.3621 641.814 95.7767 641.649C95.3717 641.625 94.9667 641.601 94.5618 641.581C92.2402 641.172 89.9186 640.766 87.5931 640.357C87.3445 640.333 87.0999 640.309 86.8513 640.285C86.1015 639.607 85.2394 639.013 84.63 638.227C83.5273 636.815 82.4447 635.43 80.7286 634.724C80.6725 634.664 80.6123 634.612 80.5482 634.564C80.4319 634.528 80.3116 634.496 80.1953 634.459C79.209 633.898 78.2266 633.336 77.2402 632.778C77.3846 630.251 77.5089 627.723 77.6973 625.2C77.7214 624.903 78.0983 624.63 78.3108 624.345C79.9066 624.369 81.5025 624.409 83.0983 624.409C95.6283 624.409 108.154 624.397 120.684 624.389V624.393Z" fill="#14B953"/>
<path d="M137.116 577.732C139.995 577.732 142.36 580.088 142.372 582.968C142.388 585.853 140.051 588.236 137.176 588.268C134.237 588.3 131.819 585.897 131.843 582.956C131.863 580.075 134.233 577.732 137.116 577.732Z" fill="#0B0D0A"/>
<path d="M117.93 572.621C120.805 572.645 123.15 575.02 123.142 577.901C123.134 580.778 120.776 583.145 117.902 583.153C114.967 583.165 112.569 580.737 112.617 577.793C112.661 574.916 115.047 572.593 117.934 572.617L117.93 572.621Z" fill="#0B0D0A"/>
<path d="M181.703 666.284C182.296 666.849 182.721 667.254 183.214 667.724C181.891 669.172 180.608 670.5 179.417 671.905C178.383 673.124 178.222 674.52 179.012 675.949C179.718 677.225 180.865 677.662 182.28 677.634C184.265 677.594 186.246 675.058 184.967 672.767C184.237 673.449 183.539 674.103 182.717 674.869C182.256 674.448 181.795 674.031 181.177 673.465C182.453 672.097 183.659 670.797 184.854 669.517C187.485 670.757 188.287 674.544 186.859 676.968C185.279 679.648 182.036 680.607 179.325 679.154C176.627 677.71 175.572 674.36 176.987 671.676C177.22 671.239 177.481 670.797 177.813 670.432C179.052 669.072 180.327 667.744 181.703 666.288V666.284Z" fill="#EAEBEA"/>
<path d="M205.832 643.246C208.924 643.326 211.29 645.814 211.225 648.911C211.161 652.037 208.599 654.472 205.464 654.396C202.436 654.319 200.018 651.772 200.063 648.707C200.107 645.589 202.669 643.166 205.832 643.25V643.246ZM205.62 645.344C203.671 645.356 202.112 646.969 202.164 648.915C202.212 650.757 203.824 652.305 205.68 652.289C207.565 652.273 209.092 650.741 209.112 648.847C209.136 646.861 207.609 645.328 205.62 645.34V645.344Z" fill="#FEFEFE"/>
<path d="M197.46 652.265C200.548 652.357 202.901 654.853 202.821 657.954C202.737 661.08 200.167 663.503 197.031 663.407C194.004 663.314 191.594 660.751 191.663 657.685C191.731 654.564 194.289 652.169 197.46 652.265ZM197.208 654.363C195.251 654.384 193.707 655.984 193.76 657.942C193.808 659.776 195.44 661.332 197.288 661.308C199.173 661.284 200.696 659.748 200.708 657.858C200.724 655.864 199.197 654.343 197.204 654.363H197.208Z" fill="#FEFEFE"/>
<path d="M195.255 665.092C195.804 665.682 196.205 666.111 196.67 666.608C194.774 668.899 192.978 671.154 189.622 670.653C187.336 670.312 185.78 668.959 185.111 666.777C184.064 663.367 186.169 661.24 188.515 659.062C188.996 659.479 189.453 659.88 190.031 660.382C189.369 661.136 188.788 661.798 188.202 662.46C186.67 664.189 186.642 666.295 188.138 667.66C189.601 669 191.606 668.839 193.198 667.246C193.828 666.612 194.433 665.958 195.259 665.096L195.255 665.092Z" fill="#EAEBEA"/>
<path d="M95.8328 658.299C95.2995 661.565 94.7662 664.835 94.2329 668.101C93.9482 669.148 93.6876 670.203 93.3668 671.238C93.1944 671.796 92.9258 672.318 92.7012 672.859C92.605 672.859 92.5328 672.815 92.4807 672.735C93.2024 668.55 93.8841 664.362 94.682 660.193C94.8103 659.515 95.4358 658.929 95.8328 658.303V658.299Z" fill="#3A3A3A"/>
<path d="M153.495 741.366C151.021 740.933 148.443 740.796 146.097 739.994C142.661 738.818 139.389 737.169 136.045 735.721C136.057 735.58 136.069 735.436 136.081 735.296C141.454 738.525 147.408 739.946 153.503 740.941C153.503 741.085 153.499 741.225 153.495 741.37V741.366Z" fill="#9F9F9D"/>
<path d="M153.495 741.366C153.495 741.221 153.499 741.081 153.503 740.936C158.692 741.31 163.872 741.43 169.044 740.708C170.76 740.467 172.489 740.323 174.213 740.134C174.213 740.222 174.213 740.315 174.217 740.403L174.121 740.459L174.012 740.435C173.575 740.555 173.134 740.676 172.697 740.8C171.955 740.888 171.21 740.973 170.464 741.061C170.007 741.153 169.55 741.249 169.092 741.342C168.884 741.39 168.671 741.434 168.463 741.482C167.978 741.51 167.493 741.542 167.007 741.57C166.165 741.606 165.323 741.643 164.481 741.679C162.461 741.679 160.44 741.671 158.415 741.667C157.465 741.631 156.518 741.598 155.568 741.562C155.083 741.53 154.602 741.502 154.117 741.47C153.908 741.438 153.696 741.402 153.487 741.37L153.495 741.366Z" fill="#B1B0AB"/>
<path d="M136.081 735.296C136.069 735.436 136.057 735.58 136.045 735.721C135.456 735.689 134.87 735.653 134.281 735.621C134.265 735.456 134.249 735.292 134.233 735.127C134.67 735.079 135.103 735.031 135.54 734.983C135.72 735.087 135.901 735.191 136.081 735.296Z" fill="#B1B0AB"/>
<path d="M174.221 740.403C174.221 740.315 174.217 740.222 174.217 740.134C174.413 740.018 174.61 739.905 174.806 739.789C174.814 739.966 174.822 740.138 174.83 740.315C174.626 740.347 174.425 740.375 174.221 740.407V740.403Z" fill="#9F9F9D"/>
<path d="M68.3911 750.642C69.2892 751.946 72.3887 753.017 74.0005 752.58C77.6974 751.577 80.019 748.515 80.5121 744.712C80.9131 741.594 81.7832 738.537 82.4448 735.452C85.9813 738.313 87.2443 742.204 86.711 746.489C85.9973 752.235 82.529 756.7 76.4143 758.297C69.7824 760.026 62.946 757.438 59.9508 750.517C57.3205 744.435 59.0607 737.045 65.7086 733.197C66.5026 732.736 67.2243 732.15 67.9781 731.62C68.0342 731.837 68.0904 732.058 68.1465 732.274C67.938 732.976 67.7295 733.675 67.521 734.377C67.505 734.938 67.4889 735.504 67.4729 736.066C67.2844 736.908 67.096 737.747 66.9035 738.589C66.8434 739.099 66.7832 739.604 66.7231 740.114C66.5507 740.816 66.3783 741.518 66.2058 742.216C66.1698 742.714 66.1377 743.215 66.1016 743.713C65.6084 744.9 65.2676 746.088 66.0976 747.276C66.1256 747.476 66.1497 747.673 66.1778 747.873C66.4063 748.222 66.6349 748.571 66.8634 748.921L68.3871 750.638L68.3911 750.642Z" fill="#9F9F9D"/>
<path d="M67.4768 736.07C67.4928 735.508 67.5088 734.943 67.5249 734.381C67.7334 733.679 67.9419 732.981 68.1504 732.278C68.0942 732.062 68.0381 731.841 67.982 731.625C68.1022 731.047 68.2225 730.469 68.3428 729.891C68.4912 729.683 68.6355 729.478 68.7839 729.269L68.5954 728.567C68.6636 728.11 68.7278 727.653 68.7959 727.199C69.0565 726.317 69.3613 725.446 69.5497 724.547C69.6339 724.146 69.4936 723.697 69.4535 723.267L69.646 722.349C69.7141 722.124 69.7823 721.903 69.8464 721.679C69.9467 720.611 70.0509 719.544 70.1512 718.477C70.7807 716.266 71.5465 714.084 72.0076 711.837C72.4767 709.558 72.6451 707.219 72.9419 704.908C73.0421 704.607 73.1383 704.306 73.2386 704.005C73.3428 702.902 73.4471 701.803 73.5473 700.699C73.7358 700.286 73.9202 699.869 74.1087 699.456C74.1167 698.966 74.1287 698.477 74.1367 697.987C75.1431 697.586 76.1896 697.269 77.1439 696.771C79.261 695.668 81.9875 696.816 82.998 698.043C84.4294 699.785 84.4775 702.497 83.1584 704.146C81.3981 706.348 78.9402 706.79 76.5224 705.401C76.0894 705.153 75.516 705.149 75.0429 705.036C75.0429 706.91 75.0269 708.467 75.0429 710.023C75.0629 711.801 75.7967 712.824 77.1399 713.012C78.3709 713.185 80.0469 712.005 80.4398 710.673C80.5641 710.244 80.7045 709.807 80.7325 709.365C80.8208 707.889 81.4944 707.66 82.6692 708.382C82.0036 714.324 80.2955 715.416 73.4992 713.959C73.4992 715.207 73.5192 716.403 73.4952 717.598C73.4671 718.934 73.3067 720.274 73.3709 721.606C73.415 722.573 73.5834 723.857 74.9106 723.693C75.8849 723.572 77.0357 723.055 77.6612 722.328C78.6516 721.181 78.0782 719.327 76.7269 718.541C76.5786 719.014 76.35 719.468 76.3019 719.937C76.2217 720.76 75.7807 720.96 75.079 720.792C74.3252 720.611 73.9964 720.206 74.253 719.368C74.6058 718.232 74.8544 717.061 75.1391 715.937C77.6933 715.147 80.7686 719.095 80.0629 721.594C79.265 724.411 77.2121 726.016 74.9226 725.659C73.3388 725.41 73.2466 726.541 73.2386 727.632C73.2145 731.837 73.2265 736.046 73.2225 740.251C72.6251 740.303 72.0317 740.355 71.4342 740.411C70.8328 739.853 70.5922 740.086 70.5722 740.804C70.3717 740.913 70.1712 741.021 69.9707 741.129C69.0004 740.772 68.5874 741.189 68.6476 742.465C68.6035 742.582 68.5593 742.694 68.5152 742.81C68.399 743.011 68.2827 743.207 68.1704 743.408C68.1624 744.503 68.1544 745.595 68.1504 746.69C67.581 747.352 67.8937 747.553 68.5994 747.541L68.6235 747.613C68.2586 748.8 69.2049 749.246 69.9346 749.623C70.6965 750.012 71.6227 750.064 72.4487 750.345C72.7454 750.445 72.9619 750.782 73.2145 751.015C72.9419 751.28 72.6131 751.805 72.4086 751.761C71.0453 751.456 69.7101 751.027 68.3669 750.642C67.8577 750.068 67.3525 749.494 66.8432 748.925C66.6147 748.576 66.3861 748.227 66.1576 747.878C66.1295 747.677 66.1055 747.48 66.0774 747.28C66.0774 746.092 66.0774 744.905 66.0814 743.717C66.1175 743.219 66.1496 742.718 66.1816 742.22C67.2442 741.739 67.0156 740.941 66.6989 740.118C66.759 739.609 66.8192 739.103 66.8793 738.594C67.0678 737.751 67.2562 736.912 67.4487 736.07H67.4768ZM82.2722 701.437C82.2722 699.46 81.1896 698.312 79.3171 698.296C77.4046 698.28 76.2538 699.431 76.2658 701.337C76.2779 703.171 77.4046 704.298 79.245 704.306C81.1014 704.314 82.2762 703.203 82.2762 701.437H82.2722Z" fill="#FEFEFE"/>
<path d="M86.1616 710.918C86.1697 710.621 86.1777 710.324 86.1857 710.023C86.4824 709.121 86.7831 708.222 87.0798 707.319C88.1544 708.37 89.6019 709.181 89.4375 711.022C89.0365 710.553 88.6717 710.047 88.2266 709.626C88.0061 709.417 87.6292 709.257 87.3405 709.285C87.164 709.301 86.9195 709.702 86.8874 709.951C86.4343 713.434 86.0093 716.92 85.5762 720.403C85.1632 720.848 84.7462 721.297 84.3333 721.747C84.3533 721.249 84.3693 720.748 84.3894 720.25C84.5658 719.741 84.7422 719.231 84.9227 718.717C84.9387 717.823 84.9547 716.928 84.9708 716.037C85.1592 715.331 85.3477 714.621 85.5361 713.915C85.5482 713.522 85.5642 713.125 85.5762 712.731C85.7727 712.126 85.9652 711.524 86.1616 710.918Z" fill="#9F9F9D"/>
<path d="M69.4576 723.267C69.4977 723.697 69.6381 724.146 69.5539 724.547C69.3614 725.446 69.0567 726.316 68.8 727.199C69.0206 725.887 69.2411 724.579 69.4616 723.267H69.4576Z" fill="#9F9F9D"/>
<path d="M83.0742 729.085C83.2186 728.443 83.3669 727.801 83.5113 727.155C83.3669 727.797 83.2186 728.439 83.0742 729.085Z" fill="#9F9F9D"/>
<path d="M83.7036 725.349C83.8319 724.856 83.9602 724.363 84.0925 723.869C83.9642 724.363 83.8359 724.856 83.7036 725.349Z" fill="#9F9F9D"/>
<path d="M68.7838 729.269C68.6355 729.478 68.4911 729.683 68.3428 729.891C68.3268 729.711 68.3107 729.53 68.2947 729.35C68.4591 729.326 68.6235 729.297 68.7838 729.273V729.269Z" fill="#EAEBEA"/>
<path d="M68.7838 729.269C68.6195 729.293 68.4551 729.322 68.2947 729.346C68.3949 729.085 68.4952 728.828 68.5994 728.567C68.6636 728.8 68.7237 729.037 68.7879 729.269H68.7838Z" fill="#9F9F9D"/>
<path d="M84.1808 723.34C84.0605 723.227 83.9362 723.115 83.8159 723.003C83.9683 722.866 84.1166 722.73 84.269 722.593C84.2409 722.842 84.2129 723.091 84.1848 723.34H84.1808Z" fill="#9F9F9D"/>
<path d="M69.8545 721.678C69.7864 721.903 69.7182 722.124 69.6541 722.349C69.7222 722.124 69.7904 721.903 69.8545 721.678Z" fill="#9F9F9D"/>
<path d="M253.25 751.284C253.25 747.252 253.206 743.215 253.278 739.183C253.298 738.084 253.655 736.993 253.86 735.897C249.265 735.873 244.674 735.789 240.143 734.87C239.826 735.159 239.505 735.448 239.184 735.741C240.171 735.817 241.157 735.893 242.496 735.994C242.087 737.181 241.787 738.272 241.346 739.304C240.047 742.329 237.757 743.452 234.441 743.444C199.838 743.368 165.235 743.396 130.628 743.408C130.059 743.408 129.489 743.617 128.92 743.733C128.8 743.753 128.679 743.773 128.559 743.797C128.343 743.869 128.13 743.938 127.914 744.01C127.713 743.877 127.513 743.749 127.308 743.617L126.939 743.589C126.578 743.408 126.214 743.227 125.853 743.047C125.492 742.842 125.131 742.638 124.774 742.433C124.526 742.261 124.273 742.088 124.024 741.911C123.808 741.711 123.595 741.51 123.379 741.31C123.106 740.981 122.829 740.656 122.557 740.327C122.581 740.222 122.545 740.146 122.449 740.098C122.18 740.09 121.911 740.082 121.647 740.074C121.414 739.083 121.177 738.092 120.945 737.097L120.676 736.479C120.592 736.078 120.512 735.673 120.428 735.271C117.829 734.317 116.526 732.05 115.396 729.831C113.303 725.723 111.514 721.458 109.554 717.281C108.732 715.532 107.793 713.835 106.907 712.114C105.937 709.899 104.987 707.676 103.988 705.478C102.376 701.927 100.757 698.38 99.0925 694.858C97.3002 691.062 95.4518 687.295 93.6114 683.523C93.5392 683.379 93.2946 683.319 93.1302 683.219C92.617 681.229 92.0396 679.251 91.6306 677.24C91.4903 676.546 91.779 675.768 91.8512 675.022C91.9273 674.227 91.7589 673.73 90.7686 673.638C89.6018 673.529 88.455 673.196 87.3123 672.923C84.6379 672.282 81.9675 671.62 79.2971 670.966C79.0845 671.359 78.872 671.748 78.6595 672.141C78.5553 672.843 78.447 673.541 78.3428 674.243C78.1623 674.757 77.9859 675.275 77.8055 675.788C77.7854 676.173 77.7654 676.562 77.7413 676.948C77.5569 677.561 77.3764 678.171 77.192 678.785C77.1679 679.267 77.1439 679.748 77.1198 680.23C77.0757 680.916 77.1038 681.618 76.9675 682.288C76.6748 683.72 76.2538 685.124 75.9651 686.557C75.6002 688.378 75.2834 690.208 74.9947 692.041C74.682 694.019 74.4254 696.001 74.1447 697.983C75.1511 697.582 76.1976 697.265 77.1519 696.767C79.269 695.664 81.9955 696.811 83.0059 698.039C84.4374 699.78 84.4855 702.493 83.1663 704.142C81.4061 706.344 78.9482 706.786 76.5304 705.397C76.0974 705.149 75.524 705.145 75.0509 705.032C75.0509 706.906 75.0348 708.463 75.0509 710.019C75.0709 711.797 75.8047 712.82 77.1479 713.008C78.3788 713.181 80.0549 712.001 80.4478 710.669C80.5721 710.24 80.7124 709.803 80.7405 709.361C80.8287 707.885 81.5023 707.656 82.6772 708.378C82.0116 714.32 80.3035 715.412 73.5072 713.955C73.5072 715.203 73.5272 716.399 73.5032 717.594C73.4751 718.93 73.3147 720.27 73.3789 721.602C73.423 722.569 73.5914 723.853 74.9186 723.689C75.8929 723.568 77.0436 723.051 77.6691 722.324C78.6595 721.177 78.0861 719.323 76.7349 718.537C76.5825 719.01 76.358 719.464 76.3099 719.933C76.2297 720.756 75.7886 720.956 75.087 720.788C74.3331 720.607 74.0044 720.202 74.261 719.363C74.6138 718.228 74.8624 717.057 75.1471 715.933C77.7012 715.143 80.7766 719.091 80.0709 721.59C79.273 724.407 77.2201 726.012 74.9306 725.654C73.3468 725.406 73.2546 726.537 73.2465 727.628C73.2225 731.833 73.2345 736.042 73.2305 740.246C74.3372 740.957 75.6964 741.462 76.4943 742.425C78.0541 744.315 77.6691 746.943 75.933 748.483C74.1527 750.06 71.2337 750.04 69.4815 748.435C69.1888 748.166 68.9121 747.881 68.6275 747.605C68.2626 748.792 69.2089 749.238 69.9386 749.615C70.7004 750.004 71.6267 750.056 72.4526 750.337C72.7493 750.437 72.9659 750.774 73.2185 751.007C72.9458 751.272 72.617 751.797 72.4125 751.753C71.0493 751.448 69.7141 751.019 68.3708 750.634C69.269 751.938 72.3684 753.009 73.9803 752.572C77.6772 751.569 79.9987 748.507 80.4919 744.704C80.8929 741.586 81.763 738.529 82.4246 735.444C82.4246 735.223 82.4286 735.007 82.4326 734.786C82.5849 733.643 82.7373 732.499 82.8897 731.356C82.9458 730.593 83.0019 729.835 83.0581 729.073C83.2024 728.431 83.3508 727.789 83.4951 727.143C83.5593 726.541 83.6234 725.939 83.6876 725.334L84.0765 723.853C84.1046 723.677 84.1367 723.5 84.1647 723.323L83.7999 722.986C83.9522 722.85 84.1006 722.714 84.2529 722.577C84.277 722.296 84.297 722.015 84.3211 721.735C84.3411 721.237 84.3572 720.736 84.3772 720.238C83.7477 719.448 84.0565 718.982 84.9065 718.706C84.9225 717.811 84.9386 716.916 84.9546 716.025C84.5336 715.155 84.2569 714.32 85.52 713.903L85.5601 712.719C85.0468 711.889 85.0188 711.211 86.1455 710.906L86.1695 710.011C85.7365 708.868 85.6042 707.825 87.0637 707.307C88.1383 708.358 89.5857 709.169 89.4213 711.01C89.5055 711.07 89.5937 711.131 89.6779 711.191C89.8063 711.299 89.9346 711.403 90.0629 711.512C90.0348 711.745 90.0107 711.977 89.9827 712.206C90.0067 712.282 90.0549 712.342 90.127 712.378C90.3756 712.852 90.6282 713.321 90.8768 713.795C90.9049 713.927 90.929 714.064 90.957 714.196C91.1334 714.461 91.3059 714.73 91.4823 714.994L91.4863 715.127C91.7549 715.869 91.9554 716.643 92.3042 717.341C94.5416 721.791 96.8151 726.22 99.0645 730.662C99.2168 730.958 99.2449 731.32 99.3331 731.649C99.726 732.375 100.115 733.101 100.508 733.827C100.62 733.743 100.736 733.655 100.849 733.57C101.55 735.095 102.26 736.612 102.938 738.148C102.978 738.24 102.737 738.453 102.629 738.614C103.651 740.604 104.67 742.59 105.692 744.58C106.178 745.426 106.743 746.241 107.14 747.131C108.712 750.678 111.743 752.66 115.135 753.787C119.742 755.324 124.618 755.276 129.449 755.051C129.646 755.051 129.842 755.055 130.043 755.059C130.456 755.163 130.865 755.356 131.278 755.36C136.699 755.384 142.12 755.384 147.541 755.372C147.918 755.372 148.291 755.22 148.667 755.135C150.973 755.115 153.274 755.099 155.58 755.079C157.785 755.079 159.991 755.083 162.196 755.087C176.875 755.135 191.554 755.183 206.233 755.224C206.474 755.224 206.719 755.143 206.963 755.099C210.969 755.099 214.974 755.099 218.976 755.103C219.477 754.83 219.978 754.317 220.48 754.317C224.493 754.313 228.503 754.405 232.516 754.465C235.103 754.485 237.689 754.505 240.279 754.53C240.913 754.618 241.546 754.782 242.18 754.786C246.105 754.81 250.026 754.81 253.952 754.786C254.413 754.786 254.87 754.582 255.331 754.473C253.939 754.011 253.242 752.943 253.242 751.272L253.25 751.284ZM81.5785 695.592C78.7357 695.552 76.5424 693.365 76.5585 690.585C76.5705 687.82 78.7317 685.674 81.5064 685.67C84.269 685.67 86.4622 687.905 86.4743 690.745C86.4863 693.245 84.0845 695.624 81.5785 695.588V695.592ZM133.154 754.867C133.487 754.846 133.824 754.834 134.157 754.822C133.824 754.834 133.487 754.85 133.154 754.867ZM138.78 754.782C138.01 754.786 137.24 754.782 136.47 754.786C137.24 754.786 138.01 754.786 138.78 754.782C138.695 754.682 138.611 754.534 138.527 754.421C138.611 754.534 138.7 754.682 138.78 754.782Z" fill="url(#paint0_linear_45_7722)"/>
<path d="M255.339 754.485C253.946 754.023 253.25 752.956 253.25 751.284C253.25 747.252 253.206 743.215 253.278 739.183C253.298 738.084 253.655 736.993 253.86 735.897C254.702 735.841 255.548 735.789 256.39 735.733C259.942 735.801 263.491 735.865 267.043 735.934C267.3 736.066 267.556 736.198 267.813 736.331C268.864 736.591 269.91 736.852 270.961 737.113C271.197 737.274 271.438 737.438 271.674 737.599C273.619 738.626 274.806 740.218 275.247 742.369L275.6 743.115C275.604 744.403 275.612 745.691 275.616 746.979C275.419 747.452 275.219 747.93 275.022 748.403C274.99 748.644 274.962 748.881 274.93 749.121C274.75 749.378 274.569 749.635 274.389 749.888C273.314 750.967 272.24 752.05 271.165 753.129C270.909 753.306 270.648 753.486 270.391 753.663C270.155 753.703 269.918 753.743 269.682 753.783C269.204 753.992 268.731 754.201 268.254 754.409C267.717 754.461 267.18 754.554 266.638 754.558C263.419 754.598 260.199 754.618 256.979 754.646C256.434 754.594 255.888 754.542 255.339 754.489V754.485Z" fill="#0B0D0A"/>
<path d="M256.979 754.646C260.199 754.618 263.419 754.598 266.638 754.558C267.176 754.55 267.713 754.461 268.254 754.409C268.731 754.201 269.205 753.992 269.682 753.783C269.918 753.743 270.155 753.703 270.391 753.663C270.648 753.486 270.909 753.31 271.165 753.129C272.24 752.05 273.314 750.967 274.389 749.888C274.569 749.631 274.75 749.378 274.934 749.121C274.966 748.88 274.994 748.644 275.027 748.403C275.223 747.93 275.423 747.452 275.624 746.979C275.62 745.691 275.612 744.403 275.608 743.115C275.492 742.866 275.371 742.618 275.255 742.369C274.814 740.218 273.627 738.626 271.682 737.598C271.446 737.438 271.205 737.273 270.969 737.113C269.918 736.852 268.872 736.591 267.821 736.331C267.565 736.198 267.308 736.066 267.055 735.933C263.503 735.865 259.95 735.801 256.402 735.733C257.356 733.422 259.497 732.623 261.574 731.893C266.31 730.232 270.772 731.151 274.75 733.992C277.344 735.849 278.916 738.497 279.77 741.687C281.105 746.662 279.67 750.806 276.514 754.509C274.71 756.624 272.32 757.779 269.585 758.542C265.339 759.725 261.646 758.618 258.098 756.503C257.553 756.178 257.352 755.28 256.991 754.642L256.979 754.646Z" fill="#9F9F9D"/>
<path d="M263.767 772.552C263.21 772.439 262.653 772.327 262.099 772.219C262.657 772.331 263.214 772.443 263.767 772.552Z" fill="#6E6E6E"/>
<path d="M80.1992 634.464C80.3154 634.5 80.4357 634.532 80.552 634.568C80.56 634.68 80.6202 634.736 80.7324 634.728C82.4486 635.435 83.5312 636.819 84.6338 638.231C85.2473 639.017 86.1053 639.611 86.8551 640.289C86.4341 640.582 86.0131 640.875 85.5921 641.164C85.7765 641.477 85.961 641.79 86.1454 642.103C86.1454 643.19 86.1454 644.277 86.1454 645.364C85.961 645.778 85.7725 646.187 85.5841 646.6C84.8383 647.992 84.1967 649.457 83.3066 650.753C82.6049 651.776 81.3539 652.43 81.2697 653.866C81.1615 653.858 81.0572 653.846 80.953 653.834C80.544 653.633 80.123 653.232 79.73 653.26C76.9634 653.461 74.2008 653.75 71.4381 654.007C71.2096 653.962 70.9811 653.918 70.7565 653.87C70.5761 653.718 70.4197 653.465 70.2152 653.421C67.8696 652.927 65.524 652.418 63.1583 652.021C62.1719 651.856 61.1415 651.952 60.131 651.932C59.8864 651.9 59.6459 651.872 59.4053 651.84C56.4542 650.64 53.443 649.754 50.1992 650.099C49.9707 650.055 49.7421 650.006 49.5136 649.962C48.5553 649.541 47.597 649.112 46.6307 648.703C45.4077 648.181 43.84 647.988 43.022 647.102C41.6467 645.613 40.7165 643.707 39.6619 641.938C39.3211 641.368 39.1768 640.678 38.9442 640.044C38.9362 639.511 38.9282 638.981 38.9202 638.448C39.5497 636.931 40.1431 635.398 40.8247 633.906C41.2016 633.083 41.7229 632.325 42.176 631.539C42.2161 631.503 42.2562 631.463 42.2923 631.422C42.3484 631.37 42.4085 631.322 42.4687 631.27C42.7253 631.033 42.9819 630.793 43.2385 630.556C44.3091 630.247 45.4037 629.99 46.4502 629.609C48.0501 629.027 49.6218 628.47 51.378 628.831C55.2473 629.633 59.1286 630.375 63.0019 631.162C65.7565 631.719 68.5031 632.345 71.2617 632.875C74.2329 633.445 77.22 633.938 80.1992 634.464Z" fill="#3A3A3A"/>
<path d="M80.1992 634.464C77.22 633.938 74.2329 633.445 71.2617 632.875C68.4991 632.345 65.7565 631.723 63.0019 631.162C59.1286 630.375 55.2473 629.633 51.378 628.831C49.6178 628.465 48.0501 629.027 46.4502 629.609C45.4037 629.99 44.3091 630.243 43.2385 630.556C44.3732 628.843 46.1214 628.217 47.9979 628.349C51.8672 628.622 55.7405 628.987 59.5737 629.569C63.5552 630.175 67.4887 631.077 71.4422 631.868C73.0019 632.181 74.5456 632.562 76.1053 632.863C76.4662 632.931 76.8632 632.811 77.2401 632.779C78.2264 633.34 79.2088 633.902 80.1952 634.46L80.1992 634.464Z" fill="#80BA64"/>
<path d="M38.9442 640.044C39.1768 640.678 39.3211 641.368 39.662 641.938C40.7165 643.707 41.6467 645.613 43.022 647.102C43.844 647.988 45.4077 648.185 46.6307 648.702C47.597 649.112 48.5513 649.545 49.5136 649.962C48.3548 649.838 47.0918 649.97 46.0533 649.553C42.192 648 39.678 645.192 38.832 641.035C38.7678 640.722 38.9001 640.373 38.9402 640.04L38.9442 640.044Z" fill="#80BA64"/>
<path d="M60.135 651.936C61.1454 651.956 62.1759 651.86 63.1623 652.024C65.5279 652.422 67.8736 652.931 70.2192 653.425C70.4237 653.469 70.5801 653.718 70.7605 653.874C68.5271 653.593 66.2858 653.381 64.0725 653.007C62.7372 652.783 61.4462 652.305 60.139 651.94L60.135 651.936Z" fill="#80BA64"/>
<path d="M71.4422 654.006C74.2049 653.746 76.9675 653.461 79.7341 653.26C80.1271 653.232 80.5481 653.633 80.9571 653.834C80.083 654.127 78.9202 653.268 78.2867 654.516C76.5144 654.552 74.7381 654.636 72.9659 654.596C72.4527 654.584 71.9475 654.215 71.4382 654.01L71.4422 654.006Z" fill="#80BA64"/>
<path d="M50.2034 650.103C53.4471 649.758 56.4584 650.644 59.4094 651.844C57.2924 651.531 55.1713 651.258 53.0662 650.889C52.0959 650.721 51.1577 650.372 50.2034 650.103Z" fill="#80BA64"/>
<path d="M42.1801 631.539C41.723 632.325 41.2017 633.083 40.8288 633.906C40.1472 635.398 39.5538 636.931 38.9242 638.448C38.4311 635.398 39.7222 633.192 42.1801 631.539Z" fill="#80BA64"/>
<path d="M42.4687 631.266C42.4085 631.318 42.3524 631.37 42.2922 631.418C42.3203 631.33 42.3764 631.278 42.4687 631.266Z" fill="#80BA64"/>
<path d="M134.233 735.127C134.249 735.292 134.265 735.456 134.281 735.62C130.913 735.653 127.549 735.709 124.181 735.689C123.7 735.689 123.218 735.296 122.737 735.083C126.566 735.099 130.4 735.115 134.229 735.127H134.233Z" fill="#9F9F9D"/>
<path d="M158.423 741.663C160.444 741.663 162.465 741.671 164.489 741.675C162.469 741.675 160.448 741.667 158.423 741.663Z" fill="#9F9F9D"/>
<path d="M122.453 740.098C122.184 740.09 121.915 740.082 121.651 740.074C121.418 739.083 121.186 738.092 120.949 737.101C121.041 737.077 121.133 737.065 121.226 737.069C121.635 738.08 122.044 739.087 122.453 740.098Z" fill="#9F9F9D"/>
<path d="M121.446 734.581C121.606 734.698 121.767 734.814 121.927 734.93C121.663 735.452 121.398 735.97 121.137 736.491C120.985 736.491 120.833 736.483 120.68 736.479C120.596 736.078 120.516 735.673 120.432 735.271C120.768 735.039 121.109 734.81 121.446 734.577V734.581Z" fill="#9F9F9D"/>
<path d="M172.701 740.796C173.138 740.676 173.579 740.555 174.016 740.431C173.579 740.551 173.138 740.672 172.701 740.796Z" fill="#9F9F9D"/>
<path d="M120.684 736.483C120.837 736.483 120.989 736.491 121.141 736.495C121.169 736.688 121.202 736.88 121.23 737.073C121.137 737.073 121.045 737.081 120.953 737.105C120.865 736.9 120.777 736.692 120.684 736.487V736.483Z" fill="#B1B0AB"/>
<path d="M175.704 740.142C176.013 740.026 176.326 739.909 176.634 739.797C176.326 739.913 176.013 740.03 175.704 740.142Z" fill="#9F9F9D"/>
<path d="M124.778 742.433C124.53 742.261 124.277 742.088 124.028 741.911C124.277 742.084 124.53 742.257 124.778 742.433Z" fill="#9F9F9D"/>
<path d="M178.11 739.492C178.323 739.392 178.535 739.296 178.744 739.195C178.531 739.296 178.319 739.392 178.11 739.492Z" fill="#9F9F9D"/>
<path d="M179.926 738.89C180.143 738.794 180.359 738.698 180.576 738.605C180.359 738.702 180.143 738.798 179.926 738.89Z" fill="#9F9F9D"/>
<path d="M128.563 743.793C128.347 743.865 128.134 743.934 127.918 744.006C127.882 743.829 127.85 743.657 127.813 743.48L128.563 743.793Z" fill="#222222"/>
<path d="M127.818 743.484C127.854 743.661 127.886 743.833 127.922 744.01C127.721 743.877 127.521 743.749 127.316 743.617C127.485 743.573 127.649 743.528 127.818 743.484Z" fill="#9F9F9D"/>
<path d="M98.7838 642.283C99.0765 642.191 99.3692 642.098 99.6579 642.006C100.259 641.97 101.001 642.147 101.446 641.862C105.139 639.507 109.036 639.29 113.23 640.197C119.121 641.473 125.083 642.427 130.993 643.615C133.724 644.165 136.574 644.57 139.084 645.689C144.032 647.892 146.867 653.405 145.648 658.825C144.562 663.668 141.446 666.713 136.727 667.92C135.035 668.354 133.098 668.306 131.362 667.993C125.231 666.885 119.133 665.585 113.026 664.321C110.155 663.728 107.228 663.282 104.469 662.344C102.797 661.774 101.458 660.293 99.8704 659.407C98.6876 658.749 97.3444 658.38 96.0693 657.886C96.6187 657.746 97.172 657.605 98.0421 657.385C97.7975 656.053 97.617 654.604 97.2562 653.204C96.5946 650.612 97.4126 648.325 98.5393 646.083C99.0004 645.164 99.5256 644.277 99.9988 643.418C99.5376 642.989 99.1567 642.636 98.7758 642.283H98.7838Z" fill="#3A3A3A"/>
<path d="M87.5972 640.357C89.9187 640.767 92.2403 641.172 94.5659 641.581C92.0799 642.095 89.7624 641.669 87.5972 640.357Z" fill="#3A3A3A"/>
<path d="M95.7805 641.649C96.3659 641.814 96.9553 641.974 97.5407 642.139C96.807 642.508 96.1695 642.524 95.7805 641.649Z" fill="#3A3A3A"/>
<path d="M79.6939 663.026L79.6538 662.949L79.7099 662.893L79.7661 662.969L79.6939 663.026Z" fill="#14B953"/>
<path d="M156.486 744.198C158.19 744.206 159.894 744.214 161.602 744.222C159.898 744.214 158.194 744.206 156.486 744.198Z" fill="#6E6E6E"/>
<path d="M90.1431 712.391C90.3917 712.864 90.6443 713.333 90.8929 713.807C90.6443 713.333 90.3917 712.86 90.1431 712.391Z" fill="#D0CFCE"/>
<path d="M90.079 711.524C90.051 711.757 90.0269 711.989 89.9988 712.218C89.8986 712.009 89.7943 711.805 89.6941 711.596C89.8224 711.572 89.9507 711.548 90.079 711.524Z" fill="#9F9F9D"/>
<path d="M90.079 711.524C89.9507 711.548 89.8224 711.572 89.6941 711.596C89.6941 711.464 89.6941 711.335 89.6941 711.203C89.8224 711.311 89.9507 711.416 90.079 711.524Z" fill="#D0CFCE"/>
<path d="M80.7327 634.724C80.6204 634.732 80.5603 634.676 80.5522 634.564C80.6164 634.612 80.6765 634.664 80.7327 634.724Z" fill="#80BA64"/>
<path d="M205.62 645.344C207.613 645.332 209.136 646.861 209.112 648.851C209.088 650.745 207.561 652.277 205.68 652.293C203.824 652.309 202.212 650.761 202.164 648.919C202.111 646.973 203.671 645.36 205.62 645.348V645.344Z" fill="#14B953"/>
<path d="M197.208 654.363C199.201 654.343 200.724 655.864 200.712 657.858C200.7 659.752 199.18 661.284 197.292 661.308C195.444 661.332 193.812 659.78 193.763 657.942C193.711 655.984 195.255 654.384 197.212 654.363H197.208Z" fill="#14B953"/>
<path d="M68.5432 742.814C68.5873 742.698 68.6314 742.585 68.6755 742.469C69.1166 742.024 69.5576 741.578 69.9987 741.137C70.1992 741.029 70.3997 740.92 70.6001 740.812L71.4622 740.419C72.0596 740.367 72.6531 740.315 73.2505 740.258C74.3571 740.969 75.7164 741.474 76.5143 742.437C78.0741 744.327 77.6891 746.955 75.953 748.495C74.1727 750.072 71.2537 750.052 69.5015 748.447C69.2088 748.178 68.9321 747.893 68.6475 747.617L68.6234 747.544C68.475 747.26 68.3227 746.975 68.1743 746.694C68.1823 745.599 68.1904 744.507 68.1944 743.412C68.3106 743.211 68.4269 743.015 68.5392 742.814H68.5432Z" fill="#0B0D0A"/>
<path d="M76.5584 690.585C76.5705 687.82 78.7316 685.674 81.5063 685.67C84.2689 685.67 86.4622 687.905 86.4742 690.745C86.4862 693.245 84.0845 695.624 81.5785 695.588C78.7357 695.548 76.5424 693.361 76.5584 690.581V690.585ZM81.5183 687.479C80.0388 687.479 78.3828 689.036 78.4069 690.404C78.4389 692.194 79.8704 693.702 81.5945 693.766C82.9899 693.818 84.6338 692.246 84.6699 690.821C84.714 689.064 83.2224 687.483 81.5183 687.479Z" fill="#FEFEFE"/>
<path d="M87.0798 707.319C86.7831 708.222 86.4824 709.121 86.1857 710.023C85.7526 708.88 85.6203 707.837 87.0798 707.319Z" fill="#D0CFCE"/>
<path d="M85.5361 713.911C85.3477 714.617 85.1592 715.327 84.9708 716.034C84.5498 715.163 84.2731 714.328 85.5361 713.911Z" fill="#D0CFCE"/>
<path d="M86.1615 710.918C85.965 711.524 85.7725 712.126 85.5761 712.732C85.0628 711.901 85.0348 711.223 86.1615 710.918Z" fill="#D0CFCE"/>
<path d="M84.9226 718.718C84.7462 719.227 84.5698 719.737 84.3893 720.25C83.7598 719.46 84.0686 718.994 84.9226 718.718Z" fill="#D0CFCE"/>
<path d="M66.1094 743.717C66.1094 744.904 66.1094 746.092 66.1054 747.28C65.2754 746.092 65.6162 744.904 66.1094 743.717Z" fill="#EAEBEA"/>
<path d="M67.4766 736.07C67.2881 736.912 67.0997 737.751 66.9072 738.593C67.0957 737.751 67.2841 736.912 67.4766 736.07Z" fill="#EAEBEA"/>
<path d="M66.727 740.118C67.0437 740.941 67.2723 741.739 66.2097 742.22C66.3821 741.518 66.5545 740.816 66.727 740.118Z" fill="#EAEBEA"/>
<path d="M82.2722 701.437C82.2722 703.207 81.1014 704.318 79.241 704.306C77.4046 704.298 76.2738 703.171 76.2618 701.337C76.2498 699.427 77.4005 698.28 79.3131 698.296C81.1856 698.312 82.2682 699.459 82.2682 701.437H82.2722Z" fill="#EAEBEA"/>
<path d="M69.9949 741.137C69.5538 741.582 69.1127 742.028 68.6717 742.469C68.6075 741.197 69.0245 740.776 69.9949 741.137Z" fill="#EAEBEA"/>
<path d="M71.4622 740.415L70.6001 740.808C70.6201 740.09 70.8607 739.857 71.4622 740.415Z" fill="#EAEBEA"/>
<path d="M68.1744 746.694C68.3228 746.979 68.4751 747.264 68.6235 747.544C67.9178 747.556 67.605 747.356 68.1744 746.694Z" fill="#EAEBEA"/>
<path d="M68.5433 742.814C68.427 743.015 68.3108 743.211 68.1985 743.412C68.3148 743.211 68.431 743.015 68.5433 742.814Z" fill="#EAEBEA"/>
<path d="M275.616 746.979C275.416 747.452 275.219 747.926 275.019 748.403C275.219 747.93 275.416 747.456 275.616 746.979Z" fill="#222222"/>
<path d="M274.926 749.121C274.746 749.378 274.565 749.631 274.381 749.888C274.561 749.631 274.742 749.378 274.926 749.121Z" fill="#222222"/>
<path d="M271.161 753.129C270.905 753.306 270.644 753.482 270.387 753.663C270.644 753.486 270.905 753.31 271.161 753.129Z" fill="#222222"/>
<path d="M267.043 735.933C267.3 736.066 267.556 736.198 267.809 736.331C267.552 736.198 267.296 736.066 267.043 735.933Z" fill="#3A3A3A"/>
<path d="M275.243 742.369C275.359 742.618 275.479 742.866 275.596 743.115C275.475 742.866 275.359 742.618 275.243 742.369Z" fill="#222222"/>
<path d="M81.5185 687.479C83.2225 687.479 84.7141 689.06 84.67 690.821C84.6339 692.246 82.99 693.818 81.5946 693.766C79.8705 693.702 78.4391 692.194 78.407 690.404C78.3829 689.036 80.0389 687.479 81.5185 687.479Z" fill="#EAEBEA"/>
<defs>
<linearGradient id="paint0_linear_45_7722" x1="68.3909" y1="713.181" x2="255.339" y2="713.181" gradientUnits="userSpaceOnUse">
<stop stop-color="white"/>
<stop offset="1"/>
</linearGradient>
</defs>
</svg>
