<svg width="85" height="100" viewBox="0 0 741 814" fill="none" xmlns="http://www.w3.org/2000/svg">
<g clip-path="url(#clip0_48_8365)">
<path d="M106.61 329.79C104.97 325.65 103.26 321.53 101.7 317.36C92.5999 292.93 92.9899 268.53 103.11 244.61C106.43 236.75 112.09 229.92 115.84 222.2C118.71 216.31 120.71 209.88 122.29 203.49C126.08 188.21 132.18 173.82 139.84 160.25C147.06 147.45 154.61 134.54 163.95 123.28C182.76 100.61 203.02 79.2 230.68 66.75C234.17 65.18 237.41 63.05 240.77 61.17C243.51 60.73 246.36 60.63 248.97 59.79C263.15 55.25 277.67 52.62 292.54 52.4C327.62 51.87 360.52 60.4 391.73 76.28C415.48 88.37 436.73 103.61 452.28 125.39C459.74 135.84 464.56 148.12 471.08 159.29C482.22 178.37 488.89 198.94 491.8 220.69C493.49 233.35 494.7 246.14 494.98 258.89C495.22 269.94 494.16 281.06 493.12 292.1C491.58 308.32 488.83 324.33 482.78 339.62C482.18 341.14 482.7 343.79 483.73 345.15C492.45 356.71 498.92 369.44 503.01 383.23C512.41 414.92 512.25 447.13 506.94 479.45C506.4 482.76 507.31 484.14 509.81 485.85C516.52 490.41 523.39 494.86 529.52 500.15C545.43 513.89 558.12 530.41 567.27 549.24C574.79 564.7 581.35 580.7 587.12 596.89C589.67 604.06 591.85 610.59 598.22 615.34C606.55 621.54 613.69 629.01 623.96 632.83C641.07 639.19 657.69 646.89 674.47 654.15C675.63 654.65 676.37 656.14 677.3 657.17C675.81 657.05 674.25 657.17 672.85 656.76C652.16 650.67 632.8 654.76 614.3 664.59C599.91 672.23 589.64 684.07 581.56 697.99C569.12 694.68 556.63 691.53 544.24 688.03C531.68 684.47 519.41 679.67 506.68 677.01C484.97 672.47 464.77 664.79 446.61 652.06C437.94 645.98 429.67 639.35 421.21 632.97C419.87 628.21 418.94 623.29 417.1 618.73C410.86 603.19 399.66 591.75 385.81 582.86C359.53 565.98 331.34 557.42 299.72 562.79C264.15 568.83 234.91 602.32 234.78 638.25C234.75 646.17 235.85 654.09 236.42 662.02C230.36 660.94 224.31 659.87 218.25 658.79C213.68 657.15 209.11 655.52 204.55 653.88C203.19 650.85 201.86 647.81 200.47 644.8C194.45 631.78 188.44 618.76 182.39 605.77C175.83 591.69 169.13 577.67 162.69 563.54C160.38 558.47 157.55 553.26 156.96 547.9C156.38 542.68 158.27 537.16 159.24 531.8C160.99 522.07 162.97 512.38 164.65 502.64C166.44 492.26 167.97 481.84 169.64 471.43C170.86 463.85 172.11 456.27 173.34 448.69C175.83 434.25 178.33 419.82 180.83 405.34C184.75 405.84 187.85 406.23 190.94 406.63C199.46 416.49 210.66 420.51 223.22 422.32C232.72 423.69 242.07 426.14 251.48 428.1C252.31 430.43 253.03 432.8 253.98 435.08C261.35 452.85 272.99 467.89 284.58 482.97L286.77 485.95C287.38 486.6 288 487.25 288.61 487.91C288.93 489.15 288.86 490.76 289.63 491.55C294.37 496.44 299 501.5 304.22 505.84C315.33 515.06 328.02 521.51 342.12 524.66C348.67 526.12 355.53 526.79 362.23 526.74C367.42 526.7 372.77 525.5 377.75 523.91C388.94 520.33 399.38 515.29 405.94 504.81C414.99 490.34 416.15 474.3 414.23 457.99C411.43 434.23 402.53 412.63 389.15 392.88C387.67 390.69 385.32 389.09 383.37 387.21C382.9 386.75 382.32 386.36 381.97 385.82C370.42 367.99 354.76 355.18 335.11 347.15C333.76 346.6 332.45 345.16 331.8 343.8C326.54 332.73 317.86 325.32 306.93 320.37C290.13 312.77 272.79 312.51 255.37 317.56C237.87 322.63 226.57 334.06 222.14 351.95C212.63 352.3 203.82 354.61 196.41 360.98C195.97 361.36 195.15 361.32 194.51 361.47C192.07 361.27 189.55 361.37 187.19 360.83C175.67 358.16 164.19 355.33 152.69 352.55C149.16 348.52 145.68 344.46 142.08 340.5C140.68 338.96 139.03 337.66 137.49 336.25C138.63 336.42 139.81 336.45 140.89 336.78C150.02 339.63 159.17 340.62 168.84 339.43C202.33 335.3 226.37 301.3 219.26 268.34C212.46 236.85 182.56 216.25 151.93 221.26C129.18 224.98 113.13 237.48 104.97 258.92C96.36 281.55 100.53 302.63 116.77 320.47C122.53 326.79 130.55 331.05 137.54 336.26C127.24 334.12 116.94 331.97 106.65 329.83L106.61 329.79ZM272.2 276.76C276.87 271.69 282.78 271.58 288.39 275.6C289.87 276.66 291.22 277.92 292.61 279.1C300.85 286.08 309.14 285.76 317.06 278.27C319.21 276.24 321.64 274.51 324.14 272.48V266.1C319.82 269.38 316.35 271.79 313.13 274.5C307.47 279.27 302.34 279.6 296.46 275.21C294.6 273.82 292.84 272.28 291.04 270.81C286.71 267.27 281.64 266.23 276.52 267.9C273.36 268.93 270.41 271.14 267.86 273.39C260.84 279.56 255.54 279.88 248.45 274.01C247.17 272.95 246.11 271.51 244.68 270.77C241.62 269.19 238.38 267.97 234.73 266.39V272.08C237.27 273.42 239.41 274.55 241.54 275.69C230.03 282.46 266.11 283.41 272.21 276.78L272.2 276.76ZM465.29 296.18C464.22 262.41 439.45 236.4 405.21 236.48C371.19 236.56 345.83 262.36 345.66 295.98C345.48 330.03 372.05 355.97 405.26 356.02C438.49 356.07 464.33 330.27 465.29 296.18ZM341.47 210.11C331.13 210.1 322.65 218.27 322.47 228.43C322.28 238.79 330.8 247.28 341.39 247.29C351.97 247.29 360.62 238.75 360.4 228.52C360.18 218.31 351.76 210.12 341.48 210.11H341.47ZM230.96 207.11C220.29 207 211.64 215.22 211.56 225.54C211.48 235.7 219.87 244.19 230.1 244.29C240.89 244.4 249.33 236.4 249.5 225.91C249.66 215.88 241.11 207.21 230.96 207.11Z" fill="#E3F9B8"/>
<path d="M677.28 657.15C676.35 656.12 675.61 654.64 674.45 654.13C657.67 646.87 641.05 639.18 623.94 632.81C613.67 628.99 606.53 621.52 598.2 615.32C591.82 610.57 589.65 604.05 587.1 596.87C581.34 580.68 574.77 564.68 567.25 549.22C558.1 530.4 545.41 513.87 529.5 500.13C523.38 494.84 516.51 490.39 509.79 485.83C507.28 484.13 506.37 482.74 506.92 479.43C512.23 447.11 512.39 414.91 502.99 383.21C498.9 369.42 492.43 356.69 483.71 345.13C482.69 343.77 482.16 341.12 482.76 339.6C488.81 324.31 491.57 308.31 493.1 292.08C494.15 281.04 495.2 269.92 494.96 258.87C494.68 246.12 493.48 233.33 491.78 220.67C488.87 198.92 482.2 178.35 471.06 159.27C464.54 148.11 459.72 135.82 452.26 125.37C436.71 103.59 415.46 88.35 391.71 76.26C360.49 60.37 327.6 51.85 292.52 52.38C277.65 52.6 263.13 55.24 248.95 59.77C246.34 60.61 243.49 60.71 240.75 61.15C238.07 35.96 256.01 15.3 277.19 6.72998C299.26 -2.21002 321.81 -1.83002 344.07 5.23998C355.37 8.82998 366.47 13.8 376.7 19.79C389.91 27.53 399.63 38.6 400.12 55.99C401.88 55.02 403.13 54.43 404.27 53.68C422.58 41.63 442.37 40.06 461.87 48.71C490.82 61.55 507.94 84.98 515.13 115.51C518.46 129.66 515.53 142.89 505.42 154.39C530.2 171.35 541.62 195.69 544.12 224.46C546.55 252.39 544.57 279.41 523 299.42C529.78 305.48 537.22 311.06 543.3 317.85C550.87 326.3 553.42 337.16 554.18 348.3C555.6 369.14 550.99 388.27 537.56 404.78C537.16 405.27 536.95 405.92 536.46 406.86C554.71 415.24 566.31 428.79 569.37 448.9C572.26 467.9 569.3 485.94 560.54 501.81C569.18 505.73 578.15 508.56 585.73 513.51C600.73 523.3 607.09 538.42 608.2 555.92C609.29 573.13 605.97 589.35 596.94 604.22C596.53 604.9 596.21 605.65 595.33 607.4C599.79 605.04 603.2 602.85 606.9 601.35C624.95 594.01 642.73 595.53 659.92 604.04C677.88 612.94 693.06 625.08 701.8 643.71C705.64 651.9 707.06 660.54 702.46 669.13C694.05 665.13 685.65 661.13 677.24 657.13L677.28 657.15Z" fill="#57B761"/>
<path d="M173.32 448.65C172.09 456.23 170.84 463.81 169.62 471.39C167.95 481.79 166.42 492.22 164.63 502.6C162.95 512.34 160.97 522.03 159.22 531.76C158.26 537.12 156.37 542.64 156.94 547.86C157.53 553.23 160.36 558.43 162.67 563.5C169.11 577.63 175.81 591.65 182.37 605.73C188.42 618.73 194.44 631.75 200.45 644.76C201.84 647.77 203.17 650.81 204.53 653.84C206.22 658.01 207.9 662.18 209.59 666.35C211.89 671.5 214.2 676.65 216.5 681.81C213.6 688.21 211.24 694.6 212.92 701.92C215.81 714.47 224.76 721.04 235.69 725.77C251.3 732.52 267.87 734.72 284.64 735.9C311.92 737.81 339.06 737.34 365.77 730.58C403.53 730.62 441.29 730.67 479.06 730.69C506.51 730.71 533.96 730.74 561.41 730.67C575.7 730.63 585.83 720.78 586.12 706.88C599.32 706.73 612.51 706.58 625.71 706.43C631.34 706.57 636.97 706.63 642.59 706.86C648.86 707.12 655.21 707.01 661.38 707.98C672.37 709.7 680.87 718.47 682.67 730.68C684.19 741.04 680.3 749.74 671.69 756.19C665.94 760.5 659.32 761.55 652.5 761.8C643.89 762.12 635.28 762.13 626.66 762.27C610.83 762.15 595 762.02 579.17 761.9C578.18 761.86 577.2 761.81 576.21 761.77C574.05 761.81 571.89 761.89 569.72 761.89C458.88 761.89 348.04 761.81 237.21 761.92C214.18 761.94 199.4 750.09 189.53 730.51C181.87 715.31 174.28 700.08 166.68 684.85C165.28 682.04 164 679.16 162.66 676.32C162.4 674.83 162.45 673.19 161.83 671.87C156.73 661.08 151.58 650.31 146.28 639.61C143.91 634.82 141.19 630.21 138.63 625.51C138.15 625.56 137.67 625.6 137.18 625.65C136.37 627.88 135.26 630.06 134.8 632.36C133.34 639.66 132.02 646.99 130.84 654.34C130.38 657.23 130.41 660.2 130.21 663.13C129.52 666.83 128.75 670.51 128.16 674.22C126.48 684.79 124.88 695.37 123.25 705.94C122.75 706.97 121.98 707.96 121.79 709.05C120.32 717.52 118.82 725.99 117.59 734.51C115.78 747.03 108.41 755.3 98.25 755.86C82.42 756.73 72.05 744.39 75.11 728.76C77.14 718.4 78.59 707.92 80.3 697.49C82.8 683.22 85.3 668.96 87.8 654.69C88.71 652.25 89.92 649.87 90.46 647.35C91.56 642.19 92.29 636.94 93.19 631.74C94.64 623.43 96.08 615.13 97.57 606.83C99.49 596.11 101.6 585.42 103.34 574.67C104.04 570.36 106.8 565.54 101.64 561.92C101.64 561.62 101.69 561.33 101.78 561.04C103.04 559.88 105.08 558.91 105.42 557.52C106.24 554.19 105.73 550.5 106.75 547.27C108.04 543.23 105.76 536.79 113.16 536.54C114.18 531.23 115.12 526.23 116.11 521.23C117.4 514.74 118.83 508.27 120 501.75C121.07 495.77 121.12 489.5 122.99 483.81C125.71 475.55 126.49 467.11 127.68 458.63C128.51 452.7 130.33 446.9 131.7 441.05C137.51 442.19 143.31 443.4 149.14 444.46C157.18 445.92 165.24 447.26 173.29 448.66L173.32 448.65ZM667.68 734.51C667.66 727.15 661.74 721.39 654.27 721.47C646.85 721.55 640.92 727.54 641.08 734.79C641.24 741.87 647.09 747.52 654.31 747.57C661.8 747.63 667.7 741.86 667.68 734.51ZM95.2 720.97C87.75 721.07 81.99 726.99 82.16 734.38C82.33 741.56 88.08 747.1 95.36 747.1C102.85 747.1 108.77 741.29 108.73 733.98C108.69 726.74 102.59 720.88 95.2 720.97Z" fill="#CBF8A6"/>
<path d="M87.84 654.7C85.34 668.97 82.84 683.23 80.34 697.5C62.53 703.77 51.83 723.6 56.04 742.53C59.9 759.87 75.75 773.14 93.42 773.8C112.12 774.5 128.71 762.88 133.98 745.4C138.32 730.99 133.64 713.72 123.29 705.95C124.92 695.38 126.52 684.8 128.2 674.23C128.79 670.52 129.56 666.84 130.25 663.14C132.09 663.65 134.25 663.7 135.71 664.74C141.74 669.01 147.56 673.57 153.46 678.03C176.69 703.52 183.23 732.42 170.25 764.73C158.36 794.32 129.03 812.7 97.16 813.79C64.33 814.91 32.56 793.96 20.24 764.27C4.37002 726.04 21.47 680.51 58.85 662.59C60.31 661.89 61.63 660.91 63.01 660.05C64.43 659.73 65.86 659.4 67.28 659.1C74.13 657.63 80.99 656.16 87.84 654.7Z" fill="#383838"/>
<path d="M579.18 761.9C595.01 762.02 610.84 762.15 626.67 762.27C627.54 763.25 628.3 764.38 629.31 765.19C645.97 778.44 671.83 775.98 685.18 759.91C699.61 742.54 697.57 718.46 680.41 703.69C664.81 690.26 638.71 691.57 625.72 706.43C612.52 706.58 599.33 706.73 586.13 706.88C583.38 706.8 580.63 706.73 577.89 706.65C579.11 703.75 580.33 700.85 581.54 697.96C589.61 684.04 599.88 672.2 614.28 664.56C632.78 654.74 652.14 650.64 672.83 656.73C674.23 657.14 675.79 657.02 677.28 657.14C685.69 661.14 694.09 665.14 702.5 669.14C702.77 669.36 703.04 669.59 703.32 669.81C706.32 672.52 709.4 675.15 712.29 677.97C721.14 686.56 726.91 697.13 731.6 708.38C735.63 721.84 736.57 735.54 734.04 749.34C727.35 785.84 693.87 813.2 656.73 813.66C621.77 814.1 597.36 797.64 580.47 768.2C579.74 766.93 579.44 765.42 578.94 764.02C579.02 763.31 579.1 762.6 579.19 761.89L579.18 761.9Z" fill="#383838"/>
<path d="M137.47 336.2C139.01 337.61 140.66 338.92 142.06 340.45C145.66 344.41 149.14 348.48 152.67 352.51C152.73 353.83 152.61 355.19 152.87 356.47C155.38 368.81 152.82 379.42 142.72 387.7C141.28 388.88 140.48 390.84 139.38 392.43C137.6 392.65 135.83 392.92 134.05 393.1C128.16 393.69 122.26 394.78 116.39 394.65C111.15 394.54 105.93 393.09 100.7 392.23C97.6901 391.52 94.7001 390.71 91.6701 390.12C74.4401 386.79 57.0701 384.06 40.0101 380.03C25.7401 376.67 18.0101 365.67 17.2301 351.95C16.4501 338.36 24.7001 326.59 37.5201 322.02C45.5901 319.14 53.4901 320.19 61.5501 321.67C75.8701 324.3 90.2101 326.77 104.54 329.31C105.23 329.47 105.93 329.63 106.62 329.79C116.92 331.93 127.22 334.08 137.52 336.22L137.48 336.2H137.47Z" fill="#363736"/>
<path d="M104.53 329.31C90.1999 326.77 75.8499 324.31 61.5399 321.67C53.4799 320.19 45.5799 319.14 37.5099 322.02C24.6899 326.6 16.4399 338.36 17.2199 351.95C18.0099 365.67 25.7399 376.67 39.9999 380.03C57.0599 384.05 74.4299 386.78 91.6599 390.12C94.6899 390.71 97.6799 391.52 100.69 392.23C90.6499 419.55 85.4999 447.79 84.5999 476.85C78.8199 471.19 72.4999 465.97 67.3699 459.77C58.8999 449.54 51.2799 438.62 43.1099 428.13C41.6799 426.29 39.5499 424.48 37.3899 423.79C13.8999 416.32 2.58992 399.51 0.289923 375.78C-2.10008 351.21 10.8199 328.31 33.3399 318.34C50.2099 310.87 67.5099 312.46 84.3099 318.81C91.3599 321.48 97.8099 325.76 104.53 329.3V329.31Z" fill="#57B660"/>
<path d="M84.6001 476.84C85.5001 447.78 90.6601 419.54 100.69 392.22C105.92 393.08 111.13 394.54 116.38 394.64C122.25 394.76 128.15 393.67 134.04 393.09C135.82 392.91 137.59 392.65 139.37 392.42C138.05 400.67 136.7 408.91 135.4 417.16C134.15 425.12 132.95 433.08 131.73 441.04C130.35 446.9 128.54 452.69 127.71 458.62C126.52 467.09 125.74 475.54 123.02 483.8C121.15 489.49 121.1 495.77 120.03 501.74C118.86 508.25 117.43 514.72 116.14 521.22C115.15 526.22 114.21 531.23 113.19 536.53C105.79 536.79 108.07 543.22 106.78 547.26C105.75 550.49 106.27 554.18 105.45 557.51C105.11 558.9 103.08 559.87 101.81 561.03C96.9901 544.85 91.2501 528.87 87.6501 512.43C85.1201 500.89 85.5101 488.72 84.6001 476.83V476.84Z" fill="#E3F9B8"/>
<path d="M87.8399 654.7C80.9799 656.17 74.1299 657.63 67.2799 659.1C65.8499 659.41 64.4299 659.73 63.0099 660.05C46.8999 644.38 44.8499 618.9 58.3399 600.94C65.2499 591.73 73.8799 584.5 84.3999 579.79C89.1299 577.67 92.7899 574.84 95.3399 570.21C96.9999 567.2 99.5399 564.67 101.69 561.93C106.85 565.55 104.08 570.37 103.39 574.68C101.65 585.43 99.5499 596.12 97.6199 606.84C96.1299 615.14 94.6899 623.44 93.2399 631.75C92.3299 636.96 91.6099 642.2 90.5099 647.36C89.9699 649.88 88.7599 652.26 87.8499 654.7H87.8399Z" fill="#57B761"/>
<path d="M153.46 678.02C147.56 673.56 141.74 669 135.71 664.73C134.25 663.69 132.09 663.64 130.25 663.13C130.45 660.2 130.41 657.23 130.88 654.34C132.06 646.99 133.37 639.66 134.84 632.36C135.3 630.06 136.41 627.88 137.22 625.65C137.7 625.6 138.18 625.56 138.67 625.51C141.23 630.2 143.95 634.82 146.32 639.61C151.61 650.31 156.77 661.08 161.87 671.87C162.49 673.19 162.44 674.83 162.7 676.32C159.62 676.89 156.55 677.45 153.47 678.02H153.46Z" fill="#57B660"/>
<path d="M731.59 708.39C726.91 697.14 721.13 686.57 712.28 677.98C709.38 675.17 706.3 672.54 703.31 669.82C709.04 673.28 714.78 676.72 720.48 680.21C724.26 682.52 728 684.88 731.73 687.27C733.12 688.15 734.54 689.03 735.75 690.13C742.84 696.63 742.49 698.95 734.22 704.09C732.94 704.88 732.45 706.93 731.59 708.39Z" fill="#E3F9B8"/>
<path d="M579.18 761.9C579.1 762.61 579.02 763.32 578.93 764.03C578.03 763.28 577.12 762.52 576.22 761.77C577.21 761.81 578.19 761.86 579.18 761.9Z" fill="#A2A2A1"/>
<path d="M365.79 730.58C339.07 737.34 311.94 737.82 284.65 735.9C267.88 734.72 251.31 732.52 235.7 725.77C224.77 721.04 215.82 714.47 212.93 701.92C211.24 694.6 213.61 688.21 216.51 681.81C222.98 676.56 229.51 671.39 235.83 665.97C236.6 665.31 236.25 663.34 236.41 661.97C235.83 654.05 234.74 646.12 234.77 638.2C234.9 602.27 264.14 568.79 299.71 562.74C331.33 557.37 359.53 565.92 385.8 582.81C399.64 591.71 410.84 603.14 417.09 618.68C418.92 623.24 419.85 628.16 421.2 632.92C421.78 648.73 419.33 663.88 411.66 677.97C410.89 679.38 410.88 681.85 411.59 683.3C414.79 689.91 413.84 696.11 410.55 702.28C409.78 703.71 409.09 705.18 408.36 706.64C405.08 709.43 401.87 712.3 398.51 714.99C388.84 722.75 377.1 726.2 365.8 730.56L365.79 730.58Z" fill="#57B660"/>
<path d="M222.11 351.9C226.54 334.01 237.83 322.58 255.34 317.51C272.77 312.46 290.11 312.72 306.9 320.32C317.83 325.27 326.51 332.68 331.77 343.75C332.41 345.1 333.73 346.55 335.08 347.1C354.74 355.13 370.39 367.94 381.94 385.77C382.29 386.31 382.87 386.7 383.34 387.16C383.95 388.51 384.44 389.94 385.2 391.2C399.77 415.57 408.19 441.61 405.33 470.29C403.64 487.21 396.22 500.74 379.99 508.57C359.94 518.24 340.09 516.64 320.27 508.49C308.46 503.64 297.95 496.58 288.58 487.86C287.97 487.21 287.35 486.56 286.74 485.91C286.01 484.92 285.28 483.92 284.55 482.93C272.96 467.86 261.32 452.81 253.95 435.04C253 432.76 252.28 430.39 251.45 428.06C263 430.19 274.57 432.27 286.11 434.45C297.38 436.57 307.33 433.41 315.62 426C325.48 417.19 328.58 405.63 325.71 392.92C322.56 378.99 313.42 370.19 299.56 367.27C273.81 361.84 247.93 356.99 222.1 351.9H222.11Z" fill="#57B660"/>
<path d="M137.51 336.22C130.52 331.02 122.5 326.76 116.74 320.43C100.5 302.59 96.33 281.51 104.94 258.88C113.1 237.44 129.15 224.94 151.9 221.22C182.54 216.21 212.44 236.81 219.23 268.3C226.35 301.27 202.3 335.26 168.81 339.39C159.14 340.58 150 339.58 140.86 336.74C139.78 336.4 138.6 336.38 137.46 336.21L137.5 336.23L137.51 336.22Z" fill="#ED7C76"/>
<path d="M465.29 296.18C464.32 330.27 438.48 356.07 405.26 356.02C372.05 355.97 345.48 330.03 345.66 295.98C345.84 262.36 371.2 236.57 405.21 236.48C439.45 236.4 464.22 262.41 465.29 296.18Z" fill="#ED7C76"/>
<path d="M222.11 351.9C247.94 356.99 273.81 361.84 299.57 367.27C313.43 370.19 322.57 378.99 325.72 392.92C328.59 405.63 325.49 417.19 315.63 426C307.34 433.41 297.39 436.57 286.12 434.45C274.58 432.28 263.01 430.19 251.46 428.06C242.04 426.09 232.7 423.64 223.2 422.28C210.64 420.47 199.43 416.45 190.92 406.59C190.42 405.21 190.03 403.78 189.39 402.47C184.74 392.95 183.78 383.28 188.32 373.46C190.21 369.37 192.43 365.43 194.5 361.43C195.14 361.28 195.95 361.32 196.4 360.94C203.81 354.56 212.62 352.26 222.13 351.91L222.11 351.9Z" fill="#363736"/>
<path d="M194.48 361.43C192.41 365.44 190.19 369.37 188.3 373.46C183.77 383.27 184.72 392.95 189.37 402.47C190.01 403.78 190.4 405.21 190.9 406.59C187.81 406.2 184.71 405.8 180.79 405.3C178.29 419.78 175.8 434.21 173.3 448.65C165.25 447.26 157.19 445.91 149.15 444.45C143.32 443.39 137.53 442.18 131.71 441.04C132.93 433.08 134.13 425.12 135.38 417.16C136.68 408.91 138.02 400.66 139.35 392.42C140.45 390.82 141.25 388.87 142.69 387.69C152.79 379.41 155.35 368.8 152.84 356.46C152.58 355.18 152.7 353.82 152.64 352.5C164.14 355.28 175.62 358.12 187.14 360.78C189.5 361.33 192.02 361.23 194.46 361.42L194.48 361.43Z" fill="#040604"/>
<path d="M288.58 487.86C297.95 496.58 308.46 503.63 320.27 508.49C340.09 516.63 359.93 518.24 379.99 508.57C396.23 500.74 403.65 487.21 405.33 470.29C408.19 441.61 399.77 415.57 385.2 391.2C384.44 389.93 383.96 388.51 383.34 387.16C385.29 389.03 387.63 390.64 389.12 392.83C402.5 412.58 411.4 434.17 414.2 457.94C416.13 474.26 414.97 490.29 405.91 504.76C399.35 515.25 388.91 520.28 377.72 523.86C372.73 525.46 367.39 526.65 362.2 526.69C355.49 526.74 348.63 526.07 342.09 524.61C328 521.46 315.3 515.01 304.19 505.79C298.97 501.46 294.34 496.39 289.6 491.5C288.83 490.7 288.9 489.09 288.58 487.86Z" fill="#CBF8A6"/>
<path d="M341.47 210.11C351.75 210.12 360.17 218.32 360.39 228.52C360.61 238.75 351.95 247.3 341.38 247.29C330.79 247.29 322.28 238.79 322.46 228.43C322.64 218.27 331.12 210.1 341.46 210.11H341.47ZM347.67 226.5C349.01 224.51 350.29 223.45 350.24 222.47C350.18 221.4 348.88 220.4 348.13 219.37C347.21 220.26 345.72 221.05 345.54 222.06C345.37 223.06 346.54 224.29 347.68 226.5H347.67Z" fill="#040604"/>
<path d="M230.96 207.11C241.11 207.21 249.66 215.88 249.5 225.91C249.33 236.4 240.89 244.4 230.1 244.29C219.87 244.18 211.48 235.7 211.56 225.54C211.64 215.22 220.29 207 230.96 207.11ZM238.73 217.09C236.95 215.81 235.77 214.36 234.97 214.55C233.98 214.78 232.64 216.37 232.66 217.35C232.68 218.31 234.15 219.85 235.13 219.97C235.97 220.08 237.02 218.54 238.73 217.09Z" fill="#040604"/>
<path d="M241.54 275.67C239.4 274.54 237.26 273.41 234.73 272.06V266.37C238.38 267.95 241.62 269.18 244.68 270.75C246.11 271.49 247.17 272.93 248.45 273.99C255.55 279.86 260.84 279.54 267.86 273.37C270.41 271.13 273.36 268.91 276.52 267.88C281.64 266.21 286.71 267.25 291.04 270.79C292.84 272.26 294.59 273.8 296.46 275.19C302.34 279.58 307.47 279.25 313.13 274.48C316.35 271.77 319.83 269.35 324.14 266.08V272.46C321.64 274.49 319.21 276.22 317.06 278.25C309.14 285.74 300.85 286.07 292.61 279.08C291.21 277.9 289.87 276.64 288.39 275.58C282.78 271.57 276.87 271.67 272.2 276.74C266.1 283.36 259.07 285.34 250.59 282.95C247.57 280.52 244.55 278.08 241.53 275.65L241.54 275.67Z" fill="#040604"/>
<path d="M237.92 273.76C241.4 274.89 245.64 279.13 248.23 281.07C246.82 283.63 244.58 285.41 243.48 288.02C242.33 290.73 241.71 293.54 240.88 296.25C231.11 293.59 226.41 278.07 237.92 273.76Z" fill="#FEFEFE"/>
<path d="M218.24 658.76C215.36 661.29 212.48 663.83 209.6 666.36C207.91 662.19 206.23 658.02 204.54 653.85C209.11 655.49 213.68 657.12 218.24 658.76Z" fill="#57B761"/>
<path d="M408.34 706.66C464.85 706.66 521.37 706.66 577.88 706.66C580.63 706.74 583.38 706.81 586.12 706.89C585.83 720.79 575.7 730.65 561.41 730.68C533.96 730.75 506.51 730.71 479.06 730.7C441.3 730.68 403.53 730.63 365.77 730.59C377.07 726.23 388.81 722.78 398.48 715.02C401.84 712.33 405.05 709.46 408.33 706.67L408.34 706.66Z" fill="#040604"/>
<path d="M123.29 705.94C133.64 713.71 138.32 730.98 133.98 745.39C128.71 762.88 112.12 774.5 93.4199 773.79C75.7499 773.13 59.8999 759.86 56.0399 742.52C51.8299 723.58 62.5199 703.76 80.3399 697.49C78.6299 707.91 77.1799 718.39 75.1499 728.75C72.0899 744.38 82.4599 756.71 98.2899 755.85C108.45 755.29 115.83 747.02 117.63 734.5C118.86 725.99 120.36 717.52 121.83 709.04C122.02 707.95 122.79 706.96 123.29 705.93V705.94Z" fill="#A2A2A1"/>
<path d="M625.72 706.43C638.71 691.56 664.81 690.25 680.41 703.69C697.57 718.46 699.61 742.55 685.18 759.91C671.83 775.97 645.98 778.43 629.31 765.19C628.3 764.38 627.54 763.25 626.67 762.27C635.28 762.13 643.9 762.12 652.51 761.8C659.33 761.55 665.94 760.5 671.7 756.19C680.31 749.74 684.2 741.03 682.68 730.68C680.89 718.46 672.38 709.69 661.39 707.98C655.22 707.02 648.87 707.12 642.6 706.86C636.98 706.63 631.35 706.57 625.72 706.43Z" fill="#A2A2A1"/>
<path d="M667.68 734.51C667.7 741.87 661.8 747.63 654.31 747.57C647.09 747.52 641.24 741.87 641.08 734.79C640.92 727.53 646.84 721.55 654.27 721.47C661.74 721.39 667.66 727.15 667.68 734.51Z" fill="#040604"/>
<path d="M95.1999 720.97C102.59 720.88 108.69 726.74 108.73 733.98C108.77 741.29 102.85 747.1 95.3599 747.1C88.0799 747.1 82.3299 741.56 82.1599 734.38C81.9899 726.99 87.7499 721.07 95.1999 720.97Z" fill="#040604"/>
<path d="M347.67 226.5C346.53 224.29 345.36 223.06 345.53 222.06C345.7 221.04 347.2 220.26 348.12 219.37C348.88 220.4 350.18 221.4 350.23 222.47C350.28 223.46 349 224.51 347.66 226.5H347.67Z" fill="#040604"/>
<path d="M238.73 217.09C237.02 218.54 235.97 220.08 235.13 219.97C234.15 219.84 232.68 218.3 232.66 217.35C232.64 216.37 233.97 214.78 234.97 214.55C235.77 214.37 236.94 215.81 238.73 217.09Z" fill="#FEFEFE"/>
<path d="M235.7 220.28C237.373 220.28 238.73 218.923 238.73 217.25C238.73 215.577 237.373 214.22 235.7 214.22C234.026 214.22 232.67 215.577 232.67 217.25C232.67 218.923 234.026 220.28 235.7 220.28Z" fill="#FEFEFE"/>
<path d="M347.88 225.37C349.554 225.37 350.91 224.013 350.91 222.34C350.91 220.667 349.554 219.31 347.88 219.31C346.207 219.31 344.85 220.667 344.85 222.34C344.85 224.013 346.207 225.37 347.88 225.37Z" fill="#FEFEFE"/>
</g>
<defs>
<clipPath id="clip0_48_8365">
<rect width="740.77" height="813.83" fill="white"/>
</clipPath>
</defs>
</svg>
