<svg width="363" height="200" viewBox="0 0 363 200" fill="none" xmlns="http://www.w3.org/2000/svg">
<rect width="363" height="200" rx="15" fill="#E4EBF5"/>
<path d="M64.9497 45.9461C65.1812 45.6239 65.3663 45.2534 65.6483 44.9881C67.9587 42.8088 70.4375 40.857 73.3161 39.4631C73.5308 40.2969 73.0636 41.5792 72.4365 41.6908C72.0115 41.7666 71.8074 41.8803 71.6938 42.3225C71.6454 42.5056 71.1593 42.7478 70.9552 42.6867C70.1051 42.4277 69.922 42.5162 69.4969 43.3036C69.316 43.6363 68.9204 43.9121 68.5606 44.0743C68.125 44.2722 67.6031 44.2722 67.1591 44.4575C66.9172 44.5585 66.7551 44.8575 66.5594 45.0681C66.7657 45.2155 66.9698 45.3692 67.1802 45.5081C67.2559 45.5587 67.3527 45.5797 67.5169 45.645C66.8456 46.7904 66.187 47.8726 65.5789 48.9823C65.4821 49.1591 65.5241 49.4939 65.6315 49.6813C65.7935 49.9655 66.0881 50.1719 66.288 50.4393C66.3953 50.5846 66.5216 50.8372 66.4626 50.9552C66.3616 51.1636 66.0797 51.4815 65.9513 51.4478C65.2632 51.2689 65.1222 51.791 64.7793 52.2122C65.0212 52.3785 65.2169 52.5111 65.461 52.6775C65.5389 51.7447 65.6083 51.7047 66.3006 52.0753C66.2438 52.2606 66.0818 52.5343 66.1512 52.6206C66.5426 53.1028 66.995 53.5344 67.4138 53.9955C67.5568 54.1535 67.6578 54.3472 67.7778 54.524C67.561 54.5893 67.3464 54.6567 67.1297 54.7177C66.9445 54.7704 66.7572 54.8188 66.4037 54.9157C67.1928 55.5178 67.7483 56.1158 68.6405 55.5431C68.7584 55.4673 69.0466 55.4799 69.1266 55.5684C69.215 55.6652 69.2213 55.9516 69.1392 56.059C68.9793 56.2632 68.7542 56.4443 68.5185 56.5559C68.0156 56.7959 67.803 57.0401 68.247 57.5539C68.8467 58.2466 69.8652 58.3666 70.608 57.7876C70.7405 57.6844 70.9152 57.5771 71.073 57.5707C71.9736 57.5328 72.0115 57.4886 71.7085 56.558C72.4555 56.3558 73.072 55.6652 74 56.2779C74.343 56.5032 74.9595 56.3137 75.3762 56.3137C75.2205 55.9705 74.9532 55.6484 74.9637 55.3368C74.9764 54.9388 76.523 54.0798 76.9649 54.0334C77.2405 54.004 77.5141 53.825 77.7624 53.6713C78.2106 53.3913 78.6819 52.7807 79.067 52.8375C79.8982 52.9617 80.8093 52.2627 81.5731 53.0481C81.6173 53.0923 81.8172 53.0038 81.933 52.9533C82.4106 52.7512 82.8862 52.5469 83.3554 52.3301C83.488 52.269 83.7089 52.1448 83.6984 52.0753C83.5679 51.1299 84.3865 51.2078 84.8599 50.9173L84.8431 51.1657C85.548 51.3131 86.253 51.4605 87.1094 51.6395C87.1578 51.1446 87.1746 50.6667 87.2546 50.1993C87.3977 49.3465 87.4776 48.4601 87.7764 47.6621C87.991 47.0873 87.5807 46.1756 88.6412 46.0303C87.93 45.3228 88.273 44.5859 88.4435 43.9437C88.6539 43.1478 88.7002 43.0973 87.8922 42.9941C87.6249 42.1245 88.3319 41.2171 87.9258 40.2064C87.6796 40.4233 87.5954 40.5306 87.4839 40.5896C87.2777 40.7033 86.9537 40.9265 86.8653 40.8591C86.6654 40.7054 86.4655 40.4043 86.4655 40.1643C86.4655 38.9157 85.8068 38.3704 84.6116 38.6925C84.6116 38.8862 84.6116 39.0799 84.6116 39.2968C84.2076 39.2357 83.8562 39.1831 83.4754 39.1263C83.4354 38.7241 83.3975 38.3535 83.347 37.8461C83.0019 38.1303 82.7473 38.2819 82.5705 38.4946C81.8046 39.4252 80.8072 39.4716 79.8161 39.0926C79.1322 38.8294 78.966 38.9789 79.0943 39.7579C78.562 39.6084 78.1495 39.4463 77.7224 39.3831C77.3562 39.3284 76.9543 39.3179 76.5987 39.4084C75.6708 39.6463 74.7659 39.88 73.9369 39.1578C76.7018 37.6798 79.6646 36.8396 82.7662 36.5217C91.5367 35.6226 98.8657 38.7767 105.197 44.6301C110.858 49.8624 114.744 56.3074 117.764 63.3189C120.762 70.2798 122.625 77.5586 123.601 85.0627C124.15 89.2864 124.403 93.5375 124.23 97.797C123.952 104.705 122.677 111.403 119.628 117.669C116.514 124.066 111.973 129.184 105.827 132.825C105.557 132.985 105.267 133.105 104.987 133.244C103.493 132.147 102.115 130.818 100.482 129.997C95.8377 127.66 90.8296 127.376 85.7479 127.925C83.1639 128.205 80.6473 128.805 78.219 129.755C78.1454 129.237 77.8613 128.687 78.562 128.323C78.6861 128.258 78.6462 127.881 78.684 127.641C77.9791 127.849 77.3773 128.03 76.6892 128.235C76.6892 127.952 76.6261 127.733 76.6997 127.67C77.0574 127.361 77.4509 127.093 77.8318 126.811L77.634 126.742C77.7455 126.327 77.855 125.912 77.9707 125.5C78.0401 125.253 78.2421 124.965 78.1706 124.775C77.9707 124.243 77.6593 123.752 77.3962 123.249C77.2174 123.35 77.0027 123.472 76.5588 123.722C77.0049 122.438 77.3731 121.373 77.6698 120.518C77.1269 119.543 76.6682 118.72 76.1989 117.88C76.5167 117.823 76.9691 117.833 77.0006 117.722C77.1711 117.119 77.3815 116.469 77.3079 115.869C77.2005 114.987 76.8533 114.134 76.6324 113.264C76.5188 112.818 76.2726 112.658 75.8307 112.757C75.0689 112.929 74.3114 113.14 73.5413 113.252C71.3024 113.572 69.0635 113.967 66.8098 114.109C65.2338 114.208 63.6219 114.033 62.0522 113.805C60.2425 113.542 58.4771 113.043 57.0167 111.83C56.4865 111.39 55.9562 110.952 55.4238 110.514C55.7247 108.742 56.0256 106.969 56.3371 105.137C56.9725 105.251 57.5091 105.347 58.0457 105.444C58.2709 105.661 58.4813 105.893 58.7212 106.091C59.1946 106.48 59.6302 107.032 60.1773 107.196C62.0269 107.748 63.9102 108.203 65.7977 108.615C68.3543 109.175 70.9257 109.662 73.4929 110.18C73.6528 110.622 73.8127 111.064 73.9684 111.498C73.8948 111.628 73.7938 111.807 73.6928 111.986C73.8927 112.077 74.0968 112.249 74.2904 112.241C74.8185 112.214 75.5045 111.862 75.837 112.081C76.7418 112.681 77.5477 112.277 78.3031 112.014C82.1413 110.672 85.8595 109.068 89.1484 106.611C91.4083 104.922 93.4473 103.025 94.9603 100.621C95.8777 99.1635 96.5469 97.5885 96.6415 95.8599C96.7573 93.7565 95.9324 91.9457 94.6088 90.3476C95.1791 89.9623 95.6189 90.2507 96.0839 90.5939C96.3869 90.8171 96.7447 91.0319 97.1045 91.0909C97.6137 91.1751 98.1482 91.1119 98.7837 91.1119C98.8805 90.8887 99.0193 90.5624 99.1666 90.2192C99.7642 89.9897 100.606 90.6676 100.983 89.7265C101.669 90.0318 101.664 90.0339 102.291 90.7729C102.367 90.8614 102.508 90.9182 102.628 90.9456C103.508 91.1351 104.196 90.6003 104.29 89.6844C104.305 89.537 104.372 89.3643 104.476 89.259C104.995 88.7263 105.46 88.0842 106.087 87.7325C106.62 87.4314 106.62 87.0967 106.592 86.6524C106.578 86.4397 106.519 86.2292 106.466 85.9576C106.887 86.1976 107.217 86.385 107.725 86.6756C107.64 86.2123 107.548 85.9849 107.573 85.7723C107.6 85.5512 107.748 85.3491 107.823 85.1301C107.847 85.0669 107.836 84.9511 107.794 84.9111C107.358 84.5026 107.691 84.3405 107.983 84.0647C108.171 83.8878 108.335 83.4288 108.234 83.2562C107.927 82.7319 108.23 82.4161 108.484 82.0665C109.097 81.2222 108.882 80.6727 107.861 80.3589C107.689 80.3063 107.48 79.9736 107.495 79.7883C107.541 79.2556 107.697 78.7314 107.809 78.205C107.739 78.1755 107.67 78.146 107.598 78.1166C107.834 78.0492 108.068 77.9797 108.482 77.8597C107.935 77.348 107.487 76.9311 107.026 76.5016C106.877 77.0385 106.742 77.5186 106.609 78.0007C106.5 78.0155 106.388 78.0281 106.279 78.0429C106.104 77.6281 105.932 77.2133 105.692 76.6427C104.947 76.35 104.871 76.2321 105.075 75.392C104.227 75.0677 103.466 75.8005 102.489 75.4509C101.61 75.1372 101.065 74.4592 100.217 74.0887C100.229 74.3561 100.24 74.5687 100.252 74.8403C99.8547 74.7772 99.335 74.8403 99.215 74.6508C98.3838 73.3265 97.0203 73.4781 95.7746 73.3012C95.0739 73.2022 94.3711 73.137 93.5757 73.0464C93.5399 73.3496 93.6472 73.9897 93.3779 74.3119C93.1043 74.6382 92.4583 74.6529 91.9744 74.8024C91.9491 74.8109 91.9218 74.8067 92.027 74.8003C91.6272 74.5982 91.2063 74.2382 91.0485 74.3287C89.8238 75.0425 88.3972 74.634 87.1304 75.1246C87.2588 75.8047 87.0652 76.0489 86.2698 76.0405C85.6511 76.0342 85.0115 76.4195 84.416 76.7058C84.2771 76.7732 84.2792 77.1354 84.2161 77.3607C83.1261 77.0827 82.5895 77.2554 82.0424 78.0744C82.5684 78.3103 82.8925 79.0135 83.6584 78.6914C83.6858 78.6787 84.0225 79.1167 83.9888 79.3062C83.9341 79.6157 83.6963 79.8936 83.5722 80.1168C83.1618 80.0768 82.7494 79.9042 82.4969 80.0368C81.9266 80.3337 81.7688 80.1989 81.6615 79.6157C81.6215 79.3988 81.3143 79.1083 81.0955 79.0746C80.7798 79.0261 80.4305 79.1798 79.915 79.283C79.9739 79.4915 80.0665 79.7568 80.1191 80.0305C80.2306 80.62 80.521 81.277 80.3632 81.7907C80.2159 82.2687 79.5299 82.515 79.7025 83.273C79.7866 83.6394 79.4941 84.0921 79.3595 84.5532C80.2138 84.6542 80.8303 84.7679 81.4511 84.7953C84.8284 84.9532 87.9868 85.9176 90.9454 87.4946C91.9344 88.021 92.7698 88.8358 93.6746 89.5201C92.5194 89.3854 91.362 89.2527 90.2068 89.118C90.0827 89.3012 89.9206 89.6591 89.8407 89.6422C89.0747 89.478 88.4456 90.495 87.627 89.8865C87.5302 89.8149 87.2714 89.9644 87.1262 90.0023C87.2209 90.4655 87.2946 90.8319 87.3682 91.1961C87.2777 91.2488 87.1872 91.2993 87.0989 91.3519C86.5791 90.9372 86.0615 90.5224 85.7101 90.2423C85.0578 90.1434 84.5569 90.0655 83.9804 89.977C83.9383 90.0676 83.8499 90.2592 83.69 90.6024C83.3828 90.2486 83.124 90.0086 82.9367 89.7223C82.6673 89.3075 82.5516 88.7327 82.1918 88.4505C81.1481 87.6315 81.1144 87.6778 81.6405 86.4271C81.6741 86.3471 81.63 86.2355 81.611 86.0334C81.1544 86.4503 80.7335 86.825 80.3106 86.1407C79.7319 85.2059 80.9503 85.6333 81.0723 85.0332C80.7798 85.0543 80.5421 85.0901 80.3022 85.0859C80.0181 85.0796 79.7319 85.0543 79.4542 85.0059C79.1806 84.9595 78.9155 84.8164 78.644 84.8122C76.0727 84.7806 73.6865 85.4396 71.4728 86.7513C67.0876 89.3475 62.9401 92.2489 59.3966 95.9525C58.9821 96.3863 58.9147 96.7105 59.3167 97.1337L58.9905 97.4348C56.9073 97.0432 54.822 96.6537 52.7388 96.2621C52.6631 96.2326 52.5894 96.2031 52.5137 96.1736C52.198 96.0704 51.8824 95.9652 51.5668 95.862C51.289 95.5693 50.9586 95.3104 50.7398 94.9798C49.8686 93.6533 48.5304 93.0448 47.1142 92.5416C47.1815 91.1309 47.2152 89.7181 47.3246 88.3094C47.4151 87.1156 47.5582 85.9218 47.735 84.7364C48.0422 82.675 48.3936 80.6179 48.7261 78.5608C49.5194 75.6004 50.1969 72.6043 51.1312 69.6902C53.5448 62.1608 56.981 55.1431 61.9974 48.9717C62.8202 47.959 63.725 47.0157 64.6046 46.0514C64.6698 45.9798 64.8319 45.9945 64.9497 45.9671C64.9981 46.184 65.0465 46.4009 65.0949 46.6178C65.5389 46.2051 65.4337 46.0029 64.9581 45.9587L64.9497 45.9461ZM64.9265 87.0946C66.2522 86.9556 67.5884 86.8819 68.9014 86.6671C72.5607 86.0713 74.7575 83.3972 74.7638 79.6662C74.768 77.4344 73.8548 75.5436 72.6323 73.7707C71.7506 72.4906 70.5785 71.5262 69.1476 70.9114C66.2775 69.6818 63.4094 69.9155 60.5897 71.0609C58.5297 71.8989 56.8589 73.2401 56.4065 75.5225C56.1666 76.729 55.6679 77.7186 55.0493 78.7335C54.1718 80.1737 53.8962 82.7193 55.3923 84.1615C56.1266 84.8711 57.0441 85.4733 57.9868 85.8691C60.1878 86.7977 62.5403 87.0209 64.9265 87.0924V87.0946ZM77.4509 69.646C78.9071 69.6355 80.1023 68.4374 80.1086 66.9783C80.117 65.4854 78.8965 64.2663 77.4046 64.279C75.9443 64.2916 74.7554 65.4833 74.747 66.9446C74.7386 68.4374 75.959 69.6565 77.4509 69.6439V69.646ZM67.6136 66.9635C69.0719 66.9825 70.2944 65.8097 70.3323 64.3569C70.3702 62.862 69.175 61.6155 67.6894 61.5986C66.227 61.5818 65.0086 62.7483 64.9707 64.2053C64.9329 65.7002 66.126 66.9467 67.6136 66.9656V66.9635ZM64.9287 51.431C64.6909 51.2436 64.4657 51.0541 64.4573 51.0625C64.1606 51.3847 63.8765 51.7195 63.6198 52.0753C63.5967 52.109 63.7692 52.2859 63.8513 52.3953C64.1838 52.0985 64.5141 51.8016 64.9287 51.431ZM65.8735 54.0671C65.7451 54.2945 65.6125 54.4251 65.6336 54.5219C65.6588 54.6314 65.8103 54.7514 65.9282 54.783C65.9976 54.802 66.1996 54.6251 66.187 54.5893C66.1365 54.4398 66.0271 54.3072 65.8713 54.0671H65.8735ZM66.2438 46.9946C66.1323 46.902 66.0628 46.803 66.0039 46.8094C65.9282 46.8178 65.8208 46.8978 65.7998 46.9694C65.7851 47.022 65.8861 47.1631 65.9387 47.1652C66.0165 47.1673 66.0986 47.081 66.2417 46.9946H66.2438ZM66.9298 46.064C66.8856 45.9882 66.8414 45.9124 66.7972 45.8366C66.6689 45.925 66.5384 46.0135 66.41 46.0998C66.4437 46.1524 66.4774 46.2072 66.5089 46.2598C66.6478 46.1945 66.7888 46.1293 66.9277 46.0619L66.9298 46.064ZM73.9264 57.1939C73.8485 57.1307 73.8001 57.0633 73.7475 57.0591C73.6865 57.0549 73.6212 57.1054 73.556 57.1307C73.6107 57.1917 73.6591 57.2718 73.7264 57.3054C73.758 57.3202 73.8338 57.2465 73.9243 57.1939H73.9264ZM66.0481 53.2397C65.9639 53.1807 65.9134 53.1154 65.8608 53.1133C65.7998 53.1133 65.7388 53.166 65.6778 53.1954C65.7367 53.2523 65.7872 53.3302 65.8587 53.3597C65.8924 53.3744 65.9618 53.2965 66.0502 53.2397H66.0481Z" fill="#FECC4A"/>
<path d="M45.0899 125.316C45.435 123.278 45.7738 121.242 46.1252 119.206C46.464 117.248 46.7986 115.29 47.1668 113.338C47.291 112.675 47.5119 112.026 47.6866 111.373C48.2274 111.466 48.7702 111.54 49.3068 111.656C51.1186 112.047 52.9261 112.456 54.7358 112.858C54.6958 113.22 54.681 113.586 54.6137 113.942C54.418 114.982 54.3654 115.968 55.0072 116.926C55.4259 117.549 55.6763 118.284 55.9962 118.972C57.0273 121.198 58.0415 123.43 59.0915 125.647C59.8217 127.19 60.6045 128.708 61.362 130.237C61.3725 130.315 61.3662 130.401 61.3956 130.469C62.6498 133.178 63.8934 135.892 65.1706 138.592C65.6231 139.545 66.1554 140.463 66.6499 141.396C67.1549 142.792 68.1145 143.759 69.4528 144.369C69.6569 145.22 69.6968 146.159 70.0988 146.904C70.9552 148.488 72.4639 149.01 74.2125 149.01C91.6714 149.001 109.132 149.006 126.591 149.006C126.802 149.006 127.012 149.014 127.22 149.001C129.447 148.879 131.176 147.094 131.185 144.912C131.751 144.868 132.317 144.797 132.883 144.784C134.707 144.738 136.534 144.712 138.358 144.681C140.212 144.755 142.066 144.799 143.917 144.912C145.946 145.037 147.297 146.231 147.979 148.022C148.62 149.711 148.273 151.36 147.072 152.793C145.984 154.091 144.528 154.469 142.941 154.52C141.422 154.568 139.902 154.562 138.383 154.579C135.568 154.566 132.752 154.554 129.935 154.543C129.821 154.543 129.707 154.543 129.594 154.543C129.482 154.524 129.371 154.507 129.259 154.488C128.977 154.459 128.695 154.404 128.413 154.404C112.691 154.4 96.9656 154.4 81.2428 154.404C80.9861 154.404 80.7272 154.453 80.4705 154.478C80.0665 154.478 79.6625 154.478 79.2606 154.478C77.1437 154.478 75.0248 154.476 72.9079 154.474C70.326 154.526 67.7273 154.752 65.3158 153.461C63.4599 152.465 62.2142 150.966 61.3536 149.065C60.495 147.168 59.5418 145.315 58.6328 143.441C58.5192 143.207 58.4245 142.961 58.3214 142.723C58.2919 142.558 58.3003 142.375 58.2309 142.23C56.6759 139.086 55.1124 135.945 53.5448 132.808C53.1639 132.046 52.762 131.296 52.2612 130.332C52.0676 130.782 51.935 130.999 51.8824 131.235C51.7351 131.871 51.5983 132.511 51.4973 133.155C51.3016 134.416 51.1354 135.682 50.9565 136.947C50.8135 137.665 50.6535 138.381 50.5315 139.103C50.2243 140.937 49.9339 142.773 49.6351 144.607C49.2816 146.447 48.8881 148.279 48.583 150.128C48.322 151.715 47.0637 153.175 45.6139 153.419C43.8506 153.714 42.2492 152.876 41.4265 151.322C40.8773 150.284 41.0856 149.246 41.256 148.195C41.5296 146.521 41.8179 144.851 42.1019 143.18C42.245 142.525 42.4176 141.872 42.5291 141.211C42.8405 139.345 43.1288 137.476 43.4255 135.606C43.5749 135.065 43.7601 134.528 43.8569 133.978C43.9116 133.673 43.7517 133.33 43.8022 133.023C44.0168 131.686 44.2861 130.357 44.5113 129.02C44.7196 127.79 44.8964 126.556 45.0857 125.325L45.0899 125.316ZM44.7638 147.3C43.4655 147.292 42.4449 148.273 42.426 149.549C42.405 150.873 43.4087 151.888 44.7449 151.897C46.02 151.903 47.0763 150.899 47.11 149.648C47.1437 148.372 46.081 147.309 44.7659 147.3H44.7638ZM143.263 151.974C144.593 151.955 145.605 150.915 145.569 149.608C145.536 148.332 144.509 147.374 143.2 147.395C141.902 147.414 140.885 148.414 140.883 149.675C140.883 150.97 141.941 151.995 143.263 151.977V151.974Z" fill="#BFF99C"/>
<path d="M66.6499 141.394C66.1533 140.459 65.6209 139.543 65.1706 138.59C63.8934 135.89 62.6498 133.176 61.3956 130.466C61.3641 130.399 61.3725 130.313 61.362 130.235C61.6124 130.365 61.8859 130.466 62.1111 130.633C65.1812 132.886 68.4827 134.69 72.203 135.899C72.5754 134.042 73.7685 132.745 75.0731 131.523C75.5466 131.208 76.02 130.89 76.4935 130.574C77.068 130.3 77.6424 130.024 78.2169 129.751C80.6431 128.801 83.1618 128.201 85.7458 127.921C90.8254 127.371 95.8356 127.656 100.48 129.993C102.113 130.814 103.491 132.142 104.985 133.239C105.113 133.463 105.227 133.696 105.374 133.905C107.611 137.09 107.247 140.573 104.372 143.199C103.758 143.761 103.072 144.243 102.42 144.761C102.424 144.805 102.405 144.83 102.363 144.843C102.298 144.864 102.232 144.887 102.167 144.908C101.033 145.38 99.9326 145.961 98.7605 146.304C91.2673 148.498 83.9193 148.437 76.8386 144.74C76.7734 144.7 76.7102 144.66 76.645 144.62C74.5071 143.051 73.0489 140.994 72.2682 138.331C70.5806 139.809 68.63 140.626 66.6541 141.392L66.6499 141.394Z" fill="#FC6F22"/>
<path d="M49.6393 144.599C49.936 142.765 50.2264 140.929 50.5357 139.095C50.6577 138.373 50.8177 137.657 50.9608 136.939C52.217 137.817 53.5679 138.585 54.7 139.6C55.6932 140.491 56.4381 141.655 57.2924 142.7C57.8205 144.23 58.5676 145.725 58.839 147.3C59.8638 153.24 57.0231 158.99 51.6993 161.873C43.9873 166.046 33.8134 162.591 31.0547 153.575C28.7527 146.047 33.0495 138.434 40.8625 136.055C41.0393 136.002 41.2118 135.943 41.3886 135.888C42.0683 135.791 42.7479 135.692 43.4297 135.596C43.133 137.463 42.8468 139.335 42.5333 141.201C42.4218 141.862 42.2513 142.512 42.1061 143.169C41.3928 143.595 40.589 143.919 39.9809 144.464C37.641 146.563 37.0118 149.789 38.3164 152.507C39.6968 155.386 42.6638 156.969 45.8412 156.449C48.7155 155.979 50.6788 154.347 51.5352 151.551C52.358 148.869 51.6509 146.536 49.6372 144.595L49.6393 144.599Z" fill="#393838"/>
<path d="M138.36 144.675C136.534 144.708 134.709 144.734 132.885 144.778C132.319 144.793 131.753 144.862 131.187 144.906C130.671 144.873 130.154 144.837 129.638 144.803C130.008 144.112 130.36 143.411 130.753 142.733C135.635 134.32 147.242 133.033 153.866 140.167C160.185 146.974 157.959 158.274 149.544 162.209C142.632 165.441 133.96 163.02 130.322 155.623C130.175 155.322 130.029 155.019 129.882 154.718C129.901 154.657 129.922 154.596 129.941 154.533C132.756 154.545 135.572 154.558 138.39 154.569C138.505 154.707 138.598 154.874 138.737 154.981C140.521 156.352 142.51 156.826 144.734 156.421C148.391 155.756 151.019 151.831 150.196 148.208C149.342 144.441 145.74 142.028 141.946 142.742C140.572 143.001 139.269 143.495 138.362 144.672L138.36 144.675Z" fill="#393838"/>
<path d="M73.9326 39.1557C74.7617 39.8758 75.6665 39.6442 76.5945 39.4063C76.9501 39.3158 77.3499 39.3263 77.7182 39.381C78.1453 39.4442 78.5578 39.6042 79.0901 39.7558C78.9618 38.9768 79.1259 38.8273 79.8119 39.0905C80.803 39.4716 81.8004 39.4252 82.5663 38.4925C82.7431 38.2777 82.9956 38.1282 83.3428 37.844C83.3933 38.3535 83.4312 38.722 83.4711 39.1242C83.852 39.181 84.2034 39.2336 84.6074 39.2947C84.6074 39.0778 84.6074 38.8841 84.6074 38.6904C85.8026 38.3683 86.4613 38.9115 86.4613 40.1622C86.4613 40.4022 86.6612 40.7033 86.8611 40.857C86.9494 40.9244 87.2735 40.6991 87.4797 40.5875C87.5891 40.5264 87.6754 40.4212 87.9216 40.2043C88.3277 41.2171 87.6207 42.1224 87.8879 42.992C88.696 43.0952 88.6497 43.1457 88.4392 43.9416C88.2709 44.5838 87.9258 45.3207 88.637 46.0282C87.5765 46.1735 87.9868 47.0852 87.7722 47.66C87.4734 48.4601 87.3955 49.3444 87.2503 50.1972C87.1725 50.6646 87.1536 51.1426 87.1052 51.6374C86.2466 51.4584 85.5417 51.311 84.8389 51.1636L84.8557 50.9152C84.3802 51.2036 83.5616 51.1278 83.6942 52.0732C83.7047 52.1427 83.4817 52.2669 83.3512 52.328C82.8819 52.5448 82.4064 52.7512 81.9287 52.9512C81.8109 53.0017 81.611 53.0902 81.5689 53.046C80.8051 52.2606 79.896 52.9596 79.0628 52.8354C78.6798 52.7786 78.2064 53.3871 77.7582 53.6692C77.5099 53.825 77.2363 54.004 76.9606 54.0313C76.5166 54.0777 74.9721 54.9367 74.9595 55.3347C74.949 55.6463 75.2162 55.9684 75.372 56.3116C74.9553 56.3116 74.3367 56.5011 73.9958 56.2758C73.0699 55.6631 72.4513 56.3538 71.7043 56.5559C72.0052 57.4844 71.9673 57.5307 71.0688 57.5686C70.911 57.575 70.7363 57.6823 70.6038 57.7855C69.8589 58.3624 68.8425 58.2445 68.2428 57.5518C67.7988 57.038 68.0113 56.7938 68.5143 56.5538C68.7499 56.4422 68.9772 56.2611 69.135 56.0569C69.2171 55.9495 69.2108 55.6631 69.1224 55.5663C69.0424 55.4778 68.7541 55.4652 68.6363 55.541C67.7441 56.1158 67.1886 55.5157 66.3995 54.9136C66.7509 54.8188 66.9382 54.7704 67.1255 54.7156C67.3422 54.6525 67.5589 54.5872 67.7736 54.5219C67.6536 54.3451 67.5526 54.1514 67.4095 53.9934C66.9908 53.5323 66.5384 53.1007 66.147 52.6185C66.0776 52.5343 66.2417 52.2606 66.2964 52.0732C65.602 51.7047 65.5347 51.7447 65.4568 52.6754C65.2127 52.509 65.017 52.3764 64.775 52.2101C65.118 51.789 65.2611 51.2668 65.9471 51.4457C66.0754 51.4794 66.3553 51.1615 66.4584 50.9531C66.5173 50.8351 66.3911 50.5804 66.2838 50.4372C66.0839 50.1698 65.7893 49.9635 65.6272 49.6792C65.5199 49.4918 65.4778 49.157 65.5746 48.9802C66.1849 47.8706 66.8414 46.7883 67.5126 45.6429C67.3506 45.5776 67.2538 45.5566 67.176 45.506C66.9634 45.365 66.7614 45.2134 66.5552 45.066C66.753 44.8554 66.9129 44.5543 67.1549 44.4554C67.5989 44.2722 68.1208 44.2701 68.5563 44.0722C68.9162 43.9079 69.3118 43.6342 69.4927 43.3015C69.9199 42.5141 70.1009 42.4256 70.951 42.6846C71.153 42.7457 71.6412 42.5035 71.6896 42.3204C71.8053 41.8761 72.0094 41.7624 72.4324 41.6887C73.0594 41.5771 73.5286 40.2948 73.3119 39.461C73.516 39.3579 73.7222 39.2568 73.9264 39.1536L73.9326 39.1557Z" fill="#F0BF5C"/>
<path d="M48.7197 78.5503C48.3873 80.6095 48.0359 82.6645 47.7286 84.7259C47.5519 85.9113 47.4088 87.1051 47.3183 88.2989C47.211 89.7054 47.1752 91.1204 47.11 92.5311C46.9543 92.5269 46.7923 92.5437 46.6408 92.5163C43.6233 91.9626 40.6121 91.3857 37.5926 90.8488C36.0207 90.5708 34.4425 90.2192 32.858 90.1518C30.5244 90.055 28.4244 91.7478 27.7048 94.045C27.0609 96.1042 27.9468 98.7066 29.8974 99.8857C30.8338 100.452 31.9616 100.772 33.0453 101.004C35.785 101.589 38.5437 102.105 41.3086 102.568C43.3413 102.909 45.3551 103.52 47.4593 103.225C47.5161 103.68 47.5729 104.133 47.6276 104.554C47.3057 104.68 47.0721 104.771 46.8386 104.861C41.7295 104.903 36.7109 104.368 31.9806 102.286C30.7896 101.762 29.6217 101.098 28.5991 100.298C25.1944 97.637 24.5463 93.4807 26.8967 89.8444C28.5864 87.2314 31.04 85.4817 33.6955 83.991C37.9881 81.5802 42.6175 80.0558 47.3667 78.8577C47.817 78.744 48.2715 78.6514 48.724 78.5482L48.7197 78.5503Z" fill="#FDB601"/>
<path d="M129.636 144.805C130.151 144.841 130.669 144.875 131.185 144.908C131.176 147.088 129.444 148.875 127.22 148.997C127.01 149.008 126.799 149.002 126.591 149.002C109.132 149.002 91.6713 148.999 74.2125 149.006C72.4639 149.006 70.9552 148.484 70.0987 146.9C69.6968 146.157 69.6569 145.218 69.4527 144.365C70.0083 144.489 70.5638 144.713 71.1214 144.723C72.9668 144.761 74.8143 144.723 76.6618 144.715C76.7187 144.723 76.7755 144.731 76.8323 144.74C83.913 148.435 91.261 148.498 98.7542 146.304C99.9262 145.961 101.027 145.38 102.161 144.908C102.226 144.887 102.291 144.864 102.357 144.843C102.399 144.833 102.418 144.805 102.413 144.761C107.422 144.769 112.432 144.778 117.44 144.784C121.505 144.79 125.568 144.797 129.634 144.801L129.636 144.805Z" fill="#060704"/>
<path d="M54.7336 112.856C52.924 112.454 51.1165 112.047 49.3047 111.653C48.7702 111.538 48.2252 111.464 47.6845 111.371C47.716 111.007 47.7455 110.641 47.777 110.276C47.7834 110.211 47.7897 110.146 47.796 110.079C47.8339 109.881 47.8717 109.681 47.9096 109.485C47.9286 109.318 47.9475 109.152 47.9664 108.984C48.0043 108.788 48.0422 108.59 48.0801 108.394C48.1011 108.327 48.1221 108.259 48.1432 108.192C48.1663 107.962 48.1916 107.735 48.2147 107.506C48.4315 106.444 48.6756 105.387 48.8544 104.32C48.9428 103.8 48.9112 103.261 48.9344 102.732C49.0817 102.555 49.2058 102.353 49.3763 102.206C51.1775 100.669 52.0297 98.8224 51.3332 96.4326C51.2869 96.2747 51.4784 96.0473 51.5583 95.8514C51.874 95.9546 52.1896 96.0599 52.5053 96.1631C52.581 96.1925 52.6547 96.222 52.7304 96.2515C54.8136 96.6431 56.8989 97.0326 58.9821 97.4243C58.9021 97.5274 58.8264 97.6327 58.7422 97.7317C57.1009 99.6625 56.5959 101.806 57.5386 104.215C57.6985 104.623 57.8731 105.027 58.0394 105.432C57.5028 105.335 56.9662 105.24 56.3307 105.124C56.0193 106.956 55.7184 108.729 55.4175 110.502C55.3523 110.824 55.3123 111.154 55.2176 111.47C55.0766 111.938 54.8957 112.395 54.7315 112.854L54.7336 112.856Z" fill="#060704"/>
<path d="M43.4297 135.598C42.75 135.694 42.0683 135.793 41.3886 135.89C40.9993 134.736 40.4227 133.606 40.2628 132.42C39.9598 130.195 40.9888 128.401 42.6406 126.988C43.3876 126.35 44.2693 125.868 45.0899 125.316C44.8984 126.548 44.7217 127.782 44.5155 129.011C44.2903 130.349 44.021 131.677 43.8064 133.014C43.758 133.322 43.9158 133.665 43.8611 133.97C43.7643 134.522 43.5791 135.056 43.4297 135.598Z" fill="#FC6F22"/>
<path d="M57.2924 142.7C56.4381 141.655 55.6911 140.491 54.7 139.6C53.5679 138.585 52.217 137.815 50.9607 136.939C51.1396 135.673 51.3079 134.408 51.5036 133.147C51.6025 132.502 51.7414 131.862 51.8887 131.227C51.9434 130.991 52.076 130.774 52.2675 130.323C52.7683 131.288 53.1702 132.037 53.5511 132.799C55.1187 135.937 56.68 139.078 58.2372 142.222C58.3087 142.365 58.3003 142.548 58.3277 142.714C57.9826 142.71 57.6396 142.706 57.2945 142.702L57.2924 142.7Z" fill="#FC6F22"/>
<path d="M80.4747 154.47C80.7314 154.444 80.9903 154.396 81.247 154.396C96.9698 154.392 112.695 154.392 128.418 154.396C128.7 154.396 128.982 154.451 129.263 154.48C127.109 154.486 124.954 154.499 122.801 154.499C109.008 154.499 95.2128 154.499 81.4195 154.499C81.1039 154.499 80.7904 154.48 80.4747 154.472V154.47Z" fill="#A1A2A1"/>
<path d="M48.9365 102.73C48.9133 103.261 48.9449 103.8 48.8565 104.318C48.6777 105.385 48.4336 106.442 48.2168 107.504C48.0443 106.695 47.8717 105.889 47.6887 105.03C47.4214 104.977 47.1289 104.916 46.8343 104.857C47.0679 104.766 47.3015 104.676 47.6234 104.549C47.5708 104.128 47.514 103.674 47.4551 103.221C47.9475 103.057 48.442 102.89 48.9344 102.726L48.9365 102.73Z" fill="#F0BF5C"/>
<path d="M72.9121 154.465C75.029 154.465 77.1479 154.47 79.2648 154.47C77.1458 154.47 75.029 154.467 72.9121 154.465Z" fill="#A1A2A1"/>
<path d="M47.9685 108.984C47.9496 109.15 47.9307 109.318 47.9117 109.485C47.9307 109.316 47.9496 109.15 47.9685 108.984Z" fill="#F0BF5C"/>
<path d="M47.7981 110.079C47.7918 110.144 47.7855 110.211 47.7792 110.277C47.7855 110.209 47.7918 110.144 47.7981 110.079Z" fill="#F0BF5C"/>
<path d="M48.1453 108.192C48.1242 108.259 48.1032 108.329 48.0822 108.394C48.0569 108.365 48.0317 108.335 48.0064 108.306C48.0527 108.268 48.099 108.23 48.1453 108.192Z" fill="#F0BF5C"/>
<path d="M129.939 154.537C129.92 154.598 129.899 154.659 129.88 154.722C129.785 154.659 129.693 154.598 129.598 154.535C129.712 154.535 129.825 154.535 129.939 154.535V154.537Z" fill="#A1A2A1"/>
<path d="M94.6047 90.335C95.9282 91.9352 96.7552 93.746 96.6373 95.8473C96.5405 97.5738 95.8714 99.1509 94.956 100.608C93.4431 103.015 91.4041 104.912 89.1442 106.598C85.8531 109.055 82.137 110.66 78.2989 112.001C77.5435 112.264 76.7376 112.668 75.8328 112.068C75.5024 111.849 74.8143 112.201 74.2862 112.228C74.0926 112.239 73.8885 112.064 73.6886 111.974C73.7896 111.795 73.8906 111.616 73.9642 111.485C73.8064 111.051 73.6486 110.609 73.4887 110.167C73.8253 110.213 74.1662 110.234 74.4966 110.308C77.5856 110.997 79.9823 109.474 81.1502 107.573C83.2271 104.196 81.5836 99.2456 76.6703 98.3802C72.9268 97.7212 69.1918 97.0011 65.48 96.1926C63.2663 95.7125 61.2168 95.8073 59.3103 97.1211C58.9084 96.6979 58.9758 96.3737 59.3903 95.9399C62.9338 92.2342 67.0813 89.3349 71.4665 86.7387C73.6801 85.4291 76.0664 84.768 78.6377 84.7995C78.9071 84.8038 79.1743 84.9469 79.4479 84.9933C79.7277 85.0417 80.0139 85.0669 80.2959 85.0733C80.5336 85.0796 80.7735 85.0438 81.066 85.0206C80.9461 85.6207 79.7277 85.1912 80.3043 86.1281C80.7272 86.8124 81.1481 86.4376 81.6047 86.0208C81.6215 86.225 81.6657 86.3366 81.6342 86.4145C81.1081 87.6652 81.1397 87.621 82.1855 88.4379C82.5432 88.72 82.661 89.2949 82.9303 89.7097C83.1176 89.996 83.3744 90.236 83.6837 90.5898C83.8436 90.2445 83.9341 90.0529 83.9741 89.9644C84.5506 90.0529 85.0514 90.1308 85.7037 90.2297C86.053 90.5098 86.5728 90.9245 87.0925 91.3393C87.183 91.2867 87.2735 91.2362 87.3619 91.1835C87.2882 90.8172 87.2125 90.4508 87.1199 89.9897C87.2651 89.9518 87.526 89.8044 87.6207 89.8739C88.4371 90.4803 89.0663 89.4633 89.8343 89.6296C89.9143 89.6465 90.0763 89.2907 90.2005 89.1054C91.3557 89.2401 92.513 89.3728 93.6683 89.5075C93.9818 89.7833 94.2932 90.0571 94.6067 90.3329L94.6047 90.335ZM82.579 89.9644C82.5684 89.8823 82.5558 89.8023 82.5453 89.7202C82.379 89.737 82.2128 89.7539 82.0445 89.7728C82.0571 89.8612 82.0676 89.9497 82.0803 90.0381L82.5768 89.9665L82.579 89.9644Z" fill="#FDB601"/>
<path d="M54.7336 112.856C54.8978 112.395 55.0787 111.94 55.2197 111.472C55.3144 111.159 55.3544 110.828 55.4196 110.504C55.9499 110.942 56.4823 111.38 57.0125 111.82C58.4729 113.033 60.2383 113.532 62.048 113.795C63.6177 114.022 65.2296 114.197 66.8056 114.098C69.0593 113.957 71.2961 113.563 73.5371 113.241C74.3072 113.132 75.0647 112.919 75.8265 112.746C76.2683 112.647 76.5167 112.805 76.6282 113.254C76.8491 114.125 77.1963 114.976 77.3036 115.858C77.3773 116.458 77.1669 117.109 76.9964 117.711C76.9649 117.823 76.5124 117.812 76.1947 117.869C76.6639 118.711 77.1206 119.532 77.6656 120.507C77.3689 121.362 76.9985 122.43 76.5545 123.712C76.9964 123.461 77.2132 123.339 77.392 123.238C77.6571 123.741 77.9665 124.232 78.1664 124.765C78.2379 124.954 78.0359 125.243 77.9665 125.489C77.8507 125.902 77.7413 126.316 77.6298 126.731L77.8276 126.801C77.4467 127.083 77.0532 127.35 76.6955 127.66C76.6219 127.723 76.685 127.942 76.685 128.224C77.371 128.02 77.9749 127.841 78.6798 127.63C78.6419 127.87 78.6798 128.247 78.5578 128.313C77.8571 128.679 78.1411 129.226 78.2148 129.744C77.6403 130.018 77.0659 130.294 76.4914 130.568C76.0621 129.78 75.5761 130.627 75.071 130.422V131.517C73.7664 132.738 72.5733 134.035 72.2009 135.892C68.4806 134.684 65.179 132.877 62.109 130.627C61.8838 130.46 61.6103 130.361 61.3599 130.229C60.6023 128.7 59.8196 127.18 59.0894 125.638C58.0394 123.423 57.0251 121.189 55.9941 118.964C55.6742 118.275 55.4238 117.539 55.0051 116.917C54.3612 115.961 54.4159 114.974 54.6116 113.934C54.6789 113.578 54.6958 113.212 54.7336 112.849V112.856ZM76.0137 114.736C75.9695 114.652 75.9254 114.568 75.8791 114.483C75.7297 114.568 75.5782 114.652 75.4288 114.736C75.4561 114.797 75.4835 114.86 75.5129 114.921C75.6792 114.86 75.8475 114.797 76.0137 114.736ZM77.0238 124.19C76.9354 124.312 76.8365 124.388 76.8386 124.462C76.8407 124.535 76.9417 124.605 77.0006 124.676C77.0785 124.6 77.1816 124.537 77.2237 124.445C77.2405 124.407 77.1206 124.31 77.0259 124.192L77.0238 124.19Z" fill="#F0BF5C"/>
<path d="M94.6047 90.335C94.2911 90.0612 93.9797 89.7854 93.6661 89.5096C92.7613 88.8253 91.926 88.0105 90.937 87.4841C87.9784 85.907 84.82 84.9427 81.4427 84.7848C80.8219 84.7553 80.2054 84.6437 79.351 84.5426C79.4857 84.0836 79.7782 83.6309 79.694 83.2625C79.5215 82.5066 80.2075 82.2602 80.3548 81.7802C80.5126 81.2664 80.2222 80.6116 80.1107 80.0199C80.0581 79.7462 79.9634 79.4788 79.9066 79.2725C80.4221 79.1693 80.7714 79.0156 81.087 79.064C81.3059 79.0977 81.6131 79.3883 81.6531 79.6052C81.7604 80.1863 81.9182 80.321 82.4885 80.0263C82.7431 79.8936 83.1534 80.0663 83.5637 80.1063C83.6879 79.8831 83.9256 79.6052 83.9804 79.2956C84.014 79.1061 83.6774 78.6682 83.65 78.6808C82.8841 79.0051 82.56 78.2997 82.0339 78.0639C82.581 77.2427 83.1176 77.0701 84.2076 77.3501C84.2708 77.1248 84.2686 76.7627 84.4075 76.6953C85.003 76.4111 85.6427 76.0236 86.2614 76.03C87.0568 76.0384 87.2482 75.7941 87.122 75.1141C88.3908 74.6235 89.8175 75.0319 91.0401 74.3182C91.1979 74.2255 91.6208 74.5877 92.0185 74.7898C91.9133 74.7982 91.9428 74.8003 91.9659 74.7919C92.4499 74.6424 93.0959 74.6277 93.3695 74.3013C93.6388 73.9771 93.5315 73.3391 93.5673 73.0359C94.3627 73.1264 95.0655 73.1938 95.7662 73.2907C97.014 73.4654 98.3754 73.3159 99.2066 74.6403C99.3244 74.8298 99.8463 74.7666 100.244 74.8298C100.231 74.5582 100.221 74.3455 100.208 74.0781C101.056 74.4487 101.601 75.1267 102.481 75.4404C103.457 75.7899 104.219 75.0572 105.067 75.3815C104.863 76.2216 104.939 76.3374 105.683 76.6321C105.923 77.2027 106.096 77.6175 106.271 78.0323C106.38 78.0176 106.491 78.005 106.601 77.9902C106.736 77.5101 106.868 77.0301 107.018 76.4911C107.478 76.9206 107.927 77.3396 108.474 77.8491C108.059 77.9692 107.823 78.0386 107.59 78.106C107.659 78.1355 107.729 78.165 107.8 78.1944C107.689 78.7208 107.535 79.2451 107.487 79.7778C107.47 79.9631 107.68 80.2958 107.853 80.3484C108.873 80.6621 109.088 81.2117 108.476 82.056C108.221 82.4055 107.92 82.7213 108.225 83.2456C108.326 83.4183 108.16 83.8773 107.975 84.0541C107.685 84.33 107.35 84.4921 107.786 84.9006C107.83 84.9406 107.838 85.0564 107.815 85.1195C107.737 85.3364 107.59 85.5407 107.565 85.7617C107.539 85.9744 107.63 86.2018 107.716 86.665C107.209 86.3766 106.879 86.1871 106.458 85.947C106.508 86.2186 106.569 86.4292 106.584 86.6419C106.613 87.0861 106.613 87.4209 106.079 87.722C105.452 88.0736 104.987 88.7158 104.467 89.2485C104.366 89.3538 104.297 89.5264 104.282 89.6738C104.187 90.5897 103.499 91.1245 102.62 90.935C102.5 90.9098 102.359 90.8529 102.283 90.7624C101.656 90.0233 101.66 90.0191 100.974 89.7159C100.597 90.6571 99.7558 89.9791 99.1582 90.2086C99.0109 90.5497 98.872 90.8782 98.7752 91.1014C98.1398 91.1014 97.6053 91.1645 97.0961 91.0803C96.7362 91.0214 96.3785 90.8045 96.0755 90.5834C95.6105 90.2402 95.1728 89.9518 94.6004 90.3371L94.6047 90.335Z" fill="#F0BF5C"/>
<path d="M64.9265 87.0945C62.5403 87.0229 60.1878 86.7997 57.9868 85.8712C57.0462 85.4753 56.1288 84.8732 55.3923 84.1636C53.8962 82.7213 54.1718 80.1757 55.0493 78.7355C55.6679 77.7206 56.1666 76.731 56.4065 75.5246C56.8589 73.2422 58.5297 71.8988 60.5897 71.0629C63.4094 69.9175 66.2796 69.6838 69.1476 70.9135C70.5785 71.5262 71.7506 72.4905 72.6322 73.7728C73.8527 75.5477 74.768 77.4364 74.7638 79.6683C74.7575 83.4014 72.5607 86.0733 68.9014 86.6692C67.5884 86.8839 66.2522 86.9576 64.9265 87.0966V87.0945Z" fill="#FC6F22"/>
<path d="M59.3103 97.1232C61.2168 95.8093 63.2663 95.7146 65.48 96.1946C69.1939 97.0011 72.9289 97.7233 76.6703 98.3823C81.5815 99.2456 83.227 104.198 81.1502 107.575C79.9823 109.476 77.5856 110.997 74.4966 110.31C74.1662 110.236 73.8253 110.215 73.4887 110.169C70.9236 109.651 68.3501 109.165 65.7935 108.605C63.906 108.192 62.0227 107.737 60.1731 107.186C59.626 107.021 59.1904 106.47 58.7169 106.08C58.4771 105.882 58.2645 105.651 58.0415 105.434C57.8753 105.027 57.7006 104.625 57.5407 104.217C56.5959 101.806 57.103 99.6646 58.7443 97.7338C58.8285 97.6348 58.9042 97.5296 58.9842 97.4264C59.0936 97.3253 59.2009 97.2264 59.3103 97.1253V97.1232Z" fill="#393838"/>
<path d="M48.9365 102.73C48.4441 102.894 47.9496 103.061 47.4572 103.225C45.353 103.52 43.3392 102.909 41.3065 102.568C38.5416 102.105 35.785 101.589 33.0432 101.004C31.9595 100.772 30.8316 100.452 29.8953 99.8857C27.9446 98.7066 27.0567 96.1041 27.7027 94.0449C28.4223 91.7478 30.5223 90.0549 32.8559 90.1518C34.4404 90.2171 36.0186 90.5687 37.5904 90.8487C40.61 91.3856 43.6233 91.9604 46.6386 92.5163C46.7902 92.5437 46.9522 92.5268 47.1079 92.531C48.524 93.0322 49.8602 93.6428 50.7335 94.9692C50.9523 95.3019 51.2806 95.5609 51.5604 95.8515C51.4805 96.0473 51.289 96.2747 51.3353 96.4326C52.0318 98.8224 51.1796 100.669 49.3784 102.206C49.2058 102.353 49.0817 102.555 48.9365 102.732V102.73Z" fill="#393838"/>
<path d="M77.4509 69.646C75.959 69.6565 74.7386 68.4395 74.747 66.9467C74.7554 65.4855 75.9443 64.2916 77.4046 64.2811C78.8965 64.2685 80.117 65.4876 80.1086 66.9804C80.1002 68.4374 78.9071 69.6376 77.4509 69.6481V69.646Z" fill="#060704"/>
<path d="M67.6136 66.9635C66.126 66.9446 64.9308 65.6981 64.9707 64.2031C65.0086 62.7482 66.227 61.5796 67.6894 61.5965C69.1771 61.6133 70.3702 62.8598 70.3323 64.3547C70.2965 65.8076 69.0719 66.9803 67.6136 66.9614V66.9635Z" fill="#060704"/>
<path d="M64.9286 51.431C64.5141 51.8016 64.1837 52.0985 63.8513 52.3953C63.7692 52.2858 63.5967 52.109 63.6198 52.0753C63.8765 51.7195 64.1606 51.3847 64.4573 51.0625C64.4657 51.0541 64.6909 51.2436 64.9286 51.431Z" fill="#F0BF5C"/>
<path d="M65.8735 54.0671C66.0271 54.3072 66.1365 54.4377 66.1891 54.5893C66.2017 54.6251 65.9976 54.802 65.9303 54.783C65.8124 54.7514 65.6609 54.6314 65.6357 54.5219C65.6146 54.4251 65.7472 54.2945 65.8756 54.0671H65.8735Z" fill="#F0BF5C"/>
<path d="M64.9497 45.9461C65.4253 45.9903 65.5326 46.1924 65.0865 46.6051C65.0381 46.3882 64.9897 46.1714 64.9413 45.9545L64.9497 45.944V45.9461Z" fill="#F0BF5C"/>
<path d="M66.2438 46.9947C66.1007 47.081 66.0208 47.1673 65.9408 47.1652C65.8882 47.1652 65.7872 47.022 65.8019 46.9694C65.8208 46.8999 65.9282 46.8178 66.006 46.8094C66.0649 46.803 66.1344 46.9041 66.2459 46.9947H66.2438Z" fill="#F0BF5C"/>
<path d="M66.9298 46.064C66.7909 46.1293 66.6499 46.1946 66.511 46.262C66.4774 46.2093 66.4437 46.1546 66.4121 46.1019C66.5405 46.0135 66.6709 45.9251 66.7993 45.8387C66.8435 45.9145 66.8877 45.9903 66.9319 46.0661L66.9298 46.064Z" fill="#F0BF5C"/>
<path d="M73.9264 57.1938C73.8359 57.2486 73.7601 57.3223 73.7286 57.3054C73.6591 57.2718 73.6128 57.1917 73.5581 57.1307C73.6212 57.1033 73.6886 57.0549 73.7496 57.0591C73.8022 57.0633 73.8485 57.1307 73.9285 57.1938H73.9264Z" fill="#F0BF5C"/>
<path d="M66.0481 53.2397C65.9618 53.2965 65.8903 53.3744 65.8566 53.3597C65.7851 53.3302 65.7346 53.2523 65.6757 53.1955C65.7367 53.166 65.7998 53.1112 65.8587 53.1133C65.9113 53.1133 65.9639 53.1807 66.046 53.2397H66.0481Z" fill="#F0BF5C"/>
<path d="M49.6393 144.599C51.653 146.54 52.3601 148.873 51.5373 151.555C50.6788 154.352 48.7176 155.983 45.8433 156.453C42.6659 156.971 39.6989 155.388 38.3185 152.511C37.0118 149.791 37.6431 146.567 39.983 144.468C40.589 143.923 41.3949 143.599 42.1082 143.173C41.8263 144.845 41.5359 146.515 41.2623 148.189C41.0898 149.239 40.8836 150.277 41.4328 151.315C42.2534 152.869 43.8569 153.707 45.6202 153.413C47.07 153.17 48.3284 151.709 48.5893 150.122C48.8923 148.273 49.2858 146.441 49.6414 144.601L49.6393 144.599Z" fill="#A1A2A1"/>
<path d="M138.36 144.675C139.267 143.498 140.57 143.003 141.944 142.744C145.738 142.03 149.338 144.443 150.194 148.21C151.017 151.836 148.389 155.758 144.732 156.424C142.508 156.828 140.519 156.354 138.735 154.983C138.596 154.876 138.503 154.71 138.387 154.571C139.907 154.554 141.426 154.562 142.945 154.512C144.53 154.461 145.986 154.082 147.076 152.785C148.277 151.353 148.625 149.703 147.983 148.014C147.301 146.222 145.952 145.028 143.922 144.904C142.07 144.79 140.216 144.746 138.362 144.673L138.36 144.675Z" fill="#A1A2A1"/>
<path d="M44.7638 147.3C46.0789 147.309 47.1416 148.372 47.1079 149.648C47.0763 150.899 46.0179 151.905 44.7427 151.897C43.4065 151.888 42.4028 150.873 42.4239 149.549C42.4449 148.273 43.4634 147.292 44.7617 147.3H44.7638Z" fill="#060704"/>
<path d="M143.263 151.974C141.939 151.993 140.881 150.968 140.883 149.673C140.883 148.414 141.901 147.412 143.2 147.393C144.509 147.374 145.535 148.332 145.569 149.606C145.605 150.915 144.593 151.953 143.263 151.972V151.974Z" fill="#060704"/>
<path d="M75.071 131.523V130.429C75.5761 130.633 76.0621 129.786 76.4914 130.574C76.0179 130.89 75.5445 131.208 75.071 131.523Z" fill="#FECC4A"/>
<path d="M76.6619 144.717C76.6282 144.691 76.6198 144.66 76.6387 144.622C76.704 144.662 76.7671 144.702 76.8323 144.742C76.7755 144.734 76.7187 144.725 76.6619 144.717Z" fill="#BFF99C"/>
<path d="M82.579 89.9644L82.0824 90.036C82.0697 89.9475 82.0592 89.8591 82.0466 89.7707C82.2128 89.7538 82.3791 89.737 82.5474 89.718C82.5579 89.8001 82.5705 89.8801 82.5811 89.9623L82.579 89.9644Z" fill="#FECC4A"/>
<path d="M76.0137 114.736C75.8475 114.797 75.6792 114.86 75.5129 114.921C75.4856 114.86 75.4582 114.797 75.4288 114.736C75.5782 114.652 75.7297 114.568 75.8791 114.483C75.9233 114.568 75.9675 114.652 76.0137 114.736Z" fill="#FECC4A"/>
<path d="M77.0238 124.19C77.1206 124.308 77.2384 124.405 77.2216 124.443C77.1816 124.535 77.0785 124.598 76.9985 124.674C76.9396 124.603 76.8386 124.533 76.8365 124.459C76.8344 124.388 76.9312 124.312 77.0217 124.188L77.0238 124.19Z" fill="#FECC4A"/>
<path d="M179.077 52.5L184.736 41.4414V41.3486H178.149V39.0664H187.631V41.3857L181.972 52.5H179.077ZM194.144 52.6855C191.193 52.6855 189.078 51.0527 189.022 48.7148H191.843C191.898 49.7168 192.863 50.3848 194.162 50.3848C195.498 50.3848 196.463 49.624 196.444 48.5479C196.463 47.4531 195.479 46.6738 193.902 46.6738H192.659V44.6143H193.902C195.22 44.6143 196.147 43.8906 196.147 42.833C196.147 41.8125 195.368 41.1074 194.181 41.1074C192.993 41.1074 192.01 41.7754 191.973 42.7959H189.301C189.338 40.4766 191.435 38.8809 194.181 38.8809C196.982 38.8809 198.856 40.5322 198.838 42.666C198.856 44.1689 197.799 45.2451 196.296 45.5049V45.6162C198.263 45.8574 199.357 47.0635 199.339 48.7334C199.357 51.0342 197.168 52.6855 194.144 52.6855ZM206.353 52.6855C203.291 52.6855 201.083 51.0713 201.083 48.8818C201.083 47.1934 202.382 45.8203 204.052 45.5605V45.4678C202.604 45.1895 201.603 43.9648 201.603 42.499C201.603 40.4023 203.606 38.8809 206.353 38.8809C209.099 38.8809 211.103 40.4023 211.121 42.499C211.103 43.9834 210.082 45.1895 208.672 45.4678V45.5605C210.305 45.8203 211.622 47.1934 211.622 48.8818C211.622 51.0713 209.414 52.6855 206.353 52.6855ZM206.353 50.5518C207.763 50.5518 208.709 49.7539 208.709 48.6035C208.709 47.4346 207.726 46.5811 206.353 46.5811C204.979 46.5811 203.978 47.4346 203.996 48.6035C203.978 49.7539 204.924 50.5518 206.353 50.5518ZM206.353 44.6143C207.54 44.6143 208.394 43.8535 208.394 42.7773C208.394 41.7383 207.559 40.9961 206.353 40.9961C205.146 40.9961 204.33 41.7197 204.33 42.7773C204.33 43.8535 205.165 44.6143 206.353 44.6143ZM218.432 38.8809C221.215 38.8994 223.85 40.5508 223.85 45.4307C223.868 49.9951 221.697 52.6855 218.32 52.6855C215.611 52.6855 213.774 50.9971 213.496 48.7148H216.242C216.465 49.6982 217.244 50.292 218.32 50.292C220.157 50.292 221.122 48.6592 221.122 45.9688H221.011C220.38 47.1562 219.062 47.8613 217.56 47.8613C215.147 47.8613 213.366 46.043 213.348 43.5381C213.348 40.8291 215.389 38.8623 218.432 38.8809ZM218.45 41.0703C217.077 41.0703 216.057 42.1279 216.075 43.4639C216.075 44.7812 217.059 45.8203 218.432 45.8203C219.786 45.8203 220.844 44.7441 220.844 43.4453C220.825 42.165 219.823 41.0703 218.45 41.0703ZM239.306 37.3223V46.8037H236.949V37.3223H239.306ZM228.525 38.2871V43.9834C231.086 43.9648 233.257 43.7793 235.521 43.2969L235.799 45.208C233.164 45.7646 230.641 45.9688 227.616 45.9688H226.15V38.2871H228.525ZM239.306 47.4902V54.0029H228.024V47.4902H239.306ZM230.344 49.3457V52.1475H236.986V49.3457H230.344ZM255.745 37.3223V54.2441H253.352V37.3223H255.745ZM246.579 38.5098C249.121 38.5098 251.014 40.8477 251.014 44.5215C251.014 48.2324 249.121 50.5518 246.579 50.5518C243.981 50.5518 242.089 48.2324 242.107 44.5215C242.089 40.8477 243.981 38.5098 246.579 38.5098ZM246.579 40.6436C245.262 40.6436 244.39 42.0166 244.39 44.5215C244.39 47.0449 245.262 48.3994 246.579 48.3994C247.859 48.3994 248.731 47.0449 248.731 44.5215C248.731 42.0166 247.859 40.6436 246.579 40.6436ZM277.046 37.3223V54.207H274.782V37.3223H277.046ZM273.521 37.5635V53.4277H271.294V45.4492H269.939C269.717 48.7705 268.307 50.7744 266.229 50.7744C264.002 50.7744 262.555 48.4365 262.555 44.6328C262.555 40.8477 264.002 38.5283 266.229 38.5283C268.26 38.5283 269.652 40.4209 269.921 43.5752H271.294V37.5635H273.521ZM266.229 40.7549C265.282 40.7549 264.726 42.0537 264.744 44.6328C264.726 47.2305 265.282 48.5107 266.229 48.4922C267.193 48.5107 267.769 47.2305 267.769 44.6328C267.769 42.0537 267.193 40.7549 266.229 40.7549ZM292.521 38.2686V39.79C292.502 41.5435 292.502 43.4917 291.945 46.2285H294.228V48.1396H287.715V54.1699H285.34V48.1396H278.827V46.2285H289.626C289.83 45.3286 289.969 44.5029 290.053 43.7422L280.367 44.2246L280.089 42.2021L290.22 41.9238C290.238 41.293 290.248 40.7085 290.257 40.1426H280.627V38.2686H292.521ZM300.276 38.3242C302.874 38.3242 304.896 40.0312 304.915 42.4619C304.896 44.5029 303.477 46.0337 301.482 46.4697V48.7705C302.818 48.7148 304.145 48.6035 305.397 48.4365L305.564 50.1807C302.039 50.8486 298.235 50.8486 295.359 50.8115L295.044 48.9004C296.259 48.8911 297.66 48.8911 299.126 48.8633V46.4883C297.057 46.0708 295.638 44.5308 295.638 42.4619C295.638 40.0312 297.604 38.3242 300.276 38.3242ZM300.276 40.3281C298.94 40.3281 297.938 41.1074 297.957 42.4619C297.938 43.7979 298.94 44.5957 300.276 44.5957C301.575 44.5957 302.577 43.7979 302.577 42.4619C302.577 41.1074 301.575 40.3281 300.276 40.3281ZM308.663 37.3223V43.9463H310.964V45.9316H308.663V54.207H306.288V37.3223H308.663ZM184.551 64.9238C184.551 67.6514 185.942 70.5645 188.781 71.752L187.501 73.6074C185.506 72.7632 184.133 71.084 183.382 69.0244C182.612 71.2603 181.211 73.1157 179.226 74.0342L177.871 72.1602C180.673 70.917 182.12 67.7812 182.12 64.9238V63.8848H178.539V61.9551H188.076V63.8848H184.551V64.9238ZM192.14 60.3223V77.207H189.746V60.3223H192.14ZM208.022 61.3057V62.8271C208.022 64.4043 208.022 66.1299 207.596 68.4863H209.822V70.3975H203.235V77.2256H200.86V70.3975H194.422V68.4863H205.202C205.629 66.3062 205.666 64.6548 205.666 63.1982H196.185V61.3057H208.022ZM226.28 67.8926V69.6553H210.824V67.8926H226.28ZM224.425 70.4902V74.4795H214.962V75.4443H224.926V77.0586H212.605V72.9766H222.087V72.123H212.587V70.4902H224.425ZM224.406 60.6191V64.5898H215.11V65.499H224.703V67.0947H212.754V63.0869H222.031V62.2334H212.717V60.6191H224.406ZM236.188 61.5098C238.768 61.5098 240.623 63.8477 240.642 67.5215C240.623 71.2324 238.768 73.5518 236.188 73.5518C233.609 73.5518 231.717 71.2324 231.735 67.5215C231.717 63.8477 233.609 61.5098 236.188 61.5098ZM236.188 63.6436C234.89 63.6436 234.018 65.0166 234.018 67.5215C234.018 70.0449 234.89 71.3994 236.188 71.3994C237.506 71.3994 238.359 70.0449 238.378 67.5215C238.359 65.0166 237.506 63.6436 236.188 63.6436ZM244.965 60.3223V66.6865H247.451V68.6533H244.965V77.207H242.59V60.3223H244.965ZM262.184 60.3223V77.207H259.827V70.917H256.487C255.996 72.1973 255.318 73.4033 254.409 74.5537L252.498 73.3291C254.669 70.5273 255.402 67.6699 255.56 63.9775H253.686V62.0479H257.805C257.805 62.8828 257.786 63.6992 257.749 64.4971H259.827V60.3223H262.184ZM253.185 62.0479C253.166 66.5752 252.554 70.2119 249.659 73.4404L247.841 72.1045C249.975 69.7017 250.717 67.2896 250.902 63.9775H248.546V62.0479H253.185ZM257.1 69.0244H259.827V66.3711H257.582C257.461 67.2803 257.304 68.1616 257.1 69.0244ZM278.493 61.0459V62.9014H273.836C274.114 64.293 275.858 65.7031 279.198 66.0742L278.326 67.9297C275.163 67.5771 273.047 66.2598 272.166 64.5156C271.275 66.2505 269.179 67.5771 266.024 67.9297L265.171 66.0742C268.511 65.7031 270.236 64.2744 270.515 62.9014H265.895V61.0459H278.493ZM279.922 68.7275V70.6201H273.558V73.5332H271.22V70.6201H264.466V68.7275H279.922ZM278.215 75.0176V76.9102H266.284V72.0303H268.641V75.0176H278.215ZM299.516 60.3223V77.207H297.159V68.7461H293.801V66.8164H297.159V60.3223H299.516ZM293.894 62.085C293.894 67.1875 292.242 71.3438 286.342 74.2754L285.117 72.4199C289.385 70.314 291.147 67.6328 291.519 63.9404H285.915V62.085H293.894ZM315.862 60.3223V77.2441H313.506V60.3223H315.862ZM310.63 61.7324V68.2451H305.063V71.3438C307.633 71.3345 309.823 71.186 312.3 70.7871L312.504 72.6982C309.721 73.1807 307.216 73.292 304.136 73.292H302.614V66.3711H308.218V63.6436H302.596V61.7324H310.63Z" fill="#161D24"/>
<path d="M183.031 99.1875V110.5H180.984V101.172H180.922L178.281 102.859V101L181.078 99.1875H183.031ZM189.891 110.656C187.469 110.656 185.75 109.344 185.703 107.438H187.75C187.812 108.344 188.719 108.938 189.891 108.938C191.141 108.938 192.031 108.25 192.031 107.25C192.031 106.234 191.156 105.5 189.688 105.5H188.672V103.938H189.688C190.891 103.938 191.734 103.266 191.719 102.281C191.734 101.328 191.016 100.688 189.906 100.688C188.844 100.688 187.922 101.281 187.891 102.234H185.938C185.984 100.328 187.703 99.0312 189.922 99.0312C192.219 99.0312 193.703 100.438 193.688 102.172C193.703 103.438 192.859 104.359 191.625 104.609V104.703C193.219 104.922 194.125 105.938 194.109 107.359C194.125 109.266 192.344 110.656 189.891 110.656ZM195.891 110.5V109.031L199.891 105.172C201.031 104.031 201.625 103.359 201.625 102.406C201.625 101.359 200.797 100.688 199.688 100.688C198.516 100.688 197.766 101.422 197.781 102.562H195.844C195.828 100.422 197.438 99.0312 199.703 99.0312C202.016 99.0312 203.578 100.406 203.578 102.312C203.578 103.594 202.953 104.625 200.734 106.719L198.719 108.719V108.797H203.75V110.5H195.891ZM205.547 110.5V99.1875H207.547V105.422H207.688L210.734 102.016H213.062L209.781 105.672L213.266 110.5H210.891L208.281 106.859L207.547 107.641V110.5H205.547ZM214.25 110.5V102.016H216.156V103.453H216.266C216.609 102.484 217.469 101.906 218.594 101.906C219.75 101.906 220.562 102.484 220.891 103.453H220.984C221.359 102.516 222.297 101.906 223.531 101.906C225.078 101.906 226.172 102.906 226.172 104.797V110.5H224.188V105.109C224.188 104.047 223.547 103.578 222.734 103.578C221.75 103.578 221.188 104.25 221.188 105.203V110.5H219.25V105.031C219.25 104.156 218.656 103.578 217.812 103.578C216.953 103.578 216.25 104.281 216.25 105.344V110.5H214.25Z" fill="#12BA54"/>
<rect x="177.5" y="129.5" width="135" height="3" rx="1" fill="#878D91"/>
<path d="M189.629 149.4V162.95H187.388V149.4H189.629ZM186.743 149.562V162.364H184.531V156.095H183.872C183.674 158.761 182.539 160.343 180.869 160.343C179.053 160.343 177.881 158.438 177.896 155.289C177.881 152.169 179.053 150.265 180.869 150.265C182.488 150.265 183.601 151.751 183.857 154.249H184.531V149.562H186.743ZM180.869 152.491C180.312 152.491 180.034 153.297 180.049 155.289C180.034 157.296 180.312 158.087 180.869 158.087C181.44 158.087 181.748 157.296 181.748 155.289C181.748 153.297 181.44 152.491 180.869 152.491ZM201.89 150.118V151.334C201.89 152.718 201.89 154.286 201.45 156.476H203.135V158.351H198.125V162.921H195.752V158.351H190.771V156.476H199.15C199.282 155.89 199.377 155.348 199.443 154.835L191.929 155.23L191.68 153.238L199.604 153.062C199.626 152.667 199.626 152.293 199.634 151.935H192.134V150.118H201.89ZM219.365 155.523V157.428H214.268V162.936H211.895V157.428H207.002V155.523H209.683C210.063 154.095 210.144 153.004 210.166 152.008H207.969V150.147H212.495V151.246C212.495 152.447 212.495 153.766 212.07 155.523H215.352C215.637 154.125 215.688 153.019 215.703 152.008H213.389V150.147H218.032V151.305C218.032 152.462 218.032 153.802 217.71 155.523H219.365ZM227.29 150.572V159.845H220.566V150.572H227.29ZM222.91 152.389V157.999H225.005V152.389H222.91ZM231.406 149.4V162.994H229.033V149.4H231.406ZM244.458 149.4V162.994H242.114V155.992H240.239V154.088H242.114V149.4H244.458ZM239.521 150.47V155.758H235.728V157.97C237.332 157.962 238.804 157.889 240.386 157.633L240.576 159.522C238.584 159.845 236.694 159.903 234.541 159.903H233.384V153.927H237.222V152.345H233.354V150.47H239.521ZM259.971 149.4V154.396H261.699V156.314H259.971V162.921H257.612V149.4H259.971ZM256.279 150.748C256.265 154.938 254.829 158.453 250.2 160.724L248.867 158.937C251.885 157.413 253.481 155.516 253.892 152.652H249.717V150.748H256.279ZM273.623 149.4V162.95H271.235V149.4H273.623ZM269.521 150.792C269.521 155.04 268.32 158.424 263.296 160.768L262.095 158.922C265.479 157.311 266.833 155.45 267.134 152.623H262.871V150.792H269.521ZM284.976 161.749L283.54 160.328L286.616 157.252H279.863V155.157H286.616L283.54 152.066L284.976 150.646L290.527 156.197L284.976 161.749Z" fill="#161D24"/>
</svg>
