<svg width="363" height="200" viewBox="0 0 363 200" fill="none" xmlns="http://www.w3.org/2000/svg">
<rect width="363" height="200" rx="15" fill="#E4EBF5"/>
<path d="M87.4444 41.9243C92.0116 42.2351 96.2069 43.6807 100.071 46.1099C105.679 49.6331 109.878 54.5017 113.327 60.0757C117.968 67.5739 120.893 75.7449 122.613 84.3554C123.21 87.3469 123.537 90.3916 123.986 93.4117C123.911 93.4219 123.835 93.4403 123.76 93.4403C113.325 93.4383 102.889 93.4342 92.455 93.4301C91.8747 93.1295 91.2984 92.8208 90.7119 92.5304C86.3613 90.3752 81.7695 89.6002 76.9632 90.2137C75.2773 90.4284 73.6404 90.8946 72.1466 91.7616C71.1617 92.3341 70.1624 92.878 69.1672 93.4342C62.7812 93.4383 56.3973 93.4424 50.0113 93.4444C49.198 93.4444 48.3847 93.4219 47.5714 93.4117C47.7737 91.6757 47.9535 89.9356 48.1824 88.2037C48.3643 86.8234 48.6074 85.4514 48.824 84.0753C49.433 81.736 49.9725 79.3743 50.6632 77.0596C53.0766 68.9767 56.5526 61.411 61.8576 54.7818C65.7586 49.905 70.3913 45.9484 76.2827 43.6439C79.6014 42.3455 83.0467 41.7689 86.6086 41.9038C86.535 43.4988 86.4839 45.0957 86.3797 46.6886C86.3102 47.7764 86.1324 48.8561 86.0875 49.9439C86.0772 50.2036 86.4001 50.4796 86.5697 50.7475C86.7577 50.5226 87.0438 50.3242 87.1092 50.0666C87.2277 49.6065 87.238 49.1137 87.2523 48.6332C87.3217 46.3982 87.3769 44.1633 87.4382 41.9284L87.4444 41.9243ZM64.8881 92.5345C65.9528 92.4629 67.0379 92.4956 68.078 92.2953C69.3082 92.0601 70.6753 91.8863 71.6787 91.2258C74.4068 89.4264 75.4285 86.4452 74.5621 83.2614C73.6221 79.8099 71.74 77.0903 68.1168 76.027C65.1905 75.1682 62.3582 75.6303 59.6976 77.0351C57.9545 77.9553 56.6977 79.3702 56.4075 81.3803C56.2604 82.3924 55.8088 83.1756 55.2795 83.9955C54.176 85.7029 53.943 88.4797 55.8619 90.0603C56.5383 90.6165 57.3353 91.0827 58.1506 91.4037C60.3065 92.2503 62.5789 92.5079 64.8881 92.5345ZM77.5435 69.6514C76.0743 69.6514 74.8686 70.8456 74.8563 72.3137C74.8461 73.8125 76.0763 75.0374 77.5742 75.021C79.0374 75.0046 80.2287 73.79 80.2226 72.3199C80.2144 70.8517 79.0108 69.6535 77.5435 69.6514ZM67.7653 67.0464C66.294 67.0341 65.0781 68.218 65.0557 69.6841C65.0332 71.183 66.2531 72.42 67.749 72.416C69.2142 72.4119 70.4158 71.2055 70.4199 69.7394C70.424 68.2712 69.2305 67.0607 67.7633 67.0484L67.7653 67.0464Z" fill="#FECC4A"/>
<path d="M92.455 93.4281C102.889 93.4322 113.325 93.4362 123.76 93.4383C123.835 93.4383 123.911 93.4199 123.986 93.4097C124.101 93.606 124.305 93.7961 124.313 93.9965C124.42 96.5975 124.599 99.2005 124.565 101.799C124.479 108.05 123.453 114.14 121.134 119.975C119.997 122.832 118.585 125.543 116.797 128.05C116.389 128.058 115.982 128.073 115.573 128.073C96.8404 128.073 78.1076 128.073 59.3747 128.073C59.0171 128.073 58.6615 128.087 58.3039 128.095C58.1711 127.944 57.9953 127.815 57.9136 127.639C57.1493 126.01 56.4239 124.359 55.6392 122.738C55.1181 121.658 54.8585 120.548 54.9423 119.35C54.9709 118.945 54.9219 118.536 54.9096 118.129C55.0241 117.855 55.161 117.587 55.2488 117.303C55.4103 116.773 55.5431 116.238 55.6882 115.704C56.8162 117.219 58.3407 118.188 60.1288 118.663C61.5245 119.033 62.9692 119.358 64.4058 119.421C72.1569 119.765 79.3459 117.7 86.1038 114.031C89.8046 112.023 92.9884 109.379 95.271 105.779C96.3725 104.042 97.0325 102.159 96.8179 100.051C96.5911 97.81 95.4161 96.1026 93.8078 94.6345C93.3624 94.2276 92.9087 93.8288 92.4571 93.426L92.455 93.4281ZM100.267 114.782C99.5665 115.524 98.9187 116.201 98.2852 116.894C98.1156 117.08 97.9827 117.305 97.8642 117.528C97.1429 118.896 97.6803 120.605 99.0556 121.339C100.437 122.077 102.09 121.591 102.895 120.225C103.623 118.99 103.214 117.06 101.874 116.428C101.267 117.08 100.65 117.742 99.9997 118.44C100.316 118.728 100.549 118.941 100.784 119.155C101.203 118.763 101.559 118.432 101.931 118.084C102.583 119.249 101.573 120.542 100.562 120.564C99.8403 120.579 99.2579 120.356 98.8962 119.705C98.4936 118.978 98.5754 118.266 99.1026 117.644C99.7095 116.929 100.363 116.254 101.038 115.514C100.786 115.274 100.57 115.068 100.267 114.78V114.782ZM112.565 103.041C110.955 102.998 109.649 104.233 109.625 105.821C109.602 107.386 110.834 108.684 112.377 108.721C113.975 108.76 115.281 107.519 115.314 105.926C115.346 104.347 114.141 103.081 112.565 103.039V103.041ZM108.298 107.637C106.682 107.59 105.378 108.809 105.343 110.4C105.311 111.962 106.537 113.269 108.08 113.316C109.678 113.365 110.988 112.13 111.031 110.537C111.071 108.956 109.874 107.684 108.298 107.637ZM107.174 114.174C106.756 114.612 106.447 114.947 106.124 115.27C105.313 116.084 104.293 116.164 103.545 115.481C102.785 114.786 102.797 113.712 103.578 112.831C103.876 112.494 104.173 112.156 104.51 111.772C104.215 111.516 103.982 111.312 103.737 111.099C102.54 112.209 101.469 113.293 102.002 115.031C102.344 116.143 103.136 116.833 104.301 117.006C106.012 117.262 106.927 116.113 107.894 114.945C107.657 114.69 107.452 114.473 107.172 114.172L107.174 114.174Z" fill="#14B953"/>
<path d="M105.064 138.634C105.519 139.452 106.071 140.231 106.414 141.094C107.409 143.595 106.852 145.866 105.08 147.807C104.334 148.623 103.378 149.246 102.517 149.956C102 150.22 101.502 150.53 100.96 150.735C99.5665 151.262 98.1564 151.743 96.7526 152.242C96.6524 152.301 96.5523 152.358 96.4522 152.418C95.5735 152.514 94.6927 152.59 93.8181 152.71C91.1819 153.078 88.5417 153.019 85.8974 152.827C82.7913 152.32 79.7546 151.596 77.0184 149.952C76.9264 149.899 76.8345 149.845 76.7425 149.792C74.6111 148.242 73.2481 146.153 72.4797 143.56C70.8265 145.077 68.922 145.973 66.9234 146.697C66.7109 146.353 66.4636 146.026 66.292 145.664C65.7423 144.496 65.2191 143.317 64.6858 142.141C63.7315 140.037 62.7771 137.933 61.8228 135.829C62.0456 135.945 62.2888 136.033 62.487 136.182C64.8023 137.918 67.3097 139.321 69.9744 140.44C70.7591 140.769 71.5724 141.03 72.4246 141.341C73.1541 138.366 75.1751 136.743 77.6335 135.536C81.0318 133.868 84.6938 133.279 88.4191 133.129C90.34 133.052 92.2875 133.195 94.2002 133.428C96.7383 133.737 99.2089 134.424 101.387 135.808C102.687 136.634 103.841 137.687 105.061 138.636L105.064 138.634Z" fill="#FC6F22"/>
<path d="M57.3394 148.167C57.8421 149.516 58.5471 150.827 58.8107 152.224C59.5321 156.029 58.8475 159.626 56.5812 162.82C54.0207 166.427 50.5488 168.459 46.0878 168.786C43.2923 168.991 40.6132 168.684 38.0609 167.473C35.1427 166.091 33.1932 163.785 31.7975 160.949C30.6102 158.534 30.1484 155.953 30.4897 153.307C31.1068 148.535 33.5406 144.901 37.7871 142.595C38.9314 141.973 40.2311 141.638 41.4613 141.172C42.0314 141.061 42.6016 140.949 43.1737 140.838C43.2555 141.02 43.3393 141.202 43.421 141.384C43.3699 141.928 43.3168 142.472 43.2657 143.016C43.231 143.13 43.1962 143.243 43.1635 143.357L43.0654 143.826L42.7283 145.83C42.6935 146.063 42.6608 146.296 42.6261 146.527C42.575 146.66 42.5239 146.791 42.4708 146.923L42.4953 147.2C42.434 147.494 42.3727 147.788 42.3114 148.083C41.9272 148.353 41.5594 148.653 41.1548 148.886C37.7666 150.847 36.8797 154.614 38.2203 157.714C39.7447 161.241 43.231 162.56 46.6109 161.679C49.7273 160.865 51.4949 158.589 51.8587 155.661C52.1305 153.477 51.4847 151.494 49.6844 150.036C49.6844 149.923 49.6864 149.813 49.6885 149.7C49.7661 149.118 49.8438 148.535 49.9214 147.952C49.95 147.564 49.9786 147.177 50.0072 146.789C50.0808 146.461 50.1564 146.134 50.23 145.805C50.2627 145.498 50.2954 145.192 50.3281 144.883C50.3935 144.631 50.4589 144.38 50.5263 144.128C50.5406 144.038 50.557 143.948 50.5713 143.858C50.5856 143.732 50.5999 143.605 50.6142 143.478C50.6264 143.335 50.6366 143.192 50.6489 143.049C50.8594 142.82 51.0719 142.591 51.2824 142.364C53.8654 143.711 55.8844 145.646 57.3435 148.167H57.3394Z" fill="#3A3A3A"/>
<path d="M105.064 138.634C103.844 137.683 102.689 136.632 101.389 135.806C99.2109 134.42 96.7403 133.733 94.2022 133.426C92.2895 133.195 90.3421 133.052 88.4212 133.127C84.6958 133.277 81.0339 133.868 77.6355 135.534C75.1772 136.74 73.1561 138.366 72.4266 141.339C71.5745 141.028 70.7611 140.767 69.9764 140.437C67.3117 139.321 64.8043 137.918 62.489 136.18C62.2908 136.031 62.0476 135.943 61.8249 135.826C61.7636 135.784 61.6736 135.753 61.6471 135.694C61.0851 134.452 60.5252 133.211 59.9796 131.966C59.4156 130.678 58.8638 129.385 58.3059 128.095C58.6636 128.087 59.0191 128.073 59.3767 128.073C78.1096 128.073 96.8425 128.073 115.575 128.073C115.984 128.073 116.391 128.058 116.799 128.05C113.875 132.328 110.156 135.747 105.687 138.354C105.491 138.468 105.274 138.542 105.066 138.634H105.064Z" fill="#FCCC4A"/>
<path d="M157.5 156.865C157.486 157.014 157.471 157.162 157.457 157.311C157.359 157.538 157.249 157.761 157.163 157.994C156.725 159.168 156.378 160.384 155.835 161.505C155.348 162.509 154.645 163.406 154.036 164.351C153.879 164.513 153.719 164.674 153.562 164.838C153.444 164.954 153.325 165.071 153.209 165.187L153.192 165.21C152.383 165.776 151.588 166.363 150.76 166.901C150.137 167.306 149.473 167.647 148.827 168.017C148.733 168.042 148.637 168.064 148.543 168.089C148.335 168.181 148.126 168.273 147.918 168.365C147.822 168.381 147.726 168.398 147.628 168.416C147.393 168.43 147.16 168.447 146.925 168.461C146.794 168.52 146.663 168.578 146.532 168.637C146.099 168.684 145.668 168.733 145.235 168.78C145.002 168.835 144.771 168.891 144.538 168.946C143.723 168.946 142.907 168.946 142.092 168.946C141.808 168.888 141.524 168.833 141.24 168.776C140.809 168.725 140.375 168.676 139.944 168.625L139.556 168.445C139.321 168.432 139.086 168.42 138.853 168.408C138.757 168.387 138.661 168.367 138.567 168.347C137.698 167.936 136.832 167.525 135.963 167.114C135.892 167.083 135.822 167.052 135.751 167.024C135.475 166.831 135.201 166.641 134.925 166.449C134.905 166.414 134.874 166.398 134.833 166.398C134.2 165.858 133.568 165.318 132.935 164.781C132.839 164.674 132.745 164.568 132.649 164.462L132.61 164.482L132.645 164.455C132.553 164.349 132.461 164.245 132.369 164.138C132.369 164.138 132.353 164.12 132.353 164.122C131.901 163.507 131.449 162.891 130.996 162.276C131.002 162.235 130.987 162.204 130.955 162.18C130.656 161.652 130.356 161.126 130.058 160.599C130.037 160.468 130.019 160.339 129.998 160.208C130.041 160.063 130.082 159.918 130.125 159.773C130.448 159.818 130.771 159.902 131.094 159.904C133.094 159.916 135.093 159.916 137.093 159.904C137.328 159.904 137.561 159.799 137.796 159.744C138.074 159.771 138.352 159.797 138.632 159.824C138.816 160.147 138.918 160.607 139.196 160.773C141.005 161.85 142.887 162.415 145.051 161.811C146.445 161.423 147.665 160.834 148.582 159.756C150.192 157.869 150.922 155.755 150.241 153.221C149.806 151.594 149.005 150.244 147.683 149.3C145.656 147.85 143.381 147.382 140.968 148.23C139.907 148.602 138.818 149.009 138.332 150.187C137.903 150.216 137.472 150.244 137.042 150.271C134.701 150.259 132.361 150.216 130.052 149.747C130.168 149.469 130.272 149.185 130.403 148.915C132.126 145.384 134.886 142.973 138.551 141.681C141.575 140.613 144.673 140.56 147.757 141.583C151.85 142.94 154.725 145.623 156.427 149.561C156.856 150.553 157.136 151.61 157.484 152.637C157.488 152.763 157.49 152.888 157.494 153.015C157.494 154.301 157.496 155.589 157.498 156.875L157.5 156.865Z" fill="#3A3A3A"/>
<path d="M48.8261 84.0712C48.6095 85.4473 48.3683 86.8193 48.1844 88.1996C47.9556 89.9315 47.7757 91.6716 47.5734 93.4076C47.4651 93.5528 47.273 93.6918 47.2608 93.8431C47.1647 95.1293 47.1014 96.4175 47.0278 97.7057C46.8337 97.7221 46.6314 97.7834 46.4495 97.7487C45.6546 97.5933 44.8658 97.399 44.0729 97.2416C42.058 96.8387 40.0533 96.3787 38.0241 96.0699C36.0705 95.7714 34.0965 95.5873 32.1245 95.4483C31.1681 95.3808 30.2751 95.6998 29.6988 96.5729C29.5681 96.6936 29.4373 96.8163 29.3065 96.9369C29.2615 96.9451 29.2309 96.9696 29.2166 97.0146C29.1982 97.035 29.1777 97.0555 29.1573 97.0759C27.9026 97.9184 27.2446 99.043 27.498 100.597C27.5021 100.869 27.5061 101.139 27.5082 101.411C27.4878 101.581 27.4203 101.761 27.453 101.918C27.8842 104.036 29.1655 105.468 31.1334 106.259C31.6626 106.472 32.3064 106.406 32.8969 106.468C33.0134 106.49 33.1299 106.515 33.2484 106.537C33.7348 106.674 34.2129 106.852 34.7075 106.938C35.7803 107.124 36.8613 107.265 37.9403 107.425C38.065 107.441 38.1876 107.455 38.3122 107.472C38.9805 107.658 39.6385 107.901 40.3169 108.015C41.4449 108.206 42.5893 108.314 43.7255 108.457C43.842 108.48 43.9585 108.502 44.0749 108.527C44.3345 108.631 44.5919 108.819 44.8535 108.825C45.7567 108.846 46.66 108.803 47.5652 108.784C47.6225 109.334 47.6797 109.882 47.7369 110.432C42.6813 110.547 37.6869 110.14 32.946 108.242C31.3806 107.615 29.8398 106.78 28.4993 105.764C25.2603 103.308 24.5982 99.1309 26.7398 95.6487C28.2643 93.1684 30.4795 91.418 32.9439 89.9785C37.5807 87.2692 42.577 85.4862 47.8166 84.3595C48.1579 84.2859 48.491 84.1693 48.8281 84.0712H48.8261Z" fill="#FCB601"/>
<path d="M102.955 150.203C103.186 150.173 103.416 150.144 103.649 150.113C103.899 150.134 104.15 150.175 104.399 150.175C112.788 150.179 121.177 150.179 129.565 150.179C130.068 150.218 130.571 150.256 131.253 150.308C131.045 150.913 130.891 151.469 130.667 151.995C130.005 153.536 128.838 154.109 127.148 154.105C109.512 154.066 91.8767 154.08 74.2392 154.086C73.949 154.086 73.6588 154.193 73.3687 154.25C73.3074 154.26 73.246 154.27 73.1827 154.283L72.8006 154.123C72.7147 154.146 72.6309 154.168 72.5451 154.191C72.4818 154.187 72.4184 154.18 72.3571 154.176C72.1732 154.084 71.9872 153.992 71.8033 153.9C71.6194 153.796 71.4355 153.692 71.2536 153.587C71.1269 153.5 70.9982 153.412 70.8715 153.322L70.5425 153.015L70.1236 152.514C70.1358 152.461 70.1174 152.422 70.0684 152.399C69.86 151.884 69.6515 151.371 69.4431 150.856C69.4288 150.757 69.4124 150.659 69.3981 150.561C69.533 150.295 69.6679 150.032 69.8007 149.766C69.9376 149.79 70.0766 149.815 70.2135 149.841C70.4587 149.95 70.7019 150.148 70.9491 150.15C72.6657 150.162 74.3802 150.132 76.0967 150.115C76.3971 150.132 76.6955 150.15 76.9959 150.167C78.7002 150.905 80.3677 151.747 82.119 152.344C83.3165 152.753 84.6284 152.823 85.8892 153.044C85.9955 153.06 86.1038 153.078 86.2101 153.095C86.4573 153.111 86.7026 153.125 86.9498 153.142C87.4341 153.16 87.9164 153.176 88.4007 153.195C89.4307 153.195 90.4606 153.199 91.4926 153.201L92.78 153.146C93.0272 153.131 93.2745 153.115 93.5218 153.101C93.628 153.076 93.7363 153.054 93.8426 153.029C94.0756 152.982 94.3085 152.933 94.5415 152.886C94.9195 152.841 95.2996 152.798 95.6777 152.753C95.9004 152.692 96.1252 152.63 96.3479 152.567L96.4031 152.579L96.4522 152.551C96.5564 152.534 96.6585 152.52 96.7628 152.504C96.9119 152.475 97.0611 152.446 97.2103 152.418C97.3676 152.359 97.527 152.299 97.6844 152.242C97.9357 152.191 98.1851 152.14 98.4364 152.089C98.5447 152.037 98.653 151.988 98.7593 151.937C98.9595 151.886 99.1598 151.833 99.3601 151.782C99.4704 151.733 99.5808 151.684 99.6911 151.637C99.8342 151.588 99.9772 151.539 100.12 151.489C100.237 151.438 100.355 151.387 100.472 151.336C100.613 151.281 100.752 151.226 100.893 151.171C101.056 151.068 101.22 150.968 101.383 150.866L101.643 150.768C101.755 150.698 101.865 150.629 101.978 150.559C102.123 150.518 102.268 150.477 102.413 150.436C102.593 150.357 102.773 150.279 102.955 150.199V150.203Z" fill="#0B0D0A"/>
<path d="M87.4444 41.9243C87.3831 44.1592 87.3279 46.3942 87.2584 48.6291C87.2441 49.1096 87.2339 49.6024 87.1153 50.0625C87.05 50.3181 86.7618 50.5185 86.5759 50.7434C86.4063 50.4756 86.0834 50.2016 86.0936 49.9398C86.1386 48.852 86.3163 47.7724 86.3858 46.6845C86.488 45.0917 86.5411 43.4947 86.6147 41.8998C86.5983 40.2864 86.5799 38.6711 86.5636 37.0577C86.4696 37.0066 86.3736 36.9555 86.2796 36.9044C85.4703 37.299 84.6141 37.618 83.8641 38.1026C82.3621 39.0718 80.7396 39.7364 79.0128 40.1004C77.5517 40.4091 76.1683 40.2578 75.2262 38.8244C74.5518 37.7979 74.5907 36.6651 75.4306 35.7409C76.8712 34.1582 78.6838 33.3955 80.805 33.4119C82.638 33.4262 84.3954 33.7718 85.8872 34.8473C87.7734 31.9274 90.5587 30.8743 93.8691 31.0788C96.4297 31.2383 98.277 33.7125 97.8581 36.1724C97.7171 37.0066 97.2777 37.4933 96.4624 37.6834C94.7581 38.0801 93.0395 38.1537 91.2984 38.0065C89.8271 37.8818 88.4436 37.5321 87.1399 36.4688C87.2482 38.4073 87.3442 40.1658 87.4423 41.9243H87.4444Z" fill="#80BA64"/>
<path d="M47.931 114.853C47.9719 114.563 48.0107 114.271 48.0516 113.982C48.115 113.972 48.1783 113.962 48.2417 113.952C48.2151 113.896 48.1885 113.841 48.164 113.788C48.2028 113.567 48.2417 113.346 48.2805 113.123L48.3173 113.097L48.2907 113.058C48.2907 112.948 48.2887 112.835 48.2866 112.725C48.397 112.418 48.5441 112.117 48.6074 111.8C48.7914 110.886 48.9426 109.964 49.1061 109.044C49.1061 108.991 49.1061 108.938 49.1061 108.885C49.0999 108.741 49.0918 108.598 49.0856 108.455C49.1285 107.723 49.7661 107.39 50.1237 106.868C50.5753 106.208 50.9023 105.462 51.2844 104.752C51.3784 104.541 51.4745 104.333 51.5685 104.122C51.5685 103.568 51.5685 103.014 51.5685 102.46C51.4745 102.3 51.3805 102.141 51.2865 101.981C51.5011 101.832 51.7156 101.683 51.9302 101.536C52.0569 101.548 52.1815 101.56 52.3082 101.572C53.4117 102.241 54.5929 102.458 55.8599 102.196C56.0663 102.208 56.2727 102.221 56.4791 102.231C56.6773 102.677 57.0022 102.666 57.3762 102.48C57.5887 102.505 57.7992 102.529 58.0117 102.554C58.2058 102.734 58.3979 102.912 58.635 103.133C58.3938 103.57 58.1261 104.022 57.8911 104.49C57.3169 105.633 56.898 106.799 57.2372 108.12C57.4211 108.835 57.5131 109.574 57.6377 110.25C57.1943 110.363 56.9143 110.435 56.6323 110.506C56.5914 110.576 56.5485 110.647 56.5077 110.717C56.3054 111.036 55.9866 111.334 55.9212 111.68C55.5166 113.804 55.1671 115.941 54.7993 118.072C54.3988 118.064 53.986 118.113 53.5997 118.037C51.9118 117.71 50.232 117.334 48.5421 117.002C48.1027 116.916 47.9515 116.704 47.9658 116.276C47.9801 115.804 47.9474 115.33 47.9351 114.855L47.931 114.853Z" fill="#0B0D0A"/>
<path d="M43.1717 140.836C42.6016 140.949 42.0294 141.059 41.4592 141.169C40.46 139.225 39.9368 137.233 40.8462 135.097C41.4429 133.694 42.4585 132.643 43.6805 131.776C44.0525 131.512 44.4509 131.283 44.8372 131.04C44.688 132.166 44.5756 133.299 44.3794 134.418C44.0034 136.561 43.5763 138.697 43.1717 140.836Z" fill="#FC6F22"/>
<path d="M54.2986 139.683C54.4355 140.061 54.5377 140.456 54.7155 140.812C55.8558 143.079 57.0144 145.337 58.1608 147.6C58.2385 147.752 58.2528 147.936 58.2978 148.103C57.979 148.126 57.6602 148.146 57.3394 148.167C55.8803 145.643 53.8593 143.709 51.2783 142.362C51.499 140.587 51.7136 138.81 51.9465 137.035C51.9629 136.906 52.0896 136.704 52.1774 136.695C52.3246 136.681 52.5167 136.763 52.6291 136.869C52.8559 137.084 53.0439 137.342 53.2462 137.581C53.2891 137.612 53.3341 137.642 53.377 137.673C53.377 137.74 53.377 137.806 53.377 137.873C53.4281 137.98 53.4812 138.086 53.5323 138.19C53.5446 138.229 53.5691 138.258 53.6059 138.276L53.988 139C54.0023 139.067 54.0146 139.137 54.0289 139.204C54.1188 139.339 54.2067 139.476 54.2966 139.611L54.2986 139.679V139.683Z" fill="#FC6F22"/>
<path d="M69.0405 149.944C67.7163 149.457 67.0522 148.302 66.4759 147.171C65.4092 145.077 64.4978 142.903 63.4985 140.775C63.0796 139.883 62.6014 139.018 62.1498 138.141C61.6553 137.012 61.1709 135.88 60.6621 134.759C59.8406 132.949 59.015 131.142 58.167 129.347C57.2535 127.412 56.3115 125.492 55.3735 123.57C55.3367 123.496 55.2121 123.466 55.1283 123.415C54.8667 122.4 54.5725 121.392 54.364 120.368C54.2925 120.014 54.4396 119.618 54.4764 119.237C54.5152 118.832 54.4294 118.579 53.9247 118.532C53.33 118.477 52.7456 118.307 52.1632 118.168C50.8001 117.841 49.4392 117.503 48.0782 117.17C47.9699 117.37 47.8616 117.569 47.7533 117.769C47.7001 118.127 47.645 118.483 47.5918 118.841C47.4999 119.102 47.4099 119.366 47.318 119.628C47.3078 119.824 47.2955 120.022 47.2853 120.219C47.1913 120.532 47.0993 120.844 47.0053 121.155C46.9931 121.401 46.9808 121.646 46.9665 121.891C46.8582 121.728 46.7499 121.566 46.6436 121.403C46.6579 121.108 46.6722 120.816 46.6865 120.521C46.7765 120.204 46.8664 119.887 46.9563 119.571C46.9685 119.376 46.9808 119.182 46.9931 118.988C47.085 118.622 47.177 118.256 47.2689 117.89C47.2792 117.693 47.2914 117.497 47.3016 117.301C47.3098 117.201 47.3159 117.102 47.3241 117.002C47.3323 116.904 47.3405 116.806 47.3486 116.708C47.4243 116.491 47.5019 116.272 47.5796 116.056C47.696 115.653 47.8125 115.252 47.927 114.849C47.9392 115.324 47.9719 115.796 47.9576 116.27C47.9453 116.696 48.0966 116.91 48.5339 116.996C50.2218 117.327 51.9016 117.704 53.5916 118.031C53.9798 118.106 54.3906 118.057 54.7911 118.066C54.8177 118.106 54.8545 118.127 54.9035 118.131C54.9178 118.538 54.9648 118.947 54.9362 119.352C54.8524 120.55 55.1119 121.66 55.633 122.74C56.4177 124.361 57.1432 126.01 57.9075 127.641C57.9892 127.815 58.167 127.946 58.2978 128.097C58.8536 129.387 59.4054 130.682 59.9694 131.968C60.517 133.215 61.0769 134.456 61.6369 135.696C61.6634 135.755 61.7533 135.786 61.8147 135.829C62.769 137.933 63.7233 140.037 64.6776 142.141C65.211 143.316 65.7321 144.496 66.2838 145.664C66.4555 146.028 66.7027 146.353 66.9153 146.696C66.952 146.836 66.9684 146.983 67.0276 147.112C67.559 148.253 68.5276 148.95 69.5514 149.59L69.0344 149.944H69.0405Z" fill="#B1B0AB"/>
<path d="M46.6457 121.405C46.754 121.568 46.8623 121.73 46.9706 121.893C46.9481 122.243 46.9624 122.601 46.8929 122.942C46.7438 123.672 46.5292 124.388 46.3821 125.118C46.1961 126.046 46.0347 126.979 45.8875 127.913C45.7281 128.921 45.5974 129.931 45.4543 130.941C45.4502 131.191 45.4441 131.44 45.44 131.69C45.344 131.9 45.25 132.113 45.1539 132.324C45.1008 132.886 45.0477 133.446 44.9945 134.009C44.9434 134.162 44.8944 134.315 44.8433 134.469C44.69 135.647 44.6042 136.841 44.3672 138C44.1322 139.145 43.7418 140.257 43.421 141.384C43.3393 141.202 43.2555 141.02 43.1738 140.838C43.5784 138.699 44.0034 136.565 44.3815 134.42C44.5776 133.301 44.69 132.168 44.8392 131.042C45.0293 129.768 45.2111 128.492 45.4134 127.22C45.6811 125.533 45.9529 123.848 46.2533 122.167C46.3024 121.9 46.5128 121.66 46.6477 121.407L46.6457 121.405Z" fill="#C8C8C8"/>
<path d="M49.0836 108.453C49.0897 108.596 49.0979 108.739 49.104 108.882C49.104 108.936 49.104 108.989 49.104 109.042C48.9405 109.962 48.7893 110.882 48.6054 111.798C48.542 112.115 48.3929 112.414 48.2825 112.723C48.2294 112.563 48.1742 112.404 48.1211 112.244C47.9923 111.641 47.8616 111.038 47.7328 110.437C47.6756 109.886 47.6184 109.338 47.5612 108.788C47.882 108.153 48.4767 108.592 48.9201 108.441C48.9732 108.447 49.0284 108.451 49.0815 108.457L49.0836 108.453Z" fill="#14B953"/>
<path d="M119.27 160.057C119.525 159.918 119.781 159.656 120.036 159.656C122.082 159.654 124.125 159.701 126.171 159.732C127.489 159.742 128.807 159.752 130.127 159.763C130.084 159.908 130.043 160.053 130 160.198C128.225 160.165 126.449 160.127 124.673 160.102C122.873 160.078 121.07 160.069 119.27 160.053V160.057Z" fill="#6E6E6E"/>
<path d="M100.12 151.494C99.9772 151.543 99.8342 151.592 99.6911 151.641C99.5808 151.69 99.4704 151.739 99.3601 151.786C99.1598 151.837 98.9595 151.89 98.7593 151.941C98.651 151.993 98.5427 152.042 98.4364 152.093C98.185 152.144 97.9357 152.195 97.6844 152.246C97.527 152.305 97.3676 152.365 97.2103 152.422C97.0611 152.451 96.9119 152.479 96.7628 152.508C96.7587 152.418 96.7546 152.33 96.7505 152.24C98.1544 151.741 99.5644 151.26 100.958 150.733C101.498 150.528 101.998 150.216 102.515 149.954C102.528 150.023 102.542 150.091 102.556 150.16C102.509 150.252 102.462 150.344 102.415 150.438C102.27 150.479 102.125 150.52 101.98 150.561C101.867 150.631 101.757 150.7 101.645 150.77C101.559 150.802 101.471 150.835 101.385 150.868C101.222 150.97 101.058 151.07 100.895 151.173C100.754 151.228 100.615 151.283 100.474 151.338C100.357 151.389 100.239 151.44 100.122 151.492L100.12 151.494Z" fill="#B1B0AB"/>
<path d="M58.8945 149.216C58.9517 149.173 59.011 149.128 59.0682 149.085C59.4258 149.862 59.7875 150.635 60.1328 151.418C60.1533 151.465 60.0307 151.573 59.9755 151.655C59.6158 150.841 59.2562 150.03 58.8945 149.216Z" fill="#C8C8C8"/>
<path d="M48.1231 112.24C48.1763 112.4 48.2314 112.559 48.2846 112.719C48.2846 112.829 48.2866 112.941 48.2887 113.052L48.258 113.08L48.2784 113.117C48.2396 113.338 48.2008 113.559 48.164 113.78C48.1109 113.796 48.0577 113.815 48.0046 113.831C48.0434 113.299 48.0823 112.768 48.1231 112.236V112.24Z" fill="#B1B0AB"/>
<path d="M146.923 168.457C147.158 168.443 147.391 168.426 147.626 168.412C147.346 168.516 147.064 168.621 146.784 168.725C146.831 168.635 146.878 168.547 146.925 168.457H146.923Z" fill="#C8C8C8"/>
<path d="M134.925 166.445C135.199 166.637 135.475 166.829 135.751 167.02C135.477 166.827 135.201 166.637 134.925 166.445Z" fill="#C8C8C8"/>
<path d="M102.415 150.441C102.462 150.349 102.509 150.254 102.556 150.162C102.689 150.177 102.822 150.189 102.955 150.203C102.775 150.283 102.595 150.361 102.413 150.441H102.415Z" fill="#9F9F9D"/>
<path d="M153.207 165.185C153.325 165.069 153.444 164.952 153.56 164.836C153.442 164.952 153.323 165.069 153.207 165.185Z" fill="#C8C8C8"/>
<path d="M48.0046 113.835C48.0577 113.819 48.1109 113.8 48.164 113.784C48.1885 113.839 48.2151 113.894 48.2417 113.949C48.1783 113.96 48.115 113.972 48.0516 113.98C48.0373 113.931 48.021 113.884 48.0067 113.835H48.0046Z" fill="#14B953"/>
<path d="M56.5036 110.713C56.5444 110.643 56.5874 110.571 56.6282 110.502C57.276 110.756 57.9626 110.942 58.5655 111.277C59.3768 111.729 60.0593 112.483 60.9094 112.774C62.3153 113.252 63.8071 113.479 65.2702 113.782C68.3805 114.424 71.4886 115.088 74.6152 115.653C75.5 115.812 76.4871 115.837 77.3494 115.616C79.7546 115 81.3424 113.448 81.8962 110.98C82.5175 108.216 81.0707 105.408 78.551 104.286C77.2718 103.717 75.8209 103.509 74.4272 103.229C71.4151 102.623 68.3764 102.137 65.3745 101.487C63.2349 101.024 61.2506 101.135 59.3686 102.335C59.1417 102.48 58.7637 102.39 58.4572 102.411C61.0586 99.4847 64.0584 97.0248 67.2729 94.8104C67.9166 94.3666 68.5399 93.8923 69.1733 93.4342C70.1665 92.878 71.1678 92.3341 72.1528 91.7616C73.6466 90.8926 75.2834 90.4284 76.9693 90.2137C81.7757 89.5982 86.3695 90.3752 90.7181 92.5304C91.3046 92.8208 91.8808 93.1296 92.4612 93.4301C92.9108 93.833 93.3644 94.2317 93.8099 94.6386C95.4181 96.1067 96.5932 97.8141 96.82 100.055C97.0325 102.163 96.3725 104.047 95.2731 105.783C92.9905 109.383 89.8067 112.025 86.1059 114.035C79.348 117.702 72.161 119.767 64.4079 119.425C62.9733 119.362 61.5286 119.039 60.1308 118.667C58.3427 118.192 56.8183 117.223 55.6923 115.708C55.9641 114.044 56.2359 112.379 56.5077 110.713H56.5036Z" fill="#FCB601"/>
<path d="M64.8881 92.5345C62.5789 92.508 60.3065 92.2503 58.1506 91.4038C57.3353 91.0828 56.5383 90.6165 55.8619 90.0604C53.9431 88.4798 54.176 85.705 55.2795 83.9956C55.8088 83.1756 56.2604 82.3925 56.4075 81.3803C56.6977 79.3682 57.9565 77.9532 59.6976 77.0351C62.3582 75.6304 65.1905 75.1703 68.1168 76.0271C71.74 77.0904 73.6221 79.8099 74.5621 83.2615C75.4285 86.4452 74.4068 89.4265 71.6787 91.2259C70.6753 91.8884 69.3103 92.0602 68.078 92.2953C67.0379 92.4936 65.9528 92.463 64.8881 92.5345Z" fill="#FC6F22"/>
<path d="M69.1693 93.4321C68.5358 93.8922 67.9125 94.3645 67.2688 94.8083C64.0543 97.0228 61.0545 99.4826 58.4531 102.409C58.3039 102.456 58.1568 102.503 58.0076 102.55C57.7951 102.525 57.5846 102.501 57.3721 102.476C57.0737 102.392 56.7733 102.311 56.475 102.227C56.2686 102.214 56.0622 102.202 55.8558 102.192C54.6726 101.983 53.4894 101.777 52.3042 101.568C52.1775 101.556 52.0528 101.544 51.9261 101.531C51.544 101.186 51.1046 100.883 50.794 100.483C50.232 99.7628 49.6803 99.0573 48.8057 98.6974C48.7771 98.6668 48.7464 98.6402 48.7137 98.6156C48.6545 98.5972 48.5931 98.5809 48.5339 98.5625C48.0312 98.2762 47.5305 97.9899 47.0278 97.7057C47.1014 96.4175 47.1647 95.1293 47.2608 93.8431C47.273 93.6918 47.4651 93.5528 47.5734 93.4076C48.3868 93.4199 49.2001 93.4403 50.0134 93.4403C56.3994 93.4403 62.7833 93.4342 69.1693 93.4301V93.4321Z" fill="#14B953"/>
<path d="M77.5436 69.6515C79.0108 69.6515 80.2165 70.8518 80.2226 72.3199C80.2308 73.7901 79.0394 75.0047 77.5742 75.0211C76.0763 75.0374 74.8441 73.8126 74.8563 72.3138C74.8666 70.8456 76.0743 69.6515 77.5436 69.6515Z" fill="#0B0D0A"/>
<path d="M67.7654 67.0465C69.2306 67.0587 70.426 68.2692 70.4219 69.7374C70.4178 71.2035 69.2163 72.4099 67.7511 72.414C66.2552 72.4201 65.0332 71.183 65.0577 69.6822C65.0802 68.2161 66.2961 67.0321 67.7674 67.0444L67.7654 67.0465Z" fill="#0B0D0A"/>
<path d="M100.267 114.782C100.57 115.07 100.786 115.277 101.038 115.516C100.363 116.254 99.7095 116.931 99.1026 117.646C98.5754 118.268 98.4936 118.98 98.8962 119.708C99.2558 120.358 99.8403 120.581 100.562 120.566C101.573 120.546 102.583 119.254 101.931 118.086C101.559 118.434 101.203 118.767 100.784 119.158C100.549 118.943 100.314 118.73 99.9997 118.442C100.65 117.745 101.265 117.082 101.874 116.43C103.214 117.062 103.623 118.992 102.895 120.227C102.09 121.593 100.437 122.082 99.0556 121.341C97.6803 120.605 97.1429 118.898 97.8642 117.53C97.9827 117.307 98.1156 117.082 98.2852 116.896C98.9166 116.203 99.5665 115.526 100.267 114.784V114.782Z" fill="#EAEBEA"/>
<path d="M112.565 103.041C114.141 103.081 115.346 104.349 115.314 105.928C115.281 107.521 113.975 108.762 112.377 108.723C110.834 108.684 109.602 107.386 109.625 105.823C109.647 104.235 110.953 103 112.565 103.043V103.041ZM112.457 104.11C111.464 104.116 110.669 104.938 110.695 105.93C110.72 106.868 111.541 107.658 112.488 107.649C113.448 107.641 114.227 106.86 114.237 105.895C114.249 104.883 113.471 104.102 112.457 104.108V104.11Z" fill="#FEFEFE"/>
<path d="M108.298 107.637C109.872 107.684 111.071 108.956 111.031 110.537C110.988 112.13 109.678 113.365 108.08 113.316C106.537 113.268 105.309 111.962 105.343 110.4C105.378 108.809 106.682 107.588 108.298 107.637ZM108.17 108.707C107.172 108.717 106.386 109.533 106.412 110.531C106.437 111.465 107.268 112.258 108.211 112.246C109.171 112.234 109.947 111.451 109.954 110.488C109.962 109.471 109.183 108.696 108.168 108.707H108.17Z" fill="#FEFEFE"/>
<path d="M107.174 114.174C107.454 114.475 107.659 114.694 107.896 114.947C106.929 116.115 106.014 117.264 104.303 117.008C103.139 116.835 102.346 116.146 102.004 115.033C101.471 113.295 102.544 112.211 103.739 111.101C103.985 111.314 104.217 111.518 104.512 111.774C104.175 112.158 103.878 112.496 103.58 112.833C102.799 113.714 102.785 114.788 103.547 115.483C104.293 116.166 105.315 116.084 106.126 115.272C106.447 114.949 106.756 114.616 107.176 114.176L107.174 114.174Z" fill="#EAEBEA"/>
<path d="M56.5036 110.713C56.2318 112.377 55.96 114.043 55.6882 115.708C55.5431 116.242 55.4103 116.779 55.2468 117.307C55.1589 117.591 55.022 117.857 54.9076 118.133C54.8585 118.133 54.8218 118.111 54.7952 118.07C55.163 115.937 55.5104 113.802 55.9171 111.678C55.9825 111.332 56.3013 111.034 56.5036 110.715V110.713Z" fill="#3A3A3A"/>
<path d="M85.8913 153.048C84.6304 152.827 83.3165 152.757 82.121 152.348C80.3697 151.749 78.7022 150.909 76.9979 150.171C77.0041 150.099 77.0102 150.025 77.0163 149.954C79.7546 151.6 82.7892 152.324 85.8954 152.831C85.8954 152.904 85.8933 152.976 85.8913 153.05V153.048Z" fill="#9F9F9D"/>
<path d="M85.8913 153.048C85.8913 152.974 85.8933 152.902 85.8954 152.829C88.5397 153.019 91.1799 153.08 93.816 152.712C94.6907 152.59 95.5714 152.516 96.4501 152.42C96.4501 152.465 96.4501 152.512 96.4522 152.557L96.4031 152.585L96.3479 152.573C96.1252 152.635 95.9004 152.696 95.6777 152.759C95.2996 152.804 94.9195 152.847 94.5394 152.892C94.3065 152.939 94.0735 152.988 93.8406 153.035C93.7343 153.06 93.626 153.082 93.5197 153.107C93.2725 153.121 93.0252 153.138 92.7779 153.152C92.3488 153.17 91.9197 153.189 91.4905 153.207C90.4606 153.207 89.4307 153.203 88.3987 153.201C87.9144 153.183 87.4321 153.166 86.9478 153.148C86.7005 153.131 86.4553 153.117 86.208 153.101C86.1018 153.084 85.9935 153.066 85.8872 153.05L85.8913 153.048Z" fill="#B1B0AB"/>
<path d="M77.0163 149.954C77.0102 150.025 77.0041 150.099 76.9979 150.171C76.6975 150.154 76.3992 150.136 76.0988 150.119C76.0906 150.036 76.0824 149.952 76.0743 149.868C76.297 149.843 76.5177 149.819 76.7404 149.794C76.8324 149.847 76.9244 149.901 77.0163 149.954Z" fill="#B1B0AB"/>
<path d="M96.4542 152.557C96.4542 152.512 96.4521 152.465 96.4521 152.42C96.5523 152.361 96.6524 152.303 96.7525 152.244C96.7566 152.334 96.7607 152.422 96.7648 152.512C96.6606 152.528 96.5584 152.543 96.4542 152.559V152.557Z" fill="#9F9F9D"/>
<path d="M42.5178 157.775C42.9755 158.44 44.5552 158.986 45.3766 158.763C47.2608 158.252 48.444 156.691 48.6953 154.753C48.8997 153.164 49.3431 151.606 49.6803 150.034C51.4827 151.491 52.1264 153.475 51.8546 155.659C51.4908 158.587 49.7232 160.863 46.6068 161.677C43.2269 162.558 39.7427 161.239 38.2162 157.712C36.8756 154.612 37.7625 150.845 41.1507 148.884C41.5553 148.649 41.9231 148.351 42.3073 148.081C42.3359 148.191 42.3645 148.304 42.3931 148.414C42.2869 148.772 42.1806 149.128 42.0743 149.486C42.0662 149.772 42.058 150.06 42.0498 150.346C41.9538 150.776 41.8577 151.203 41.7596 151.633C41.729 151.892 41.6983 152.15 41.6677 152.41C41.5798 152.767 41.4919 153.125 41.4041 153.481C41.3857 153.735 41.3693 153.99 41.3509 154.244C41.0996 154.849 40.9259 155.454 41.3489 156.06C41.3632 156.162 41.3755 156.262 41.3898 156.364C41.5062 156.542 41.6227 156.72 41.7392 156.898L42.5157 157.773L42.5178 157.775Z" fill="#9F9F9D"/>
<path d="M42.0519 150.348C42.06 150.062 42.0682 149.774 42.0764 149.488C42.1826 149.13 42.2889 148.774 42.3952 148.416C42.3666 148.306 42.3379 148.193 42.3093 148.083C42.3706 147.788 42.432 147.494 42.4933 147.2C42.5689 147.093 42.6424 146.989 42.718 146.883L42.622 146.525C42.6567 146.292 42.6894 146.059 42.7242 145.827C42.857 145.378 43.0123 144.934 43.1084 144.476C43.1513 144.271 43.0797 144.042 43.0593 143.824L43.1574 143.355C43.1921 143.241 43.2269 143.128 43.2596 143.014C43.3107 142.47 43.3638 141.926 43.4149 141.382C43.7357 140.255 44.126 139.143 44.361 137.998C44.6001 136.837 44.6859 135.644 44.8372 134.467C44.8883 134.313 44.9373 134.16 44.9884 134.007C45.0415 133.444 45.0946 132.884 45.1457 132.322C45.2418 132.111 45.3358 131.898 45.4318 131.688C45.4359 131.438 45.442 131.189 45.4461 130.939C45.9591 130.735 46.4924 130.573 46.9788 130.32C48.0577 129.758 49.4473 130.342 49.9623 130.968C50.6918 131.856 50.7163 133.238 50.044 134.078C49.1469 135.201 47.8943 135.426 46.662 134.718C46.4413 134.591 46.1491 134.589 45.908 134.532C45.908 135.487 45.8998 136.28 45.908 137.074C45.9182 137.98 46.2921 138.501 46.9767 138.597C47.6041 138.685 48.4583 138.084 48.6585 137.405C48.7219 137.186 48.7934 136.963 48.8077 136.738C48.8527 135.986 49.196 135.869 49.7947 136.237C49.4555 139.266 48.585 139.822 45.1212 139.08C45.1212 139.716 45.1314 140.325 45.1192 140.934C45.1049 141.615 45.0231 142.298 45.0558 142.977C45.0783 143.47 45.1641 144.124 45.8405 144.04C46.3371 143.979 46.9236 143.715 47.2424 143.345C47.7471 142.76 47.4549 141.816 46.7662 141.415C46.6906 141.656 46.5741 141.887 46.5496 142.126C46.5088 142.546 46.284 142.648 45.9264 142.562C45.5422 142.47 45.3746 142.263 45.5054 141.836C45.6852 141.257 45.8119 140.66 45.957 140.088C47.2587 139.685 48.8261 141.697 48.4664 142.971C48.0598 144.406 47.0135 145.224 45.8467 145.042C45.0395 144.915 44.9925 145.492 44.9884 146.048C44.9761 148.191 44.9823 150.336 44.9802 152.479C44.6757 152.506 44.3733 152.532 44.0688 152.561C43.7623 152.277 43.6397 152.395 43.6294 152.761C43.5273 152.817 43.4251 152.872 43.3229 152.927C42.8284 152.745 42.6179 152.958 42.6486 153.608C42.6261 153.667 42.6036 153.724 42.5811 153.784C42.5219 153.886 42.4626 153.986 42.4054 154.088C42.4013 154.647 42.3972 155.203 42.3952 155.761C42.105 156.098 42.2644 156.201 42.624 156.194L42.6363 156.231C42.4503 156.837 42.9326 157.063 43.3045 157.256C43.6928 157.454 44.1648 157.481 44.5858 157.624C44.737 157.675 44.8474 157.847 44.9761 157.965C44.8372 158.1 44.6696 158.368 44.5654 158.346C43.8706 158.19 43.1901 157.971 42.5055 157.775C42.246 157.483 41.9885 157.19 41.729 156.9C41.6125 156.722 41.496 156.544 41.3795 156.366C41.3652 156.264 41.353 156.164 41.3387 156.062C41.3387 155.456 41.3387 154.851 41.3407 154.246C41.3591 153.992 41.3755 153.737 41.3918 153.483C41.9333 153.238 41.8169 152.831 41.6554 152.412C41.6861 152.152 41.7167 151.894 41.7474 151.635C41.8434 151.205 41.9395 150.778 42.0376 150.348H42.0519ZM49.5924 132.698C49.5924 131.69 49.0407 131.105 48.0863 131.097C47.1116 131.089 46.5251 131.676 46.5312 132.647C46.5374 133.581 47.1116 134.156 48.0496 134.16C48.9957 134.164 49.5945 133.598 49.5945 132.698H49.5924Z" fill="#FEFEFE"/>
<path d="M51.5746 137.53C51.5787 137.379 51.5828 137.227 51.5869 137.074C51.7381 136.614 51.8914 136.156 52.0426 135.696C52.5902 136.231 53.3279 136.644 53.2442 137.583C53.0398 137.344 52.8539 137.086 52.627 136.871C52.5146 136.765 52.3225 136.683 52.1754 136.698C52.0855 136.706 51.9608 136.91 51.9445 137.037C51.7136 138.812 51.497 140.589 51.2763 142.364C51.0658 142.591 50.8533 142.82 50.6428 143.049C50.653 142.795 50.6612 142.54 50.6714 142.286C50.7613 142.026 50.8512 141.767 50.9432 141.505C50.9513 141.049 50.9595 140.593 50.9677 140.139C51.0637 139.779 51.1598 139.417 51.2558 139.057C51.262 138.857 51.2701 138.654 51.2763 138.454C51.3764 138.145 51.4745 137.839 51.5746 137.53Z" fill="#9F9F9D"/>
<path d="M43.0614 143.824C43.0818 144.042 43.1533 144.271 43.1104 144.476C43.0123 144.934 42.857 145.378 42.7262 145.827C42.8386 145.159 42.951 144.492 43.0634 143.824H43.0614Z" fill="#9F9F9D"/>
<path d="M50.0011 146.789C50.0747 146.461 50.1503 146.134 50.2239 145.805C50.1503 146.132 50.0747 146.459 50.0011 146.789Z" fill="#9F9F9D"/>
<path d="M50.3219 144.885C50.3873 144.633 50.4527 144.382 50.5202 144.13C50.4548 144.382 50.3894 144.633 50.3219 144.885Z" fill="#9F9F9D"/>
<path d="M42.718 146.883C42.6424 146.989 42.5689 147.093 42.4933 147.2C42.4851 147.107 42.4769 147.015 42.4687 146.923C42.5525 146.911 42.6363 146.897 42.718 146.885V146.883Z" fill="#EAEBEA"/>
<path d="M42.718 146.883C42.6343 146.895 42.5505 146.909 42.4687 146.921C42.5198 146.789 42.5709 146.658 42.624 146.525C42.6567 146.643 42.6874 146.764 42.7201 146.883H42.718Z" fill="#9F9F9D"/>
<path d="M50.5651 143.86C50.5038 143.803 50.4405 143.746 50.3792 143.689C50.4568 143.619 50.5324 143.55 50.6101 143.48C50.5958 143.607 50.5815 143.734 50.5672 143.86H50.5651Z" fill="#9F9F9D"/>
<path d="M43.2637 143.014C43.2289 143.128 43.1942 143.241 43.1615 143.355C43.1962 143.241 43.231 143.128 43.2637 143.014Z" fill="#9F9F9D"/>
<path d="M136.732 158.102C136.732 156.047 136.709 153.99 136.746 151.935C136.756 151.375 136.938 150.819 137.042 150.261C134.701 150.248 132.361 150.205 130.052 149.737C129.89 149.884 129.727 150.032 129.563 150.181C130.066 150.22 130.569 150.259 131.251 150.31C131.043 150.915 130.889 151.471 130.665 151.997C130.003 153.538 128.836 154.111 127.146 154.107C109.51 154.068 91.8747 154.082 74.2371 154.088C73.947 154.088 73.6568 154.195 73.3666 154.254C73.3053 154.264 73.244 154.274 73.1827 154.287C73.0724 154.324 72.964 154.358 72.8537 154.395C72.7515 154.328 72.6493 154.262 72.5451 154.195L72.3571 154.18C72.1732 154.088 71.9872 153.996 71.8033 153.904C71.6194 153.8 71.4355 153.696 71.2536 153.592C71.1269 153.504 70.9982 153.416 70.8715 153.326C70.7611 153.223 70.6528 153.121 70.5425 153.019C70.4035 152.851 70.2625 152.686 70.1236 152.518C70.1358 152.465 70.1174 152.426 70.0684 152.401C69.9315 152.397 69.7946 152.393 69.6597 152.389C69.5412 151.884 69.4206 151.379 69.3021 150.872L69.1652 150.557C69.1222 150.353 69.0814 150.146 69.0385 149.942C67.7143 149.455 67.0501 148.3 66.4739 147.169C65.4071 145.075 64.4957 142.901 63.4965 140.773C63.0775 139.881 62.5994 139.016 62.1477 138.139C61.6532 137.01 61.1689 135.878 60.6601 134.757C59.8386 132.947 59.013 131.14 58.1649 129.345C57.2515 127.41 56.3094 125.49 55.3715 123.568C55.3347 123.494 55.21 123.464 55.1262 123.413C54.8647 122.398 54.5704 121.39 54.362 120.366C54.2904 120.012 54.4376 119.616 54.4744 119.235C54.5132 118.83 54.4274 118.577 53.9226 118.53C53.328 118.475 52.7435 118.305 52.1611 118.166C50.7981 117.839 49.4371 117.501 48.0761 117.168C47.9678 117.368 47.8595 117.567 47.7512 117.767C47.6981 118.125 47.6429 118.481 47.5898 118.839C47.4978 119.1 47.4079 119.364 47.3159 119.626C47.3057 119.822 47.2955 120.02 47.2832 120.217C47.1892 120.53 47.0973 120.84 47.0033 121.153C46.991 121.399 46.9788 121.644 46.9665 121.889C46.944 122.239 46.9583 122.597 46.8888 122.938C46.7397 123.668 46.5251 124.384 46.378 125.114C46.192 126.042 46.0306 126.975 45.8834 127.909C45.724 128.917 45.5933 129.927 45.4502 130.937C45.9631 130.733 46.4965 130.571 46.9828 130.318C48.0618 129.756 49.4514 130.34 49.9664 130.966C50.6959 131.854 50.7204 133.236 50.0481 134.076C49.151 135.199 47.8983 135.424 46.6661 134.716C46.4454 134.589 46.1532 134.587 45.9121 134.53C45.9121 135.485 45.9039 136.278 45.9121 137.072C45.9223 137.978 46.2962 138.499 46.9808 138.595C47.6082 138.683 48.4624 138.082 48.6626 137.403C48.726 137.184 48.7975 136.961 48.8118 136.736C48.8567 135.984 49.2001 135.867 49.7988 136.235C49.4596 139.264 48.589 139.82 45.1253 139.078C45.1253 139.714 45.1355 140.323 45.1233 140.932C45.109 141.613 45.0272 142.296 45.0599 142.975C45.0824 143.468 45.1682 144.122 45.8446 144.038C46.3412 143.977 46.9277 143.713 47.2465 143.343C47.7512 142.758 47.459 141.814 46.7703 141.413C46.6927 141.654 46.5782 141.885 46.5537 142.124C46.5128 142.544 46.2881 142.646 45.9304 142.56C45.5463 142.468 45.3787 142.261 45.5095 141.834C45.6893 141.255 45.816 140.658 45.9611 140.086C47.2628 139.683 48.8302 141.695 48.4705 142.969C48.0639 144.404 47.0176 145.222 45.8507 145.04C45.0436 144.914 44.9966 145.49 44.9925 146.046C44.9802 148.189 44.9863 150.334 44.9843 152.477C45.5483 152.839 46.2411 153.097 46.6477 153.587C47.4426 154.551 47.2465 155.89 46.3616 156.675C45.4543 157.479 43.9666 157.468 43.0736 156.651C42.9244 156.514 42.7834 156.368 42.6383 156.227C42.4524 156.833 42.9347 157.059 43.3066 157.252C43.6948 157.45 44.1669 157.477 44.5879 157.62C44.7391 157.671 44.8494 157.843 44.9782 157.961C44.8392 158.096 44.6716 158.364 44.5674 158.342C43.8726 158.186 43.1921 157.967 42.5076 157.771C42.9653 158.436 44.5449 158.982 45.3664 158.759C47.2506 158.247 48.4337 156.687 48.6851 154.749C48.8894 153.16 49.3329 151.602 49.6701 150.03C49.6701 149.917 49.6721 149.807 49.6742 149.694C49.7518 149.111 49.8295 148.529 49.9071 147.946C49.9357 147.557 49.9643 147.171 49.9929 146.782C50.0665 146.455 50.1421 146.128 50.2157 145.799C50.2484 145.492 50.2811 145.185 50.3138 144.877L50.512 144.122C50.5263 144.032 50.5426 143.942 50.5569 143.852L50.371 143.681C50.4486 143.611 50.5243 143.541 50.6019 143.472C50.6142 143.329 50.6244 143.186 50.6366 143.043C50.6469 142.789 50.655 142.533 50.6653 142.28C50.3444 141.877 50.5018 141.64 50.935 141.499C50.9432 141.043 50.9513 140.587 50.9595 140.133C50.745 139.689 50.604 139.264 51.2477 139.051L51.2681 138.448C51.0065 138.025 50.9922 137.679 51.5664 137.524L51.5787 137.068C51.358 136.485 51.2906 135.953 52.0344 135.69C52.5821 136.225 53.3198 136.638 53.236 137.577C53.2789 137.608 53.3239 137.638 53.3668 137.669C53.4322 137.724 53.4976 137.777 53.563 137.832C53.5486 137.951 53.5364 138.07 53.5221 138.186C53.5343 138.225 53.5589 138.256 53.5957 138.274C53.7223 138.515 53.8511 138.755 53.9778 138.996C53.9921 139.063 54.0044 139.133 54.0187 139.2C54.1086 139.335 54.1964 139.472 54.2864 139.607L54.2884 139.675C54.4253 140.053 54.5275 140.448 54.7053 140.804C55.8456 143.071 57.0042 145.329 58.1506 147.592C58.2283 147.743 58.2426 147.928 58.2876 148.095C58.4878 148.465 58.686 148.835 58.8863 149.206C58.9435 149.163 59.0028 149.118 59.06 149.075C59.4176 149.852 59.7793 150.625 60.1247 151.408C60.1451 151.455 60.0225 151.563 59.9673 151.645C60.4884 152.659 61.0075 153.671 61.5286 154.685C61.7758 155.117 62.064 155.532 62.2663 155.986C63.0673 157.794 64.6122 158.804 66.341 159.378C68.689 160.161 71.1739 160.137 73.6364 160.022C73.7365 160.022 73.8366 160.024 73.9388 160.026C74.1493 160.08 74.3577 160.178 74.5682 160.18C77.331 160.192 80.0939 160.192 82.8567 160.186C83.0488 160.186 83.2388 160.108 83.4309 160.065C84.6059 160.055 85.7789 160.047 86.9539 160.037C88.0778 160.037 89.2018 160.039 90.3257 160.041C97.807 160.065 105.288 160.09 112.77 160.11C112.892 160.11 113.017 160.069 113.142 160.047C115.183 160.047 117.224 160.047 119.264 160.049C119.519 159.91 119.775 159.648 120.03 159.648C122.076 159.646 124.119 159.693 126.165 159.724C127.483 159.734 128.801 159.744 130.121 159.757C130.444 159.802 130.767 159.885 131.09 159.887C133.09 159.9 135.089 159.9 137.089 159.887C137.324 159.887 137.557 159.783 137.792 159.728C137.083 159.492 136.728 158.948 136.728 158.096L136.732 158.102ZM49.2389 129.719C47.79 129.698 46.6722 128.584 46.6804 127.167C46.6865 125.758 47.788 124.664 49.2021 124.662C50.6101 124.662 51.7279 125.801 51.734 127.249C51.7401 128.523 50.5161 129.735 49.2389 129.717V129.719ZM75.5246 159.928C75.6942 159.918 75.8658 159.912 76.0354 159.906C75.8658 159.912 75.6942 159.92 75.5246 159.928ZM78.3916 159.885C77.9993 159.887 77.6069 159.885 77.2145 159.887C77.6069 159.887 77.9993 159.887 78.3916 159.885C78.3487 159.834 78.3058 159.759 78.2629 159.701C78.3058 159.759 78.3507 159.834 78.3916 159.885Z" fill="url(#paint0_linear_45_7451)"/>
<path d="M137.796 159.734C137.087 159.498 136.732 158.954 136.732 158.102C136.732 156.047 136.709 153.99 136.746 151.935C136.756 151.375 136.938 150.819 137.042 150.261C137.472 150.232 137.903 150.205 138.332 150.177C140.142 150.212 141.951 150.244 143.761 150.279C143.892 150.346 144.023 150.414 144.154 150.481C144.689 150.614 145.223 150.747 145.758 150.88C145.879 150.962 146.001 151.046 146.122 151.128C147.113 151.651 147.718 152.463 147.943 153.559L148.122 153.939C148.124 154.596 148.128 155.252 148.131 155.908C148.03 156.15 147.928 156.393 147.828 156.634C147.812 156.757 147.797 156.877 147.781 157C147.689 157.131 147.597 157.262 147.505 157.391C146.958 157.941 146.41 158.493 145.862 159.043C145.731 159.133 145.599 159.225 145.468 159.315C145.347 159.335 145.227 159.356 145.106 159.376C144.863 159.483 144.622 159.589 144.379 159.695C144.105 159.722 143.831 159.769 143.555 159.771C141.914 159.791 140.273 159.802 138.632 159.816C138.354 159.789 138.076 159.763 137.796 159.736V159.734Z" fill="#0B0D0A"/>
<path d="M138.632 159.816C140.273 159.802 141.914 159.791 143.555 159.771C143.829 159.767 144.103 159.722 144.379 159.695C144.622 159.589 144.863 159.483 145.106 159.376C145.227 159.356 145.347 159.335 145.468 159.315C145.599 159.225 145.731 159.135 145.862 159.043C146.41 158.493 146.958 157.941 147.505 157.391C147.597 157.26 147.689 157.131 147.783 157C147.799 156.877 147.814 156.757 147.83 156.634C147.93 156.393 148.032 156.15 148.135 155.908C148.133 155.252 148.128 154.596 148.126 153.939C148.067 153.812 148.006 153.686 147.947 153.559C147.722 152.463 147.117 151.651 146.126 151.128C146.005 151.046 145.883 150.962 145.762 150.88C145.227 150.747 144.693 150.614 144.158 150.481C144.027 150.414 143.896 150.346 143.768 150.279C141.957 150.244 140.147 150.212 138.338 150.177C138.824 148.999 139.916 148.592 140.974 148.22C143.388 147.373 145.662 147.842 147.689 149.289C149.011 150.236 149.812 151.586 150.248 153.211C150.928 155.747 150.196 157.859 148.588 159.746C147.669 160.824 146.451 161.413 145.057 161.801C142.893 162.405 141.011 161.84 139.202 160.763C138.924 160.597 138.822 160.139 138.638 159.814L138.632 159.816Z" fill="#9F9F9D"/>
<path d="M142.092 168.942C141.808 168.884 141.524 168.827 141.242 168.772C141.526 168.829 141.81 168.886 142.092 168.942Z" fill="#6E6E6E"/>
<path d="M48.5359 98.5646C48.5952 98.583 48.6565 98.5993 48.7157 98.6177C48.7198 98.675 48.7505 98.7036 48.8077 98.6995C49.6823 99.0594 50.2341 99.7648 50.796 100.485C51.1087 100.885 51.546 101.188 51.9281 101.534C51.7136 101.683 51.499 101.832 51.2844 101.979C51.3784 102.139 51.4724 102.298 51.5664 102.458C51.5664 103.012 51.5664 103.566 51.5664 104.12C51.4724 104.331 51.3764 104.539 51.2803 104.75C50.9003 105.46 50.5733 106.206 50.1196 106.866C49.762 107.388 49.1244 107.721 49.0815 108.453C49.0264 108.449 48.9732 108.443 48.9201 108.437C48.7117 108.335 48.4971 108.13 48.2968 108.144C46.8868 108.247 45.4788 108.394 44.0708 108.525C43.9544 108.502 43.8379 108.48 43.7234 108.455C43.6315 108.377 43.5518 108.249 43.4476 108.226C42.2521 107.975 41.0567 107.715 39.851 107.513C39.3483 107.429 38.8231 107.478 38.3081 107.468C38.1835 107.451 38.0609 107.437 37.9383 107.42C36.4342 106.809 34.8996 106.357 33.2464 106.533C33.1299 106.511 33.0134 106.486 32.8969 106.464C32.4085 106.249 31.9201 106.03 31.4276 105.821C30.8044 105.556 30.0054 105.458 29.5885 105.006C28.8876 104.247 28.4135 103.276 27.876 102.374C27.7023 102.084 27.6288 101.732 27.5102 101.409C27.5061 101.137 27.5021 100.867 27.498 100.595C27.8188 99.8221 28.1212 99.041 28.4686 98.2803C28.6607 97.8612 28.9264 97.4747 29.1573 97.0739C29.1777 97.0555 29.1982 97.0351 29.2166 97.0146C29.2452 96.988 29.2758 96.9635 29.3065 96.9369C29.4373 96.8163 29.568 96.6936 29.6988 96.573C30.2444 96.4155 30.8023 96.2846 31.3357 96.0904C32.151 95.7939 32.9521 95.5097 33.8472 95.6937C35.8191 96.1027 37.7973 96.4809 39.7713 96.8817C41.1752 97.1659 42.575 97.4849 43.9809 97.7548C45.4952 98.0452 47.0176 98.2967 48.5359 98.5646Z" fill="#3A3A3A"/>
<path d="M48.5359 98.5645C47.0176 98.2967 45.4952 98.0452 43.9809 97.7548C42.5729 97.4849 41.1752 97.168 39.7713 96.8817C37.7973 96.4809 35.8191 96.1026 33.8472 95.6937C32.9501 95.5076 32.151 95.7939 31.3357 96.0904C30.8023 96.2846 30.2444 96.4134 29.6988 96.5729C30.2771 95.6998 31.1681 95.3808 32.1245 95.4483C34.0965 95.5873 36.0705 95.7734 38.0241 96.0699C40.0533 96.3787 42.058 96.8387 44.0729 97.2416C44.8678 97.4011 45.6546 97.5953 46.4495 97.7487C46.6334 97.7834 46.8357 97.7221 47.0278 97.7057C47.5305 97.992 48.0312 98.2783 48.5339 98.5625L48.5359 98.5645Z" fill="#80BA64"/>
<path d="M27.5102 101.409C27.6288 101.732 27.7023 102.084 27.876 102.374C28.4135 103.276 28.8876 104.247 29.5885 105.006C30.0074 105.458 30.8044 105.558 31.4276 105.822C31.9201 106.03 32.4065 106.251 32.8969 106.464C32.3063 106.4 31.6626 106.468 31.1334 106.255C29.1655 105.464 27.8842 104.032 27.453 101.914C27.4203 101.754 27.4878 101.577 27.5082 101.407L27.5102 101.409Z" fill="#80BA64"/>
<path d="M38.3102 107.469C38.8251 107.48 39.3503 107.431 39.853 107.514C41.0587 107.717 42.2542 107.977 43.4496 108.228C43.5538 108.251 43.6335 108.377 43.7255 108.457C42.5872 108.314 41.4449 108.206 40.3169 108.015C39.6364 107.901 38.9784 107.658 38.3122 107.472L38.3102 107.469Z" fill="#80BA64"/>
<path d="M44.0729 108.525C45.4809 108.392 46.8888 108.247 48.2989 108.144C48.4991 108.13 48.7137 108.335 48.9221 108.437C48.4766 108.586 47.884 108.148 47.5612 108.784C46.6579 108.803 45.7526 108.846 44.8494 108.825C44.5878 108.819 44.3304 108.631 44.0708 108.527L44.0729 108.525Z" fill="#80BA64"/>
<path d="M33.2484 106.535C34.9016 106.359 36.4363 106.811 37.9403 107.422C36.8613 107.263 35.7803 107.124 34.7075 106.936C34.2129 106.85 33.7348 106.672 33.2484 106.535Z" fill="#80BA64"/>
<path d="M29.1593 97.074C28.9264 97.4748 28.6607 97.8612 28.4707 98.2804C28.1233 99.041 27.8208 99.8222 27.5 100.595C27.2487 99.041 27.9067 97.9164 29.1593 97.074Z" fill="#80BA64"/>
<path d="M29.3065 96.9349C29.2758 96.9615 29.2472 96.9881 29.2166 97.0126C29.2309 96.9677 29.2595 96.9411 29.3065 96.9349Z" fill="#80BA64"/>
<path d="M76.0743 149.868C76.0824 149.952 76.0906 150.036 76.0988 150.119C74.3822 150.136 72.6677 150.164 70.9512 150.154C70.706 150.154 70.4607 149.954 70.2155 149.845C72.1671 149.854 74.1207 149.862 76.0722 149.868H76.0743Z" fill="#9F9F9D"/>
<path d="M88.4028 153.199C89.4327 153.199 90.4626 153.203 91.4946 153.205C90.4647 153.205 89.4347 153.201 88.4028 153.199Z" fill="#9F9F9D"/>
<path d="M70.0704 152.401C69.9335 152.397 69.7966 152.393 69.6617 152.389C69.5432 151.884 69.4247 151.379 69.3041 150.874C69.3511 150.862 69.3981 150.856 69.4451 150.858C69.6536 151.373 69.862 151.886 70.0704 152.401Z" fill="#9F9F9D"/>
<path d="M69.5575 149.59C69.6393 149.649 69.721 149.709 69.8027 149.768C69.6679 150.034 69.533 150.297 69.4002 150.563C69.3225 150.563 69.2449 150.559 69.1672 150.557C69.1243 150.353 69.0834 150.146 69.0405 149.942C69.2122 149.823 69.3859 149.706 69.5575 149.588V149.59Z" fill="#9F9F9D"/>
<path d="M95.6797 152.757C95.9025 152.696 96.1272 152.635 96.35 152.571C96.1272 152.633 95.9025 152.694 95.6797 152.757Z" fill="#9F9F9D"/>
<path d="M69.1692 150.559C69.2469 150.559 69.3245 150.563 69.4022 150.565C69.4165 150.663 69.4328 150.762 69.4472 150.86C69.4002 150.86 69.3532 150.864 69.3062 150.876C69.2612 150.772 69.2162 150.665 69.1692 150.561V150.559Z" fill="#B1B0AB"/>
<path d="M97.2103 152.424C97.3676 152.365 97.527 152.305 97.6844 152.248C97.527 152.307 97.3676 152.367 97.2103 152.424Z" fill="#9F9F9D"/>
<path d="M71.2557 153.592C71.129 153.504 71.0002 153.416 70.8735 153.326C71.0002 153.414 71.129 153.502 71.2557 153.592Z" fill="#9F9F9D"/>
<path d="M98.4364 152.093C98.5447 152.042 98.653 151.993 98.7593 151.941C98.651 151.993 98.5427 152.042 98.4364 152.093Z" fill="#9F9F9D"/>
<path d="M99.3621 151.786C99.4725 151.737 99.5828 151.688 99.6932 151.641C99.5828 151.69 99.4725 151.739 99.3621 151.786Z" fill="#9F9F9D"/>
<path d="M73.1847 154.285C73.0744 154.322 72.9661 154.356 72.8557 154.393C72.8373 154.303 72.821 154.215 72.8026 154.125L73.1847 154.285Z" fill="#222222"/>
<path d="M72.8046 154.127C72.823 154.217 72.8394 154.305 72.8578 154.395C72.7556 154.328 72.6534 154.262 72.5492 154.195C72.635 154.172 72.7188 154.15 72.8046 154.127Z" fill="#9F9F9D"/>
<path d="M58.0076 102.55C58.1568 102.503 58.3059 102.456 58.4531 102.409C58.7596 102.39 59.1376 102.48 59.3645 102.335C61.2465 101.135 63.2328 101.024 65.3704 101.487C68.3723 102.137 71.411 102.623 74.4231 103.229C75.8147 103.509 77.2677 103.715 78.5469 104.286C81.0686 105.408 82.5134 108.218 81.8921 110.98C81.3383 113.448 79.7505 115 77.3453 115.616C76.483 115.837 75.4959 115.812 74.6111 115.653C71.4866 115.088 68.3784 114.426 65.2661 113.782C63.803 113.479 62.3112 113.252 60.9053 112.774C60.0531 112.483 59.3706 111.729 58.5614 111.277C57.9585 110.942 57.274 110.753 56.6241 110.502C56.9041 110.43 57.1861 110.359 57.6295 110.246C57.5049 109.567 57.4129 108.829 57.229 108.116C56.8918 106.795 57.3087 105.629 57.8829 104.486C58.1179 104.018 58.3856 103.566 58.6268 103.128C58.3918 102.91 58.1976 102.73 58.0035 102.55H58.0076Z" fill="#3A3A3A"/>
<path d="M52.3062 101.568C53.4894 101.777 54.6726 101.983 55.8578 102.192C54.5908 102.454 53.4097 102.237 52.3062 101.568Z" fill="#3A3A3A"/>
<path d="M56.477 102.227C56.7754 102.311 57.0758 102.392 57.3741 102.476C57.0001 102.664 56.6752 102.673 56.477 102.227Z" fill="#3A3A3A"/>
<path d="M48.2784 113.121L48.258 113.082L48.2866 113.054L48.3152 113.093L48.2784 113.121Z" fill="#14B953"/>
<path d="M87.4157 154.491C88.2842 154.495 89.1527 154.499 90.0233 154.503C89.1548 154.499 88.2863 154.495 87.4157 154.491Z" fill="#6E6E6E"/>
<path d="M53.6038 138.28C53.7305 138.522 53.8593 138.761 53.986 139.002C53.8593 138.761 53.7305 138.52 53.6038 138.28Z" fill="#D0CFCE"/>
<path d="M53.5711 137.839C53.5568 137.957 53.5446 138.076 53.5303 138.192C53.4792 138.086 53.426 137.982 53.3749 137.875C53.4403 137.863 53.5057 137.851 53.5711 137.839Z" fill="#9F9F9D"/>
<path d="M53.5711 137.839C53.5057 137.851 53.4403 137.863 53.3749 137.875C53.3749 137.808 53.3749 137.742 53.3749 137.675C53.4403 137.73 53.5057 137.783 53.5711 137.839Z" fill="#D0CFCE"/>
<path d="M48.8077 98.6975C48.7505 98.7016 48.7198 98.673 48.7157 98.6157C48.7484 98.6403 48.7791 98.6668 48.8077 98.6975Z" fill="#80BA64"/>
<path d="M112.457 104.11C113.473 104.104 114.249 104.883 114.237 105.897C114.225 106.862 113.446 107.643 112.488 107.652C111.541 107.66 110.72 106.87 110.695 105.932C110.669 104.94 111.464 104.118 112.457 104.112V104.11Z" fill="#14B953"/>
<path d="M108.17 108.707C109.185 108.696 109.962 109.471 109.956 110.488C109.95 111.453 109.175 112.234 108.213 112.246C107.27 112.258 106.439 111.467 106.414 110.531C106.388 109.533 107.174 108.717 108.172 108.707H108.17Z" fill="#14B953"/>
<path d="M42.5954 153.786C42.6179 153.726 42.6404 153.669 42.6629 153.61C42.8877 153.383 43.1124 153.156 43.3372 152.931C43.4394 152.876 43.5416 152.821 43.6438 152.765L44.0831 152.565C44.3876 152.538 44.69 152.512 44.9945 152.483C45.5585 152.845 46.2513 153.103 46.6579 153.594C47.4529 154.557 47.2567 155.896 46.3718 156.681C45.4645 157.485 43.9769 157.475 43.0838 156.657C42.9347 156.52 42.7937 156.374 42.6486 156.233L42.6363 156.197C42.5607 156.051 42.483 155.906 42.4074 155.763C42.4115 155.205 42.4156 154.649 42.4177 154.09C42.4769 153.988 42.5362 153.888 42.5934 153.786H42.5954Z" fill="#0B0D0A"/>
<path d="M46.6804 127.167C46.6865 125.758 47.788 124.664 49.2021 124.662C50.6101 124.662 51.7279 125.801 51.734 127.249C51.7402 128.523 50.5161 129.735 49.2389 129.717C47.79 129.696 46.6722 128.582 46.6804 127.165V127.167ZM49.2082 125.584C48.4542 125.584 47.6102 126.378 47.6225 127.075C47.6388 127.987 48.3684 128.756 49.2471 128.788C49.9582 128.815 50.796 128.013 50.8144 127.287C50.8369 126.392 50.0767 125.586 49.2082 125.584Z" fill="#FEFEFE"/>
<path d="M52.0426 135.696C51.8914 136.156 51.7381 136.614 51.5869 137.074C51.3662 136.491 51.2987 135.959 52.0426 135.696Z" fill="#D0CFCE"/>
<path d="M51.2558 139.055C51.1598 139.415 51.0637 139.777 50.9677 140.137C50.7531 139.693 50.6121 139.268 51.2558 139.055Z" fill="#D0CFCE"/>
<path d="M51.5746 137.53C51.4745 137.839 51.3764 138.145 51.2763 138.454C51.0147 138.031 51.0004 137.685 51.5746 137.53Z" fill="#D0CFCE"/>
<path d="M50.9432 141.505C50.8533 141.765 50.7634 142.024 50.6714 142.286C50.3506 141.883 50.5079 141.646 50.9432 141.505Z" fill="#D0CFCE"/>
<path d="M41.355 154.246C41.355 154.851 41.355 155.456 41.353 156.062C40.93 155.456 41.1037 154.851 41.355 154.246Z" fill="#EAEBEA"/>
<path d="M42.0519 150.349C41.9558 150.778 41.8598 151.205 41.7617 151.635C41.8577 151.205 41.9538 150.778 42.0519 150.349Z" fill="#EAEBEA"/>
<path d="M41.6697 152.412C41.8312 152.831 41.9476 153.238 41.4061 153.483C41.494 153.125 41.5819 152.767 41.6697 152.412Z" fill="#EAEBEA"/>
<path d="M49.5924 132.698C49.5924 133.6 48.9957 134.166 48.0475 134.16C47.1116 134.156 46.5353 133.581 46.5292 132.647C46.5231 131.674 47.1096 131.089 48.0843 131.097C49.0386 131.105 49.5904 131.69 49.5904 132.698H49.5924Z" fill="#EAEBEA"/>
<path d="M43.3352 152.931C43.1104 153.158 42.8856 153.385 42.6608 153.61C42.6281 152.962 42.8406 152.747 43.3352 152.931Z" fill="#EAEBEA"/>
<path d="M44.0831 152.563L43.6437 152.763C43.654 152.397 43.7766 152.279 44.0831 152.563Z" fill="#EAEBEA"/>
<path d="M42.4074 155.763C42.483 155.908 42.5607 156.053 42.6363 156.197C42.2766 156.203 42.1172 156.1 42.4074 155.763Z" fill="#EAEBEA"/>
<path d="M42.5954 153.786C42.5362 153.888 42.4769 153.988 42.4197 154.09C42.4789 153.988 42.5382 153.888 42.5954 153.786Z" fill="#EAEBEA"/>
<path d="M148.131 155.908C148.028 156.149 147.928 156.391 147.826 156.634C147.928 156.393 148.028 156.152 148.131 155.908Z" fill="#222222"/>
<path d="M147.779 157C147.687 157.131 147.595 157.26 147.501 157.391C147.593 157.26 147.685 157.131 147.779 157Z" fill="#222222"/>
<path d="M145.86 159.043C145.729 159.133 145.597 159.223 145.466 159.315C145.597 159.225 145.729 159.135 145.86 159.043Z" fill="#222222"/>
<path d="M143.761 150.279C143.892 150.346 144.023 150.414 144.152 150.481C144.021 150.414 143.89 150.346 143.761 150.279Z" fill="#3A3A3A"/>
<path d="M147.94 153.559C148 153.686 148.061 153.812 148.12 153.939C148.059 153.812 148 153.686 147.94 153.559Z" fill="#222222"/>
<path d="M49.2082 125.584C50.0767 125.584 50.8369 126.39 50.8144 127.288C50.796 128.013 49.9582 128.815 49.2471 128.788C48.3683 128.756 47.6388 127.987 47.6225 127.075C47.6102 126.378 48.4542 125.584 49.2082 125.584Z" fill="#EAEBEA"/>
<path d="M179.077 52.5L184.736 41.4414V41.3486H178.149V39.0664H187.631V41.3857L181.972 52.5H179.077ZM194.144 52.6855C191.193 52.6855 189.078 51.0527 189.022 48.7148H191.843C191.898 49.7168 192.863 50.3848 194.162 50.3848C195.498 50.3848 196.463 49.624 196.444 48.5479C196.463 47.4531 195.479 46.6738 193.902 46.6738H192.659V44.6143H193.902C195.22 44.6143 196.147 43.8906 196.147 42.833C196.147 41.8125 195.368 41.1074 194.181 41.1074C192.993 41.1074 192.01 41.7754 191.973 42.7959H189.301C189.338 40.4766 191.435 38.8809 194.181 38.8809C196.982 38.8809 198.856 40.5322 198.838 42.666C198.856 44.1689 197.799 45.2451 196.296 45.5049V45.6162C198.263 45.8574 199.357 47.0635 199.339 48.7334C199.357 51.0342 197.168 52.6855 194.144 52.6855ZM206.353 52.6855C203.291 52.6855 201.083 51.0713 201.083 48.8818C201.083 47.1934 202.382 45.8203 204.052 45.5605V45.4678C202.604 45.1895 201.603 43.9648 201.603 42.499C201.603 40.4023 203.606 38.8809 206.353 38.8809C209.099 38.8809 211.103 40.4023 211.121 42.499C211.103 43.9834 210.082 45.1895 208.672 45.4678V45.5605C210.305 45.8203 211.622 47.1934 211.622 48.8818C211.622 51.0713 209.414 52.6855 206.353 52.6855ZM206.353 50.5518C207.763 50.5518 208.709 49.7539 208.709 48.6035C208.709 47.4346 207.726 46.5811 206.353 46.5811C204.979 46.5811 203.978 47.4346 203.996 48.6035C203.978 49.7539 204.924 50.5518 206.353 50.5518ZM206.353 44.6143C207.54 44.6143 208.394 43.8535 208.394 42.7773C208.394 41.7383 207.559 40.9961 206.353 40.9961C205.146 40.9961 204.33 41.7197 204.33 42.7773C204.33 43.8535 205.165 44.6143 206.353 44.6143ZM218.432 38.8809C221.215 38.8994 223.85 40.5508 223.85 45.4307C223.868 49.9951 221.697 52.6855 218.32 52.6855C215.611 52.6855 213.774 50.9971 213.496 48.7148H216.242C216.465 49.6982 217.244 50.292 218.32 50.292C220.157 50.292 221.122 48.6592 221.122 45.9688H221.011C220.38 47.1562 219.062 47.8613 217.56 47.8613C215.147 47.8613 213.366 46.043 213.348 43.5381C213.348 40.8291 215.389 38.8623 218.432 38.8809ZM218.45 41.0703C217.077 41.0703 216.057 42.1279 216.075 43.4639C216.075 44.7812 217.059 45.8203 218.432 45.8203C219.786 45.8203 220.844 44.7441 220.844 43.4453C220.825 42.165 219.823 41.0703 218.45 41.0703ZM239.306 37.3223V46.8037H236.949V37.3223H239.306ZM228.525 38.2871V43.9834C231.086 43.9648 233.257 43.7793 235.521 43.2969L235.799 45.208C233.164 45.7646 230.641 45.9688 227.616 45.9688H226.15V38.2871H228.525ZM239.306 47.4902V54.0029H228.024V47.4902H239.306ZM230.344 49.3457V52.1475H236.986V49.3457H230.344ZM255.745 37.3223V54.2441H253.352V37.3223H255.745ZM246.579 38.5098C249.121 38.5098 251.014 40.8477 251.014 44.5215C251.014 48.2324 249.121 50.5518 246.579 50.5518C243.981 50.5518 242.089 48.2324 242.107 44.5215C242.089 40.8477 243.981 38.5098 246.579 38.5098ZM246.579 40.6436C245.262 40.6436 244.39 42.0166 244.39 44.5215C244.39 47.0449 245.262 48.3994 246.579 48.3994C247.859 48.3994 248.731 47.0449 248.731 44.5215C248.731 42.0166 247.859 40.6436 246.579 40.6436ZM277.046 37.3223V54.207H274.782V37.3223H277.046ZM273.521 37.5635V53.4277H271.294V45.4492H269.939C269.717 48.7705 268.307 50.7744 266.229 50.7744C264.002 50.7744 262.555 48.4365 262.555 44.6328C262.555 40.8477 264.002 38.5283 266.229 38.5283C268.26 38.5283 269.652 40.4209 269.921 43.5752H271.294V37.5635H273.521ZM266.229 40.7549C265.282 40.7549 264.726 42.0537 264.744 44.6328C264.726 47.2305 265.282 48.5107 266.229 48.4922C267.193 48.5107 267.769 47.2305 267.769 44.6328C267.769 42.0537 267.193 40.7549 266.229 40.7549ZM292.521 38.2686V39.79C292.502 41.5435 292.502 43.4917 291.945 46.2285H294.228V48.1396H287.715V54.1699H285.34V48.1396H278.827V46.2285H289.626C289.83 45.3286 289.969 44.5029 290.053 43.7422L280.367 44.2246L280.089 42.2021L290.22 41.9238C290.238 41.293 290.248 40.7085 290.257 40.1426H280.627V38.2686H292.521ZM300.276 38.3242C302.874 38.3242 304.896 40.0312 304.915 42.4619C304.896 44.5029 303.477 46.0337 301.482 46.4697V48.7705C302.818 48.7148 304.145 48.6035 305.397 48.4365L305.564 50.1807C302.039 50.8486 298.235 50.8486 295.359 50.8115L295.044 48.9004C296.259 48.8911 297.66 48.8911 299.126 48.8633V46.4883C297.057 46.0708 295.638 44.5308 295.638 42.4619C295.638 40.0312 297.604 38.3242 300.276 38.3242ZM300.276 40.3281C298.94 40.3281 297.938 41.1074 297.957 42.4619C297.938 43.7979 298.94 44.5957 300.276 44.5957C301.575 44.5957 302.577 43.7979 302.577 42.4619C302.577 41.1074 301.575 40.3281 300.276 40.3281ZM308.663 37.3223V43.9463H310.964V45.9316H308.663V54.207H306.288V37.3223H308.663ZM184.551 64.9238C184.551 67.6514 185.942 70.5645 188.781 71.752L187.501 73.6074C185.506 72.7632 184.133 71.084 183.382 69.0244C182.612 71.2603 181.211 73.1157 179.226 74.0342L177.871 72.1602C180.673 70.917 182.12 67.7812 182.12 64.9238V63.8848H178.539V61.9551H188.076V63.8848H184.551V64.9238ZM192.14 60.3223V77.207H189.746V60.3223H192.14ZM208.022 61.3057V62.8271C208.022 64.4043 208.022 66.1299 207.596 68.4863H209.822V70.3975H203.235V77.2256H200.86V70.3975H194.422V68.4863H205.202C205.629 66.3062 205.666 64.6548 205.666 63.1982H196.185V61.3057H208.022ZM226.28 67.8926V69.6553H210.824V67.8926H226.28ZM224.425 70.4902V74.4795H214.962V75.4443H224.926V77.0586H212.605V72.9766H222.087V72.123H212.587V70.4902H224.425ZM224.406 60.6191V64.5898H215.11V65.499H224.703V67.0947H212.754V63.0869H222.031V62.2334H212.717V60.6191H224.406ZM236.188 61.5098C238.768 61.5098 240.623 63.8477 240.642 67.5215C240.623 71.2324 238.768 73.5518 236.188 73.5518C233.609 73.5518 231.717 71.2324 231.735 67.5215C231.717 63.8477 233.609 61.5098 236.188 61.5098ZM236.188 63.6436C234.89 63.6436 234.018 65.0166 234.018 67.5215C234.018 70.0449 234.89 71.3994 236.188 71.3994C237.506 71.3994 238.359 70.0449 238.378 67.5215C238.359 65.0166 237.506 63.6436 236.188 63.6436ZM244.965 60.3223V66.6865H247.451V68.6533H244.965V77.207H242.59V60.3223H244.965ZM262.184 60.3223V77.207H259.827V70.917H256.487C255.996 72.1973 255.318 73.4033 254.409 74.5537L252.498 73.3291C254.669 70.5273 255.402 67.6699 255.56 63.9775H253.686V62.0479H257.805C257.805 62.8828 257.786 63.6992 257.749 64.4971H259.827V60.3223H262.184ZM253.185 62.0479C253.166 66.5752 252.554 70.2119 249.659 73.4404L247.841 72.1045C249.975 69.7017 250.717 67.2896 250.902 63.9775H248.546V62.0479H253.185ZM257.1 69.0244H259.827V66.3711H257.582C257.461 67.2803 257.304 68.1616 257.1 69.0244ZM278.493 61.0459V62.9014H273.836C274.114 64.293 275.858 65.7031 279.198 66.0742L278.326 67.9297C275.163 67.5771 273.047 66.2598 272.166 64.5156C271.275 66.2505 269.179 67.5771 266.024 67.9297L265.171 66.0742C268.511 65.7031 270.236 64.2744 270.515 62.9014H265.895V61.0459H278.493ZM279.922 68.7275V70.6201H273.558V73.5332H271.22V70.6201H264.466V68.7275H279.922ZM278.215 75.0176V76.9102H266.284V72.0303H268.641V75.0176H278.215ZM299.516 60.3223V77.207H297.159V68.7461H293.801V66.8164H297.159V60.3223H299.516ZM293.894 62.085C293.894 67.1875 292.242 71.3438 286.342 74.2754L285.117 72.4199C289.385 70.314 291.147 67.6328 291.519 63.9404H285.915V62.085H293.894ZM315.862 60.3223V77.2441H313.506V60.3223H315.862ZM310.63 61.7324V68.2451H305.063V71.3438C307.633 71.3345 309.823 71.186 312.3 70.7871L312.504 72.6982C309.721 73.1807 307.216 73.292 304.136 73.292H302.614V66.3711H308.218V63.6436H302.596V61.7324H310.63Z" fill="#161D24"/>
<path d="M183.031 99.1875V110.5H180.984V101.172H180.922L178.281 102.859V101L181.078 99.1875H183.031ZM189.891 110.656C187.469 110.656 185.75 109.344 185.703 107.438H187.75C187.812 108.344 188.719 108.938 189.891 108.938C191.141 108.938 192.031 108.25 192.031 107.25C192.031 106.234 191.156 105.5 189.688 105.5H188.672V103.938H189.688C190.891 103.938 191.734 103.266 191.719 102.281C191.734 101.328 191.016 100.688 189.906 100.688C188.844 100.688 187.922 101.281 187.891 102.234H185.938C185.984 100.328 187.703 99.0312 189.922 99.0312C192.219 99.0312 193.703 100.438 193.688 102.172C193.703 103.438 192.859 104.359 191.625 104.609V104.703C193.219 104.922 194.125 105.938 194.109 107.359C194.125 109.266 192.344 110.656 189.891 110.656ZM195.891 110.5V109.031L199.891 105.172C201.031 104.031 201.625 103.359 201.625 102.406C201.625 101.359 200.797 100.688 199.688 100.688C198.516 100.688 197.766 101.422 197.781 102.562H195.844C195.828 100.422 197.438 99.0312 199.703 99.0312C202.016 99.0312 203.578 100.406 203.578 102.312C203.578 103.594 202.953 104.625 200.734 106.719L198.719 108.719V108.797H203.75V110.5H195.891ZM205.547 110.5V99.1875H207.547V105.422H207.688L210.734 102.016H213.062L209.781 105.672L213.266 110.5H210.891L208.281 106.859L207.547 107.641V110.5H205.547ZM214.25 110.5V102.016H216.156V103.453H216.266C216.609 102.484 217.469 101.906 218.594 101.906C219.75 101.906 220.562 102.484 220.891 103.453H220.984C221.359 102.516 222.297 101.906 223.531 101.906C225.078 101.906 226.172 102.906 226.172 104.797V110.5H224.188V105.109C224.188 104.047 223.547 103.578 222.734 103.578C221.75 103.578 221.188 104.25 221.188 105.203V110.5H219.25V105.031C219.25 104.156 218.656 103.578 217.812 103.578C216.953 103.578 216.25 104.281 216.25 105.344V110.5H214.25Z" fill="#12BA54"/>
<rect x="177.5" y="129.5" width="135" height="3" rx="1" fill="#878D91"/>
<path d="M189.629 149.4V162.95H187.388V149.4H189.629ZM186.743 149.562V162.364H184.531V156.095H183.872C183.674 158.761 182.539 160.343 180.869 160.343C179.053 160.343 177.881 158.438 177.896 155.289C177.881 152.169 179.053 150.265 180.869 150.265C182.488 150.265 183.601 151.751 183.857 154.249H184.531V149.562H186.743ZM180.869 152.491C180.312 152.491 180.034 153.297 180.049 155.289C180.034 157.296 180.312 158.087 180.869 158.087C181.44 158.087 181.748 157.296 181.748 155.289C181.748 153.297 181.44 152.491 180.869 152.491ZM201.89 150.118V151.334C201.89 152.718 201.89 154.286 201.45 156.476H203.135V158.351H198.125V162.921H195.752V158.351H190.771V156.476H199.15C199.282 155.89 199.377 155.348 199.443 154.835L191.929 155.23L191.68 153.238L199.604 153.062C199.626 152.667 199.626 152.293 199.634 151.935H192.134V150.118H201.89ZM219.365 155.523V157.428H214.268V162.936H211.895V157.428H207.002V155.523H209.683C210.063 154.095 210.144 153.004 210.166 152.008H207.969V150.147H212.495V151.246C212.495 152.447 212.495 153.766 212.07 155.523H215.352C215.637 154.125 215.688 153.019 215.703 152.008H213.389V150.147H218.032V151.305C218.032 152.462 218.032 153.802 217.71 155.523H219.365ZM227.29 150.572V159.845H220.566V150.572H227.29ZM222.91 152.389V157.999H225.005V152.389H222.91ZM231.406 149.4V162.994H229.033V149.4H231.406ZM244.458 149.4V162.994H242.114V155.992H240.239V154.088H242.114V149.4H244.458ZM239.521 150.47V155.758H235.728V157.97C237.332 157.962 238.804 157.889 240.386 157.633L240.576 159.522C238.584 159.845 236.694 159.903 234.541 159.903H233.384V153.927H237.222V152.345H233.354V150.47H239.521ZM259.971 149.4V154.396H261.699V156.314H259.971V162.921H257.612V149.4H259.971ZM256.279 150.748C256.265 154.938 254.829 158.453 250.2 160.724L248.867 158.937C251.885 157.413 253.481 155.516 253.892 152.652H249.717V150.748H256.279ZM273.623 149.4V162.95H271.235V149.4H273.623ZM269.521 150.792C269.521 155.04 268.32 158.424 263.296 160.768L262.095 158.922C265.479 157.311 266.833 155.45 267.134 152.623H262.871V150.792H269.521ZM284.976 161.749L283.54 160.328L286.616 157.252H279.863V155.157H286.616L283.54 152.066L284.976 150.646L290.527 156.197L284.976 161.749Z" fill="#161D24"/>
<defs>
<linearGradient id="paint0_linear_45_7451" x1="42.5178" y1="138.683" x2="137.796" y2="138.683" gradientUnits="userSpaceOnUse">
<stop stop-color="white"/>
<stop offset="1"/>
</linearGradient>
</defs>
</svg>
