<svg width="363" height="48" viewBox="0 0 363 48" fill="none" xmlns="http://www.w3.org/2000/svg">
<rect width="174" height="48" rx="10" fill="#F1F3F4"/>
<path d="M65.6768 18.292V19.874C65.6768 21.793 65.6768 23.624 65.0908 26.4219L63.4648 26.2754C63.7358 25.1182 63.8896 24.1001 63.9775 23.1553L56.1699 23.5654L55.9502 22.2471L64.0508 21.9395C64.0801 21.229 64.0801 20.5479 64.0801 19.874V19.6104H56.3457V18.292H65.6768ZM67.0098 27.2861V28.6191H54.9395V27.2861H67.0098ZM73.001 18.4385V23.3018H69.8662V25.792C71.2358 25.7773 72.5322 25.7188 74.0264 25.4404L74.1582 26.7734C72.3857 27.0957 70.8916 27.1396 69.2217 27.1396H68.2988V22.0127H71.4336V19.7422H68.2842V18.4385H73.001ZM79.2998 17.0615V30.3037H77.7471V17.0615H79.2998ZM76.5752 17.3398V29.6299H75.0371V22.9941H73.5869V21.6611H75.0371V17.3398H76.5752ZM91.8975 17.0615V25.9971H90.2568V17.0615H91.8975ZM87.8838 18.1309V19.4492H83.2549V22.9502C85.7524 22.9429 87.3491 22.855 89.085 22.5254L89.2168 23.8291C87.3125 24.1953 85.6279 24.2686 82.7715 24.2686H81.6436V18.1309H87.8838ZM88.3086 25.4258C88.2939 27.0664 89.9053 28.5605 92.5859 28.9854L91.9268 30.2451C89.8247 29.8936 88.228 28.8975 87.4443 27.4912C86.646 28.8901 85.0347 29.8936 82.9473 30.2451L82.3027 28.9854C84.9541 28.5605 86.5947 27.0811 86.5947 25.4258V25.0449H88.3086V25.4258Z" fill="#878D91"/>
<path d="M104.231 29.1465C101.961 29.1465 100.35 27.916 100.306 26.1289H102.225C102.283 26.9785 103.133 27.5352 104.231 27.5352C105.403 27.5352 106.238 26.8906 106.238 25.9531C106.238 25.001 105.418 24.3125 104.041 24.3125H103.089V22.8477H104.041C105.169 22.8477 105.96 22.2178 105.945 21.2949C105.96 20.4014 105.286 19.8008 104.246 19.8008C103.25 19.8008 102.386 20.3574 102.356 21.251H100.525C100.569 19.4639 102.181 18.248 104.261 18.248C106.414 18.248 107.806 19.5664 107.791 21.1924C107.806 22.3789 107.015 23.2432 105.857 23.4775V23.5654C107.352 23.7705 108.201 24.7227 108.187 26.0557C108.201 27.8428 106.531 29.1465 104.231 29.1465ZM109.666 27.0225V25.499L114.251 18.3945H116.624V25.4551H118.016V27.0225H116.624V29H114.808V27.0225H109.666ZM111.614 25.4551H114.837V20.5625H114.72L111.614 25.3818V25.4551Z" fill="#12BA54"/>
<rect x="189" width="174" height="48" rx="10" fill="#F1F3F4"/>
<path d="M242.089 17.8379V19.0391C242.089 20.416 242.089 21.9468 241.649 24.0928H243.51V25.4111H238.295V30.2744H236.654V25.4111H231.439V24.0928H240.038C240.214 23.3091 240.331 22.5986 240.404 21.9541L232.685 22.335L232.479 20.9434L240.507 20.709C240.529 20.1523 240.529 19.6323 240.536 19.1416H232.89V17.8379H242.089ZM255.36 17.5889V18.9072H253.544V21.4414H255.287V22.7158H251.244V24.0781H256.474V25.3672H244.403V24.0781H249.604V22.7158H245.561V21.4414H247.304V18.9072H245.487V17.5889H255.36ZM255.111 28.7217V30.04H245.897V26.3193H247.523V28.7217H255.111ZM248.93 21.4414H251.903V18.9072H248.93V21.4414ZM262.143 17.8965L258.729 30.5967H257.089L260.517 17.8965H262.143ZM274.169 17.0615V30.3037H272.602V23.5801H271.283V29.6299H269.745V17.3105H271.283V22.2471H272.602V17.0615H274.169ZM268.983 18.6289V19.9473H268.031V25.6455C268.427 25.6162 268.8 25.5796 269.159 25.5283L269.247 26.7148C267.182 27.1396 264.457 27.1836 262.787 27.1836L262.597 25.8359L263.827 25.8213V19.9473H262.86V18.6289H268.983ZM265.292 25.792L266.552 25.748V19.9473H265.292V25.792ZM282.548 18.8779C282.548 20.9287 284.555 22.9795 287.323 23.4629L286.591 24.8252C284.372 24.3564 282.555 23.0161 281.698 21.2363C280.819 23.0015 279.003 24.3491 276.791 24.8252L276.073 23.4629C278.812 22.9648 280.805 20.9141 280.819 18.8779V17.8965H282.548V18.8779ZM287.807 27.2715V28.6191H275.707V27.2715H287.807Z" fill="#878D91"/>
<path d="M295.879 29V27.623L299.629 24.0049C300.698 22.9355 301.255 22.3057 301.255 21.4121C301.255 20.4307 300.479 19.8008 299.438 19.8008C298.34 19.8008 297.637 20.4893 297.651 21.5586H295.835C295.82 19.5518 297.329 18.248 299.453 18.248C301.621 18.248 303.086 19.5371 303.086 21.3242C303.086 22.5254 302.5 23.4922 300.42 25.4551L298.53 27.3301V27.4033H303.247V29H295.879ZM319.404 17.0615V30.3037H317.837V23.5068H316.416V29.6885H314.893V17.4131H316.416V22.1885H317.837V17.0615H319.404ZM313.765 18.7314C313.765 22.3057 312.637 25.3818 308.872 27.5352L307.935 26.4072C310.754 24.7739 311.948 22.6792 312.183 20.0352H308.55V18.7314H313.765Z" fill="#12BA54"/>
</svg>
