<svg width="393" height="112" viewBox="0 0 393 112" fill="none" xmlns="http://www.w3.org/2000/svg">
<rect x="15" y="13" width="363" height="68" rx="5" fill="#E4EBF5"/>
<path d="M44.1709 43.2402C44.1562 45.5986 45.3428 48.001 47.3936 48.9824L46.3975 50.2861C44.9619 49.561 43.9292 48.1621 43.3652 46.4775C42.7866 48.2793 41.7026 49.7734 40.1865 50.5352L39.1904 49.2314C41.3145 48.2207 42.5303 45.6865 42.5449 43.2402V41.1309H44.1709V43.2402ZM49.8105 40.0615V45.2471H51.8467V46.6387H49.8105V53.3037H48.1846V40.0615H49.8105ZM63.4043 40.0615V46.8145H61.793V40.0615H63.4043ZM63.4336 47.4297V50.8721H56.2705V51.8975H63.8291V53.1865H54.6738V49.6562H61.8076V48.6895H54.6445V47.4297H63.4336ZM57.3398 41.4092C57.3398 43.0938 58.4531 44.6758 60.5479 45.3057L59.7568 46.5654C58.2188 46.0967 57.1201 45.1079 56.5195 43.8408C55.9189 45.2178 54.791 46.2944 53.209 46.7998L52.3887 45.5254C54.5273 44.8369 55.6553 43.1377 55.6553 41.4092V40.3838H57.3398V41.4092ZM73.9219 43.8262C73.9219 45.9941 75.1963 48.2793 77.335 49.1729L76.4414 50.4619C74.874 49.7881 73.7314 48.3965 73.1309 46.7119C72.5156 48.5283 71.3584 50.0518 69.8057 50.7842L68.8682 49.5098C70.9629 48.543 72.2666 46.082 72.2666 43.8262V42.7129H69.3516V41.3652H76.8223V42.7129H73.9219V43.8262ZM79.9424 40.0615V53.3037H78.3018V40.0615H79.9424ZM92.54 40.8379V42.0391C92.54 43.416 92.54 44.9468 92.1006 47.0928H93.9609V48.4111H88.7461V53.2744H87.1055V48.4111H81.8906V47.0928H90.4893C90.665 46.3091 90.7822 45.5986 90.8555 44.9541L83.1357 45.335L82.9307 43.9434L90.958 43.709C90.98 43.1523 90.98 42.6323 90.9873 42.1416H83.3408V40.8379H92.54ZM105.577 43.8115V45.1006H96.4072V40.5449H98.0186V43.8115H105.577ZM106.939 46.6387V47.9277H94.8398V46.6387H106.939ZM105.665 51.6777V52.9961H96.29V49.0996H97.916V51.6777H105.665ZM115.582 42.6396C115.582 43.8921 116.117 45.3862 117.413 46.2871C118.695 45.4009 119.229 43.9287 119.229 42.6396V41.0576H120.87V42.6396C120.87 44.2363 121.646 45.877 123.448 46.624L122.569 47.8398C121.317 47.3052 120.497 46.3164 120.05 45.1152C119.581 46.3677 118.739 47.4443 117.398 48.0156C116.051 47.4443 115.201 46.3457 114.747 45.1006C114.286 46.2798 113.458 47.2905 112.228 47.8398L111.378 46.624C113.136 45.8477 113.941 44.1484 113.956 42.6396V41.0576H115.582V42.6396ZM123.448 50.2715V51.6045H111.378V50.2715H123.448ZM135.431 40.0615V53.3184H133.805V46.2725H131.534V44.9395H133.805V40.0615H135.431ZM130.772 41.2188V46.0674H126.437V48.8506C128.399 48.8433 129.989 48.7773 131.769 48.4551L131.9 49.7881C129.923 50.1396 128.165 50.2129 125.88 50.2129H124.825V44.749H129.176V42.5371H124.781V41.2188H130.772ZM148.409 40.0615V53.3037H146.783V47.8691H144.425V46.5215H146.783V45.0713H144.425V43.7383H146.783V40.0615H148.409ZM142.169 43.5771C142.169 45.6572 143.429 48.2061 145.494 49.2461L144.527 50.4912C143.077 49.7515 141.979 48.2427 141.378 46.5068C140.814 48.4111 139.715 50.0078 138.229 50.8281L137.159 49.583C139.269 48.5576 140.499 45.9941 140.514 43.5771V42.6982H137.672V41.3652H144.967V42.6982H142.169V43.5771ZM158.531 48.6748C158.531 49.7734 159.037 50.9307 160.172 51.6484C161.322 50.8794 161.856 49.6782 161.871 48.6748V48.1328H163.468V48.6748C163.453 50.0664 164.273 51.3555 166.017 51.9121L165.226 53.0986C163.937 52.6665 163.08 51.8242 162.618 50.7695C162.193 51.8096 161.41 52.7397 160.216 53.2158C158.956 52.7617 158.165 51.8682 157.755 50.8135C157.279 51.8315 156.437 52.6592 155.206 53.0986L154.4 51.9121C156.114 51.3115 156.935 49.9639 156.949 48.6748V48.1328H158.531V48.6748ZM164.859 40.0762V47.5762H163.219V40.0762H164.859ZM157.638 40.7793C159.674 40.7793 161.197 42.0684 161.197 43.9287C161.197 45.7744 159.674 47.0635 157.638 47.0635C155.587 47.0635 154.063 45.7744 154.063 43.9287C154.063 42.0684 155.587 40.7793 157.638 40.7793ZM157.638 42.1562C156.48 42.1562 155.646 42.8447 155.66 43.9287C155.646 45.0127 156.48 45.7158 157.638 45.7158C158.78 45.7158 159.601 45.0127 159.601 43.9287C159.601 42.8447 158.78 42.1562 157.638 42.1562ZM172.813 40.8086C175.611 40.8086 177.75 42.2881 177.75 44.5439C177.75 46.8291 175.611 48.3086 172.813 48.3086C170.03 48.3086 167.892 46.8291 167.906 44.5439C167.892 42.2881 170.03 40.8086 172.813 40.8086ZM172.813 42.127C170.895 42.1123 169.474 43.0791 169.474 44.5439C169.474 46.0381 170.895 46.9756 172.813 46.9756C174.747 46.9756 176.153 46.0381 176.153 44.5439C176.153 43.0791 174.747 42.1123 172.813 42.127ZM178.893 50.3008V51.6338H166.793V50.3008H178.893ZM186.554 41.1748V42.2295H189.22V40.0762H190.846V49.7148H189.22V46.375H186.554V47.5176H180.328V41.1748H186.554ZM181.954 42.4639V46.2432H184.942V42.4639H181.954ZM191.139 51.7217V53.04H182.115V48.8213H183.771V51.7217H191.139ZM186.554 45.0713H189.22V43.5625H186.554V45.0713ZM203.15 40.5303C203.15 41.9365 204.952 43.2695 207.735 43.5625L207.164 44.793C204.938 44.522 203.158 43.6211 202.315 42.332C201.451 43.6211 199.679 44.522 197.452 44.793L196.896 43.5625C199.664 43.2695 201.466 41.9365 201.48 40.5303V40.1641H203.15V40.5303ZM208.351 45.4082V46.7266H196.28V45.4082H208.351ZM206.842 47.6641V50.9453H199.312V51.9414H207.208V53.1865H197.716V49.7881H205.245V48.8799H197.701V47.6641H206.842ZM216.92 41.3066V42.625H215.558V48.6748C216.144 48.6309 216.729 48.5796 217.286 48.5137L217.374 49.6855C214.693 50.1396 211.617 50.1982 209.332 50.1982L209.171 48.8506L210.753 48.8359V42.625H209.552V41.3066H216.92ZM220.348 40.0615V53.3037H218.736V46.2578H216.51V44.9395H218.736V40.0615H220.348ZM212.35 48.8066C212.892 48.7993 213.441 48.7847 213.99 48.7627V42.625H212.35V48.8066ZM234.308 50.3594V51.6924H222.208V50.3594H225.006V47.0049C223.951 46.4043 223.314 45.4595 223.321 44.2803C223.307 42.1709 225.387 40.7793 228.229 40.7793C231.085 40.7793 233.165 42.1709 233.165 44.2803C233.165 45.4375 232.55 46.3677 231.524 46.9756V50.3594H234.308ZM228.229 42.0684C226.251 42.0684 224.903 42.9033 224.918 44.2803C224.903 45.6426 226.251 46.4922 228.229 46.4922C230.206 46.4922 231.568 45.6426 231.568 44.2803C231.568 42.9033 230.206 42.0684 228.229 42.0684ZM226.617 50.3594H229.869V47.5908C229.364 47.708 228.814 47.7666 228.229 47.7666C227.657 47.7666 227.115 47.708 226.617 47.6055V50.3594ZM247.228 44.4268V45.7451H244.21V51.2822H242.584V45.7451H239.771V51.2822H238.116V45.7451H235.201V44.4268H247.228ZM260.191 44.4268V45.7451H257.174V51.2822H255.548V45.7451H252.735V51.2822H251.08V45.7451H248.165V44.4268H260.191Z" fill="#161D24"/>
<circle cx="169.5" cy="95" r="4" fill="#D9D9D9"/>
<circle cx="187.5" cy="95" r="4" fill="#D9D9D9"/>
<circle cx="205.5" cy="95" r="4" fill="#878D91"/>
<circle cx="223.5" cy="95" r="4" fill="#D9D9D9"/>
</svg>
