<svg width="363" height="200" viewBox="0 0 363 200" fill="none" xmlns="http://www.w3.org/2000/svg">
<rect width="363" height="200" rx="15" fill="#E4EBF5"/>
<g clip-path="url(#clip0_45_7451)">
<path d="M44.4972 86.3534C44.2049 85.6209 43.9002 84.8919 43.6222 84.154C42.0007 79.8313 42.0702 75.514 43.8735 71.2816C44.4651 69.8908 45.4736 68.6823 46.1419 67.3163C46.6533 66.2741 47.0097 65.1364 47.2912 64.0057C47.9666 61.3021 49.0535 58.7559 50.4185 56.3548C51.7051 54.09 53.0504 51.8056 54.7147 49.8133C58.0665 45.802 61.6767 42.0137 66.6056 39.8108C67.2274 39.533 67.8048 39.1561 68.4035 38.8235C68.8918 38.7456 69.3996 38.7279 69.8647 38.5793C72.3915 37.776 74.9788 37.3106 77.6286 37.2717C83.8796 37.1779 89.7421 38.6872 95.3035 41.4971C99.5356 43.6363 103.322 46.3329 106.093 50.1866C107.422 52.0357 108.281 54.2085 109.443 56.1849C111.428 59.561 112.617 63.2007 113.135 67.0491C113.436 69.2892 113.652 71.5523 113.702 73.8083C113.745 75.7635 113.556 77.7311 113.371 79.6845C113.096 82.5545 112.606 85.3873 111.528 88.0927C111.421 88.3617 111.514 88.8306 111.697 89.0712C113.251 91.1167 114.404 93.3691 115.133 95.8091C116.808 101.416 116.779 107.116 115.833 112.834C115.737 113.42 115.899 113.664 116.345 113.967C117.54 114.774 118.764 115.561 119.857 116.497C122.692 118.928 124.953 121.851 126.584 125.183C127.924 127.919 129.092 130.75 130.121 133.614C130.575 134.883 130.963 136.038 132.099 136.879C133.583 137.976 134.855 139.298 136.685 139.974C139.734 141.099 142.696 142.461 145.686 143.746C145.893 143.834 146.024 144.098 146.19 144.28C145.925 144.259 145.647 144.28 145.397 144.208C141.71 143.13 138.26 143.854 134.964 145.593C132.4 146.945 130.57 149.04 129.13 151.503C126.913 150.917 124.688 150.36 122.48 149.741C120.242 149.111 118.055 148.262 115.787 147.791C111.918 146.988 108.319 145.629 105.083 143.376C103.538 142.3 102.064 141.127 100.557 139.998C100.318 139.156 100.152 138.286 99.8243 137.479C98.7124 134.729 96.7166 132.705 94.2486 131.132C89.5657 128.145 84.5425 126.631 78.908 127.581C72.5697 128.649 67.3593 134.575 67.3361 140.933C67.3308 142.334 67.5268 143.735 67.6284 145.139C66.5485 144.947 65.4705 144.758 64.3906 144.567C63.5763 144.277 62.7619 143.988 61.9494 143.698C61.707 143.162 61.47 142.624 61.2223 142.092C60.1496 139.788 59.0787 137.484 58.0006 135.186C56.8317 132.694 55.6378 130.214 54.4902 127.713C54.0786 126.816 53.5743 125.894 53.4692 124.946C53.3658 124.022 53.7026 123.046 53.8754 122.097C54.1873 120.376 54.5401 118.661 54.8395 116.938C55.1584 115.101 55.4311 113.257 55.7287 111.415C55.946 110.074 56.1688 108.733 56.388 107.392C56.8317 104.837 57.2772 102.283 57.7226 99.7213C58.4212 99.8098 58.9735 99.8788 59.5242 99.9496C61.0424 101.694 63.0381 102.406 65.2762 102.726C66.9691 102.968 68.6352 103.402 70.312 103.748C70.4599 104.161 70.5882 104.58 70.7574 104.984C72.0707 108.128 74.1449 110.789 76.2102 113.457L76.6004 113.985C76.7091 114.1 76.8196 114.215 76.9283 114.331C76.9853 114.551 76.9728 114.836 77.11 114.975C77.9547 115.841 78.7797 116.736 79.7099 117.504C81.6896 119.135 83.9509 120.277 86.4634 120.834C87.6305 121.092 88.8529 121.211 90.0468 121.202C90.9717 121.195 91.925 120.983 92.8124 120.701C94.8064 120.068 96.6667 119.176 97.8357 117.322C99.4483 114.761 99.655 111.923 99.3129 109.037C98.8139 104.833 97.228 101.011 94.8438 97.5166C94.5801 97.1291 94.1613 96.846 93.8138 96.5134C93.7301 96.432 93.6267 96.363 93.5644 96.2674C91.5062 93.1125 88.7157 90.8459 85.2142 89.4251C84.9737 89.3278 84.7402 89.073 84.6244 88.8323C83.6871 86.8736 82.1404 85.5625 80.1928 84.6866C77.1991 83.3419 74.1093 83.2959 71.0051 84.1894C67.8868 85.0865 65.8732 87.1089 65.0838 90.2744C63.3892 90.3363 61.8193 90.7451 60.4989 91.8722C60.4205 91.9394 60.2744 91.9324 60.1603 91.9589C59.7255 91.9235 59.2765 91.9412 58.8559 91.8456C56.8032 91.3732 54.7575 90.8725 52.7083 90.3806C52.0793 89.6675 51.4592 88.9491 50.8177 88.2484C50.5682 87.9759 50.2742 87.7459 49.9998 87.4964C50.2029 87.5265 50.4132 87.5318 50.6056 87.5902C52.2325 88.0945 53.863 88.2697 55.5861 88.0591C61.5538 87.3283 65.8375 81.3123 64.5706 75.4804C63.3589 69.9085 58.0309 66.2635 52.5729 67.15C48.519 67.8082 45.659 70.02 44.2049 73.8136C42.6707 77.8178 43.4137 81.5477 46.3076 84.7043C47.334 85.8226 48.7631 86.5763 50.0087 87.4982C48.1733 87.1196 46.3379 86.7391 44.5043 86.3605L44.4972 86.3534ZM74.0041 76.9702C74.8363 76.0731 75.8894 76.0537 76.8891 76.765C77.1528 76.9525 77.3934 77.1755 77.641 77.3843C79.1094 78.6193 80.5866 78.5627 81.9979 77.2374C82.381 76.8782 82.814 76.5721 83.2595 76.2129V75.084C82.4897 75.6644 81.8713 76.0908 81.2976 76.5703C80.289 77.4143 79.3749 77.4727 78.3271 76.6959C77.9956 76.45 77.682 76.1775 77.3613 75.9174C76.5897 75.291 75.6863 75.107 74.7739 75.4025C74.2108 75.5848 73.6852 75.9758 73.2308 76.3739C71.9799 77.4656 71.0354 77.5223 69.772 76.4836C69.544 76.2961 69.3551 76.0413 69.1003 75.9103C68.555 75.6308 67.9776 75.4149 67.3272 75.1353V76.1421C67.7798 76.3792 68.1612 76.5792 68.5407 76.7809C66.4897 77.9788 72.9189 78.1469 74.0059 76.9737L74.0041 76.9702ZM108.411 80.4064C108.221 74.4311 103.807 69.8289 97.7056 69.843C91.6434 69.8572 87.1245 74.4223 87.0942 80.371C87.0621 86.3959 91.7967 90.9857 97.7145 90.9946C103.636 91.0034 108.24 86.4383 108.411 80.4064ZM86.3476 65.1771C84.505 65.1753 82.994 66.6209 82.9619 68.4186C82.928 70.2518 84.4462 71.754 86.3333 71.7558C88.2186 71.7558 89.7599 70.2447 89.7207 68.4346C89.6815 66.628 88.1812 65.1789 86.3493 65.1771H86.3476ZM66.6554 64.6463C64.7541 64.6268 63.2128 66.0813 63.1985 67.9073C63.1842 69.705 64.6793 71.2072 66.5022 71.2249C68.4249 71.2444 69.9289 69.8289 69.9591 67.9728C69.9877 66.198 68.4641 64.664 66.6554 64.6463Z" fill="#E3F9B8"/>
<path d="M146.187 144.277C146.021 144.095 145.889 143.833 145.682 143.742C142.692 142.458 139.731 141.097 136.682 139.97C134.852 139.294 133.579 137.972 132.095 136.875C130.958 136.035 130.571 134.881 130.117 133.611C129.091 130.746 127.92 127.915 126.58 125.18C124.949 121.85 122.688 118.925 119.853 116.494C118.763 115.558 117.538 114.77 116.341 113.963C115.894 113.662 115.732 113.417 115.83 112.831C116.776 107.112 116.804 101.415 115.129 95.8056C114.4 93.3655 113.248 91.1131 111.694 89.0676C111.512 88.827 111.418 88.3581 111.524 88.0892C112.603 85.3837 113.094 82.5527 113.367 79.6809C113.554 77.7275 113.741 75.7599 113.698 73.8047C113.648 71.5487 113.435 69.2856 113.132 67.0456C112.613 63.1971 111.425 59.5574 109.44 56.1814C108.278 54.2067 107.419 52.0321 106.09 50.1831C103.319 46.3293 99.532 43.6327 95.3 41.4935C89.7368 38.6819 83.876 37.1744 77.625 37.2681C74.9753 37.3071 72.3879 37.7742 69.8611 38.5757C69.3961 38.7244 68.8882 38.7421 68.4 38.8199C67.9224 34.3628 71.1192 30.7072 74.8933 29.1908C78.826 27.6089 82.8443 27.6762 86.8109 28.9271C88.8244 29.5623 90.8024 30.4417 92.6253 31.5016C94.9792 32.8711 96.7113 34.8299 96.7986 37.9069C97.1122 37.7353 97.3349 37.6309 97.5381 37.4982C100.801 35.366 104.327 35.0882 107.802 36.6188C112.961 38.8907 116.011 43.0364 117.293 48.4384C117.886 50.9421 117.364 53.2831 115.562 55.3179C119.978 58.3188 122.013 62.6256 122.458 67.7162C122.891 72.6581 122.539 77.4391 118.695 80.9797C119.903 82.0519 121.229 83.0393 122.312 84.2407C123.661 85.7358 124.116 87.6574 124.251 89.6285C124.504 93.316 123.683 96.7009 121.289 99.6222C121.218 99.7089 121.181 99.8239 121.093 99.9902C124.345 101.473 126.412 103.871 126.958 107.429C127.473 110.791 126.945 113.983 125.384 116.791C126.924 117.484 128.522 117.985 129.873 118.861C132.546 120.593 133.679 123.269 133.877 126.365C134.071 129.41 133.48 132.28 131.871 134.911C131.797 135.032 131.74 135.164 131.584 135.474C132.378 135.056 132.986 134.669 133.645 134.404C136.862 133.105 140.03 133.374 143.093 134.879C146.293 136.454 148.998 138.602 150.556 141.899C151.24 143.348 151.493 144.877 150.673 146.397C149.175 145.689 147.678 144.981 146.179 144.273L146.187 144.277Z" fill="#57B761"/>
<path d="M56.3844 107.385C56.1652 108.726 55.9425 110.067 55.7251 111.408C55.4275 113.249 55.1549 115.094 54.8359 116.931C54.5365 118.654 54.1837 120.369 53.8719 122.09C53.7008 123.039 53.364 124.015 53.4656 124.939C53.5707 125.889 54.075 126.809 54.4866 127.706C55.6342 130.207 56.8281 132.687 57.9971 135.179C59.0751 137.479 60.1478 139.783 61.2188 142.085C61.4665 142.617 61.7035 143.155 61.9458 143.691C62.247 144.429 62.5463 145.167 62.8475 145.905C63.2573 146.816 63.6689 147.727 64.0788 148.64C63.562 149.773 63.1415 150.903 63.4408 152.199C63.9558 154.419 65.5507 155.582 67.4983 156.419C70.2799 157.613 73.2326 158.002 76.2208 158.211C81.082 158.549 85.9181 158.466 90.6776 157.27C97.4062 157.277 104.135 157.286 110.865 157.289C115.757 157.293 120.648 157.298 125.539 157.286C128.086 157.279 129.891 155.536 129.942 153.076C132.295 153.05 134.645 153.023 136.997 152.997C138 153.021 139.004 153.032 140.005 153.073C141.122 153.119 142.254 153.099 143.353 153.271C145.312 153.575 146.826 155.127 147.147 157.287C147.418 159.12 146.725 160.66 145.19 161.801C144.166 162.564 142.986 162.75 141.771 162.794C140.237 162.85 138.702 162.852 137.166 162.877C134.346 162.856 131.525 162.833 128.704 162.811C128.528 162.804 128.353 162.796 128.177 162.788C127.792 162.796 127.407 162.81 127.02 162.81C107.269 162.81 87.5183 162.796 67.7692 162.815C63.6654 162.819 61.0317 160.722 59.2729 157.257C57.908 154.568 56.5555 151.873 55.2012 149.178C54.9517 148.681 54.7236 148.171 54.4849 147.669C54.4385 147.405 54.4474 147.115 54.337 146.881C53.4282 144.972 52.5105 143.067 51.5661 141.173C51.1438 140.326 50.6591 139.51 50.2029 138.678C50.1174 138.687 50.0318 138.694 49.9445 138.703C49.8002 139.098 49.6024 139.484 49.5204 139.891C49.2603 141.182 49.025 142.479 48.8148 143.78C48.7328 144.291 48.7381 144.817 48.7025 145.335C48.5796 145.99 48.4423 146.641 48.3372 147.297C48.0378 149.168 47.7527 151.04 47.4623 152.91C47.3732 153.092 47.236 153.267 47.2021 153.46C46.9402 154.959 46.6729 156.458 46.4537 157.965C46.1312 160.18 44.8179 161.644 43.0075 161.743C40.1867 161.897 38.3388 159.713 38.8841 156.948C39.2458 155.115 39.5042 153.26 39.8089 151.415C40.2544 148.89 40.6999 146.367 41.1453 143.842C41.3075 143.41 41.5231 142.989 41.6193 142.543C41.8153 141.63 41.9454 140.701 42.1058 139.781C42.3642 138.31 42.6208 136.842 42.8863 135.373C43.2284 133.476 43.6044 131.585 43.9145 129.683C44.0392 128.92 44.531 128.067 43.6115 127.427C43.6115 127.374 43.6204 127.322 43.6365 127.271C43.861 127.066 44.2245 126.894 44.2851 126.648C44.4312 126.059 44.3403 125.406 44.5221 124.835C44.752 124.12 44.3457 122.98 45.6643 122.936C45.8461 121.996 46.0136 121.112 46.19 120.227C46.4199 119.079 46.6747 117.934 46.8832 116.78C47.0738 115.722 47.0827 114.613 47.416 113.606C47.9006 112.144 48.0396 110.651 48.2517 109.151C48.3996 108.101 48.7239 107.075 48.968 106.04C50.0033 106.242 51.0368 106.456 52.0757 106.643C53.5084 106.902 54.9446 107.139 56.3791 107.386L56.3844 107.385ZM144.476 157.965C144.472 156.663 143.417 155.644 142.086 155.658C140.764 155.672 139.707 156.732 139.736 158.015C139.764 159.267 140.807 160.267 142.093 160.276C143.428 160.287 144.479 159.266 144.476 157.965ZM42.464 155.569C41.1364 155.587 40.11 156.634 40.1403 157.942C40.1706 159.212 41.1952 160.193 42.4925 160.193C43.8271 160.193 44.882 159.165 44.8749 157.871C44.8678 156.59 43.7808 155.553 42.464 155.569Z" fill="#CBF8A6"/>
<path d="M41.1525 143.843C40.707 146.368 40.2615 148.892 39.816 151.416C36.6424 152.526 34.7357 156.035 35.4859 159.384C36.1738 162.452 38.9981 164.8 42.1468 164.917C45.479 165.041 48.4352 162.985 49.3743 159.892C50.1476 157.342 49.3137 154.286 47.4694 152.912C47.7599 151.041 48.045 149.169 48.3443 147.299C48.4495 146.643 48.5867 145.991 48.7096 145.337C49.0375 145.427 49.4224 145.436 49.6826 145.62C50.7571 146.375 51.7942 147.182 52.8455 147.971C56.9849 152.482 58.1503 157.595 55.8374 163.312C53.7186 168.548 48.4922 171.8 42.8132 171.993C36.9632 172.191 31.302 168.484 29.1066 163.231C26.2787 156.466 29.3258 148.41 35.9867 145.239C36.2468 145.116 36.482 144.942 36.7279 144.79C36.981 144.733 37.2358 144.675 37.4888 144.622C38.7094 144.362 39.9318 144.102 41.1525 143.843Z" fill="#383838"/>
<path d="M128.706 162.811C131.527 162.833 134.347 162.856 137.168 162.877C137.323 163.05 137.459 163.25 137.639 163.394C140.607 165.738 145.215 165.303 147.594 162.459C150.166 159.386 149.802 155.125 146.744 152.512C143.964 150.135 139.314 150.367 136.999 152.997C134.647 153.023 132.296 153.05 129.944 153.076C129.454 153.062 128.964 153.05 128.476 153.035C128.693 152.522 128.911 152.009 129.126 151.498C130.564 149.035 132.394 146.94 134.96 145.588C138.257 143.85 141.707 143.125 145.394 144.203C145.643 144.275 145.921 144.254 146.187 144.275C147.685 144.983 149.182 145.691 150.681 146.398C150.729 146.437 150.777 146.478 150.827 146.517C151.361 146.996 151.91 147.462 152.425 147.961C154.002 149.481 155.03 151.351 155.866 153.342C156.584 155.723 156.752 158.147 156.301 160.589C155.109 167.047 149.143 171.889 142.525 171.97C136.295 172.048 131.945 169.135 128.936 163.926C128.806 163.701 128.752 163.434 128.663 163.187C128.677 163.061 128.692 162.935 128.708 162.81L128.706 162.811Z" fill="#383838"/>
<path d="M49.9962 87.4876C50.2706 87.7371 50.5646 87.9689 50.8141 88.2396C51.4556 88.9403 52.0757 89.6604 52.7047 90.3735C52.7154 90.6071 52.694 90.8477 52.7404 91.0742C53.1876 93.2577 52.7314 95.135 50.9317 96.6001C50.6751 96.8089 50.5325 97.1557 50.3365 97.437C50.0194 97.4759 49.7039 97.5237 49.3868 97.5556C48.3372 97.66 47.2859 97.8528 46.2399 97.8298C45.3061 97.8104 44.376 97.5538 43.444 97.4016C42.9077 97.276 42.3749 97.1327 41.8349 97.0283C38.7647 96.4391 35.6695 95.956 32.6295 95.2429C30.0867 94.6484 28.7093 92.7021 28.5703 90.2744C28.4313 87.8698 29.9014 85.7872 32.1858 84.9786C33.6238 84.469 35.0315 84.6548 36.4678 84.9167C39.0195 85.382 41.5748 85.8191 44.1283 86.2685C44.2512 86.2968 44.376 86.3251 44.4989 86.3534C46.3343 86.7321 48.1697 87.1125 50.0051 87.4911L49.998 87.4876H49.9962Z" fill="#363736"/>
<path d="M44.1265 86.2685C41.573 85.8191 39.0159 85.3838 36.466 84.9167C35.0298 84.6548 33.622 84.469 32.184 84.9786C29.8996 85.789 28.4295 87.8699 28.5685 90.2745C28.7093 92.7021 30.0867 94.6485 32.6277 95.243C35.6677 95.9543 38.7629 96.4373 41.8332 97.0283C42.3731 97.1327 42.9059 97.276 43.4423 97.4017C41.6532 102.236 40.7355 107.233 40.5751 112.374C39.5452 111.373 38.419 110.449 37.5049 109.352C35.9956 107.542 34.6377 105.61 33.1819 103.754C32.9271 103.428 32.5475 103.108 32.1626 102.986C27.9769 101.664 25.9615 98.6898 25.5517 94.491C25.1258 90.1435 27.428 86.0916 31.441 84.3275C34.4471 83.0057 37.5298 83.2871 40.5234 84.4107C41.7797 84.8831 42.9291 85.6404 44.1265 86.2668V86.2685Z" fill="#57B660"/>
<path d="M40.5751 112.373C40.7355 107.231 41.655 102.234 43.4422 97.3999C44.3742 97.5521 45.3026 97.8104 46.2381 97.8281C47.2841 97.8493 48.3354 97.6565 49.385 97.5538C49.7022 97.522 50.0176 97.476 50.3348 97.4353C50.0995 98.8951 49.859 100.353 49.6273 101.813C49.4046 103.221 49.1908 104.63 48.9734 106.038C48.7275 107.075 48.4049 108.1 48.257 109.149C48.045 110.647 47.906 112.143 47.4213 113.604C47.0881 114.611 47.0792 115.722 46.8885 116.778C46.68 117.93 46.4252 119.075 46.1953 120.225C46.0189 121.11 45.8514 121.996 45.6697 122.934C44.351 122.98 44.7573 124.118 44.5274 124.833C44.3439 125.404 44.4366 126.057 44.2904 126.647C44.2299 126.892 43.8681 127.064 43.6418 127.269C42.7829 124.406 41.7601 121.579 41.1186 118.67C40.6678 116.628 40.7373 114.475 40.5751 112.371V112.373Z" fill="#E3F9B8"/>
<path d="M41.1525 143.843C39.9301 144.103 38.7094 144.362 37.4888 144.622C37.234 144.677 36.981 144.733 36.7279 144.79C33.8573 142.017 33.492 137.509 35.8958 134.331C37.1271 132.701 38.6649 131.422 40.5395 130.589C41.3823 130.214 42.0345 129.713 42.4889 128.894C42.7847 128.361 43.2373 127.913 43.6204 127.428C44.5399 128.069 44.0463 128.922 43.9234 129.684C43.6133 131.587 43.2391 133.478 42.8952 135.375C42.6297 136.844 42.3731 138.312 42.1147 139.782C41.9526 140.704 41.8243 141.632 41.6282 142.545C41.532 142.99 41.3164 143.412 41.1543 143.843H41.1525Z" fill="#57B761"/>
<path d="M52.8455 147.97C51.7942 147.18 50.7571 146.374 49.6826 145.618C49.4224 145.434 49.0375 145.425 48.7096 145.335C48.7453 144.817 48.7381 144.291 48.8219 143.78C49.0322 142.479 49.2656 141.182 49.5275 139.891C49.6095 139.484 49.8073 139.098 49.9516 138.703C50.0372 138.694 50.1227 138.687 50.21 138.678C50.6662 139.508 51.1509 140.326 51.5732 141.173C52.5158 143.067 53.4353 144.972 54.3441 146.881C54.4546 147.115 54.4457 147.405 54.492 147.669C53.9432 147.77 53.3961 147.869 52.8473 147.97H52.8455Z" fill="#57B660"/>
<path d="M155.864 153.343C155.03 151.353 154 149.482 152.423 147.963C151.907 147.465 151.358 147 150.825 146.519C151.846 147.131 152.869 147.74 153.884 148.357C154.558 148.766 155.224 149.183 155.889 149.606C156.137 149.762 156.39 149.918 156.605 150.112C157.869 151.262 157.806 151.673 156.333 152.582C156.105 152.722 156.017 153.085 155.864 153.343Z" fill="#E3F9B8"/>
<path d="M128.706 162.811C128.692 162.937 128.677 163.063 128.661 163.188C128.501 163.056 128.339 162.921 128.178 162.788C128.355 162.796 128.529 162.804 128.706 162.811Z" fill="#A2A2A1"/>
<path d="M90.6812 157.27C85.9199 158.466 81.0855 158.551 76.2226 158.211C73.2343 158.002 70.2817 157.613 67.5001 156.419C65.5524 155.582 63.9576 154.419 63.4426 152.199C63.1415 150.903 63.5638 149.773 64.0806 148.64C65.2335 147.711 66.3971 146.797 67.5232 145.838C67.6605 145.721 67.5981 145.372 67.6266 145.13C67.5232 143.728 67.329 142.325 67.3344 140.924C67.3575 134.566 72.5679 128.642 78.9062 127.572C84.5407 126.622 89.5657 128.135 94.2468 131.123C96.713 132.698 98.7088 134.72 99.8225 137.47C100.149 138.277 100.314 139.147 100.555 139.99C100.658 142.787 100.222 145.468 98.8549 147.961C98.7177 148.21 98.7159 148.647 98.8424 148.904C99.4127 150.073 99.2434 151.171 98.6571 152.262C98.5199 152.515 98.397 152.775 98.2669 153.034C97.6824 153.527 97.1104 154.035 96.5117 154.511C94.7886 155.884 92.6966 156.495 90.683 157.266L90.6812 157.27Z" fill="#57B660"/>
<path d="M65.0784 90.2656C65.8678 87.1001 67.8796 85.0777 70.9998 84.1806C74.1057 83.287 77.1956 83.333 80.1874 84.6778C82.1351 85.5537 83.6818 86.8648 84.6191 88.8235C84.7331 89.0624 84.9683 89.319 85.2089 89.4163C88.7122 90.8371 91.5009 93.1037 93.559 96.2586C93.6214 96.3541 93.7247 96.4232 93.8085 96.5045C93.9172 96.7434 94.0045 96.9964 94.1399 97.2194C96.7362 101.531 98.2366 106.139 97.727 111.214C97.4258 114.208 96.1036 116.602 93.2115 117.987C89.6388 119.698 86.1016 119.415 82.5699 117.973C80.4654 117.115 78.5926 115.865 76.9229 114.323C76.8142 114.208 76.7037 114.092 76.595 113.977C76.465 113.802 76.3349 113.625 76.2048 113.45C74.1396 110.784 72.0654 108.121 70.7521 104.976C70.5828 104.573 70.4545 104.154 70.3066 103.741C72.3648 104.118 74.4264 104.486 76.4828 104.872C78.491 105.247 80.264 104.688 81.7413 103.377C83.4982 101.818 84.0506 99.7726 83.5392 97.5237C82.9779 95.0589 81.3492 93.5019 78.8795 92.9852C74.291 92.0244 69.6794 91.1662 65.0767 90.2656H65.0784Z" fill="#57B660"/>
<path d="M50.0033 87.4911C48.7577 86.571 47.3286 85.8172 46.3022 84.6972C43.4084 81.5406 42.6653 77.8106 44.1996 73.8065C45.6536 70.0128 48.5136 67.8011 52.5675 67.1429C58.0273 66.2564 63.3553 69.9014 64.5652 75.4732C65.834 81.307 61.5484 87.3212 55.5808 88.052C53.8576 88.2626 52.2289 88.0856 50.6003 87.5831C50.4078 87.5229 50.1975 87.5194 49.9944 87.4893L50.0015 87.4929L50.0033 87.4911Z" fill="#ED7C76"/>
<path d="M108.411 80.4064C108.239 86.4384 103.634 91.0034 97.7145 90.9946C91.7967 90.9857 87.0621 86.3959 87.0942 80.3711C87.1262 74.4223 91.6452 69.859 97.7056 69.8431C103.807 69.8289 108.221 74.4311 108.411 80.4064Z" fill="#ED7C76"/>
<path d="M65.0784 90.2656C69.6812 91.1663 74.291 92.0244 78.8813 92.9852C81.351 93.5019 82.9797 95.059 83.541 97.5238C84.0524 99.7727 83.5 101.818 81.743 103.377C80.2658 104.688 78.4928 105.247 76.4846 104.872C74.4282 104.488 72.3665 104.118 70.3084 103.741C68.6298 103.393 66.9655 102.959 65.2727 102.719C63.0346 102.398 61.037 101.687 59.5206 99.9425C59.4315 99.6984 59.362 99.4453 59.248 99.2135C58.4194 97.5291 58.2483 95.818 59.0573 94.0805C59.3941 93.3568 59.7897 92.6596 60.1585 91.9519C60.2726 91.9253 60.4169 91.9324 60.4971 91.8652C61.8175 90.7363 63.3874 90.3293 65.082 90.2674L65.0784 90.2656Z" fill="#363736"/>
<path d="M60.155 91.9518C59.7861 92.6613 59.3905 93.3567 59.0537 94.0804C58.2465 95.8162 58.4158 97.529 59.2444 99.2135C59.3584 99.4452 59.4279 99.6983 59.517 99.9424C58.9664 99.8734 58.414 99.8027 57.7155 99.7142C57.27 102.276 56.8263 104.83 56.3808 107.385C54.9464 107.139 53.5101 106.9 52.0775 106.641C51.0386 106.454 50.0069 106.24 48.9698 106.038C49.1872 104.63 49.401 103.221 49.6238 101.813C49.8554 100.353 50.0942 98.8932 50.3312 97.4352C50.5272 97.1521 50.6698 96.8071 50.9264 96.5983C52.7261 95.1332 53.1823 93.2558 52.735 91.0724C52.6887 90.8459 52.7101 90.6053 52.6994 90.3717C54.7486 90.8636 56.7942 91.3661 58.847 91.8368C59.2676 91.9341 59.7166 91.9164 60.1514 91.95L60.155 91.9518Z" fill="#040604"/>
<path d="M76.9229 114.322C78.5926 115.865 80.4654 117.113 82.5699 117.973C86.1016 119.413 89.637 119.698 93.2115 117.987C96.1054 116.601 97.4276 114.207 97.7269 111.214C98.2366 106.139 96.7362 101.531 94.1399 97.2194C94.0045 96.9946 93.919 96.7434 93.8085 96.5045C94.156 96.8354 94.5729 97.1203 94.8384 97.5078C97.2227 101.002 98.8086 104.823 99.3075 109.028C99.6514 111.916 99.4447 114.752 97.8303 117.313C96.6614 119.169 94.801 120.059 92.807 120.692C91.9179 120.975 90.9663 121.186 90.0415 121.193C88.8458 121.202 87.6234 121.083 86.458 120.825C83.9473 120.268 81.6842 119.126 79.7045 117.495C78.7743 116.729 77.9493 115.832 77.1047 114.967C76.9675 114.825 76.9799 114.54 76.9229 114.322Z" fill="#CBF8A6"/>
<path d="M86.3475 65.1771C88.1794 65.1789 89.6798 66.6298 89.719 68.4346C89.7582 70.2447 88.215 71.7576 86.3315 71.7558C84.4444 71.7558 82.928 70.2518 82.9601 68.4187C82.9922 66.621 84.5032 65.1754 86.3458 65.1771H86.3475ZM87.4523 68.0772C87.6911 67.7251 87.9192 67.5375 87.9103 67.3641C87.8996 67.1748 87.668 66.9978 87.5343 66.8156C87.3704 66.9731 87.1049 67.1129 87.0728 67.2916C87.0425 67.4685 87.251 67.6862 87.4541 68.0772H87.4523Z" fill="#040604"/>
<path d="M66.6554 64.6463C68.4641 64.664 69.9877 66.1981 69.9591 67.9728C69.9289 69.8289 68.4249 71.2444 66.5022 71.225C64.6793 71.2055 63.1842 69.7051 63.1985 67.9073C63.2128 66.0813 64.7541 64.6268 66.6554 64.6463ZM68.04 66.4122C67.7228 66.1857 67.5126 65.9291 67.37 65.9628C67.1936 66.0035 66.9548 66.2848 66.9584 66.4582C66.9619 66.6281 67.2239 66.9005 67.3985 66.9218C67.5482 66.9412 67.7353 66.6687 68.04 66.4122Z" fill="#040604"/>
<path d="M68.5407 76.7773C68.1594 76.5774 67.7781 76.3774 67.3272 76.1386V75.1318C67.9776 75.4113 68.555 75.629 69.1003 75.9068C69.3551 76.0377 69.544 76.2925 69.772 76.48C71.0372 77.5187 71.9798 77.4621 73.2308 76.3703C73.6852 75.974 74.2108 75.5812 74.7739 75.3989C75.6863 75.1034 76.5897 75.2875 77.3613 75.9138C77.682 76.1739 77.9939 76.4464 78.3271 76.6924C79.3749 77.4692 80.289 77.4108 81.2976 76.5668C81.8713 76.0872 82.4915 75.659 83.2595 75.0804V76.2093C82.814 76.5685 82.381 76.8746 81.9979 77.2338C80.5866 78.5591 79.1093 78.6175 77.641 77.3807C77.3916 77.1719 77.1528 76.9489 76.8891 76.7614C75.8894 76.0519 74.8363 76.0695 74.0041 76.9666C72.9171 78.138 71.6644 78.4883 70.1534 78.0654C69.6152 77.6355 69.0771 77.2037 68.5389 76.7738L68.5407 76.7773Z" fill="#040604"/>
<path d="M67.8957 76.4395C68.5158 76.6394 69.2713 77.3896 69.7328 77.7329C69.4816 78.1859 69.0824 78.5008 68.8864 78.9626C68.6815 79.4421 68.571 79.9393 68.4231 80.4189C66.6822 79.9482 65.8447 77.2021 67.8957 76.4395Z" fill="#FEFEFE"/>
<path d="M64.3888 144.562C63.8756 145.009 63.3624 145.459 62.8492 145.907C62.5481 145.169 62.2487 144.431 61.9476 143.693C62.7619 143.983 63.5763 144.272 64.3888 144.562Z" fill="#57B761"/>
<path d="M98.2633 153.037C108.333 153.037 118.404 153.037 128.474 153.037C128.964 153.051 129.454 153.064 129.942 153.078C129.891 155.537 128.086 157.282 125.539 157.287C120.648 157.3 115.757 157.293 110.865 157.291C104.137 157.287 97.4062 157.279 90.6776 157.271C92.6912 156.5 94.7832 155.89 96.5063 154.516C97.1051 154.04 97.6771 153.533 98.2615 153.039L98.2633 153.037Z" fill="#040604"/>
<path d="M47.4694 152.91C49.3137 154.285 50.1477 157.34 49.3743 159.89C48.4352 162.985 45.479 165.041 42.1468 164.915C38.9981 164.798 36.1738 162.45 35.4859 159.382C34.7357 156.031 36.6406 152.524 39.816 151.415C39.5113 153.258 39.2529 155.113 38.8912 156.946C38.3459 159.711 40.1938 161.893 43.0146 161.741C44.825 161.642 46.1401 160.179 46.4608 157.963C46.68 156.457 46.9473 154.959 47.2092 153.458C47.2431 153.265 47.3803 153.09 47.4694 152.908V152.91Z" fill="#A2A2A1"/>
<path d="M136.999 152.997C139.314 150.365 143.964 150.134 146.744 152.512C149.802 155.125 150.166 159.388 147.594 162.459C145.215 165.301 140.609 165.736 137.639 163.394C137.459 163.25 137.323 163.05 137.168 162.877C138.702 162.852 140.238 162.85 141.773 162.794C142.988 162.75 144.166 162.564 145.192 161.801C146.726 160.66 147.42 159.119 147.149 157.287C146.83 155.125 145.313 153.573 143.355 153.271C142.256 153.101 141.124 153.119 140.007 153.073C139.005 153.032 138.002 153.021 136.999 152.997Z" fill="#A2A2A1"/>
<path d="M144.476 157.965C144.479 159.267 143.428 160.287 142.093 160.276C140.807 160.267 139.764 159.267 139.736 158.015C139.707 156.73 140.762 155.672 142.086 155.658C143.417 155.644 144.472 156.663 144.476 157.965Z" fill="#040604"/>
<path d="M42.464 155.569C43.7808 155.553 44.8678 156.59 44.8749 157.871C44.882 159.165 43.8271 160.193 42.4925 160.193C41.1952 160.193 40.1706 159.212 40.1403 157.942C40.11 156.634 41.1364 155.587 42.464 155.569Z" fill="#040604"/>
<path d="M87.4524 68.0771C87.2492 67.6861 87.0407 67.4685 87.071 67.2915C87.1013 67.111 87.3686 66.973 87.5325 66.8156C87.668 66.9978 87.8996 67.1747 87.9085 67.3641C87.9174 67.5392 87.6893 67.725 87.4506 68.0771H87.4524Z" fill="#040604"/>
<path d="M68.04 66.4121C67.7353 66.6687 67.5482 66.9412 67.3985 66.9217C67.2239 66.8987 66.9619 66.6262 66.9584 66.4581C66.9548 66.2847 67.1918 66.0034 67.37 65.9627C67.5126 65.9308 67.721 66.1856 68.04 66.4121Z" fill="#FEFEFE"/>
<path d="M67.5001 66.9766C67.7983 66.9766 68.04 66.7365 68.04 66.4404C68.04 66.1443 67.7983 65.9043 67.5001 65.9043C67.2019 65.9043 66.9602 66.1443 66.9602 66.4404C66.9602 66.7365 67.2019 66.9766 67.5001 66.9766Z" fill="#FEFEFE"/>
<path d="M87.4898 67.8772C87.788 67.8772 88.0297 67.6372 88.0297 67.3411C88.0297 67.045 87.788 66.8049 87.4898 66.8049C87.1916 66.8049 86.9498 67.045 86.9498 67.3411C86.9498 67.6372 87.1916 67.8772 87.4898 67.8772Z" fill="#FEFEFE"/>
</g>
<path d="M179.077 52.5L184.736 41.4414V41.3486H178.149V39.0664H187.631V41.3857L181.972 52.5H179.077ZM194.144 52.6855C191.193 52.6855 189.078 51.0527 189.022 48.7148H191.843C191.898 49.7168 192.863 50.3848 194.162 50.3848C195.498 50.3848 196.463 49.624 196.444 48.5479C196.463 47.4531 195.479 46.6738 193.902 46.6738H192.659V44.6143H193.902C195.22 44.6143 196.147 43.8906 196.147 42.833C196.147 41.8125 195.368 41.1074 194.181 41.1074C192.993 41.1074 192.01 41.7754 191.973 42.7959H189.301C189.338 40.4766 191.435 38.8809 194.181 38.8809C196.982 38.8809 198.856 40.5322 198.838 42.666C198.856 44.1689 197.799 45.2451 196.296 45.5049V45.6162C198.263 45.8574 199.357 47.0635 199.339 48.7334C199.357 51.0342 197.168 52.6855 194.144 52.6855ZM206.353 52.6855C203.291 52.6855 201.083 51.0713 201.083 48.8818C201.083 47.1934 202.382 45.8203 204.052 45.5605V45.4678C202.604 45.1895 201.603 43.9648 201.603 42.499C201.603 40.4023 203.606 38.8809 206.353 38.8809C209.099 38.8809 211.103 40.4023 211.121 42.499C211.103 43.9834 210.082 45.1895 208.672 45.4678V45.5605C210.305 45.8203 211.622 47.1934 211.622 48.8818C211.622 51.0713 209.414 52.6855 206.353 52.6855ZM206.353 50.5518C207.763 50.5518 208.709 49.7539 208.709 48.6035C208.709 47.4346 207.726 46.5811 206.353 46.5811C204.979 46.5811 203.978 47.4346 203.996 48.6035C203.978 49.7539 204.924 50.5518 206.353 50.5518ZM206.353 44.6143C207.54 44.6143 208.394 43.8535 208.394 42.7773C208.394 41.7383 207.559 40.9961 206.353 40.9961C205.146 40.9961 204.33 41.7197 204.33 42.7773C204.33 43.8535 205.165 44.6143 206.353 44.6143ZM218.432 38.8809C221.215 38.8994 223.85 40.5508 223.85 45.4307C223.868 49.9951 221.697 52.6855 218.32 52.6855C215.611 52.6855 213.774 50.9971 213.496 48.7148H216.242C216.465 49.6982 217.244 50.292 218.32 50.292C220.157 50.292 221.122 48.6592 221.122 45.9688H221.011C220.38 47.1562 219.062 47.8613 217.56 47.8613C215.147 47.8613 213.366 46.043 213.348 43.5381C213.348 40.8291 215.389 38.8623 218.432 38.8809ZM218.45 41.0703C217.077 41.0703 216.057 42.1279 216.075 43.4639C216.075 44.7812 217.059 45.8203 218.432 45.8203C219.786 45.8203 220.844 44.7441 220.844 43.4453C220.825 42.165 219.823 41.0703 218.45 41.0703ZM239.306 37.3223V46.8037H236.949V37.3223H239.306ZM228.525 38.2871V43.9834C231.086 43.9648 233.257 43.7793 235.521 43.2969L235.799 45.208C233.164 45.7646 230.641 45.9688 227.616 45.9688H226.15V38.2871H228.525ZM239.306 47.4902V54.0029H228.024V47.4902H239.306ZM230.344 49.3457V52.1475H236.986V49.3457H230.344ZM255.745 37.3223V54.2441H253.352V37.3223H255.745ZM246.579 38.5098C249.121 38.5098 251.014 40.8477 251.014 44.5215C251.014 48.2324 249.121 50.5518 246.579 50.5518C243.981 50.5518 242.089 48.2324 242.107 44.5215C242.089 40.8477 243.981 38.5098 246.579 38.5098ZM246.579 40.6436C245.262 40.6436 244.39 42.0166 244.39 44.5215C244.39 47.0449 245.262 48.3994 246.579 48.3994C247.859 48.3994 248.731 47.0449 248.731 44.5215C248.731 42.0166 247.859 40.6436 246.579 40.6436ZM277.046 37.3223V54.207H274.782V37.3223H277.046ZM273.521 37.5635V53.4277H271.294V45.4492H269.939C269.717 48.7705 268.307 50.7744 266.229 50.7744C264.002 50.7744 262.555 48.4365 262.555 44.6328C262.555 40.8477 264.002 38.5283 266.229 38.5283C268.26 38.5283 269.652 40.4209 269.921 43.5752H271.294V37.5635H273.521ZM266.229 40.7549C265.282 40.7549 264.726 42.0537 264.744 44.6328C264.726 47.2305 265.282 48.5107 266.229 48.4922C267.193 48.5107 267.769 47.2305 267.769 44.6328C267.769 42.0537 267.193 40.7549 266.229 40.7549ZM292.521 38.2686V39.79C292.502 41.5435 292.502 43.4917 291.945 46.2285H294.228V48.1396H287.715V54.1699H285.34V48.1396H278.827V46.2285H289.626C289.83 45.3286 289.969 44.5029 290.053 43.7422L280.367 44.2246L280.089 42.2021L290.22 41.9238C290.238 41.293 290.248 40.7085 290.257 40.1426H280.627V38.2686H292.521ZM300.276 38.3242C302.874 38.3242 304.896 40.0312 304.915 42.4619C304.896 44.5029 303.477 46.0337 301.482 46.4697V48.7705C302.818 48.7148 304.145 48.6035 305.397 48.4365L305.564 50.1807C302.039 50.8486 298.235 50.8486 295.359 50.8115L295.044 48.9004C296.259 48.8911 297.66 48.8911 299.126 48.8633V46.4883C297.057 46.0708 295.638 44.5308 295.638 42.4619C295.638 40.0312 297.604 38.3242 300.276 38.3242ZM300.276 40.3281C298.94 40.3281 297.938 41.1074 297.957 42.4619C297.938 43.7979 298.94 44.5957 300.276 44.5957C301.575 44.5957 302.577 43.7979 302.577 42.4619C302.577 41.1074 301.575 40.3281 300.276 40.3281ZM308.663 37.3223V43.9463H310.964V45.9316H308.663V54.207H306.288V37.3223H308.663ZM184.551 64.9238C184.551 67.6514 185.942 70.5645 188.781 71.752L187.501 73.6074C185.506 72.7632 184.133 71.084 183.382 69.0244C182.612 71.2603 181.211 73.1157 179.226 74.0342L177.871 72.1602C180.673 70.917 182.12 67.7812 182.12 64.9238V63.8848H178.539V61.9551H188.076V63.8848H184.551V64.9238ZM192.14 60.3223V77.207H189.746V60.3223H192.14ZM208.022 61.3057V62.8271C208.022 64.4043 208.022 66.1299 207.596 68.4863H209.822V70.3975H203.235V77.2256H200.86V70.3975H194.422V68.4863H205.202C205.629 66.3062 205.666 64.6548 205.666 63.1982H196.185V61.3057H208.022ZM226.28 67.8926V69.6553H210.824V67.8926H226.28ZM224.425 70.4902V74.4795H214.962V75.4443H224.926V77.0586H212.605V72.9766H222.087V72.123H212.587V70.4902H224.425ZM224.406 60.6191V64.5898H215.11V65.499H224.703V67.0947H212.754V63.0869H222.031V62.2334H212.717V60.6191H224.406ZM236.188 61.5098C238.768 61.5098 240.623 63.8477 240.642 67.5215C240.623 71.2324 238.768 73.5518 236.188 73.5518C233.609 73.5518 231.717 71.2324 231.735 67.5215C231.717 63.8477 233.609 61.5098 236.188 61.5098ZM236.188 63.6436C234.89 63.6436 234.018 65.0166 234.018 67.5215C234.018 70.0449 234.89 71.3994 236.188 71.3994C237.506 71.3994 238.359 70.0449 238.378 67.5215C238.359 65.0166 237.506 63.6436 236.188 63.6436ZM244.965 60.3223V66.6865H247.451V68.6533H244.965V77.207H242.59V60.3223H244.965ZM262.184 60.3223V77.207H259.827V70.917H256.487C255.996 72.1973 255.318 73.4033 254.409 74.5537L252.498 73.3291C254.669 70.5273 255.402 67.6699 255.56 63.9775H253.686V62.0479H257.805C257.805 62.8828 257.786 63.6992 257.749 64.4971H259.827V60.3223H262.184ZM253.185 62.0479C253.166 66.5752 252.554 70.2119 249.659 73.4404L247.841 72.1045C249.975 69.7017 250.717 67.2896 250.902 63.9775H248.546V62.0479H253.185ZM257.1 69.0244H259.827V66.3711H257.582C257.461 67.2803 257.304 68.1616 257.1 69.0244ZM278.493 61.0459V62.9014H273.836C274.114 64.293 275.858 65.7031 279.198 66.0742L278.326 67.9297C275.163 67.5771 273.047 66.2598 272.166 64.5156C271.275 66.2505 269.179 67.5771 266.024 67.9297L265.171 66.0742C268.511 65.7031 270.236 64.2744 270.515 62.9014H265.895V61.0459H278.493ZM279.922 68.7275V70.6201H273.558V73.5332H271.22V70.6201H264.466V68.7275H279.922ZM278.215 75.0176V76.9102H266.284V72.0303H268.641V75.0176H278.215ZM299.516 60.3223V77.207H297.159V68.7461H293.801V66.8164H297.159V60.3223H299.516ZM293.894 62.085C293.894 67.1875 292.242 71.3438 286.342 74.2754L285.117 72.4199C289.385 70.314 291.147 67.6328 291.519 63.9404H285.915V62.085H293.894ZM315.862 60.3223V77.2441H313.506V60.3223H315.862ZM310.63 61.7324V68.2451H305.063V71.3438C307.633 71.3345 309.823 71.186 312.3 70.7871L312.504 72.6982C309.721 73.1807 307.216 73.292 304.136 73.292H302.614V66.3711H308.218V63.6436H302.596V61.7324H310.63Z" fill="#161D24"/>
<path d="M183.031 99.1875V110.5H180.984V101.172H180.922L178.281 102.859V101L181.078 99.1875H183.031ZM189.891 110.656C187.469 110.656 185.75 109.344 185.703 107.438H187.75C187.812 108.344 188.719 108.938 189.891 108.938C191.141 108.938 192.031 108.25 192.031 107.25C192.031 106.234 191.156 105.5 189.688 105.5H188.672V103.938H189.688C190.891 103.938 191.734 103.266 191.719 102.281C191.734 101.328 191.016 100.688 189.906 100.688C188.844 100.688 187.922 101.281 187.891 102.234H185.938C185.984 100.328 187.703 99.0312 189.922 99.0312C192.219 99.0312 193.703 100.438 193.688 102.172C193.703 103.438 192.859 104.359 191.625 104.609V104.703C193.219 104.922 194.125 105.938 194.109 107.359C194.125 109.266 192.344 110.656 189.891 110.656ZM195.891 110.5V109.031L199.891 105.172C201.031 104.031 201.625 103.359 201.625 102.406C201.625 101.359 200.797 100.688 199.688 100.688C198.516 100.688 197.766 101.422 197.781 102.562H195.844C195.828 100.422 197.438 99.0312 199.703 99.0312C202.016 99.0312 203.578 100.406 203.578 102.312C203.578 103.594 202.953 104.625 200.734 106.719L198.719 108.719V108.797H203.75V110.5H195.891ZM205.547 110.5V99.1875H207.547V105.422H207.688L210.734 102.016H213.062L209.781 105.672L213.266 110.5H210.891L208.281 106.859L207.547 107.641V110.5H205.547ZM214.25 110.5V102.016H216.156V103.453H216.266C216.609 102.484 217.469 101.906 218.594 101.906C219.75 101.906 220.562 102.484 220.891 103.453H220.984C221.359 102.516 222.297 101.906 223.531 101.906C225.078 101.906 226.172 102.906 226.172 104.797V110.5H224.188V105.109C224.188 104.047 223.547 103.578 222.734 103.578C221.75 103.578 221.188 104.25 221.188 105.203V110.5H219.25V105.031C219.25 104.156 218.656 103.578 217.812 103.578C216.953 103.578 216.25 104.281 216.25 105.344V110.5H214.25Z" fill="#12BA54"/>
<rect x="177.5" y="129.5" width="135" height="3" rx="1" fill="#878D91"/>
<path d="M189.629 149.4V162.95H187.388V149.4H189.629ZM186.743 149.562V162.364H184.531V156.095H183.872C183.674 158.761 182.539 160.343 180.869 160.343C179.053 160.343 177.881 158.438 177.896 155.289C177.881 152.169 179.053 150.265 180.869 150.265C182.488 150.265 183.601 151.751 183.857 154.249H184.531V149.562H186.743ZM180.869 152.491C180.312 152.491 180.034 153.297 180.049 155.289C180.034 157.296 180.312 158.087 180.869 158.087C181.44 158.087 181.748 157.296 181.748 155.289C181.748 153.297 181.44 152.491 180.869 152.491ZM201.89 150.118V151.334C201.89 152.718 201.89 154.286 201.45 156.476H203.135V158.351H198.125V162.921H195.752V158.351H190.771V156.476H199.15C199.282 155.89 199.377 155.348 199.443 154.835L191.929 155.23L191.68 153.238L199.604 153.062C199.626 152.667 199.626 152.293 199.634 151.935H192.134V150.118H201.89ZM219.365 155.523V157.428H214.268V162.936H211.895V157.428H207.002V155.523H209.683C210.063 154.095 210.144 153.004 210.166 152.008H207.969V150.147H212.495V151.246C212.495 152.447 212.495 153.766 212.07 155.523H215.352C215.637 154.125 215.688 153.019 215.703 152.008H213.389V150.147H218.032V151.305C218.032 152.462 218.032 153.802 217.71 155.523H219.365ZM227.29 150.572V159.845H220.566V150.572H227.29ZM222.91 152.389V157.999H225.005V152.389H222.91ZM231.406 149.4V162.994H229.033V149.4H231.406ZM244.458 149.4V162.994H242.114V155.992H240.239V154.088H242.114V149.4H244.458ZM239.521 150.47V155.758H235.728V157.97C237.332 157.962 238.804 157.889 240.386 157.633L240.576 159.522C238.584 159.845 236.694 159.903 234.541 159.903H233.384V153.927H237.222V152.345H233.354V150.47H239.521ZM259.971 149.4V154.396H261.699V156.314H259.971V162.921H257.612V149.4H259.971ZM256.279 150.748C256.265 154.938 254.829 158.453 250.2 160.724L248.867 158.937C251.885 157.413 253.481 155.516 253.892 152.652H249.717V150.748H256.279ZM273.623 149.4V162.95H271.235V149.4H273.623ZM269.521 150.792C269.521 155.04 268.32 158.424 263.296 160.768L262.095 158.922C265.479 157.311 266.833 155.45 267.134 152.623H262.871V150.792H269.521ZM284.976 161.749L283.54 160.328L286.616 157.252H279.863V155.157H286.616L283.54 152.066L284.976 150.646L290.527 156.197L284.976 161.749Z" fill="#161D24"/>
<defs>
<clipPath id="clip0_45_7451">
<rect width="132" height="144" fill="white" transform="translate(25.5 28)"/>
</clipPath>
</defs>
</svg>
