<svg width="393" height="24" viewBox="0 0 393 24" fill="none" xmlns="http://www.w3.org/2000/svg">
<g clip-path="url(#clip0_45_7441)">
<path d="M39.4038 13.6841H34.2331V10.2917H43.0426C44.0238 15.3528 40.5861 20.1691 35.6025 20.8931C30.3613 21.6585 25.7341 18.1315 25.0635 12.8532C24.4529 8.03348 28.3389 3.43436 33.5448 3.09994C36.6967 2.89653 39.8732 3.06202 43.1626 3.06202V6.45447C40.0497 6.45447 36.9508 6.38552 33.8554 6.47515C31.0707 6.55445 28.8895 8.61268 28.5012 11.3087C28.1448 13.791 29.6554 16.2595 32.1013 17.2041C35.0625 18.3453 38.1826 16.9283 39.4073 13.6807L39.4038 13.6841Z" fill="#12BA54"/>
<path d="M91.774 20.9655C86.7198 20.9345 82.7068 16.9042 82.7562 11.9018C82.8021 7.03373 86.8963 3.03449 91.841 3.0276C96.8105 3.0207 101.035 7.18542 101 12.0535C100.961 16.9973 96.8246 20.9966 91.774 20.9655ZM86.2009 11.8225C86.1021 14.9667 88.488 17.4834 91.654 17.5765C94.7952 17.6696 97.4317 15.2804 97.5623 12.2189C97.6929 9.21262 95.1481 6.55106 92.0563 6.45453C88.8833 6.35799 86.2962 8.72995 86.2009 11.8259V11.8225Z" fill="#12BA54"/>
<path d="M80.3809 12.0776C80.3561 17.0559 76.262 21.0103 71.1831 20.9655C66.1995 20.9207 62.197 16.9628 62.1688 12.0534C62.1406 7.14057 66.3053 3.02412 71.2995 3.03101C76.3043 3.03791 80.4091 7.12678 80.3809 12.0776ZM71.2078 17.58C74.3525 17.6144 76.9326 15.1666 76.9855 12.0879C77.0384 9.06434 74.4584 6.47863 71.349 6.4476C68.2183 6.41313 65.6312 8.87817 65.5712 11.9465C65.5112 14.9839 68.0736 17.542 71.2078 17.5765V17.58Z" fill="#12BA54"/>
<path d="M59.7758 20.9483C57.8134 20.9483 56.0487 21.0104 54.2875 20.938C49.5827 20.7415 45.9191 17.1559 45.6544 12.5534C45.3862 7.93702 48.5733 3.88952 53.2357 3.27239C55.3499 2.99314 57.5381 3.22413 59.7723 3.22413V6.44765C58.1911 6.44765 56.6275 6.42696 55.0605 6.4511C51.5275 6.5097 48.9898 8.89201 49.0251 12.0845C49.0604 15.2253 51.4992 17.4973 54.9899 17.5938C56.564 17.6386 58.1382 17.6007 59.7758 17.6007V20.9449V20.9483Z" fill="#12BA54"/>
</g>
<path d="M311.645 20.5C311.861 21.2219 312.304 21.8549 312.909 22.3049C313.513 22.755 314.246 22.998 315 22.998C315.754 22.998 316.487 22.755 317.091 22.3049C317.696 21.8549 318.139 21.2219 318.355 20.5H311.645ZM306 19.5H324V16.5L322 13.5V8.5C322 7.58075 321.819 6.6705 321.467 5.82122C321.115 4.97194 320.6 4.20026 319.95 3.55025C319.3 2.90024 318.528 2.38463 317.679 2.03284C316.83 1.68106 315.919 1.5 315 1.5C314.081 1.5 313.17 1.68106 312.321 2.03284C311.472 2.38463 310.7 2.90024 310.05 3.55025C309.4 4.20026 308.885 4.97194 308.533 5.82122C308.181 6.6705 308 7.58075 308 8.5V13.5L306 16.5V19.5Z" fill="#161D24"/>
<path d="M351 5.25C351 4.91848 351.132 4.60054 351.366 4.36612C351.601 4.1317 351.918 4 352.25 4H369.75C370.082 4 370.399 4.1317 370.634 4.36612C370.868 4.60054 371 4.91848 371 5.25C371 5.58152 370.868 5.89946 370.634 6.13388C370.399 6.3683 370.082 6.5 369.75 6.5H352.25C351.918 6.5 351.601 6.3683 351.366 6.13388C351.132 5.89946 351 5.58152 351 5.25ZM351 11.5C351 11.1685 351.132 10.8505 351.366 10.6161C351.601 10.3817 351.918 10.25 352.25 10.25H369.75C370.082 10.25 370.399 10.3817 370.634 10.6161C370.868 10.8505 371 11.1685 371 11.5C371 11.8315 370.868 12.1495 370.634 12.3839C370.399 12.6183 370.082 12.75 369.75 12.75H352.25C351.918 12.75 351.601 12.6183 351.366 12.3839C351.132 12.1495 351 11.8315 351 11.5ZM351 17.75C351 17.4185 351.132 17.1005 351.366 16.8661C351.601 16.6317 351.918 16.5 352.25 16.5H369.75C370.082 16.5 370.399 16.6317 370.634 16.8661C370.868 17.1005 371 17.4185 371 17.75C371 18.0815 370.868 18.3995 370.634 18.6339C370.399 18.8683 370.082 19 369.75 19H352.25C351.918 19 351.601 18.8683 351.366 18.6339C351.132 18.3995 351 18.0815 351 17.75Z" fill="#161D24"/>
<defs>
<clipPath id="clip0_45_7441">
<rect width="76" height="18" fill="white" transform="translate(25 3)"/>
</clipPath>
</defs>
</svg>
