<svg width="76" height="18" viewBox="0 0 76 18" fill="none" xmlns="http://www.w3.org/2000/svg">
<g clip-path="url(#clip0_45_7442)">
<path d="M14.4038 10.6841H9.2331V7.29166H18.0426C19.0238 12.3528 15.5861 17.1691 10.6025 17.8931C5.36127 18.6585 0.734141 15.1315 0.0635421 9.85324C-0.547056 5.03348 3.33889 0.434358 8.54485 0.0999392C11.6967 -0.10347 14.8732 0.0620155 18.1626 0.0620155V3.45447C15.0497 3.45447 11.9508 3.38552 8.85544 3.47515C6.07069 3.55445 3.88948 5.61268 3.50124 8.30871C3.14477 10.791 4.65538 13.2595 7.1013 14.2041C10.0625 15.3453 13.1826 13.9283 14.4073 10.6807L14.4038 10.6841Z" fill="#12BA54"/>
<path d="M66.774 17.9655C61.7198 17.9345 57.7068 13.9042 57.7562 8.90176C57.8021 4.03373 61.8963 0.0344917 66.841 0.0275964C71.8105 0.0207012 76.0353 4.18542 76 9.05345C75.9612 13.9973 71.8246 17.9966 66.774 17.9655ZM61.2009 8.82246C61.1021 11.9667 63.488 14.4834 66.654 14.5765C69.7952 14.6696 72.4317 12.2804 72.5623 9.21894C72.6929 6.21262 70.1481 3.55106 67.0563 3.45453C63.8833 3.35799 61.2962 5.72995 61.2009 8.82591V8.82246Z" fill="#12BA54"/>
<path d="M55.3809 9.07756C55.3562 14.0559 51.262 18.0103 46.1831 17.9655C41.1995 17.9207 37.197 13.9628 37.1688 9.05342C37.1406 4.14057 41.3053 0.0241193 46.2995 0.0310145C51.3043 0.0379097 55.4091 4.12678 55.3809 9.07756ZM46.2078 14.58C49.3525 14.6144 51.9326 12.1666 51.9855 9.0879C52.0384 6.06434 49.4584 3.47863 46.349 3.4476C43.2183 3.41313 40.6312 5.87817 40.5712 8.94655C40.5112 11.9839 43.0736 14.542 46.2078 14.5765V14.58Z" fill="#12BA54"/>
<path d="M34.7758 17.9483C32.8134 17.9483 31.0487 18.0104 29.2875 17.938C24.5827 17.7415 20.9191 14.1559 20.6544 9.55337C20.3862 4.93702 23.5733 0.889517 28.2357 0.272394C30.3499 -0.00686316 32.5381 0.224127 34.7723 0.224127V3.44765C33.1911 3.44765 31.6275 3.42696 30.0605 3.4511C26.5275 3.5097 23.9898 5.89201 24.0251 9.0845C24.0604 12.2253 26.4992 14.4973 29.9899 14.5938C31.564 14.6386 33.1382 14.6007 34.7758 14.6007V17.9449V17.9483Z" fill="#12BA54"/>
</g>
<defs>
<clipPath id="clip0_45_7442">
<rect width="76" height="18" fill="white"/>
</clipPath>
</defs>
</svg>
