<svg width="24" height="24" viewBox="0 0 24 24" fill="none" xmlns="http://www.w3.org/2000/svg">
<path d="M2 5.25C2 4.91848 2.1317 4.60054 2.36612 4.36612C2.60054 4.1317 2.91848 4 3.25 4H20.75C21.0815 4 21.3995 4.1317 21.6339 4.36612C21.8683 4.60054 22 4.91848 22 5.25C22 5.58152 21.8683 5.89946 21.6339 6.13388C21.3995 6.3683 21.0815 6.5 20.75 6.5H3.25C2.91848 6.5 2.60054 6.3683 2.36612 6.13388C2.1317 5.89946 2 5.58152 2 5.25ZM2 11.5C2 11.1685 2.1317 10.8505 2.36612 10.6161C2.60054 10.3817 2.91848 10.25 3.25 10.25H20.75C21.0815 10.25 21.3995 10.3817 21.6339 10.6161C21.8683 10.8505 22 11.1685 22 11.5C22 11.8315 21.8683 12.1495 21.6339 12.3839C21.3995 12.6183 21.0815 12.75 20.75 12.75H3.25C2.91848 12.75 2.60054 12.6183 2.36612 12.3839C2.1317 12.1495 2 11.8315 2 11.5ZM2 17.75C2 17.4185 2.1317 17.1005 2.36612 16.8661C2.60054 16.6317 2.91848 16.5 3.25 16.5H20.75C21.0815 16.5 21.3995 16.6317 21.6339 16.8661C21.8683 17.1005 22 17.4185 22 17.75C22 18.0815 21.8683 18.3995 21.6339 18.6339C21.3995 18.8683 21.0815 19 20.75 19H3.25C2.91848 19 2.60054 18.8683 2.36612 18.6339C2.1317 18.3995 2 18.0815 2 17.75Z" fill="#161D24"/>
</svg>
