<svg width="273" height="94" viewBox="0 0 273 94" fill="none" xmlns="http://www.w3.org/2000/svg">
<mask id="path-1-inside-1_74_115" fill="white">
<path fill-rule="evenodd" clip-rule="evenodd" d="M25.0669 93.9134H0C20.9898 38.9993 74.1729 0 136.465 0C198.757 0 251.94 38.9993 272.93 93.9134H247.863C228.245 52.0643 185.74 23.0805 136.465 23.0805C87.1899 23.0805 44.6845 52.0643 25.0669 93.9134Z"/>
</mask>
<path fill-rule="evenodd" clip-rule="evenodd" d="M25.0669 93.9134H0C20.9898 38.9993 74.1729 0 136.465 0C198.757 0 251.94 38.9993 272.93 93.9134H247.863C228.245 52.0643 185.74 23.0805 136.465 23.0805C87.1899 23.0805 44.6845 52.0643 25.0669 93.9134Z" fill="url(#paint0_linear_74_115)"/>
<path d="M25.0669 93.9134V94.9134H25.7025L25.9723 94.3379L25.0669 93.9134ZM0 93.9134L-0.93409 93.5564L-1.45279 94.9134H0V93.9134ZM272.93 93.9134V94.9134H274.382L273.864 93.5564L272.93 93.9134ZM247.863 93.9134L246.958 94.3379L247.227 94.9134H247.863V93.9134ZM25.0669 92.9134H0V94.9134H25.0669V92.9134ZM136.465 -1C73.7448 -1 20.1988 38.2679 -0.93409 93.5564L0.93409 94.2705C21.7808 39.7307 74.601 1 136.465 1V-1ZM273.864 93.5564C252.731 38.2679 199.185 -1 136.465 -1V1C198.329 1 251.149 39.7307 271.996 94.2705L273.864 93.5564ZM272.93 92.9134H247.863V94.9134H272.93V92.9134ZM136.465 24.0805C185.338 24.0805 227.498 52.8268 246.958 94.3379L248.768 93.489C228.992 51.3018 186.142 22.0805 136.465 22.0805V24.0805ZM25.9723 94.3379C45.4314 52.8268 87.5922 24.0805 136.465 24.0805V22.0805C86.7877 22.0805 43.9375 51.3018 24.1614 93.489L25.9723 94.3379Z" fill="#12BA54" mask="url(#path-1-inside-1_74_115)"/>
<line x1="170.519" y1="26.8626" x2="176.519" y2="5.86264" stroke="#12BA54"/>
<line x1="137.518" y1="21.8407" x2="137.5" y2="0.000408848" stroke="#12BA54"/>
<line x1="199.56" y1="40.0006" x2="209.9" y2="20.7633" stroke="#12BA54"/>
<line x1="222.649" y1="57.9827" x2="238.196" y2="42.644" stroke="#12BA54"/>
<line x1="238.232" y1="76.0042" x2="256.788" y2="64.4848" stroke="#12BA54"/>
<line y1="-0.5" x2="21.8273" y2="-0.5" transform="matrix(-0.230557 -0.973059 -0.973059 0.230557 105.639 26.2393)" stroke="#12BA54"/>
<line y1="-0.5" x2="21.8273" y2="-0.5" transform="matrix(-0.432778 -0.9015 -0.9015 0.432778 76.0829 38.1323)" stroke="#12BA54"/>
<line y1="-0.5" x2="21.8273" y2="-0.5" transform="matrix(-0.67908 -0.734065 -0.734065 0.67908 52.2953 55.1553)" stroke="#12BA54"/>
<line y1="-0.5" x2="21.8273" y2="-0.5" transform="matrix(-0.824643 -0.565654 -0.565654 0.824643 35.9997 72.509)" stroke="#12BA54"/>
<path d="M84.1885 55.0615V68.3037H82.6211V55.0615H84.1885ZM81.4639 55.2959V67.6592H79.9111V61.3604H78.6514C78.4976 63.9385 77.3916 65.5352 75.751 65.5205C74.0225 65.5352 72.8945 63.7041 72.8945 60.7891C72.8945 57.874 74.0225 56.0723 75.751 56.0723C77.355 56.0723 78.4463 57.5664 78.6367 60.042H79.9111V55.2959H81.4639ZM75.751 57.6104C74.916 57.5957 74.3887 58.7236 74.4033 60.7891C74.3887 62.8545 74.916 63.9824 75.751 63.9678C76.6299 63.9824 77.1572 62.8545 77.1572 60.7891C77.1572 58.7236 76.6299 57.5957 75.751 57.6104ZM96.376 55.8379V57.0391C96.376 58.416 96.376 59.9468 95.9365 62.0928H97.7969V63.4111H92.582V68.2744H90.9414V63.4111H85.7266V62.0928H94.3252C94.501 61.3091 94.6182 60.5986 94.6914 59.9541L86.9717 60.335L86.7666 58.9434L94.7939 58.709C94.8159 58.1523 94.8159 57.6323 94.8232 57.1416H87.1768V55.8379H96.376ZM113.266 55.0615V68.3184H111.625V55.0615H113.266ZM106.132 56.0283C108.124 56.0283 109.574 57.8447 109.589 60.7012C109.574 63.5869 108.124 65.3887 106.132 65.3887C104.125 65.3887 102.675 63.5869 102.675 60.7012C102.675 57.8447 104.125 56.0283 106.132 56.0283ZM106.132 57.4932C105.004 57.4932 104.242 58.6797 104.242 60.7012C104.242 62.7373 105.004 63.9238 106.132 63.9238C107.245 63.9238 108.007 62.7373 108.007 60.7012C108.007 58.6797 107.245 57.4932 106.132 57.4932ZM126.303 55.0762V64.8467H124.677V59.9688H122.011V62.6934H115.814V55.9404H117.44V58.0791H120.399V55.9404H122.011V58.6504H124.677V55.0762H126.303ZM126.596 66.7217V68.04H117.572V63.8799H119.228V66.7217H126.596ZM117.44 61.4043H120.399V59.3389H117.44V61.4043ZM138.183 55.7793V57.083H133.861V60.0273C136.271 60.0127 137.714 59.9175 139.354 59.5879L139.53 60.8477C137.758 61.2578 136.132 61.3018 133.319 61.3018H132.25V55.7793H138.183ZM142.182 55.0615V57.6689H144.027V59.002H142.182V61.6826H140.556V55.0615H142.182ZM142.182 62.2539V65.7695H135.15V66.8242H142.592V68.1426H133.539V64.5391H140.556V63.5576H133.524V62.2539H142.182ZM153.285 57.7568C153.285 59.3975 154.413 61.0088 156.522 61.668L155.688 62.9424C154.186 62.4517 153.095 61.4629 152.494 60.2031C151.894 61.5728 150.773 62.6641 149.198 63.2061L148.363 61.917C150.487 61.2139 151.63 59.5 151.645 57.7568V57.376H148.788V56.0723H156.068V57.376H153.285V57.7568ZM159.291 55.0762V64.6855H157.65V55.0762H159.291ZM159.657 66.7217V68.04H150.531V63.8066H152.172V66.7217H159.657ZM171.698 55.0615V60.5254H173.559V61.8877H171.698V68.3037H170.058V55.0615H171.698ZM161.063 64.627C162.067 64.627 163.231 64.627 164.447 64.5977V63.3525C163.004 63.1108 162.06 62.2026 162.074 60.9648C162.06 59.4707 163.378 58.4746 165.282 58.4746C167.157 58.4746 168.49 59.4707 168.505 60.9648C168.49 62.21 167.531 63.1182 166.088 63.3525V64.5391C167.201 64.4805 168.314 64.3926 169.354 64.2461L169.457 65.4326C166.615 65.9453 163.554 65.9746 161.298 65.9746L161.063 64.627ZM169.208 56.585V57.874H161.312V56.585H164.447V55.1201H166.088V56.585H169.208ZM165.282 59.7197C164.271 59.7344 163.612 60.1885 163.612 60.9648C163.612 61.7266 164.271 62.1807 165.282 62.166C166.278 62.1807 166.938 61.7266 166.938 60.9648C166.938 60.1885 166.278 59.7344 165.282 59.7197ZM184.75 55.0615V60.3496H186.581V61.6973H184.75V68.3037H183.109V55.0615H184.75ZM178.158 56.4531C178.144 59.9248 177.66 62.8545 175.272 65.4326L173.998 64.5098C175.866 62.5322 176.474 60.4375 176.605 57.7861H174.525V56.4531H178.158ZM181.82 56.4531C181.806 60.0127 181.439 63.4111 179.052 66.2822L177.748 65.3887C179.638 63.1401 180.165 60.6572 180.282 57.7861H178.598V56.4531H181.82ZM192.147 58.8262C192.147 60.9941 193.422 63.2793 195.561 64.1729L194.667 65.4619C193.1 64.7881 191.957 63.3965 191.356 61.7119C190.741 63.5283 189.584 65.0518 188.031 65.7842L187.094 64.5098C189.188 63.543 190.492 61.082 190.492 58.8262V57.7129H187.577V56.3652H195.048V57.7129H192.147V58.8262ZM198.168 55.0615V68.3037H196.527V55.0615H198.168ZM76.5796 73.8086V83H74.1548V76.043H74.104L72.0728 77.2617V75.1924L74.3452 73.8086H76.5796ZM82.4321 83.127C79.9565 83.127 78.4204 81.4131 78.4204 78.4043C78.4204 75.3828 79.9565 73.6816 82.4321 73.6816C84.9077 73.6816 86.4438 75.3955 86.4438 78.4043C86.4438 81.4258 84.9077 83.127 82.4321 83.127ZM82.4321 81.1846C83.3208 81.1719 83.9429 80.3594 83.9429 78.4043C83.9429 76.5 83.3208 75.624 82.4321 75.624C81.5435 75.624 80.9341 76.5 80.9214 78.4043C80.9214 80.3594 81.5435 81.1719 82.4321 81.1846ZM87.6499 83V73.8086H90.0493V78.4678H90.1382L91.8774 76.1064H94.5815L92.2202 79.1279L94.6577 83H91.9028L90.4429 80.5244L90.0493 81.0068V83H87.6499ZM95.2671 83V76.1064H97.5396V77.4014H97.6157C97.895 76.5508 98.6313 76.0176 99.5835 76.0176C100.548 76.0176 101.31 76.5635 101.462 77.4014H101.539C101.78 76.5635 102.592 76.0176 103.621 76.0176C104.928 76.0176 105.842 76.9316 105.842 78.3535V83H103.443V78.9502C103.443 78.3154 103.087 77.9473 102.567 77.9473C102.021 77.9473 101.704 78.3408 101.704 78.9502V83H99.4058V78.9375C99.4058 78.3281 99.0503 77.9473 98.5298 77.9473C97.9966 77.9473 97.6665 78.3408 97.6665 78.9629V83H95.2671ZM120.455 78.0234V78.8486H115.795V80.0547C117.928 80.1436 119.185 80.8418 119.198 82.0352C119.185 83.292 117.738 84.0029 115.313 84.0029C112.863 84.0029 111.416 83.292 111.416 82.0352C111.416 80.8418 112.666 80.1436 114.818 80.0547V78.8486H110.171V78.0234H120.455ZM115.313 80.8164C113.498 80.8291 112.418 81.2734 112.431 82.0352C112.418 82.7842 113.498 83.2285 115.313 83.2285C117.103 83.2285 118.195 82.7842 118.195 82.0352C118.195 81.2734 117.103 80.8291 115.313 80.8164ZM119.541 73.2754V74.0879H115.96C116.024 75.3574 117.89 76.3413 119.883 76.5508L119.515 77.3379C117.668 77.1157 115.935 76.2905 115.313 75.0273C114.697 76.2905 112.971 77.1157 111.111 77.3379L110.755 76.5508C112.71 76.3413 114.589 75.3574 114.666 74.0879H111.111V73.2754H119.541ZM164.825 72.7549V75.3447H166.539V76.1826H164.825V79.1279H163.834V72.7549H164.825ZM164.825 79.75V83.876H157.677V79.75H164.825ZM158.655 80.5371V83.0635H163.86V80.5371H158.655ZM157.55 73.3262V77.4268C159.156 77.4204 160.813 77.2935 162.641 76.9189L162.768 77.7568C160.851 78.1377 159.15 78.2646 157.449 78.2646H156.547V73.3262H157.55ZM170.411 73.415C172.125 73.415 173.369 74.4941 173.381 76.0684C173.369 77.6426 172.125 78.7217 170.411 78.7217C168.697 78.7217 167.44 77.6426 167.453 76.0684C167.44 74.4941 168.697 73.415 170.411 73.415ZM170.411 74.2656C169.268 74.2529 168.417 75.0146 168.43 76.0684C168.417 77.1348 169.268 77.8711 170.411 77.8838C171.566 77.8711 172.404 77.1348 172.404 76.0684C172.404 75.0146 171.566 74.2529 170.411 74.2656ZM176.06 72.7422V75.4717H177.761V76.2969H176.06V79.1787H175.07V72.7422H176.06ZM170.944 80.3086C170.931 81.3179 171.471 82.3779 172.556 83C173.635 82.3208 174.181 81.1782 174.194 80.3086V79.6738H175.171V80.3086C175.171 81.4766 176.009 82.6445 177.469 83.1396L176.961 83.9014C175.838 83.4888 175.057 82.6953 174.676 81.7432C174.314 82.6636 173.629 83.5522 172.569 83.9902C171.477 83.5649 170.792 82.7334 170.461 81.7812C170.042 82.7017 169.268 83.4888 168.202 83.9014L167.694 83.1396C169.116 82.6191 169.992 81.4004 169.992 80.3086V79.6738H170.944V80.3086ZM181.506 73.6182C183.042 73.6309 184.147 74.9448 184.312 77.0586H186.838V72.7422H187.829V84.0537H186.838V77.8838H184.325C184.204 80.0928 183.081 81.4766 181.506 81.4766C179.843 81.4766 178.675 79.9531 178.675 77.5537C178.675 75.1543 179.843 73.6309 181.506 73.6182ZM181.506 74.5068C180.389 74.5195 179.627 75.7129 179.627 77.5537C179.627 79.3945 180.389 80.5879 181.506 80.5879C182.611 80.5879 183.385 79.3945 183.385 77.5537C183.385 75.7129 182.611 74.5195 181.506 74.5068ZM200.042 81.7432V82.5811H189.708V81.7432H192.272V78.6963C191.307 78.1948 190.723 77.3823 190.723 76.3604C190.723 74.6084 192.437 73.4658 194.849 73.4531C197.261 73.4658 198.975 74.6084 198.975 76.3604C198.975 77.3633 198.41 78.1694 197.477 78.6709V81.7432H200.042ZM194.849 74.2783C192.996 74.2656 191.688 75.1035 191.688 76.3604C191.688 77.6172 192.996 78.4678 194.849 78.4678C196.69 78.4678 198.01 77.6172 198.01 76.3604C198.01 75.1035 196.69 74.2656 194.849 74.2783ZM193.25 81.7432H196.474V79.0518C195.985 79.1851 195.439 79.2549 194.849 79.2549C194.271 79.2549 193.732 79.1914 193.25 79.0645V81.7432Z" fill="#161D24"/>
<path d="M128.643 83.127C126.523 83.127 124.682 81.8701 124.695 78.5186C124.708 75.5352 126.269 73.6816 128.668 73.6816C130.674 73.6816 132.033 74.9639 132.185 76.5254H129.811C129.684 75.9922 129.227 75.7383 128.668 75.7383C127.589 75.7383 127.094 76.7412 127.094 78.2773H127.145C127.513 77.4395 128.453 76.9316 129.506 76.9316C131.169 76.9316 132.299 78.1631 132.299 79.8516C132.299 81.8193 130.801 83.127 128.643 83.127ZM128.63 81.2861C129.392 81.2861 129.951 80.7148 129.951 79.9404C129.951 79.1533 129.405 78.582 128.63 78.582C127.869 78.582 127.31 79.1533 127.31 79.9404C127.31 80.7148 127.869 81.2861 128.63 81.2861ZM133.48 83V73.8086H135.879V78.4678H135.968L137.708 76.1064H140.412L138.05 79.1279L140.488 83H137.733L136.273 80.5244L135.879 81.0068V83H133.48ZM141.097 83V76.1064H143.37V77.4014H143.446C143.725 76.5508 144.461 76.0176 145.414 76.0176C146.378 76.0176 147.14 76.5635 147.292 77.4014H147.369C147.61 76.5635 148.422 76.0176 149.451 76.0176C150.758 76.0176 151.672 76.9316 151.672 78.3535V83H149.273V78.9502C149.273 78.3154 148.917 77.9473 148.397 77.9473C147.851 77.9473 147.534 78.3408 147.534 78.9502V83H145.236V78.9375C145.236 78.3281 144.88 77.9473 144.36 77.9473C143.827 77.9473 143.497 78.3408 143.497 78.9629V83H141.097Z" fill="#12BA54"/>
<defs>
<linearGradient id="paint0_linear_74_115" x1="272.93" y1="46.9567" x2="0" y2="46.9567" gradientUnits="userSpaceOnUse">
<stop stop-color="#D9D9D9"/>
<stop offset="0.335" stop-color="#D9D9D9"/>
<stop offset="1" stop-color="#12BA54" stop-opacity="0.8"/>
</linearGradient>
</defs>
</svg>
