<svg width="24" height="26" viewBox="0 0 24 26" fill="none" xmlns="http://www.w3.org/2000/svg">
<path d="M24 18.4777C23.9999 20.1166 23.4391 21.7063 22.4106 22.9834C21.382 24.2606 19.9474 25.1485 18.3444 25.5L17.5788 23.2064C18.28 23.0913 18.9468 22.8222 19.5312 22.4185C20.1155 22.0148 20.6029 21.4866 20.958 20.872H18C17.3635 20.872 16.753 20.6195 16.3029 20.17C15.8529 19.7205 15.6 19.1109 15.6 18.4753V13.6819C15.6 13.0462 15.8529 12.4366 16.3029 11.9871C16.753 11.5377 17.3635 11.2852 18 11.2852H21.5256C21.2328 8.96862 20.1035 6.83841 18.3497 5.29421C16.5959 3.75002 14.3381 2.89799 12 2.89799C9.66186 2.89799 7.40408 3.75002 5.65029 5.29421C3.8965 6.83841 2.76724 8.96862 2.4744 11.2852H6C6.63652 11.2852 7.24697 11.5377 7.69706 11.9871C8.14714 12.4366 8.4 13.0462 8.4 13.6819V18.4753C8.4 19.1109 8.14714 19.7205 7.69706 20.17C7.24697 20.6195 6.63652 20.872 6 20.872H2.4C1.76348 20.872 1.15303 20.6195 0.702944 20.17C0.252856 19.7205 0 19.1109 0 18.4753V12.4835C0 5.86502 5.3724 0.5 12 0.5C18.6276 0.5 24 5.86502 24 12.4835V18.4777Z" fill="#12BA54"/>
</svg>
