<svg width="25" height="25" viewBox="0 0 25 25" fill="none" xmlns="http://www.w3.org/2000/svg">
<path d="M12.5 24.5C15.6826 24.5 18.7348 23.2357 20.9853 20.9853C23.2357 18.7348 24.5 15.6826 24.5 12.5C24.5 9.3174 23.2357 6.26516 20.9853 4.01472C18.7348 1.76428 15.6826 0.5 12.5 0.5C9.3174 0.5 6.26516 1.76428 4.01472 4.01472C1.76428 6.26516 0.5 9.3174 0.5 12.5C0.5 15.6826 1.76428 18.7348 4.01472 20.9853C6.26516 23.2357 9.3174 24.5 12.5 24.5ZM12.5 7.625C11.465 7.625 10.625 8.465 10.625 9.5V9.6605C10.625 9.95887 10.5065 10.245 10.2955 10.456C10.0845 10.667 9.79837 10.7855 9.5 10.7855C9.20163 10.7855 8.91548 10.667 8.70451 10.456C8.49353 10.245 8.375 9.95887 8.375 9.6605V9.5C8.375 8.40598 8.8096 7.35677 9.58318 6.58318C10.3568 5.8096 11.406 5.375 12.5 5.375H12.674C13.481 5.37537 14.2685 5.62283 14.9306 6.08408C15.5927 6.54534 16.0977 7.19829 16.3777 7.95511C16.6577 8.71194 16.6993 9.53635 16.4968 10.3175C16.2943 11.0986 15.8574 11.799 15.245 12.3245L14.09 13.3145C13.9451 13.4403 13.8287 13.5955 13.7485 13.7699C13.6683 13.9442 13.6262 14.1336 13.625 14.3255V15.125C13.625 15.4234 13.5065 15.7095 13.2955 15.9205C13.0845 16.1315 12.7984 16.25 12.5 16.25C12.2016 16.25 11.9155 16.1315 11.7045 15.9205C11.4935 15.7095 11.375 15.4234 11.375 15.125V14.3255C11.375 13.28 11.831 12.287 12.6245 11.6075L13.781 10.6175C14.0449 10.3913 14.2332 10.0897 14.3205 9.75331C14.4078 9.4169 14.3899 9.06181 14.2694 8.73584C14.1488 8.40987 13.9312 8.12867 13.646 7.93007C13.3608 7.73146 13.0216 7.625 12.674 7.625H12.5ZM14 18.5C14 18.8978 13.842 19.2794 13.5607 19.5607C13.2794 19.842 12.8978 20 12.5 20C12.1022 20 11.7206 19.842 11.4393 19.5607C11.158 19.2794 11 18.8978 11 18.5C11 18.1022 11.158 17.7206 11.4393 17.4393C11.7206 17.158 12.1022 17 12.5 17C12.8978 17 13.2794 17.158 13.5607 17.4393C13.842 17.7206 14 18.1022 14 18.5Z" fill="#12BA54"/>
</svg>
