<svg width="30" height="39" viewBox="0 0 30 39" fill="none" xmlns="http://www.w3.org/2000/svg">
<g clip-path="url(#clip0_21_5115)">
<mask id="path-1-inside-1_21_5115" fill="white">
<path d="M0 15.162C0.274758 9.1304 2.82206 4.6769 7.93982 1.78338C9.89332 0.679311 12.0179 0.118724 14.2593 0.0180795C18.2317 -0.161067 21.7522 1.02754 24.7725 3.60906C27.5493 5.98326 29.2623 9.00158 29.8068 12.6137C30.5072 17.2574 29.3035 21.4009 26.1957 24.9315C23.8446 27.6026 20.8615 29.1898 17.349 29.7635C17.1055 29.8037 16.9938 29.8893 16.9102 30.1107C16.6174 30.8836 16.3054 31.6495 15.9994 32.4184C15.8182 32.8723 15.4841 33.1069 15.0242 33.1079C14.5672 33.1079 14.2371 32.8744 14.0539 32.4144C13.7349 31.6153 13.4159 30.8172 13.1029 30.0161C13.0495 29.8802 12.9871 29.8027 12.8251 29.7796C10.2023 29.3961 7.84219 28.3856 5.76892 26.7391C2.91667 24.4736 1.09903 21.5479 0.363325 17.978C0.160024 16.9917 0.102657 15.9742 0.00201288 15.164L0 15.162Z"/>
</mask>
<path d="M0 15.162C0.274758 9.1304 2.82206 4.6769 7.93982 1.78338C9.89332 0.679311 12.0179 0.118724 14.2593 0.0180795C18.2317 -0.161067 21.7522 1.02754 24.7725 3.60906C27.5493 5.98326 29.2623 9.00158 29.8068 12.6137C30.5072 17.2574 29.3035 21.4009 26.1957 24.9315C23.8446 27.6026 20.8615 29.1898 17.349 29.7635C17.1055 29.8037 16.9938 29.8893 16.9102 30.1107C16.6174 30.8836 16.3054 31.6495 15.9994 32.4184C15.8182 32.8723 15.4841 33.1069 15.0242 33.1079C14.5672 33.1079 14.2371 32.8744 14.0539 32.4144C13.7349 31.6153 13.4159 30.8172 13.1029 30.0161C13.0495 29.8802 12.9871 29.8027 12.8251 29.7796C10.2023 29.3961 7.84219 28.3856 5.76892 26.7391C2.91667 24.4736 1.09903 21.5479 0.363325 17.978C0.160024 16.9917 0.102657 15.9742 0.00201288 15.164L0 15.162Z" fill="#12BA54" stroke="#279B55" stroke-width="1.6" mask="url(#path-1-inside-1_21_5115)"/>
</g>
<circle cx="15" cy="37" r="1.6" fill="#12BA54" stroke="#279B55" stroke-width="0.8"/>
<path d="M6 20.25V18.75H9.075C9.2125 17.9 9.56575 17.1562 10.1348 16.5187C10.7038 15.8812 11.4005 15.4375 12.225 15.1875L11.1375 10.5H9C8.7875 10.5 8.6095 10.428 8.466 10.284C8.3225 10.14 8.2505 9.962 8.25 9.75C8.2495 9.538 8.3215 9.36 8.466 9.216C8.6105 9.072 8.7885 9 9 9H11.1375C11.475 9 11.7845 9.1095 12.066 9.3285C12.3475 9.5475 12.5255 9.8255 12.6 10.1625L14.0625 16.5H13.5C12.675 16.5 11.9688 16.7938 11.3813 17.3813C10.7938 17.9688 10.5 18.675 10.5 19.5V20.25H6ZM13.5 21.75C12.875 21.75 12.3437 21.5312 11.9062 21.0938C11.4688 20.6563 11.25 20.125 11.25 19.5C11.25 18.875 11.4688 18.3437 11.9062 17.9062C12.3437 17.4688 12.875 17.25 13.5 17.25C14.125 17.25 14.6563 17.4688 15.0938 17.9062C15.5312 18.3437 15.75 18.875 15.75 19.5C15.75 20.125 15.5312 20.6563 15.0938 21.0938C14.6563 21.5312 14.125 21.75 13.5 21.75ZM13.5 20.25C13.7125 20.25 13.8908 20.178 14.0348 20.034C14.1788 19.89 14.2505 19.712 14.25 19.5C14.2495 19.288 14.1775 19.11 14.034 18.966C13.8905 18.822 13.7125 18.75 13.5 18.75C13.2875 18.75 13.1095 18.822 12.966 18.966C12.8225 19.11 12.7505 19.288 12.75 19.5C12.7495 19.712 12.8215 19.8902 12.966 20.0347C13.1105 20.1792 13.2885 20.251 13.5 20.25ZM20.25 19.5C19.35 19.5 18.5595 19.222 17.8785 18.666C17.1975 18.11 16.763 17.388 16.575 16.5H14.8125L14.475 15H16.575C16.6375 14.7125 16.722 14.4438 16.8285 14.1938C16.935 13.9438 17.0755 13.7125 17.25 13.5H14.1375L13.8 12H18.0375L17.2125 9.75H16.0125C15.8 9.75 15.622 9.678 15.4785 9.534C15.335 9.39 15.263 9.212 15.2625 9C15.262 8.788 15.334 8.61 15.4785 8.466C15.623 8.322 15.801 8.25 16.0125 8.25H17.2125C17.5375 8.25 17.8283 8.3375 18.0848 8.5125C18.3413 8.6875 18.5255 8.925 18.6375 9.225L19.65 11.9625H20.25C21.2875 11.9625 22.172 12.3283 22.9035 13.0598C23.635 13.7913 24.0005 14.6755 24 15.7125C24 16.775 23.6343 17.672 22.9028 18.4035C22.1713 19.135 21.287 19.5005 20.25 19.5ZM20.25 18C20.8875 18 21.422 17.7812 21.8535 17.3438C22.285 16.9063 22.5005 16.375 22.5 15.75C22.5 15.1125 22.2845 14.5782 21.8535 14.1472C21.4225 13.7162 20.888 13.5005 20.25 13.5H20.175L20.6625 14.7938C20.7375 14.9938 20.7312 15.1845 20.6437 15.366C20.5562 15.5475 20.4125 15.6755 20.2125 15.75C20.0125 15.8245 19.8187 15.8183 19.6312 15.7313C19.4437 15.6443 19.3125 15.5005 19.2375 15.3L18.7875 14.025C18.5375 14.2375 18.3437 14.4875 18.2062 14.775C18.0687 15.0625 18 15.3875 18 15.75C18 16.375 18.2158 16.9063 18.6473 17.3438C19.0788 17.7812 19.613 18 20.25 18Z" fill="white"/>
<rect x="8" y="23" width="3" height="1" fill="#72D5FF"/>
<rect x="20" y="23" width="3" height="1" fill="#72D5FF"/>
<rect x="16" y="23" width="3" height="1" fill="#72D5FF"/>
<rect x="12" y="23" width="3" height="1" fill="#72D5FF"/>
<defs>
<clipPath id="clip0_21_5115">
<rect width="30" height="33.1069" fill="white"/>
</clipPath>
</defs>
</svg>
