<svg width="30" height="39" viewBox="0 0 30 39" fill="none" xmlns="http://www.w3.org/2000/svg">
<g clip-path="url(#clip0_21_5113)">
<mask id="path-1-inside-1_21_5113" fill="white">
<path d="M0 15.162C0.274758 9.1304 2.82206 4.6769 7.93982 1.78338C9.89332 0.679311 12.0179 0.118724 14.2593 0.0180795C18.2317 -0.161067 21.7522 1.02754 24.7725 3.60906C27.5493 5.98326 29.2623 9.00158 29.8068 12.6137C30.5072 17.2574 29.3035 21.4009 26.1957 24.9315C23.8446 27.6026 20.8615 29.1898 17.349 29.7635C17.1055 29.8037 16.9938 29.8893 16.9102 30.1107C16.6174 30.8836 16.3054 31.6495 15.9994 32.4184C15.8182 32.8723 15.4841 33.1069 15.0242 33.1079C14.5672 33.1079 14.2371 32.8744 14.0539 32.4144C13.7349 31.6153 13.4159 30.8172 13.1029 30.0161C13.0495 29.8802 12.9871 29.8027 12.8251 29.7796C10.2023 29.3961 7.84219 28.3856 5.76892 26.7391C2.91667 24.4736 1.09903 21.5479 0.363325 17.978C0.160024 16.9917 0.102657 15.9742 0.00201288 15.164L0 15.162Z"/>
</mask>
<path d="M0 15.162C0.274758 9.1304 2.82206 4.6769 7.93982 1.78338C9.89332 0.679311 12.0179 0.118724 14.2593 0.0180795C18.2317 -0.161067 21.7522 1.02754 24.7725 3.60906C27.5493 5.98326 29.2623 9.00158 29.8068 12.6137C30.5072 17.2574 29.3035 21.4009 26.1957 24.9315C23.8446 27.6026 20.8615 29.1898 17.349 29.7635C17.1055 29.8037 16.9938 29.8893 16.9102 30.1107C16.6174 30.8836 16.3054 31.6495 15.9994 32.4184C15.8182 32.8723 15.4841 33.1069 15.0242 33.1079C14.5672 33.1079 14.2371 32.8744 14.0539 32.4144C13.7349 31.6153 13.4159 30.8172 13.1029 30.0161C13.0495 29.8802 12.9871 29.8027 12.8251 29.7796C10.2023 29.3961 7.84219 28.3856 5.76892 26.7391C2.91667 24.4736 1.09903 21.5479 0.363325 17.978C0.160024 16.9917 0.102657 15.9742 0.00201288 15.164L0 15.162Z" fill="#12BA54" stroke="#279B55" stroke-width="1.6" mask="url(#path-1-inside-1_21_5113)"/>
<rect x="8" y="23" width="3" height="1" fill="#72D5FF"/>
<rect x="20" y="23" width="3" height="1" fill="#72D5FF"/>
<rect x="16" y="23" width="3" height="1" fill="#72D5FF"/>
<rect x="12" y="23" width="3" height="1" fill="#72D5FF"/>
<path d="M19.635 13.5L18.36 9.99C18.2543 9.7007 18.0624 9.45073 17.8104 9.27373C17.5583 9.09673 17.258 9.0012 16.95 9H15.75C15.3375 9 15 9.3375 15 9.75C15 10.1625 15.3375 10.5 15.75 10.5H16.95L18.045 13.5H14.4375L14.1675 12.75H14.235C14.6475 12.75 14.985 12.4125 14.985 12C14.985 11.5875 14.6475 11.25 14.235 11.25H12C11.5875 11.25 11.25 11.5875 11.25 12C11.25 12.4125 11.5875 12.75 12 12.75H12.5625L13.9275 16.5H13.425C13.095 14.8275 11.6925 13.59 9.9375 13.5075C7.8375 13.4025 6 15.15 6 17.25C6 19.35 7.65 21 9.75 21C11.595 21 13.0875 19.7325 13.425 18H16.575C16.905 19.6725 18.3075 20.91 20.0625 20.9925C22.1625 21.09 24 19.35 24 17.2425C24 15.1425 22.35 13.4925 20.25 13.4925H19.635V13.5ZM11.865 18C11.55 18.9225 10.665 19.56 9.6 19.4925C8.4825 19.425 7.5525 18.48 7.5 17.355C7.4475 16.0425 8.4525 15 9.75 15C10.7475 15 11.565 15.6225 11.865 16.5H10.5C10.0875 16.5 9.75 16.8375 9.75 17.25C9.75 17.6625 10.0875 18 10.5 18H11.865ZM16.575 16.5H15.525L14.9775 15H17.25C16.92 15.435 16.68 15.9375 16.575 16.5ZM20.16 19.5C19.005 19.455 18.03 18.4725 18 17.31C17.985 16.59 18.2925 15.96 18.7875 15.54L19.2525 16.815C19.395 17.205 19.8225 17.4075 20.2125 17.265C20.6025 17.1225 20.805 16.695 20.6625 16.305L20.19 15.0075L20.1975 15C21.4875 14.97 22.5075 15.9675 22.5075 17.25C22.5089 17.5542 22.4483 17.8554 22.3296 18.1355C22.2108 18.4155 22.0363 18.6684 21.8167 18.8789C21.5971 19.0894 21.337 19.253 21.0522 19.3598C20.7674 19.4665 20.4638 19.5142 20.16 19.5Z" fill="white"/>
</g>
<circle cx="15" cy="37" r="1.6" fill="#12BA54" stroke="#279B55" stroke-width="0.8"/>
<defs>
<clipPath id="clip0_21_5113">
<rect width="30" height="33.1069" fill="white"/>
</clipPath>
</defs>
</svg>
