<svg width="45" height="45" viewBox="0 0 45 45" fill="none" xmlns="http://www.w3.org/2000/svg">
<circle cx="22.5" cy="22.5" r="22" fill="white" stroke="#878D91"/>
<path d="M21.9093 12.9761C21.8768 12.982 21.8448 12.9899 21.8133 12.9999C21.64 13.0388 21.4855 13.1366 21.3761 13.2767C21.2668 13.4167 21.2094 13.5904 21.2137 13.7681V14.5847C17.1727 14.9511 13.9502 18.1752 13.5832 22.2181H12.7678C12.7437 22.217 12.7196 22.217 12.6956 22.2181C12.4919 22.2277 12.3005 22.3178 12.1632 22.4686C12.026 22.6195 11.9543 22.8187 11.9639 23.0224C11.9734 23.2261 12.0635 23.4177 12.2143 23.555C12.365 23.6923 12.5641 23.764 12.7678 23.7545H13.5839C13.9502 27.7974 17.1727 31.0215 21.2137 31.3887V32.2045C21.2137 32.4082 21.2946 32.6036 21.4386 32.7477C21.5825 32.8917 21.7778 32.9727 21.9815 32.9727C22.1851 32.9727 22.3804 32.8917 22.5244 32.7477C22.6684 32.6036 22.7493 32.4082 22.7493 32.2045V31.3879C26.7903 31.0215 30.0128 27.7974 30.3798 23.7545H31.1952C31.3988 23.7545 31.5941 23.6735 31.7381 23.5295C31.8821 23.3854 31.963 23.19 31.963 22.9863C31.963 22.7826 31.8821 22.5872 31.7381 22.4431C31.5941 22.299 31.3988 22.2181 31.1952 22.2181H30.379C30.0128 18.1752 26.791 14.9511 22.7493 14.5839V13.7681C22.7532 13.6589 22.7337 13.5501 22.6922 13.4489C22.6507 13.3478 22.5881 13.2568 22.5086 13.1818C22.4291 13.1068 22.3345 13.0497 22.2311 13.0142C22.1278 12.9788 22.0181 12.9658 21.9093 12.9761ZM21.2137 16.8885V17.609C21.2137 17.8127 21.2946 18.0081 21.4386 18.1522C21.5825 18.2963 21.7778 18.3772 21.9815 18.3772C22.1851 18.3772 22.3804 18.2963 22.5244 18.1522C22.6684 18.0081 22.7493 17.8127 22.7493 17.609V16.8885C24.1034 17.0571 25.3625 17.6729 26.3274 18.6383C27.2923 19.6036 27.9077 20.8634 28.0764 22.2181H27.3562C27.3321 22.217 27.308 22.217 27.284 22.2181C27.0803 22.2277 26.8888 22.3178 26.7516 22.4686C26.6144 22.6195 26.5427 22.8187 26.5523 23.0224C26.5618 23.2261 26.6519 23.4177 26.8027 23.555C26.9534 23.6923 27.1525 23.764 27.3562 23.7545H28.0764C27.9077 25.1092 27.2923 26.369 26.3274 27.3343C25.3625 28.2997 24.1034 28.9154 22.7493 29.0841V28.3636C22.7521 28.2468 22.7283 28.131 22.6797 28.0248C22.6311 27.9187 22.5589 27.825 22.4687 27.751C22.3784 27.6769 22.2725 27.6244 22.159 27.5974C22.0454 27.5705 21.9272 27.5698 21.8133 27.5954C21.64 27.6343 21.4855 27.7321 21.3761 27.8721C21.2668 28.0122 21.2094 28.1859 21.2137 28.3636V29.0841C19.8596 28.9154 18.6004 28.2997 17.6356 27.3343C16.6707 26.369 16.0552 25.1092 15.8866 23.7545H16.6068C16.8104 23.7545 17.0057 23.6735 17.1497 23.5295C17.2937 23.3854 17.3746 23.19 17.3746 22.9863C17.3746 22.7826 17.2937 22.5872 17.1497 22.4431C17.0057 22.299 16.8104 22.2181 16.6068 22.2181H15.8866C16.0552 20.8634 16.6707 19.6036 17.6356 18.6383C18.6004 17.6729 19.8596 17.0571 21.2137 16.8885Z" fill="#161D24"/>
<circle cx="22" cy="23" r="2" fill="#161D24"/>
</svg>
