<svg width="36" height="32" viewBox="0 0 390 370" fill="none" xmlns="http://www.w3.org/2000/svg">
<path fill-rule="evenodd" clip-rule="evenodd" d="M297.091 199.996C307.206 180.338 313 157.477 313 133.084C313 59.5839 260.393 0 195.5 0C130.607 0 78 59.5839 78 133.084C78 157.477 83.7943 180.338 93.9089 199.996H93.742L95.1071 202.272C97.1154 206.003 99.2811 209.612 101.594 213.089L195.5 369.678L289.406 213.089C291.719 209.612 293.885 206.003 295.893 202.273L297.258 199.996H297.091Z" fill="#12BA54"/>
<rect width="390" height="253" rx="38" fill="#12BA54"/>
<path d="M116.545 173V158.818L149.682 128.136C152.5 125.409 154.864 122.955 156.773 120.773C158.712 118.591 160.182 116.455 161.182 114.364C162.182 112.242 162.682 109.955 162.682 107.5C162.682 104.773 162.061 102.424 160.818 100.455C159.576 98.4545 157.879 96.9242 155.727 95.8636C153.576 94.7727 151.136 94.2273 148.409 94.2273C145.561 94.2273 143.076 94.803 140.955 95.9545C138.833 97.1061 137.197 98.7576 136.045 100.909C134.894 103.061 134.318 105.621 134.318 108.591H115.636C115.636 102.5 117.015 97.2121 119.773 92.7273C122.53 88.2424 126.394 84.7727 131.364 82.3182C136.333 79.8636 142.061 78.6364 148.545 78.6364C155.212 78.6364 161.015 79.8182 165.955 82.1818C170.924 84.5151 174.788 87.7576 177.545 91.9091C180.303 96.0606 181.682 100.818 181.682 106.182C181.682 109.697 180.985 113.167 179.591 116.591C178.227 120.015 175.788 123.818 172.273 128C168.758 132.152 163.803 137.136 157.409 142.955L143.818 156.273V156.909H182.909V173H116.545ZM216.17 79.9091L234.943 111.636H235.67L254.534 79.9091H276.761L248.352 126.455L277.398 173H254.761L235.67 141.227H234.943L215.852 173H193.307L222.443 126.455L193.852 79.9091H216.17Z" fill="white"/>
</svg>
