<svg width="30" height="39" viewBox="0 0 30 39" fill="none" xmlns="http://www.w3.org/2000/svg">
<g clip-path="url(#clip0_21_5114)">
<mask id="path-1-inside-1_21_5114" fill="white">
<path d="M0 15.162C0.274758 9.1304 2.82206 4.6769 7.93982 1.78338C9.89332 0.679311 12.0179 0.118724 14.2593 0.0180795C18.2317 -0.161067 21.7522 1.02754 24.7725 3.60906C27.5493 5.98326 29.2623 9.00158 29.8068 12.6137C30.5072 17.2574 29.3035 21.4009 26.1957 24.9315C23.8446 27.6026 20.8615 29.1898 17.349 29.7635C17.1055 29.8037 16.9938 29.8893 16.9102 30.1107C16.6174 30.8836 16.3054 31.6495 15.9994 32.4184C15.8182 32.8723 15.4841 33.1069 15.0242 33.1079C14.5672 33.1079 14.2371 32.8744 14.0539 32.4144C13.7349 31.6153 13.4159 30.8172 13.1029 30.0161C13.0495 29.8802 12.9871 29.8027 12.8251 29.7796C10.2023 29.3961 7.84219 28.3856 5.76892 26.7391C2.91667 24.4736 1.09903 21.5479 0.363325 17.978C0.160024 16.9917 0.102657 15.9742 0.00201288 15.164L0 15.162Z"/>
</mask>
<path d="M0 15.162C0.274758 9.1304 2.82206 4.6769 7.93982 1.78338C9.89332 0.679311 12.0179 0.118724 14.2593 0.0180795C18.2317 -0.161067 21.7522 1.02754 24.7725 3.60906C27.5493 5.98326 29.2623 9.00158 29.8068 12.6137C30.5072 17.2574 29.3035 21.4009 26.1957 24.9315C23.8446 27.6026 20.8615 29.1898 17.349 29.7635C17.1055 29.8037 16.9938 29.8893 16.9102 30.1107C16.6174 30.8836 16.3054 31.6495 15.9994 32.4184C15.8182 32.8723 15.4841 33.1069 15.0242 33.1079C14.5672 33.1079 14.2371 32.8744 14.0539 32.4144C13.7349 31.6153 13.4159 30.8172 13.1029 30.0161C13.0495 29.8802 12.9871 29.8027 12.8251 29.7796C10.2023 29.3961 7.84219 28.3856 5.76892 26.7391C2.91667 24.4736 1.09903 21.5479 0.363325 17.978C0.160024 16.9917 0.102657 15.9742 0.00201288 15.164L0 15.162Z" fill="#12BA54" stroke="#279B55" stroke-width="1.6" mask="url(#path-1-inside-1_21_5114)"/>
</g>
<circle cx="15" cy="37" r="1.6" fill="#12BA54" stroke="#279B55" stroke-width="0.8"/>
<path d="M20.25 19.5C20.4625 19.5 20.6408 19.428 20.7848 19.284C20.9288 19.14 21.0005 18.962 21 18.75C20.9995 18.538 20.9275 18.36 20.784 18.216C20.6405 18.072 20.4625 18 20.25 18C20.0375 18 19.8595 18.072 19.716 18.216C19.5725 18.36 19.5005 18.538 19.5 18.75C19.4995 18.962 19.5715 19.1402 19.716 19.2847C19.8605 19.4292 20.0385 19.501 20.25 19.5ZM20.25 21C19.625 21 19.0938 20.7812 18.6563 20.3438C18.2188 19.9063 18 19.375 18 18.75C18 18.125 18.2188 17.5937 18.6563 17.1562C19.0938 16.7188 19.625 16.5 20.25 16.5C20.875 16.5 21.4063 16.7188 21.8438 17.1562C22.2813 17.5937 22.5 18.125 22.5 18.75C22.5 19.375 22.2813 19.9063 21.8438 20.3438C21.4063 20.7812 20.875 21 20.25 21ZM9.75 19.5C9.9625 19.5 10.1408 19.428 10.2848 19.284C10.4288 19.14 10.5005 18.962 10.5 18.75C10.4995 18.538 10.4275 18.36 10.284 18.216C10.1405 18.072 9.9625 18 9.75 18C9.5375 18 9.3595 18.072 9.216 18.216C9.0725 18.36 9.0005 18.538 9 18.75C8.9995 18.962 9.0715 19.1402 9.216 19.2847C9.3605 19.4292 9.5385 19.501 9.75 19.5ZM9.75 21C9.125 21 8.59375 20.7812 8.15625 20.3438C7.71875 19.9063 7.5 19.375 7.5 18.75C7.5 18.125 7.71875 17.5937 8.15625 17.1562C8.59375 16.7188 9.125 16.5 9.75 16.5C10.2375 16.5 10.675 16.6407 11.0625 16.9222C11.45 17.2037 11.7188 17.563 11.8688 18H15.825C15.9625 17.15 16.3158 16.4062 16.8848 15.7687C17.4538 15.1312 18.1505 14.6875 18.975 14.4375L17.925 9.75H15.75C15.5375 9.75 15.3595 9.678 15.216 9.534C15.0725 9.39 15.0005 9.212 15 9C14.9995 8.788 15.0715 8.61 15.216 8.466C15.3605 8.322 15.5385 8.25 15.75 8.25H17.925C18.275 8.25 18.5875 8.35625 18.8625 8.56875C19.1375 8.78125 19.3125 9.0625 19.3875 9.4125L20.625 14.9062C20.675 15.1187 20.6313 15.3095 20.4938 15.4785C20.3563 15.6475 20.175 15.7442 19.95 15.7687C19.1625 15.8312 18.522 16.1532 18.0285 16.7347C17.535 17.3162 17.2755 18.0005 17.25 18.7875C17.25 18.9875 17.1813 19.1563 17.0438 19.2938C16.9063 19.4313 16.7375 19.5 16.5375 19.5H11.8688C11.7188 19.9375 11.45 20.297 11.0625 20.5785C10.675 20.86 10.2375 21.0005 9.75 21Z" fill="white"/>
<rect x="8" y="23" width="3" height="1" fill="#72D5FF"/>
<rect x="20" y="23" width="3" height="1" fill="#72D5FF"/>
<rect x="16" y="23" width="3" height="1" fill="#72D5FF"/>
<rect x="12" y="23" width="3" height="1" fill="#72D5FF"/>
<defs>
<clipPath id="clip0_21_5114">
<rect width="30" height="33.1069" fill="white"/>
</clipPath>
</defs>
</svg>
