<svg width="45" height="45" viewBox="0 0 45 45" fill="none" xmlns="http://www.w3.org/2000/svg">
<circle cx="22.5" cy="22.5" r="22" fill="white" stroke="#878D91"/>
<path d="M19.5 27C17.6833 27 16.146 26.3707 14.888 25.112C13.63 23.8533 13.0007 22.316 13 20.5C12.9993 18.684 13.6287 17.1467 14.888 15.888C16.1473 14.6293 17.6847 14 19.5 14C21.3153 14 22.853 14.6293 24.113 15.888C25.373 17.1467 26.002 18.684 26 20.5C26 21.2333 25.8833 21.925 25.65 22.575C25.4167 23.225 25.1 23.8 24.7 24.3L30.3 29.9C30.4833 30.0833 30.575 30.3167 30.575 30.6C30.575 30.8833 30.4833 31.1167 30.3 31.3C30.1167 31.4833 29.8833 31.575 29.6 31.575C29.3167 31.575 29.0833 31.4833 28.9 31.3L23.3 25.7C22.8 26.1 22.225 26.4167 21.575 26.65C20.925 26.8833 20.2333 27 19.5 27ZM19.5 25C20.75 25 21.8127 24.5627 22.688 23.688C23.5633 22.8133 24.0007 21.7507 24 20.5C23.9993 19.2493 23.562 18.187 22.688 17.313C21.814 16.439 20.7513 16.0013 19.5 16C18.2487 15.9987 17.1863 16.4363 16.313 17.313C15.4397 18.1897 15.002 19.252 15 20.5C14.998 21.748 15.4357 22.8107 16.313 23.688C17.1903 24.5653 18.2527 25.0027 19.5 25Z" fill="black"/>
</svg>
