<svg width="393" height="852" viewBox="0 0 393 852" fill="none" xmlns="http://www.w3.org/2000/svg">
<g clip-path="url(#clip0_45_7747)">
<rect width="393" height="852" fill="#E4EBF5"/>
<path d="M105.191 178.381V180.403C105.191 182.723 105.191 185.023 104.579 188.512L102.186 188.308C102.816 185.061 102.816 182.648 102.835 180.403V180.273H93.2793V178.381H105.191ZM107.084 189.551V191.499H91.6836V189.551H107.084ZM122.225 176.841V189.272H119.868V176.841H122.225ZM122.67 191.518V193.41H110.869V188.233H113.226V191.518H122.67ZM116.807 177.936V183.316H111.314V185.19C114.33 185.181 116.259 185.098 118.439 184.671L118.699 186.563C116.25 187.027 114.061 187.12 110.479 187.12H108.995V181.572H114.45V179.828H108.977V177.936H116.807ZM138.534 177.527V179.42H133.877C134.165 180.839 135.909 182.259 139.239 182.611L138.367 184.485C135.204 184.114 133.088 182.797 132.207 181.034C131.316 182.788 129.22 184.114 126.065 184.485L125.212 182.611C128.542 182.259 130.268 180.821 130.556 179.42H125.936V177.527H138.534ZM138.182 191.518V193.41H126.381V188.549H128.756V191.518H138.182ZM139.926 185.617V187.528H124.525V185.617H131.038V183.279H133.376V185.617H139.926ZM155.586 176.822V193.707H153.322V176.822H155.586ZM152.061 177.063V192.928H149.834V184.949H148.479C148.257 188.271 146.847 190.274 144.769 190.274C142.542 190.274 141.095 187.937 141.095 184.133C141.095 180.348 142.542 178.028 144.769 178.028C146.8 178.028 148.192 179.921 148.461 183.075H149.834V177.063H152.061ZM144.769 180.255C143.822 180.255 143.266 181.554 143.284 184.133C143.266 186.73 143.822 188.011 144.769 187.992C145.733 188.011 146.309 186.73 146.309 184.133C146.309 181.554 145.733 180.255 144.769 180.255ZM177.146 186.137V188.029H170.578V193.707H168.24V188.029H161.746V186.137H177.146ZM175.773 177.713V179.568H170.856C171.088 181.22 172.953 182.88 176.423 183.298L175.569 185.153C172.601 184.754 170.476 183.483 169.465 181.739C168.426 183.483 166.32 184.754 163.379 185.153L162.507 183.298C165.921 182.88 167.804 181.22 168.073 179.568H163.138V177.713H175.773ZM184.271 182.11C184.271 184.504 185.515 187.231 188.205 188.493L186.888 190.274C185.088 189.467 183.835 187.872 183.121 185.988C182.397 188.02 181.062 189.736 179.15 190.571L177.852 188.734C180.598 187.528 181.915 184.652 181.934 182.11V181.461H178.445V179.568H181.915V177.193H184.29V179.568H187.723V181.461H184.271V182.11ZM191.489 176.822V183.372H193.976V185.357H191.489V193.707H189.114V176.822H191.489ZM210.025 184.393V186.155H194.569V184.393H210.025ZM208.17 186.99V190.979H198.707V191.944H208.671V193.559H196.351V189.477H205.832V188.623H196.332V186.99H208.17ZM208.151 177.119V181.09H198.855V181.999H208.448V183.595H196.499V179.587H205.776V178.733H196.462V177.119H208.151ZM221.771 179.123C221.752 181.387 222.921 183.465 225.63 184.3L224.387 186.155C222.568 185.524 221.334 184.355 220.639 182.834C219.878 184.597 218.514 185.988 216.482 186.675L215.239 184.782C218.134 183.854 219.358 181.591 219.377 179.234V177.694H221.771V179.123ZM229.619 176.822V186.712H227.263V181.851H224.09V179.921H227.263V176.822H229.619ZM223.849 187.157C227.448 187.157 229.656 188.363 229.675 190.441C229.656 192.52 227.448 193.707 223.849 193.707C220.249 193.707 218.041 192.52 218.041 190.441C218.041 188.363 220.249 187.157 223.849 187.157ZM223.849 188.994C221.604 188.994 220.397 189.477 220.397 190.441C220.397 191.369 221.604 191.87 223.849 191.87C226.094 191.87 227.318 191.369 227.318 190.441C227.318 189.477 226.094 188.994 223.849 188.994ZM239.416 187.343C243.108 187.343 245.428 188.512 245.446 190.534C245.428 192.52 243.108 193.707 239.416 193.707C235.761 193.707 233.404 192.52 233.404 190.534C233.404 188.512 235.761 187.343 239.416 187.343ZM239.416 189.105C237.097 189.105 235.761 189.588 235.761 190.534C235.761 191.443 237.097 191.907 239.416 191.907C241.735 191.907 243.09 191.443 243.09 190.534C243.09 189.588 241.735 189.105 239.416 189.105ZM245.354 177.583V178.956C245.354 180.292 245.354 181.739 244.871 183.483L242.552 183.261C242.923 181.73 242.969 180.589 242.997 179.438H233.571V177.583H245.354ZM247.172 184.355V186.267H231.846V184.355H237.598V181.405H239.936V184.355H247.172ZM262.739 176.841V187.231H260.494V183.075H259.177V187.046H256.969V177.063H259.177V181.164H260.494V176.841H262.739ZM256.431 178.437V180.311H248.137V178.437H251.124V176.915H253.48V178.437H256.431ZM252.312 180.849C254.464 180.849 255.985 182.036 256.004 183.799C255.985 185.524 254.464 186.749 252.312 186.749C250.196 186.749 248.656 185.524 248.656 183.799C248.656 182.036 250.196 180.849 252.312 180.849ZM252.312 182.537C251.384 182.537 250.771 182.964 250.771 183.799C250.771 184.597 251.384 185.042 252.312 185.042C253.239 185.042 253.852 184.597 253.87 183.799C253.852 182.964 253.239 182.537 252.312 182.537ZM254.705 188.104C254.687 189.337 255.234 190.608 256.579 191.443C257.915 190.562 258.509 189.226 258.527 188.104V187.751H260.884V188.104C260.865 189.681 261.812 191.165 264.057 191.74L262.962 193.503C261.329 193.011 260.253 192.028 259.678 190.775C259.121 192.019 258.147 193.113 256.616 193.67C255.039 193.123 254.046 192.093 253.518 190.85C252.896 192.037 251.838 193.002 250.289 193.503L249.176 191.74C251.365 191.109 252.349 189.588 252.349 188.104V187.751H254.705V188.104ZM269.308 178.01C271.59 178.01 273.288 179.893 273.631 182.927H276.562V176.822H278.9V193.744H276.562V184.819H273.649C273.399 188.066 271.664 190.052 269.308 190.052C266.747 190.052 264.91 187.732 264.929 184.021C264.91 180.348 266.747 178.01 269.308 178.01ZM269.308 180.144C268.046 180.144 267.174 181.517 267.192 184.021C267.174 186.545 268.046 187.899 269.308 187.899C270.588 187.899 271.423 186.545 271.423 184.021C271.423 181.517 270.588 180.144 269.308 180.144ZM296.527 189.792V191.74H281.071V189.792H284.522V185.654C283.214 184.875 282.426 183.678 282.426 182.185C282.426 179.457 285.098 177.639 288.771 177.639C292.427 177.639 295.117 179.457 295.136 182.185C295.126 183.641 294.356 184.829 293.095 185.617V189.792H296.527ZM288.771 179.513C286.359 179.513 284.764 180.478 284.764 182.185C284.764 183.836 286.359 184.856 288.771 184.856C291.165 184.856 292.779 183.836 292.798 182.185C292.779 180.478 291.165 179.513 288.771 179.513ZM286.86 189.792H290.701V186.508C290.098 186.628 289.449 186.693 288.771 186.693C288.094 186.693 287.454 186.638 286.86 186.508V189.792ZM301.333 178.566L301.092 187.974H298.717L298.476 178.566H301.333ZM299.923 192.167C299.051 192.167 298.346 191.462 298.364 190.608C298.346 189.755 299.051 189.068 299.923 189.068C300.739 189.068 301.463 189.755 301.463 190.608C301.463 191.462 300.739 192.167 299.923 192.167ZM82.1465 202.476C82.1465 204.517 83.334 206.483 86.0059 207.318L84.7441 209.155C82.9536 208.562 81.7012 207.411 80.9775 205.927C80.2446 207.634 78.9365 208.97 77.0068 209.619L75.7266 207.764C78.5469 206.817 79.7529 204.572 79.7715 202.253V200.713H82.1465V202.476ZM89.3828 199.822V203.774H91.665V205.741H89.3828V209.842H87.0078V199.822H89.3828ZM83.8535 210.176C87.3418 210.176 89.5498 211.382 89.5498 213.441C89.5498 215.52 87.3418 216.707 83.8535 216.707C80.291 216.707 78.0645 215.52 78.0645 213.441C78.0645 211.382 80.291 210.176 83.8535 210.176ZM83.8535 212.031C81.627 212.031 80.4209 212.514 80.4395 213.441C80.4209 214.406 81.627 214.852 83.8535 214.852C86.043 214.852 87.2119 214.406 87.2119 213.441C87.2119 212.514 86.043 212.031 83.8535 212.031ZM98.6416 204.424C98.623 207.003 99.9961 209.972 102.779 211.252L101.462 213.107C99.5786 212.245 98.2334 210.519 97.4912 208.487C96.7305 210.723 95.3481 212.616 93.3906 213.534L92.0176 211.66C94.8379 210.343 96.248 207.207 96.2666 204.424V203.385H92.6855V201.455H102.037V203.385H98.6416V204.424ZM105.729 199.822V206.261H108.216V208.246H105.729V216.707H103.354V199.822H105.729ZM124.266 207.393V209.155H108.81V207.393H124.266ZM122.41 209.99V213.979H112.947V214.944H122.911V216.559H110.591V212.477H120.072V211.623H110.572V209.99H122.41ZM122.392 200.119V204.09H113.096V204.999H122.688V206.595H110.739V202.587H120.017V201.733H110.702V200.119H122.392ZM143.878 199.822V216.744H141.54V207.689H138.571V205.778H141.54V199.822H143.878ZM138.293 201.232V203.144H132.764V205.945H137.681V207.801H132.764V210.992C135.102 210.974 136.976 210.89 139.072 210.565L139.313 212.458C136.846 212.829 134.638 212.922 131.743 212.922H130.407V201.232H138.293ZM160.169 199.822V216.707H157.794V199.822H160.169ZM152.654 205.11C152.654 207.56 154.046 210.324 156.848 211.475L155.567 213.293C153.647 212.504 152.274 210.89 151.504 208.951C150.752 211.011 149.37 212.736 147.403 213.553L146.142 211.734C148.925 210.528 150.298 207.689 150.298 205.11V204.461H146.698V202.568H150.279V200.193H152.636V202.568H156.161V204.461H152.654V205.11ZM170.615 202.401V204.275H162.451V202.401H165.383V200.286H167.721V202.401H170.615ZM166.57 205.036C168.723 205.036 170.263 206.706 170.281 209.044C170.263 211.4 168.723 213.07 166.57 213.07C164.418 213.07 162.841 211.4 162.841 209.044C162.841 206.706 164.418 205.036 166.57 205.036ZM166.57 207.003C165.587 207.003 164.919 207.764 164.919 209.044C164.919 210.324 165.587 211.066 166.57 211.066C167.517 211.066 168.185 210.324 168.203 209.044C168.185 207.764 167.517 207.003 166.57 207.003ZM177.072 199.822V216.707H174.827V208.58H173.454V215.983H171.246V200.156H173.454V206.688H174.827V199.822H177.072ZM189.597 202.717C189.597 204.906 190.766 207.077 193.456 207.968L192.176 209.823C190.385 209.165 189.151 207.921 188.446 206.354C187.713 208.116 186.396 209.508 184.438 210.213L183.158 208.357C185.979 207.43 187.203 205.11 187.203 202.698V200.861H189.597V202.717ZM197.501 199.841V212.31H195.145V205.333H191.972V203.422H195.145V199.841H197.501ZM197.854 214.518V216.41H186.257V210.992H188.65V214.518H197.854ZM215.091 206.521V208.395H208.56V209.471H213.217V213.794H203.81V214.814H213.662V216.596H201.49V212.124H210.879V211.252H201.472V209.471H206.185V208.395H199.69V206.521H215.091ZM213.143 200.305V205.63H201.602V200.305H213.143ZM203.921 202.142V203.812H210.786V202.142H203.921ZM223.812 200.063C227.689 200.063 229.935 201.084 229.953 202.939C229.935 204.813 227.689 205.834 223.812 205.834C219.915 205.834 217.651 204.813 217.651 202.939C217.651 201.084 219.915 200.063 223.812 200.063ZM223.812 201.789C221.325 201.789 220.119 202.197 220.138 202.939C220.119 203.774 221.325 204.09 223.812 204.09C226.316 204.09 227.504 203.774 227.504 202.939C227.504 202.197 226.316 201.789 223.812 201.789ZM231.512 206.632V208.506H216.111V206.632H231.512ZM229.638 209.489V213.794H220.23V214.814H230.083V216.596H217.911V212.143H227.3V211.215H217.893V209.489H229.638ZM245.873 201.14C245.873 203.125 247.896 205.333 251.773 205.815L250.846 207.727C247.896 207.3 245.734 205.936 244.63 204.108C243.517 205.936 241.374 207.3 238.451 207.727L237.505 205.815C241.346 205.333 243.387 203.125 243.387 201.14V200.323H245.873V201.14ZM252.312 209.007V210.937H245.743V216.707H243.405V210.937H236.911V209.007H252.312ZM261.44 200.694V205.945H256.338V207.634C258.852 207.615 260.336 207.541 262.053 207.244L262.275 209.137C260.309 209.489 258.527 209.563 255.262 209.563H254V204.164H259.084V202.605H253.963V200.694H261.44ZM267.563 199.841V210.102H265.188V207.467H262.424V205.574H265.188V203.997H262.424V202.086H265.188V199.841H267.563ZM261.83 210.38C265.43 210.38 267.638 211.567 267.656 213.59C267.638 215.612 265.43 216.763 261.83 216.763C258.193 216.763 255.985 215.612 255.985 213.59C255.985 211.567 258.193 210.38 261.83 210.38ZM261.83 212.18C259.548 212.18 258.379 212.625 258.397 213.59C258.379 214.518 259.548 214.963 261.83 214.963C264.075 214.963 265.3 214.518 265.3 213.59C265.3 212.625 264.075 212.18 261.83 212.18ZM283.075 199.822V206.428H285.562V208.376H283.075V216.707H280.737V199.822H283.075ZM279.587 202.346V204.238H269.66V202.346H273.482V200.082H275.857V202.346H279.587ZM274.67 205.185C277.138 205.185 278.975 206.854 278.975 209.211C278.975 211.567 277.138 213.237 274.67 213.237C272.184 213.237 270.347 211.567 270.347 209.211C270.347 206.854 272.184 205.185 274.67 205.185ZM274.67 207.096C273.482 207.114 272.61 207.912 272.61 209.211C272.61 210.528 273.482 211.308 274.67 211.289C275.857 211.308 276.711 210.528 276.711 209.211C276.711 207.912 275.857 207.114 274.67 207.096ZM291.592 204.071C291.592 206.799 292.353 209.619 294.653 211.104L293.373 212.94C291.917 212.059 290.989 210.612 290.46 208.877C289.848 210.788 288.836 212.384 287.306 213.312L285.858 211.567C288.363 210.009 289.291 207.04 289.291 204.183V201.27H291.592V204.071ZM300.813 199.822V216.707H298.55V199.822H300.813ZM297.27 200.063V215.928H295.062V207.448H292.872V205.519H295.062V200.063H297.27ZM318.051 212.792V214.74H302.595V212.792H306.046V208.654C304.738 207.875 303.949 206.678 303.949 205.185C303.949 202.457 306.621 200.639 310.295 200.639C313.95 200.639 316.641 202.457 316.659 205.185C316.65 206.641 315.88 207.829 314.618 208.617V212.792H318.051ZM310.295 202.513C307.883 202.513 306.287 203.478 306.287 205.185C306.287 206.836 307.883 207.856 310.295 207.856C312.688 207.856 314.303 206.836 314.321 205.185C314.303 203.478 312.688 202.513 310.295 202.513ZM308.384 212.792H312.225V209.508C311.622 209.628 310.972 209.693 310.295 209.693C309.618 209.693 308.978 209.638 308.384 209.508V212.792Z" fill="#12BA54"/>
<ellipse cx="197" cy="836" rx="251" ry="86" fill="#12BA54"/>
<path d="M188.543 525.328C197.504 525.938 205.736 528.775 213.318 533.541C224.32 540.454 232.56 550.007 239.328 560.944C248.434 575.656 254.172 591.688 257.548 608.583C258.719 614.453 259.36 620.427 260.242 626.353C260.094 626.373 259.946 626.409 259.797 626.409C239.324 626.405 218.847 626.397 198.374 626.389C197.235 625.799 196.105 625.193 194.954 624.624C186.417 620.395 177.408 618.874 167.977 620.078C164.669 620.499 161.458 621.414 158.527 623.115C156.594 624.239 154.633 625.306 152.681 626.397C140.15 626.405 127.624 626.413 115.094 626.417C113.499 626.417 111.903 626.373 110.307 626.353C110.704 622.947 111.057 619.532 111.506 616.134C111.863 613.426 112.34 610.734 112.765 608.034C113.96 603.444 115.018 598.81 116.373 594.268C121.109 578.408 127.929 563.564 138.338 550.556C145.992 540.988 155.082 533.224 166.642 528.703C173.154 526.155 179.914 525.023 186.903 525.288C186.758 528.418 186.658 531.551 186.453 534.677C186.317 536.811 185.968 538.929 185.88 541.064C185.86 541.573 186.494 542.115 186.826 542.641C187.195 542.199 187.757 541.81 187.885 541.305C188.117 540.402 188.138 539.435 188.166 538.492C188.302 534.107 188.41 529.722 188.53 525.336L188.543 525.328ZM144.284 624.632C146.373 624.491 148.502 624.556 150.543 624.162C152.957 623.701 155.64 623.36 157.608 622.064C162.961 618.533 164.966 612.684 163.266 606.437C161.421 599.664 157.729 594.328 150.62 592.242C144.878 590.557 139.32 591.464 134.1 594.22C130.68 596.026 128.214 598.802 127.644 602.746C127.356 604.732 126.47 606.268 125.431 607.877C123.266 611.227 122.809 616.676 126.574 619.777C127.901 620.868 129.465 621.783 131.065 622.413C135.295 624.074 139.753 624.58 144.284 624.632ZM169.116 579.732C166.233 579.732 163.867 582.075 163.843 584.956C163.823 587.897 166.237 590.3 169.176 590.268C172.047 590.236 174.385 587.853 174.373 584.968C174.356 582.088 171.995 579.736 169.116 579.732ZM149.93 574.621C147.043 574.597 144.657 576.92 144.613 579.797C144.569 582.737 146.963 585.165 149.898 585.157C152.773 585.149 155.13 582.782 155.138 579.905C155.146 577.024 152.805 574.649 149.926 574.625L149.93 574.621Z" fill="#FECC4A"/>
<path d="M198.374 626.385C218.847 626.393 239.324 626.401 259.797 626.405C259.946 626.405 260.094 626.369 260.242 626.349C260.467 626.734 260.868 627.107 260.884 627.5C261.092 632.604 261.445 637.711 261.377 642.811C261.209 655.076 259.196 667.024 254.645 678.474C252.416 684.079 249.645 689.399 246.137 694.318C245.335 694.334 244.537 694.362 243.735 694.362C206.979 694.362 170.222 694.362 133.466 694.362C132.765 694.362 132.067 694.39 131.365 694.406C131.105 694.109 130.76 693.857 130.599 693.511C129.1 690.314 127.676 687.076 126.137 683.894C125.114 681.776 124.605 679.598 124.769 677.246C124.826 676.452 124.729 675.65 124.705 674.851C124.93 674.314 125.199 673.788 125.371 673.23C125.688 672.191 125.948 671.14 126.233 670.093C128.446 673.066 131.437 674.968 134.946 675.898C137.684 676.625 140.519 677.263 143.338 677.387C158.546 678.061 172.652 674.009 185.912 666.811C193.174 662.871 199.421 657.683 203.899 650.618C206.06 647.212 207.356 643.517 206.935 639.38C206.489 634.983 204.184 631.633 201.028 628.752C200.154 627.954 199.264 627.171 198.378 626.381L198.374 626.385ZM213.703 668.283C212.327 669.74 211.056 671.068 209.813 672.428C209.481 672.793 209.22 673.234 208.987 673.672C207.572 676.356 208.627 679.71 211.325 681.15C214.036 682.599 217.279 681.644 218.859 678.964C220.287 676.54 219.485 672.753 216.854 671.513C215.663 672.793 214.453 674.093 213.177 675.461C213.799 676.027 214.256 676.444 214.717 676.865C215.539 676.095 216.237 675.445 216.967 674.763C218.246 677.05 216.265 679.586 214.28 679.63C212.865 679.658 211.722 679.22 211.012 677.945C210.222 676.516 210.383 675.12 211.417 673.9C212.608 672.496 213.891 671.172 215.214 669.72C214.721 669.25 214.296 668.845 213.703 668.279V668.283ZM237.833 645.246C234.673 645.162 232.111 647.585 232.063 650.702C232.019 653.772 234.436 656.319 237.464 656.392C240.599 656.468 243.161 654.032 243.226 650.907C243.29 647.81 240.924 645.326 237.833 645.242V645.246ZM229.461 654.265C226.289 654.173 223.731 656.564 223.663 659.686C223.598 662.751 226.004 665.314 229.032 665.407C232.167 665.503 234.737 663.08 234.821 659.954C234.902 656.853 232.552 654.357 229.461 654.265ZM227.255 667.092C226.433 667.95 225.828 668.608 225.194 669.242C223.602 670.839 221.602 670.996 220.134 669.656C218.643 668.291 218.667 666.185 220.198 664.456C220.784 663.794 221.365 663.132 222.027 662.378C221.449 661.876 220.992 661.475 220.511 661.058C218.161 663.236 216.06 665.363 217.107 668.773C217.777 670.955 219.332 672.308 221.618 672.649C224.974 673.15 226.77 670.895 228.667 668.604C228.202 668.103 227.801 667.678 227.251 667.088L227.255 667.092Z" fill="#14B953"/>
<path d="M223.113 715.084C224.007 716.689 225.09 718.218 225.764 719.911C227.716 724.818 226.622 729.275 223.145 733.083C221.682 734.684 219.805 735.907 218.117 737.299C217.103 737.817 216.124 738.427 215.062 738.828C212.327 739.863 209.561 740.806 206.806 741.785C206.61 741.901 206.413 742.014 206.217 742.13C204.493 742.319 202.764 742.467 201.048 742.704C195.876 743.426 190.696 743.31 185.507 742.932C179.412 741.937 173.454 740.517 168.085 737.291C167.905 737.187 167.724 737.083 167.544 736.979C163.362 733.937 160.688 729.837 159.18 724.75C155.936 727.727 152.199 729.484 148.278 730.904C147.861 730.23 147.376 729.588 147.039 728.878C145.96 726.587 144.934 724.272 143.887 721.965C142.015 717.837 140.142 713.708 138.27 709.58C138.707 709.809 139.184 709.981 139.573 710.274C144.116 713.68 149.036 716.433 154.264 718.627C155.804 719.273 157.4 719.787 159.072 720.397C160.503 714.559 164.469 711.373 169.292 709.006C175.96 705.732 183.145 704.577 190.455 704.284C194.224 704.131 198.045 704.412 201.798 704.87C206.778 705.476 211.626 706.824 215.9 709.54C218.45 711.161 220.715 713.227 223.109 715.089L223.113 715.084Z" fill="#FC6F22"/>
<path d="M129.473 733.789C130.459 736.437 131.842 739.009 132.36 741.749C133.775 749.216 132.432 756.273 127.985 762.54C122.961 769.617 116.149 773.605 107.396 774.247C101.911 774.648 96.654 774.046 91.646 771.671C85.9202 768.959 82.0951 764.433 79.3565 758.869C77.0269 754.13 76.1207 749.067 76.7903 743.875C78.0012 734.511 82.7767 727.382 91.1087 722.856C93.3541 721.636 95.9042 720.978 98.318 720.064C99.4366 719.847 100.555 719.626 101.678 719.41C101.838 719.767 102.003 720.124 102.163 720.481C102.063 721.548 101.959 722.615 101.858 723.683C101.79 723.907 101.722 724.128 101.658 724.353L101.466 725.271L100.804 729.203C100.736 729.661 100.672 730.118 100.603 730.571C100.503 730.832 100.403 731.089 100.299 731.35L100.347 731.891C100.227 732.469 100.106 733.047 99.986 733.625C99.2321 734.154 98.5104 734.744 97.7165 735.201C91.0686 739.049 89.3284 746.439 91.9587 752.521C94.9499 759.442 101.79 762.03 108.422 760.301C114.537 758.704 118.005 754.239 118.719 748.493C119.252 744.208 117.985 740.317 114.453 737.456C114.453 737.235 114.457 737.019 114.461 736.798C114.613 735.655 114.765 734.511 114.918 733.368C114.974 732.605 115.03 731.847 115.086 731.085C115.231 730.443 115.379 729.801 115.523 729.155C115.587 728.553 115.652 727.951 115.716 727.346C115.844 726.852 115.972 726.359 116.105 725.865C116.133 725.689 116.165 725.512 116.193 725.336C116.221 725.087 116.249 724.838 116.277 724.589C116.301 724.308 116.321 724.028 116.345 723.747C116.758 723.297 117.175 722.848 117.588 722.403C122.656 725.047 126.618 728.842 129.481 733.789H129.473Z" fill="#3A3A3A"/>
<path d="M223.113 715.084C220.72 713.219 218.454 711.157 215.904 709.536C211.63 706.816 206.782 705.467 201.802 704.866C198.049 704.412 194.228 704.131 190.459 704.28C183.15 704.573 175.964 705.732 169.296 709.002C164.473 711.369 160.507 714.559 159.076 720.392C157.404 719.783 155.808 719.269 154.268 718.623C149.04 716.433 144.12 713.68 139.577 710.27C139.188 709.977 138.711 709.805 138.274 709.576C138.154 709.492 137.977 709.431 137.925 709.315C136.822 706.88 135.724 704.444 134.653 702.001C133.547 699.473 132.464 696.938 131.369 694.406C132.071 694.39 132.769 694.362 133.47 694.362C170.227 694.362 206.983 694.362 243.739 694.362C244.541 694.362 245.339 694.334 246.141 694.318C240.403 702.711 233.105 709.419 224.336 714.535C223.951 714.76 223.526 714.904 223.117 715.084H223.113Z" fill="#FCCC4A"/>
<path d="M326 750.856C325.972 751.149 325.944 751.438 325.916 751.731C325.723 752.176 325.507 752.614 325.338 753.071C324.48 755.374 323.799 757.761 322.732 759.96C321.778 761.93 320.399 763.691 319.204 765.545C318.895 765.862 318.582 766.179 318.273 766.5C318.041 766.728 317.808 766.957 317.58 767.186L317.548 767.23C315.96 768.341 314.4 769.493 312.776 770.548C311.553 771.342 310.25 772.012 308.983 772.738C308.799 772.787 308.61 772.831 308.426 772.879C308.017 773.059 307.608 773.24 307.199 773.42C307.01 773.453 306.822 773.485 306.63 773.521C306.168 773.549 305.711 773.581 305.25 773.609C304.994 773.725 304.737 773.838 304.48 773.954C303.63 774.046 302.784 774.143 301.934 774.235C301.477 774.343 301.024 774.452 300.567 774.56C298.967 774.56 297.367 774.56 295.767 774.56C295.21 774.448 294.653 774.339 294.095 774.227C293.249 774.127 292.399 774.03 291.553 773.93L290.792 773.577C290.33 773.553 289.869 773.529 289.412 773.505C289.224 773.465 289.035 773.424 288.851 773.384C287.147 772.578 285.447 771.771 283.743 770.965C283.602 770.905 283.466 770.845 283.326 770.789C282.784 770.411 282.247 770.038 281.706 769.661C281.666 769.593 281.606 769.561 281.525 769.561C280.282 768.502 279.043 767.442 277.8 766.387C277.612 766.179 277.427 765.97 277.239 765.761L277.163 765.801L277.231 765.749C277.051 765.541 276.87 765.336 276.69 765.127C276.69 765.127 276.658 765.091 276.658 765.095C275.772 763.888 274.885 762.68 273.995 761.472C274.007 761.392 273.979 761.332 273.915 761.284C273.33 760.249 272.74 759.218 272.155 758.182C272.115 757.926 272.079 757.673 272.039 757.416C272.123 757.131 272.203 756.846 272.287 756.562C272.921 756.65 273.554 756.814 274.188 756.818C278.113 756.842 282.035 756.842 285.96 756.818C286.421 756.818 286.878 756.614 287.339 756.505C287.885 756.558 288.43 756.61 288.979 756.662C289.34 757.296 289.541 758.199 290.086 758.524C293.634 760.638 297.327 761.745 301.573 760.562C304.308 759.799 306.702 758.644 308.502 756.53C311.662 752.826 313.093 748.678 311.758 743.707C310.904 740.513 309.332 737.865 306.738 736.012C302.76 733.167 298.298 732.248 293.562 733.913C291.481 734.644 289.344 735.442 288.39 737.753C287.548 737.809 286.702 737.865 285.86 737.917C281.265 737.893 276.674 737.809 272.143 736.89C272.371 736.345 272.576 735.787 272.832 735.257C276.213 728.328 281.63 723.598 288.819 721.063C294.753 718.968 300.832 718.864 306.882 720.87C314.913 723.534 320.555 728.798 323.895 736.525C324.737 738.471 325.286 740.545 325.968 742.559C325.976 742.808 325.98 743.053 325.988 743.302C325.988 745.825 325.992 748.353 325.996 750.876L326 750.856Z" fill="#3A3A3A"/>
<path d="M112.769 608.026C112.344 610.726 111.87 613.418 111.51 616.126C111.061 619.524 110.708 622.939 110.311 626.345C110.098 626.63 109.721 626.903 109.697 627.2C109.509 629.723 109.385 632.251 109.24 634.778C108.859 634.811 108.462 634.931 108.105 634.863C106.546 634.558 104.998 634.177 103.442 633.868C99.4888 633.077 95.5553 632.175 91.5738 631.569C87.7406 630.983 83.8673 630.622 79.998 630.349C78.1215 630.217 76.3693 630.843 75.2386 632.556C74.982 632.792 74.7254 633.033 74.4688 633.27C74.3806 633.286 74.3204 633.334 74.2924 633.422C74.2563 633.462 74.2162 633.503 74.1761 633.543C71.7142 635.196 70.4231 637.402 70.9203 640.452C70.9283 640.985 70.9363 641.515 70.9403 642.048C70.9002 642.381 70.7679 642.734 70.8321 643.043C71.6781 647.2 74.1921 650.008 78.0534 651.561C79.0919 651.978 80.3549 651.85 81.5137 651.97C81.7422 652.014 81.9708 652.063 82.2033 652.107C83.1576 652.375 84.0959 652.725 85.0662 652.893C87.1712 653.258 89.2923 653.535 91.4094 653.848C91.654 653.88 91.8946 653.908 92.1392 653.94C93.4503 654.305 94.7414 654.783 96.0726 655.007C98.2859 655.381 100.531 655.593 102.761 655.874C102.989 655.918 103.218 655.962 103.446 656.01C103.955 656.215 104.461 656.584 104.974 656.596C106.746 656.636 108.518 656.552 110.295 656.516C110.407 657.595 110.519 658.67 110.632 659.75C100.712 659.974 90.9122 659.176 81.6099 655.453C78.5385 654.221 75.5153 652.584 72.885 650.59C66.5297 645.772 65.2306 637.575 69.4327 630.742C72.4239 625.876 76.7703 622.441 81.6059 619.617C90.7037 614.301 100.507 610.802 110.788 608.591C111.457 608.447 112.111 608.218 112.773 608.026H112.769Z" fill="#FCB601"/>
<path d="M218.975 737.785C219.428 737.725 219.881 737.669 220.338 737.609C220.828 737.649 221.321 737.729 221.81 737.729C238.269 737.737 254.729 737.737 271.188 737.737C272.175 737.813 273.161 737.889 274.5 737.99C274.091 739.177 273.791 740.269 273.35 741.3C272.05 744.325 269.761 745.448 266.445 745.44C231.842 745.364 197.239 745.392 162.632 745.404C162.063 745.404 161.493 745.613 160.924 745.725C160.804 745.745 160.683 745.765 160.559 745.789L159.809 745.476C159.641 745.52 159.477 745.565 159.308 745.609C159.184 745.601 159.06 745.589 158.939 745.581C158.578 745.4 158.213 745.22 157.853 745.039C157.492 744.834 157.131 744.63 156.774 744.425C156.525 744.253 156.273 744.08 156.024 743.904L155.379 743.302L154.557 742.319C154.581 742.214 154.545 742.138 154.448 742.094C154.039 741.083 153.63 740.076 153.222 739.065C153.193 738.872 153.161 738.68 153.133 738.487C153.398 737.966 153.663 737.448 153.923 736.927C154.192 736.975 154.464 737.023 154.733 737.075C155.214 737.288 155.691 737.677 156.177 737.681C159.545 737.705 162.909 737.645 166.277 737.613C166.866 737.645 167.452 737.681 168.041 737.713C171.385 739.161 174.657 740.814 178.093 741.986C180.443 742.788 183.017 742.925 185.491 743.358C185.699 743.39 185.912 743.426 186.12 743.458C186.606 743.49 187.087 743.518 187.572 743.55C188.522 743.587 189.468 743.619 190.419 743.655C192.44 743.655 194.46 743.663 196.485 743.667L199.011 743.559C199.496 743.53 199.982 743.498 200.467 743.47C200.675 743.422 200.888 743.378 201.096 743.33C201.553 743.238 202.011 743.141 202.468 743.049C203.209 742.961 203.955 742.876 204.697 742.788C205.134 742.668 205.575 742.547 206.012 742.423L206.12 742.447L206.217 742.391C206.421 742.359 206.622 742.331 206.826 742.299C207.119 742.243 207.411 742.186 207.704 742.13C208.013 742.014 208.326 741.897 208.634 741.785C209.128 741.685 209.617 741.585 210.11 741.484C210.322 741.384 210.535 741.288 210.743 741.187C211.136 741.087 211.529 740.983 211.922 740.882C212.139 740.786 212.355 740.69 212.572 740.598C212.853 740.501 213.133 740.405 213.414 740.309C213.642 740.208 213.875 740.108 214.104 740.008C214.38 739.899 214.653 739.791 214.93 739.683C215.25 739.482 215.571 739.286 215.892 739.085L216.401 738.892C216.622 738.756 216.838 738.62 217.059 738.483C217.343 738.403 217.628 738.323 217.913 738.242C218.266 738.086 218.618 737.934 218.975 737.777V737.785Z" fill="#0B0D0A"/>
<path d="M188.542 525.328C188.422 529.714 188.314 534.099 188.177 538.484C188.149 539.427 188.129 540.394 187.897 541.297C187.768 541.798 187.203 542.191 186.838 542.633C186.505 542.107 185.872 541.569 185.892 541.056C185.98 538.921 186.329 536.803 186.465 534.669C186.666 531.543 186.77 528.41 186.914 525.28C186.882 522.115 186.846 518.945 186.814 515.78C186.63 515.679 186.441 515.579 186.257 515.479C184.669 516.253 182.989 516.879 181.517 517.83C178.57 519.732 175.387 521.036 171.999 521.75C169.132 522.356 166.417 522.059 164.569 519.246C163.246 517.232 163.322 515.009 164.97 513.196C167.797 510.091 171.353 508.594 175.515 508.626C179.112 508.654 182.56 509.332 185.487 511.443C189.188 505.713 194.653 503.647 201.149 504.048C206.173 504.361 209.797 509.216 208.975 514.042C208.699 515.679 207.837 516.634 206.237 517.007C202.893 517.786 199.521 517.93 196.104 517.641C193.218 517.397 190.503 516.71 187.945 514.624C188.157 518.428 188.346 521.878 188.538 525.328H188.542Z" fill="#80BA64"/>
<path d="M111.012 668.424C111.093 667.854 111.169 667.28 111.249 666.715C111.373 666.695 111.498 666.675 111.622 666.655C111.57 666.546 111.518 666.438 111.47 666.334C111.546 665.9 111.622 665.467 111.698 665.03L111.77 664.977L111.718 664.901C111.718 664.685 111.714 664.464 111.71 664.247C111.927 663.645 112.215 663.056 112.34 662.434C112.7 660.64 112.997 658.831 113.318 657.026C113.318 656.921 113.318 656.817 113.318 656.713C113.306 656.432 113.29 656.151 113.278 655.87C113.362 654.434 114.613 653.78 115.315 652.757C116.201 651.461 116.842 649.996 117.592 648.604C117.777 648.191 117.965 647.782 118.15 647.368C118.15 646.281 118.15 645.194 118.15 644.107C117.965 643.794 117.781 643.481 117.596 643.168C118.017 642.875 118.438 642.582 118.859 642.293C119.108 642.317 119.352 642.341 119.601 642.365C121.766 643.677 124.084 644.103 126.57 643.589C126.975 643.613 127.38 643.637 127.785 643.657C128.174 644.532 128.811 644.512 129.545 644.147C129.962 644.195 130.375 644.243 130.792 644.291C131.173 644.644 131.55 644.993 132.015 645.427C131.542 646.285 131.016 647.172 130.555 648.091C129.429 650.333 128.607 652.62 129.272 655.212C129.633 656.616 129.814 658.065 130.058 659.393C129.188 659.613 128.639 659.754 128.085 659.894C128.005 660.031 127.921 660.171 127.841 660.307C127.444 660.933 126.818 661.519 126.69 662.197C125.896 666.366 125.211 670.558 124.489 674.739C123.703 674.723 122.893 674.819 122.135 674.671C118.823 674.029 115.527 673.291 112.211 672.641C111.349 672.472 111.053 672.055 111.081 671.216C111.109 670.289 111.045 669.359 111.02 668.428L111.012 668.424Z" fill="#0B0D0A"/>
<path d="M101.674 719.406C100.555 719.626 99.4328 719.843 98.3141 720.06C96.3534 716.244 95.3269 712.336 97.1112 708.144C98.282 705.391 100.275 703.329 102.673 701.628C103.402 701.11 104.184 700.661 104.942 700.184C104.649 702.394 104.429 704.617 104.044 706.812C103.306 711.016 102.468 715.209 101.674 719.406Z" fill="#FC6F22"/>
<path d="M123.506 717.143C123.775 717.885 123.975 718.659 124.324 719.358C126.562 723.807 128.835 728.236 131.084 732.678C131.237 732.975 131.265 733.336 131.353 733.665C130.728 733.709 130.102 733.749 129.473 733.789C126.61 728.838 122.644 725.043 117.58 722.399C118.013 718.916 118.434 715.43 118.891 711.947C118.923 711.694 119.172 711.297 119.344 711.281C119.633 711.253 120.01 711.414 120.23 711.622C120.676 712.043 121.044 712.549 121.441 713.018C121.526 713.079 121.614 713.139 121.698 713.199C121.698 713.331 121.698 713.46 121.698 713.592C121.798 713.801 121.902 714.009 122.003 714.214C122.027 714.29 122.075 714.346 122.147 714.382L122.897 715.803C122.925 715.935 122.949 716.072 122.977 716.204C123.153 716.469 123.326 716.738 123.502 717.002L123.506 717.135V717.143Z" fill="#FC6F22"/>
<path d="M152.432 737.276C149.833 736.321 148.53 734.054 147.4 731.835C145.307 727.727 143.518 723.462 141.558 719.285C140.736 717.536 139.797 715.839 138.911 714.118C137.941 711.903 136.991 709.68 135.992 707.482C134.38 703.931 132.761 700.384 131.097 696.862C129.304 693.066 127.456 689.299 125.615 685.527C125.543 685.383 125.299 685.323 125.134 685.223C124.621 683.233 124.044 681.255 123.635 679.245C123.494 678.55 123.783 677.772 123.855 677.026C123.931 676.231 123.763 675.734 122.773 675.642C121.606 675.533 120.459 675.2 119.316 674.928C116.642 674.286 113.971 673.624 111.301 672.97C111.089 673.363 110.876 673.752 110.664 674.145C110.559 674.847 110.451 675.545 110.347 676.248C110.166 676.761 109.99 677.279 109.809 677.792C109.789 678.177 109.765 678.567 109.745 678.952C109.561 679.566 109.38 680.179 109.196 680.789C109.172 681.271 109.148 681.752 109.12 682.234C108.907 681.913 108.695 681.596 108.486 681.275C108.514 680.697 108.542 680.123 108.571 679.545C108.747 678.924 108.923 678.302 109.1 677.68C109.124 677.299 109.148 676.918 109.172 676.536C109.352 675.818 109.533 675.1 109.713 674.382C109.733 673.997 109.757 673.612 109.777 673.226C109.793 673.03 109.805 672.837 109.822 672.641C109.838 672.448 109.854 672.255 109.87 672.063C110.018 671.638 110.17 671.208 110.323 670.783C110.551 669.993 110.78 669.206 111.004 668.416C111.028 669.347 111.093 670.273 111.065 671.204C111.04 672.039 111.337 672.46 112.195 672.629C115.507 673.279 118.803 674.017 122.119 674.659C122.881 674.807 123.687 674.711 124.473 674.727C124.525 674.807 124.597 674.847 124.693 674.855C124.721 675.654 124.813 676.456 124.757 677.251C124.593 679.602 125.102 681.78 126.125 683.899C127.664 687.08 129.088 690.314 130.587 693.516C130.748 693.857 131.097 694.113 131.353 694.41C132.444 696.942 133.526 699.482 134.633 702.005C135.708 704.453 136.806 706.888 137.905 709.319C137.957 709.436 138.133 709.496 138.254 709.58C140.126 713.708 141.999 717.837 143.871 721.965C144.918 724.272 145.94 726.587 147.023 728.878C147.36 729.592 147.845 730.23 148.262 730.904C148.334 731.177 148.366 731.466 148.482 731.719C149.525 733.958 151.425 735.326 153.434 736.581L152.42 737.276H152.432Z" fill="#B1B0AB"/>
<path d="M108.49 681.279C108.703 681.6 108.915 681.916 109.128 682.237C109.084 682.924 109.112 683.626 108.975 684.296C108.683 685.728 108.262 687.132 107.973 688.565C107.608 690.386 107.291 692.216 107.003 694.049C106.69 696.027 106.433 698.009 106.153 699.991C106.145 700.48 106.133 700.97 106.125 701.459C105.936 701.873 105.752 702.29 105.563 702.703C105.459 703.806 105.355 704.906 105.251 706.009C105.15 706.31 105.054 706.611 104.954 706.912C104.653 709.223 104.485 711.566 104.02 713.841C103.558 716.088 102.793 718.27 102.163 720.481C102.003 720.124 101.838 719.767 101.678 719.41C102.472 715.213 103.306 711.024 104.048 706.816C104.433 704.621 104.653 702.398 104.946 700.188C105.319 697.688 105.676 695.184 106.073 692.689C106.598 689.379 107.131 686.073 107.72 682.775C107.817 682.249 108.23 681.78 108.494 681.283L108.49 681.279Z" fill="#C8C8C8"/>
<path d="M113.274 655.866C113.286 656.147 113.302 656.428 113.314 656.709C113.314 656.813 113.314 656.917 113.314 657.022C112.993 658.827 112.696 660.632 112.336 662.43C112.211 663.052 111.919 663.637 111.702 664.243C111.598 663.93 111.49 663.617 111.385 663.304C111.133 662.121 110.876 660.937 110.623 659.758C110.511 658.679 110.399 657.603 110.287 656.524C110.916 655.276 112.083 656.139 112.953 655.842C113.057 655.854 113.166 655.862 113.27 655.874L113.274 655.866Z" fill="#14B953"/>
<path d="M250.988 757.119C251.489 756.846 251.99 756.333 252.492 756.333C256.505 756.329 260.515 756.421 264.529 756.481C267.115 756.501 269.701 756.521 272.291 756.542C272.207 756.826 272.127 757.111 272.043 757.396C268.558 757.332 265.074 757.256 261.589 757.208C258.057 757.159 254.521 757.143 250.988 757.111V757.119Z" fill="#6E6E6E"/>
<path d="M213.414 740.317C213.133 740.413 212.853 740.509 212.572 740.606C212.355 740.702 212.139 740.798 211.922 740.89C211.529 740.991 211.136 741.095 210.743 741.195C210.531 741.296 210.318 741.392 210.11 741.492C209.617 741.592 209.128 741.693 208.634 741.793C208.326 741.909 208.013 742.026 207.704 742.138C207.411 742.194 207.119 742.25 206.826 742.307C206.818 742.13 206.81 741.958 206.802 741.781C209.557 740.802 212.323 739.859 215.058 738.824C216.116 738.423 217.099 737.809 218.113 737.296C218.137 737.432 218.165 737.564 218.193 737.701C218.101 737.881 218.009 738.062 217.917 738.246C217.632 738.327 217.347 738.407 217.063 738.487C216.842 738.624 216.626 738.76 216.405 738.896C216.237 738.961 216.064 739.025 215.896 739.089C215.575 739.29 215.254 739.486 214.934 739.687C214.657 739.795 214.384 739.903 214.108 740.012C213.879 740.112 213.646 740.212 213.418 740.313L213.414 740.317Z" fill="#B1B0AB"/>
<path d="M132.524 735.847C132.636 735.763 132.752 735.675 132.865 735.59C133.566 737.115 134.276 738.632 134.954 740.168C134.994 740.26 134.753 740.473 134.645 740.634C133.939 739.037 133.234 737.444 132.524 735.847Z" fill="#C8C8C8"/>
<path d="M111.389 663.296C111.494 663.609 111.602 663.922 111.706 664.235C111.706 664.452 111.71 664.673 111.714 664.889L111.654 664.945L111.694 665.018C111.618 665.451 111.542 665.884 111.469 666.317C111.365 666.35 111.261 666.386 111.157 666.418C111.233 665.375 111.309 664.331 111.389 663.288V663.296Z" fill="#B1B0AB"/>
<path d="M305.246 773.601C305.707 773.573 306.164 773.541 306.626 773.513C306.076 773.717 305.523 773.922 304.974 774.127C305.066 773.95 305.158 773.778 305.25 773.601H305.246Z" fill="#C8C8C8"/>
<path d="M281.706 769.653C282.243 770.03 282.784 770.407 283.326 770.78C282.788 770.403 282.247 770.03 281.706 769.653Z" fill="#C8C8C8"/>
<path d="M217.917 738.25C218.009 738.07 218.101 737.885 218.194 737.705C218.454 737.733 218.715 737.757 218.975 737.785C218.623 737.941 218.27 738.094 217.913 738.25H217.917Z" fill="#9F9F9D"/>
<path d="M317.576 767.182C317.808 766.953 318.041 766.724 318.269 766.496C318.037 766.724 317.804 766.953 317.576 767.182Z" fill="#C8C8C8"/>
<path d="M111.157 666.426C111.261 666.394 111.365 666.358 111.469 666.326C111.518 666.434 111.57 666.542 111.622 666.651C111.498 666.671 111.373 666.695 111.249 666.711C111.221 666.614 111.189 666.522 111.161 666.426H111.157Z" fill="#14B953"/>
<path d="M127.833 660.3C127.913 660.163 127.997 660.023 128.077 659.886C129.348 660.384 130.696 660.749 131.878 661.407C133.47 662.294 134.81 663.774 136.478 664.344C139.236 665.283 142.163 665.728 145.034 666.322C151.137 667.581 157.235 668.885 163.37 669.993C165.106 670.306 167.043 670.354 168.735 669.921C173.454 668.713 176.57 665.668 177.656 660.825C178.875 655.401 176.036 649.892 171.093 647.689C168.583 646.574 165.736 646.165 163.001 645.615C157.091 644.428 151.129 643.473 145.239 642.197C141.04 641.29 137.147 641.507 133.454 643.862C133.009 644.147 132.267 643.97 131.666 644.01C136.77 638.269 142.656 633.443 148.963 629.097C150.226 628.227 151.449 627.296 152.692 626.397C154.641 625.306 156.606 624.239 158.538 623.115C161.469 621.41 164.681 620.5 167.989 620.078C177.42 618.871 186.433 620.395 194.966 624.624C196.117 625.194 197.247 625.799 198.386 626.389C199.268 627.18 200.158 627.962 201.032 628.76C204.188 631.641 206.493 634.991 206.938 639.388C207.355 643.525 206.06 647.22 203.903 650.626C199.424 657.692 193.177 662.875 185.916 666.819C172.656 674.013 158.554 678.065 143.342 677.395C140.527 677.271 137.692 676.637 134.95 675.907C131.441 674.976 128.45 673.074 126.241 670.101C126.774 666.835 127.308 663.569 127.841 660.3H127.833Z" fill="#FCB601"/>
<path d="M144.284 624.632C139.753 624.58 135.295 624.074 131.064 622.413C129.465 621.783 127.901 620.868 126.574 619.777C122.809 616.676 123.266 611.231 125.431 607.877C126.469 606.268 127.356 604.732 127.644 602.746C128.214 598.798 130.684 596.022 134.1 594.22C139.32 591.464 144.878 590.561 150.619 592.242C157.728 594.328 161.421 599.665 163.266 606.437C164.966 612.684 162.961 618.533 157.608 622.064C155.639 623.364 152.961 623.701 150.543 624.162C148.502 624.552 146.373 624.491 144.284 624.632Z" fill="#FC6F22"/>
<path d="M152.684 626.393C151.441 627.296 150.219 628.223 148.955 629.093C142.648 633.438 136.762 638.265 131.658 644.006C131.365 644.098 131.077 644.191 130.784 644.283C130.367 644.235 129.954 644.187 129.537 644.139C128.952 643.974 128.362 643.814 127.777 643.649C127.372 643.625 126.967 643.601 126.562 643.581C124.24 643.172 121.919 642.766 119.593 642.357C119.344 642.333 119.1 642.309 118.851 642.285C118.101 641.607 117.239 641.013 116.63 640.227C115.527 638.815 114.445 637.43 112.729 636.724C112.672 636.664 112.612 636.612 112.548 636.564C112.432 636.528 112.312 636.496 112.195 636.459C111.209 635.898 110.227 635.336 109.24 634.778C109.385 632.251 109.509 629.723 109.697 627.2C109.721 626.903 110.098 626.63 110.311 626.345C111.907 626.369 113.502 626.409 115.098 626.409C127.628 626.409 140.154 626.397 152.684 626.389V626.393Z" fill="#14B953"/>
<path d="M169.116 579.732C171.995 579.732 174.36 582.088 174.372 584.968C174.388 587.853 172.051 590.236 169.176 590.268C166.237 590.3 163.819 587.897 163.843 584.956C163.863 582.075 166.233 579.732 169.116 579.732Z" fill="#0B0D0A"/>
<path d="M149.93 574.621C152.805 574.645 155.15 577.02 155.142 579.901C155.134 582.778 152.776 585.145 149.902 585.153C146.967 585.165 144.569 582.737 144.617 579.793C144.661 576.916 147.047 574.593 149.934 574.617L149.93 574.621Z" fill="#0B0D0A"/>
<path d="M213.703 668.284C214.296 668.849 214.721 669.254 215.214 669.724C213.891 671.172 212.608 672.5 211.417 673.905C210.383 675.124 210.222 676.52 211.012 677.949C211.718 679.225 212.865 679.662 214.28 679.634C216.265 679.594 218.246 677.058 216.967 674.767C216.237 675.449 215.539 676.103 214.717 676.869C214.256 676.448 213.795 676.031 213.177 675.465C214.453 674.097 215.659 672.797 216.854 671.517C219.485 672.757 220.287 676.544 218.859 678.968C217.279 681.648 214.036 682.607 211.325 681.154C208.627 679.71 207.572 676.36 208.987 673.676C209.22 673.239 209.481 672.797 209.813 672.432C211.052 671.072 212.327 669.744 213.703 668.288V668.284Z" fill="#EAEBEA"/>
<path d="M237.832 645.246C240.924 645.326 243.29 647.814 243.225 650.911C243.161 654.037 240.599 656.472 237.464 656.396C234.436 656.319 232.018 653.772 232.063 650.707C232.107 647.589 234.669 645.166 237.832 645.25V645.246ZM237.62 647.344C235.671 647.356 234.112 648.969 234.164 650.915C234.212 652.757 235.824 654.305 237.68 654.289C239.565 654.273 241.092 652.741 241.112 650.847C241.136 648.861 239.609 647.328 237.62 647.34V647.344Z" fill="#FEFEFE"/>
<path d="M229.46 654.265C232.548 654.357 234.901 656.853 234.821 659.954C234.737 663.08 232.167 665.503 229.031 665.407C226.004 665.314 223.594 662.751 223.663 659.685C223.731 656.564 226.289 654.169 229.46 654.265ZM229.208 656.363C227.251 656.384 225.707 657.984 225.76 659.942C225.808 661.776 227.44 663.332 229.288 663.308C231.173 663.284 232.696 661.748 232.708 659.858C232.724 657.864 231.197 656.343 229.204 656.363H229.208Z" fill="#FEFEFE"/>
<path d="M227.255 667.092C227.804 667.682 228.205 668.111 228.67 668.608C226.774 670.899 224.978 673.154 221.622 672.653C219.336 672.312 217.78 670.959 217.111 668.777C216.064 665.367 218.169 663.24 220.515 661.062C220.996 661.479 221.453 661.88 222.031 662.382C221.369 663.136 220.788 663.798 220.202 664.46C218.67 666.189 218.642 668.295 220.138 669.66C221.601 671 223.606 670.839 225.198 669.246C225.828 668.612 226.433 667.958 227.259 667.096L227.255 667.092Z" fill="#EAEBEA"/>
<path d="M127.833 660.299C127.299 663.565 126.766 666.835 126.233 670.101C125.948 671.148 125.688 672.203 125.367 673.238C125.194 673.796 124.926 674.318 124.701 674.859C124.605 674.859 124.533 674.815 124.481 674.735C125.202 670.55 125.884 666.362 126.682 662.193C126.81 661.515 127.436 660.929 127.833 660.303V660.299Z" fill="#3A3A3A"/>
<path d="M185.495 743.366C183.021 742.933 180.443 742.796 178.097 741.994C174.661 740.818 171.389 739.169 168.045 737.721C168.057 737.58 168.069 737.436 168.081 737.296C173.454 740.525 179.408 741.946 185.503 742.941C185.503 743.085 185.499 743.225 185.495 743.37V743.366Z" fill="#9F9F9D"/>
<path d="M185.495 743.366C185.495 743.221 185.499 743.081 185.503 742.936C190.692 743.31 195.872 743.43 201.044 742.708C202.76 742.467 204.489 742.323 206.213 742.134C206.213 742.222 206.213 742.315 206.217 742.403L206.121 742.459L206.012 742.435C205.575 742.555 205.134 742.676 204.697 742.8C203.955 742.888 203.21 742.973 202.464 743.061C202.007 743.153 201.55 743.249 201.092 743.342C200.884 743.39 200.671 743.434 200.463 743.482C199.978 743.51 199.493 743.542 199.007 743.57C198.165 743.606 197.323 743.643 196.481 743.679C194.461 743.679 192.44 743.671 190.415 743.667C189.465 743.631 188.518 743.598 187.568 743.562C187.083 743.53 186.602 743.502 186.117 743.47C185.908 743.438 185.696 743.402 185.487 743.37L185.495 743.366Z" fill="#B1B0AB"/>
<path d="M168.081 737.296C168.069 737.436 168.057 737.58 168.045 737.721C167.456 737.689 166.87 737.653 166.281 737.621C166.265 737.456 166.249 737.292 166.233 737.127C166.67 737.079 167.103 737.031 167.54 736.983C167.72 737.087 167.901 737.191 168.081 737.296Z" fill="#B1B0AB"/>
<path d="M206.221 742.403C206.221 742.315 206.217 742.222 206.217 742.134C206.413 742.018 206.61 741.905 206.806 741.789C206.814 741.966 206.822 742.138 206.83 742.315C206.626 742.347 206.425 742.375 206.221 742.407V742.403Z" fill="#9F9F9D"/>
<path d="M100.391 752.642C101.289 753.946 104.389 755.017 106.001 754.58C109.697 753.577 112.019 750.515 112.512 746.712C112.913 743.594 113.783 740.537 114.445 737.452C117.981 740.313 119.244 744.204 118.711 748.489C117.997 754.235 114.529 758.7 108.414 760.297C101.782 762.026 94.946 759.438 91.9508 752.517C89.3205 746.435 91.0607 739.045 97.7086 735.197C98.5026 734.736 99.2243 734.15 99.9781 733.62C100.034 733.837 100.09 734.058 100.146 734.274C99.938 734.976 99.7295 735.675 99.521 736.377C99.505 736.938 99.4889 737.504 99.4729 738.066C99.2844 738.908 99.096 739.747 98.9035 740.589C98.8434 741.099 98.7832 741.604 98.7231 742.114C98.5507 742.816 98.3783 743.518 98.2058 744.216C98.1698 744.714 98.1377 745.215 98.1016 745.713C97.6084 746.9 97.2676 748.088 98.0976 749.276C98.1256 749.476 98.1497 749.673 98.1778 749.873C98.4063 750.222 98.6349 750.571 98.8634 750.921L100.387 752.638L100.391 752.642Z" fill="#9F9F9D"/>
<path d="M99.4768 738.07C99.4928 737.508 99.5088 736.943 99.5249 736.381C99.7334 735.679 99.9419 734.981 100.15 734.278C100.094 734.062 100.038 733.841 99.982 733.625C100.102 733.047 100.223 732.469 100.343 731.891C100.491 731.683 100.636 731.478 100.784 731.269L100.595 730.567C100.664 730.11 100.728 729.653 100.796 729.199C101.057 728.317 101.361 727.446 101.55 726.547C101.634 726.146 101.494 725.697 101.453 725.267L101.646 724.349C101.714 724.124 101.782 723.903 101.846 723.679C101.947 722.611 102.051 721.544 102.151 720.477C102.781 718.266 103.547 716.084 104.008 713.837C104.477 711.558 104.645 709.219 104.942 706.908C105.042 706.607 105.138 706.306 105.239 706.005C105.343 704.902 105.447 703.803 105.547 702.699C105.736 702.286 105.92 701.869 106.109 701.456C106.117 700.966 106.129 700.477 106.137 699.987C107.143 699.586 108.19 699.269 109.144 698.771C111.261 697.668 113.988 698.816 114.998 700.043C116.429 701.785 116.478 704.497 115.158 706.146C113.398 708.348 110.94 708.79 108.522 707.401C108.089 707.153 107.516 707.149 107.043 707.036C107.043 708.91 107.027 710.467 107.043 712.023C107.063 713.801 107.797 714.824 109.14 715.012C110.371 715.185 112.047 714.005 112.44 712.673C112.564 712.244 112.704 711.807 112.733 711.365C112.821 709.889 113.494 709.66 114.669 710.382C114.004 716.324 112.295 717.416 105.499 715.959C105.499 717.207 105.519 718.403 105.495 719.598C105.467 720.934 105.307 722.274 105.371 723.606C105.415 724.573 105.583 725.857 106.911 725.693C107.885 725.572 109.036 725.055 109.661 724.328C110.652 723.181 110.078 721.327 108.727 720.541C108.579 721.014 108.35 721.468 108.302 721.937C108.222 722.76 107.781 722.96 107.079 722.792C106.325 722.611 105.996 722.206 106.253 721.368C106.606 720.232 106.854 719.061 107.139 717.937C109.693 717.147 112.769 721.095 112.063 723.594C111.265 726.411 109.212 728.016 106.923 727.659C105.339 727.41 105.247 728.541 105.239 729.632C105.215 733.837 105.227 738.046 105.223 742.251C104.625 742.303 104.032 742.355 103.434 742.411C102.833 741.853 102.592 742.086 102.572 742.804C102.372 742.913 102.171 743.021 101.971 743.129C101 742.772 100.587 743.189 100.648 744.465C100.603 744.582 100.559 744.694 100.515 744.81C100.399 745.011 100.283 745.207 100.17 745.408C100.162 746.503 100.154 747.595 100.15 748.69C99.581 749.352 99.8937 749.553 100.599 749.541L100.624 749.613C100.259 750.8 101.205 751.246 101.935 751.623C102.696 752.012 103.623 752.064 104.449 752.345C104.745 752.445 104.962 752.782 105.215 753.015C104.942 753.28 104.613 753.805 104.409 753.761C103.045 753.456 101.71 753.027 100.367 752.642C99.8577 752.068 99.3525 751.494 98.8432 750.925C98.6147 750.576 98.3861 750.227 98.1576 749.878C98.1295 749.677 98.1055 749.48 98.0774 749.28C98.0774 748.092 98.0774 746.905 98.0814 745.717C98.1175 745.219 98.1496 744.718 98.1816 744.22C99.2442 743.739 99.0156 742.941 98.6989 742.118C98.759 741.609 98.8192 741.103 98.8793 740.594C99.0678 739.751 99.2562 738.912 99.4487 738.07H99.4768ZM114.272 703.437C114.272 701.46 113.19 700.312 111.317 700.296C109.405 700.28 108.254 701.431 108.266 703.337C108.278 705.171 109.405 706.298 111.245 706.306C113.101 706.314 114.276 705.203 114.276 703.437H114.272Z" fill="#FEFEFE"/>
<path d="M118.162 712.918C118.17 712.621 118.178 712.324 118.186 712.023C118.482 711.121 118.783 710.222 119.08 709.319C120.154 710.37 121.602 711.181 121.437 713.022C121.037 712.553 120.672 712.047 120.227 711.626C120.006 711.417 119.629 711.257 119.34 711.285C119.164 711.301 118.919 711.702 118.887 711.951C118.434 715.434 118.009 718.92 117.576 722.403C117.163 722.848 116.746 723.297 116.333 723.747C116.353 723.249 116.369 722.748 116.389 722.25C116.566 721.741 116.742 721.231 116.923 720.717C116.939 719.823 116.955 718.928 116.971 718.037C117.159 717.331 117.348 716.621 117.536 715.915C117.548 715.522 117.564 715.125 117.576 714.731C117.773 714.126 117.965 713.524 118.162 712.918Z" fill="#9F9F9D"/>
<path d="M101.458 725.267C101.498 725.697 101.638 726.146 101.554 726.547C101.361 727.446 101.057 728.316 100.8 729.199C101.021 727.887 101.241 726.579 101.462 725.267H101.458Z" fill="#9F9F9D"/>
<path d="M115.074 731.085C115.219 730.443 115.367 729.801 115.511 729.155C115.367 729.797 115.219 730.439 115.074 731.085Z" fill="#9F9F9D"/>
<path d="M115.704 727.349C115.832 726.856 115.96 726.363 116.093 725.869C115.964 726.363 115.836 726.856 115.704 727.349Z" fill="#9F9F9D"/>
<path d="M100.784 731.269C100.635 731.478 100.491 731.683 100.343 731.891C100.327 731.711 100.311 731.53 100.295 731.35C100.459 731.326 100.623 731.297 100.784 731.273V731.269Z" fill="#EAEBEA"/>
<path d="M100.784 731.269C100.619 731.293 100.455 731.322 100.295 731.346C100.395 731.085 100.495 730.828 100.599 730.567C100.664 730.8 100.724 731.037 100.788 731.269H100.784Z" fill="#9F9F9D"/>
<path d="M116.181 725.34C116.061 725.227 115.936 725.115 115.816 725.003C115.968 724.866 116.117 724.73 116.269 724.593C116.241 724.842 116.213 725.091 116.185 725.34H116.181Z" fill="#9F9F9D"/>
<path d="M101.855 723.678C101.786 723.903 101.718 724.124 101.654 724.349C101.722 724.124 101.79 723.903 101.855 723.678Z" fill="#9F9F9D"/>
<path d="M285.25 753.284C285.25 749.252 285.206 745.215 285.278 741.183C285.298 740.084 285.655 738.993 285.86 737.897C281.265 737.873 276.674 737.789 272.143 736.87C271.826 737.159 271.505 737.448 271.184 737.741C272.171 737.817 273.157 737.893 274.496 737.994C274.087 739.181 273.787 740.272 273.346 741.304C272.047 744.329 269.757 745.452 266.441 745.444C231.838 745.368 197.235 745.396 162.628 745.408C162.059 745.408 161.489 745.617 160.92 745.733C160.8 745.753 160.679 745.773 160.559 745.797C160.343 745.869 160.13 745.938 159.914 746.01C159.713 745.877 159.513 745.749 159.308 745.617L158.939 745.589C158.578 745.408 158.214 745.227 157.853 745.047C157.492 744.842 157.131 744.638 156.774 744.433C156.526 744.261 156.273 744.088 156.024 743.911C155.808 743.711 155.595 743.51 155.379 743.31C155.106 742.981 154.829 742.656 154.557 742.327C154.581 742.222 154.545 742.146 154.449 742.098C154.18 742.09 153.911 742.082 153.647 742.074C153.414 741.083 153.177 740.092 152.945 739.097L152.676 738.479C152.592 738.078 152.512 737.673 152.428 737.271C149.829 736.317 148.526 734.05 147.396 731.831C145.303 727.723 143.514 723.458 141.554 719.281C140.732 717.532 139.793 715.835 138.907 714.114C137.937 711.899 136.987 709.676 135.988 707.478C134.376 703.927 132.757 700.38 131.093 696.858C129.3 693.062 127.452 689.295 125.611 685.523C125.539 685.379 125.295 685.319 125.13 685.219C124.617 683.229 124.04 681.251 123.631 679.24C123.49 678.546 123.779 677.768 123.851 677.022C123.927 676.227 123.759 675.73 122.769 675.638C121.602 675.529 120.455 675.196 119.312 674.923C116.638 674.282 113.967 673.62 111.297 672.966C111.085 673.359 110.872 673.748 110.66 674.141C110.555 674.843 110.447 675.541 110.343 676.243C110.162 676.757 109.986 677.275 109.805 677.788C109.785 678.173 109.765 678.562 109.741 678.948C109.557 679.561 109.376 680.171 109.192 680.785C109.168 681.267 109.144 681.748 109.12 682.23C109.076 682.916 109.104 683.618 108.967 684.288C108.675 685.72 108.254 687.124 107.965 688.557C107.6 690.378 107.283 692.208 106.995 694.041C106.682 696.019 106.425 698.001 106.145 699.983C107.151 699.582 108.198 699.265 109.152 698.767C111.269 697.664 113.996 698.811 115.006 700.039C116.437 701.78 116.485 704.493 115.166 706.142C113.406 708.344 110.948 708.786 108.53 707.397C108.097 707.149 107.524 707.145 107.051 707.032C107.051 708.906 107.035 710.463 107.051 712.019C107.071 713.797 107.805 714.82 109.148 715.008C110.379 715.181 112.055 714.001 112.448 712.669C112.572 712.24 112.712 711.803 112.741 711.361C112.829 709.885 113.502 709.656 114.677 710.378C114.012 716.32 112.303 717.412 105.507 715.955C105.507 717.203 105.527 718.399 105.503 719.594C105.475 720.93 105.315 722.27 105.379 723.602C105.423 724.569 105.591 725.853 106.919 725.689C107.893 725.568 109.044 725.051 109.669 724.324C110.66 723.177 110.086 721.323 108.735 720.537C108.583 721.01 108.358 721.464 108.31 721.933C108.23 722.756 107.789 722.956 107.087 722.788C106.333 722.607 106.004 722.202 106.261 721.363C106.614 720.228 106.862 719.057 107.147 717.933C109.701 717.143 112.777 721.091 112.071 723.59C111.273 726.407 109.22 728.012 106.931 727.654C105.347 727.406 105.255 728.537 105.247 729.628C105.222 733.833 105.235 738.042 105.231 742.246C106.337 742.957 107.696 743.462 108.494 744.425C110.054 746.315 109.669 748.943 107.933 750.483C106.153 752.06 103.234 752.04 101.482 750.435C101.189 750.166 100.912 749.881 100.627 749.605C100.263 750.792 101.209 751.238 101.939 751.615C102.7 752.004 103.627 752.056 104.453 752.337C104.749 752.437 104.966 752.774 105.218 753.007C104.946 753.272 104.617 753.797 104.413 753.753C103.049 753.448 101.714 753.019 100.371 752.634C101.269 753.938 104.368 755.009 105.98 754.572C109.677 753.569 111.999 750.507 112.492 746.704C112.893 743.586 113.763 740.529 114.425 737.444C114.425 737.223 114.429 737.007 114.433 736.786C114.585 735.643 114.737 734.499 114.89 733.356C114.946 732.593 115.002 731.835 115.058 731.073C115.202 730.431 115.351 729.789 115.495 729.143C115.559 728.541 115.623 727.939 115.688 727.334L116.077 725.853C116.105 725.677 116.137 725.5 116.165 725.323L115.8 724.986C115.952 724.85 116.101 724.714 116.253 724.577C116.277 724.296 116.297 724.015 116.321 723.735C116.341 723.237 116.357 722.736 116.377 722.238C115.748 721.448 116.056 720.982 116.907 720.706C116.923 719.811 116.939 718.916 116.955 718.025C116.534 717.155 116.257 716.32 117.52 715.903L117.56 714.719C117.047 713.889 117.019 713.211 118.145 712.906L118.17 712.011C117.736 710.868 117.604 709.825 119.064 709.307C120.138 710.358 121.586 711.169 121.421 713.01C121.506 713.07 121.594 713.131 121.678 713.191C121.806 713.299 121.935 713.403 122.063 713.512C122.035 713.745 122.011 713.977 121.983 714.206C122.007 714.282 122.055 714.342 122.127 714.378C122.376 714.852 122.628 715.321 122.877 715.795C122.905 715.927 122.929 716.064 122.957 716.196C123.133 716.461 123.306 716.73 123.482 716.994L123.486 717.127C123.755 717.869 123.955 718.643 124.304 719.341C126.542 723.791 128.815 728.22 131.064 732.662C131.217 732.958 131.245 733.32 131.333 733.649C131.726 734.375 132.115 735.101 132.508 735.827C132.62 735.743 132.736 735.655 132.849 735.57C133.55 737.095 134.26 738.612 134.938 740.148C134.978 740.24 134.737 740.453 134.629 740.614C135.651 742.604 136.67 744.59 137.692 746.58C138.178 747.426 138.743 748.241 139.14 749.131C140.712 752.678 143.743 754.66 147.135 755.787C151.742 757.324 156.618 757.276 161.449 757.051C161.646 757.051 161.842 757.055 162.043 757.059C162.456 757.163 162.865 757.356 163.278 757.36C168.699 757.384 174.12 757.384 179.541 757.372C179.918 757.372 180.291 757.22 180.667 757.135C182.973 757.115 185.274 757.099 187.58 757.079C189.785 757.079 191.991 757.083 194.196 757.087C208.875 757.135 223.554 757.183 238.233 757.224C238.474 757.224 238.719 757.143 238.963 757.099C242.969 757.099 246.974 757.099 250.976 757.103C251.477 756.83 251.978 756.317 252.48 756.317C256.493 756.313 260.503 756.405 264.516 756.465C267.103 756.485 269.689 756.505 272.279 756.53C272.913 756.618 273.546 756.782 274.18 756.786C278.105 756.81 282.026 756.81 285.952 756.786C286.413 756.786 286.87 756.582 287.331 756.473C285.939 756.011 285.242 754.943 285.242 753.272L285.25 753.284ZM113.579 697.592C110.736 697.552 108.542 695.365 108.558 692.585C108.571 689.82 110.732 687.674 113.506 687.67C116.269 687.67 118.462 689.905 118.474 692.745C118.486 695.245 116.085 697.624 113.579 697.588V697.592ZM165.154 756.867C165.487 756.846 165.824 756.834 166.157 756.822C165.824 756.834 165.487 756.85 165.154 756.867ZM170.78 756.782C170.01 756.786 169.24 756.782 168.47 756.786C169.24 756.786 170.01 756.786 170.78 756.782C170.695 756.682 170.611 756.534 170.527 756.421C170.611 756.534 170.7 756.682 170.78 756.782Z" fill="url(#paint0_linear_45_7747)"/>
<path d="M287.339 756.485C285.946 756.023 285.25 754.956 285.25 753.284C285.25 749.252 285.206 745.215 285.278 741.183C285.298 740.084 285.655 738.993 285.86 737.897C286.702 737.841 287.548 737.789 288.39 737.733C291.942 737.801 295.491 737.865 299.043 737.934C299.3 738.066 299.556 738.198 299.813 738.331C300.864 738.591 301.91 738.852 302.961 739.113C303.197 739.274 303.438 739.438 303.674 739.599C305.619 740.626 306.806 742.218 307.247 744.369L307.6 745.115C307.604 746.403 307.612 747.691 307.616 748.979C307.419 749.452 307.219 749.93 307.022 750.403C306.99 750.644 306.962 750.881 306.93 751.121C306.75 751.378 306.569 751.635 306.389 751.888C305.314 752.967 304.24 754.05 303.165 755.129C302.909 755.306 302.648 755.486 302.391 755.663C302.155 755.703 301.918 755.743 301.682 755.783C301.204 755.992 300.731 756.201 300.254 756.409C299.717 756.461 299.18 756.554 298.638 756.558C295.419 756.598 292.199 756.618 288.979 756.646C288.434 756.594 287.888 756.542 287.339 756.489V756.485Z" fill="#0B0D0A"/>
<path d="M288.979 756.646C292.199 756.618 295.419 756.598 298.638 756.558C299.176 756.55 299.713 756.461 300.254 756.409C300.731 756.201 301.205 755.992 301.682 755.783C301.918 755.743 302.155 755.703 302.391 755.663C302.648 755.486 302.909 755.31 303.165 755.129C304.24 754.05 305.314 752.967 306.389 751.888C306.569 751.631 306.75 751.378 306.934 751.121C306.966 750.88 306.994 750.644 307.027 750.403C307.223 749.93 307.423 749.452 307.624 748.979C307.62 747.691 307.612 746.403 307.608 745.115C307.492 744.866 307.371 744.618 307.255 744.369C306.814 742.218 305.627 740.626 303.682 739.598C303.446 739.438 303.205 739.273 302.969 739.113C301.918 738.852 300.872 738.591 299.821 738.331C299.565 738.198 299.308 738.066 299.055 737.933C295.503 737.865 291.95 737.801 288.402 737.733C289.356 735.422 291.497 734.623 293.574 733.893C298.31 732.232 302.772 733.151 306.75 735.992C309.344 737.849 310.916 740.497 311.77 743.687C313.105 748.662 311.67 752.806 308.514 756.509C306.71 758.624 304.32 759.779 301.585 760.542C297.339 761.725 293.646 760.618 290.098 758.503C289.553 758.178 289.352 757.28 288.991 756.642L288.979 756.646Z" fill="#9F9F9D"/>
<path d="M295.767 774.552C295.21 774.439 294.653 774.327 294.099 774.219C294.657 774.331 295.214 774.443 295.767 774.552Z" fill="#6E6E6E"/>
<path d="M112.199 636.464C112.315 636.5 112.436 636.532 112.552 636.568C112.56 636.68 112.62 636.736 112.732 636.728C114.449 637.435 115.531 638.819 116.634 640.231C117.247 641.017 118.105 641.611 118.855 642.289C118.434 642.582 118.013 642.875 117.592 643.164C117.777 643.477 117.961 643.79 118.145 644.103C118.145 645.19 118.145 646.277 118.145 647.364C117.961 647.778 117.773 648.187 117.584 648.6C116.838 649.992 116.197 651.457 115.307 652.753C114.605 653.776 113.354 654.43 113.27 655.866C113.161 655.858 113.057 655.846 112.953 655.834C112.544 655.633 112.123 655.232 111.73 655.26C108.963 655.461 106.201 655.75 103.438 656.007C103.21 655.962 102.981 655.918 102.757 655.87C102.576 655.718 102.42 655.465 102.215 655.421C99.8696 654.927 97.524 654.418 95.1583 654.021C94.1719 653.856 93.1415 653.952 92.131 653.932C91.8864 653.9 91.6459 653.872 91.4053 653.84C88.4542 652.64 85.443 651.754 82.1992 652.099C81.9707 652.055 81.7421 652.006 81.5136 651.962C80.5553 651.541 79.597 651.112 78.6307 650.703C77.4077 650.181 75.84 649.988 75.022 649.102C73.6467 647.613 72.7165 645.707 71.6619 643.938C71.3211 643.368 71.1768 642.678 70.9442 642.044C70.9362 641.511 70.9282 640.981 70.9202 640.448C71.5497 638.931 72.1431 637.398 72.8247 635.906C73.2016 635.083 73.7229 634.325 74.176 633.539C74.2161 633.503 74.2562 633.463 74.2923 633.422C74.3484 633.37 74.4085 633.322 74.4687 633.27C74.7253 633.033 74.9819 632.793 75.2385 632.556C76.3091 632.247 77.4037 631.99 78.4502 631.609C80.0501 631.027 81.6218 630.47 83.378 630.831C87.2473 631.633 91.1286 632.375 95.0019 633.162C97.7565 633.719 100.503 634.345 103.262 634.875C106.233 635.445 109.22 635.938 112.199 636.464Z" fill="#3A3A3A"/>
<path d="M112.199 636.464C109.22 635.938 106.233 635.445 103.262 634.875C100.499 634.345 97.7565 633.723 95.0019 633.162C91.1286 632.375 87.2473 631.633 83.378 630.831C81.6178 630.465 80.0501 631.027 78.4502 631.609C77.4037 631.99 76.3091 632.243 75.2385 632.556C76.3732 630.843 78.1214 630.217 79.9979 630.349C83.8672 630.622 87.7405 630.987 91.5737 631.569C95.5552 632.175 99.4887 633.077 103.442 633.868C105.002 634.181 106.546 634.562 108.105 634.863C108.466 634.931 108.863 634.811 109.24 634.779C110.226 635.34 111.209 635.902 112.195 636.46L112.199 636.464Z" fill="#80BA64"/>
<path d="M70.9442 642.044C71.1768 642.678 71.3211 643.368 71.662 643.938C72.7165 645.707 73.6467 647.613 75.022 649.102C75.844 649.988 77.4077 650.185 78.6307 650.702C79.597 651.112 80.5513 651.545 81.5136 651.962C80.3548 651.838 79.0918 651.97 78.0533 651.553C74.192 650 71.678 647.192 70.832 643.035C70.7678 642.722 70.9001 642.373 70.9402 642.04L70.9442 642.044Z" fill="#80BA64"/>
<path d="M92.135 653.936C93.1454 653.956 94.1759 653.86 95.1623 654.024C97.5279 654.422 99.8736 654.931 102.219 655.425C102.424 655.469 102.58 655.718 102.76 655.874C100.527 655.593 98.2858 655.381 96.0725 655.007C94.7372 654.783 93.4462 654.305 92.139 653.94L92.135 653.936Z" fill="#80BA64"/>
<path d="M103.442 656.006C106.205 655.746 108.967 655.461 111.734 655.26C112.127 655.232 112.548 655.633 112.957 655.834C112.083 656.127 110.92 655.268 110.287 656.516C108.514 656.552 106.738 656.636 104.966 656.596C104.453 656.584 103.947 656.215 103.438 656.01L103.442 656.006Z" fill="#80BA64"/>
<path d="M82.2034 652.103C85.4471 651.758 88.4584 652.644 91.4094 653.844C89.2924 653.531 87.1713 653.258 85.0662 652.889C84.0959 652.721 83.1577 652.372 82.2034 652.103Z" fill="#80BA64"/>
<path d="M74.1801 633.539C73.723 634.325 73.2017 635.083 72.8288 635.906C72.1472 637.398 71.5538 638.931 70.9242 640.448C70.4311 637.398 71.7222 635.192 74.1801 633.539Z" fill="#80BA64"/>
<path d="M74.4687 633.266C74.4085 633.318 74.3524 633.37 74.2922 633.418C74.3203 633.33 74.3764 633.278 74.4687 633.266Z" fill="#80BA64"/>
<path d="M166.233 737.127C166.249 737.292 166.265 737.456 166.281 737.62C162.913 737.653 159.549 737.709 156.181 737.689C155.7 737.689 155.218 737.296 154.737 737.083C158.566 737.099 162.4 737.115 166.229 737.127H166.233Z" fill="#9F9F9D"/>
<path d="M190.423 743.663C192.444 743.663 194.465 743.671 196.489 743.675C194.469 743.675 192.448 743.667 190.423 743.663Z" fill="#9F9F9D"/>
<path d="M154.453 742.098C154.184 742.09 153.915 742.082 153.651 742.074C153.418 741.083 153.186 740.092 152.949 739.101C153.041 739.077 153.133 739.065 153.226 739.069C153.635 740.08 154.044 741.087 154.453 742.098Z" fill="#9F9F9D"/>
<path d="M153.446 736.581C153.606 736.698 153.767 736.814 153.927 736.93C153.663 737.452 153.398 737.97 153.137 738.491C152.985 738.491 152.833 738.483 152.68 738.479C152.596 738.078 152.516 737.673 152.432 737.271C152.768 737.039 153.109 736.81 153.446 736.577V736.581Z" fill="#9F9F9D"/>
<path d="M204.701 742.796C205.138 742.676 205.579 742.555 206.016 742.431C205.579 742.551 205.138 742.672 204.701 742.796Z" fill="#9F9F9D"/>
<path d="M152.684 738.483C152.837 738.483 152.989 738.491 153.141 738.495C153.169 738.688 153.202 738.88 153.23 739.073C153.137 739.073 153.045 739.081 152.953 739.105C152.865 738.9 152.777 738.692 152.684 738.487V738.483Z" fill="#B1B0AB"/>
<path d="M207.704 742.142C208.013 742.026 208.326 741.909 208.634 741.797C208.326 741.913 208.013 742.03 207.704 742.142Z" fill="#9F9F9D"/>
<path d="M156.778 744.433C156.53 744.261 156.277 744.088 156.028 743.911C156.277 744.084 156.53 744.257 156.778 744.433Z" fill="#9F9F9D"/>
<path d="M210.11 741.492C210.323 741.392 210.535 741.296 210.744 741.195C210.531 741.296 210.319 741.392 210.11 741.492Z" fill="#9F9F9D"/>
<path d="M211.926 740.89C212.143 740.794 212.359 740.698 212.576 740.605C212.359 740.702 212.143 740.798 211.926 740.89Z" fill="#9F9F9D"/>
<path d="M160.563 745.793C160.347 745.865 160.134 745.934 159.918 746.006C159.882 745.829 159.85 745.657 159.813 745.48L160.563 745.793Z" fill="#222222"/>
<path d="M159.818 745.484C159.854 745.661 159.886 745.833 159.922 746.01C159.721 745.877 159.521 745.749 159.316 745.617C159.485 745.573 159.649 745.528 159.818 745.484Z" fill="#9F9F9D"/>
<path d="M130.784 644.283C131.077 644.191 131.369 644.098 131.658 644.006C132.259 643.97 133.001 644.147 133.446 643.862C137.139 641.507 141.036 641.29 145.23 642.197C151.121 643.473 157.083 644.427 162.993 645.615C165.724 646.165 168.574 646.57 171.084 647.689C176.032 649.892 178.867 655.405 177.648 660.825C176.562 665.668 173.446 668.713 168.727 669.92C167.035 670.354 165.098 670.306 163.362 669.993C157.231 668.885 151.133 667.585 145.026 666.321C142.155 665.728 139.228 665.282 136.469 664.344C134.797 663.774 133.458 662.293 131.87 661.407C130.688 660.749 129.344 660.38 128.069 659.886C128.619 659.746 129.172 659.605 130.042 659.385C129.797 658.053 129.617 656.604 129.256 655.204C128.595 652.612 129.413 650.325 130.539 648.083C131 647.164 131.526 646.277 131.999 645.418C131.538 644.989 131.157 644.636 130.776 644.283H130.784Z" fill="#3A3A3A"/>
<path d="M119.597 642.357C121.919 642.767 124.24 643.172 126.566 643.581C124.08 644.095 121.762 643.669 119.597 642.357Z" fill="#3A3A3A"/>
<path d="M127.781 643.649C128.366 643.814 128.955 643.974 129.541 644.139C128.807 644.508 128.169 644.524 127.781 643.649Z" fill="#3A3A3A"/>
<path d="M111.694 665.026L111.654 664.949L111.71 664.893L111.766 664.969L111.694 665.026Z" fill="#14B953"/>
<path d="M188.486 746.198C190.19 746.206 191.894 746.214 193.602 746.222C191.898 746.214 190.194 746.206 188.486 746.198Z" fill="#6E6E6E"/>
<path d="M122.143 714.391C122.392 714.864 122.644 715.333 122.893 715.807C122.644 715.333 122.392 714.86 122.143 714.391Z" fill="#D0CFCE"/>
<path d="M122.079 713.524C122.051 713.757 122.027 713.989 121.999 714.218C121.899 714.009 121.794 713.805 121.694 713.596C121.822 713.572 121.951 713.548 122.079 713.524Z" fill="#9F9F9D"/>
<path d="M122.079 713.524C121.951 713.548 121.822 713.572 121.694 713.596C121.694 713.464 121.694 713.335 121.694 713.203C121.822 713.311 121.951 713.416 122.079 713.524Z" fill="#D0CFCE"/>
<path d="M112.733 636.724C112.62 636.732 112.56 636.676 112.552 636.564C112.616 636.612 112.677 636.664 112.733 636.724Z" fill="#80BA64"/>
<path d="M237.62 647.344C239.613 647.332 241.136 648.861 241.112 650.851C241.088 652.745 239.561 654.277 237.68 654.293C235.824 654.309 234.212 652.761 234.164 650.919C234.111 648.973 235.671 647.36 237.62 647.348V647.344Z" fill="#14B953"/>
<path d="M229.208 656.363C231.201 656.343 232.724 657.864 232.712 659.858C232.7 661.752 231.18 663.284 229.292 663.308C227.444 663.332 225.812 661.78 225.763 659.942C225.711 657.984 227.255 656.384 229.212 656.363H229.208Z" fill="#14B953"/>
<path d="M100.543 744.814C100.587 744.698 100.631 744.585 100.676 744.469C101.117 744.024 101.558 743.578 101.999 743.137C102.199 743.029 102.4 742.92 102.6 742.812L103.462 742.419C104.06 742.367 104.653 742.315 105.25 742.258C106.357 742.969 107.716 743.474 108.514 744.437C110.074 746.327 109.689 748.955 107.953 750.495C106.173 752.072 103.254 752.052 101.501 750.447C101.209 750.178 100.932 749.893 100.647 749.617L100.623 749.544C100.475 749.26 100.323 748.975 100.174 748.694C100.182 747.599 100.19 746.507 100.194 745.412C100.311 745.211 100.427 745.015 100.539 744.814H100.543Z" fill="#0B0D0A"/>
<path d="M108.558 692.585C108.57 689.82 110.732 687.674 113.506 687.67C116.269 687.67 118.462 689.905 118.474 692.745C118.486 695.245 116.084 697.624 113.578 697.588C110.736 697.548 108.542 695.361 108.558 692.581V692.585ZM113.518 689.479C112.039 689.479 110.383 691.036 110.407 692.404C110.439 694.194 111.87 695.702 113.595 695.766C114.99 695.818 116.634 694.246 116.67 692.821C116.714 691.064 115.222 689.483 113.518 689.479Z" fill="#FEFEFE"/>
<path d="M119.08 709.319C118.783 710.222 118.482 711.121 118.186 712.023C117.753 710.88 117.62 709.837 119.08 709.319Z" fill="#D0CFCE"/>
<path d="M117.536 715.911C117.348 716.617 117.159 717.327 116.971 718.034C116.55 717.163 116.273 716.328 117.536 715.911Z" fill="#D0CFCE"/>
<path d="M118.161 712.918C117.965 713.524 117.773 714.126 117.576 714.732C117.063 713.901 117.035 713.223 118.161 712.918Z" fill="#D0CFCE"/>
<path d="M116.923 720.718C116.746 721.227 116.57 721.737 116.389 722.25C115.76 721.46 116.069 720.994 116.923 720.718Z" fill="#D0CFCE"/>
<path d="M98.1094 745.717C98.1094 746.904 98.1094 748.092 98.1054 749.28C97.2754 748.092 97.6162 746.904 98.1094 745.717Z" fill="#EAEBEA"/>
<path d="M99.4766 738.07C99.2881 738.912 99.0997 739.751 98.9072 740.593C99.0957 739.751 99.2841 738.912 99.4766 738.07Z" fill="#EAEBEA"/>
<path d="M98.727 742.118C99.0437 742.941 99.2723 743.739 98.2097 744.22C98.3821 743.518 98.5545 742.816 98.727 742.118Z" fill="#EAEBEA"/>
<path d="M114.272 703.437C114.272 705.207 113.101 706.318 111.241 706.306C109.405 706.298 108.274 705.171 108.262 703.337C108.25 701.427 109.401 700.28 111.313 700.296C113.186 700.312 114.268 701.459 114.268 703.437H114.272Z" fill="#EAEBEA"/>
<path d="M101.995 743.137C101.554 743.582 101.113 744.028 100.672 744.469C100.608 743.197 101.025 742.776 101.995 743.137Z" fill="#EAEBEA"/>
<path d="M103.462 742.415L102.6 742.808C102.62 742.09 102.861 741.857 103.462 742.415Z" fill="#EAEBEA"/>
<path d="M100.174 748.694C100.323 748.979 100.475 749.264 100.623 749.544C99.9178 749.556 99.605 749.356 100.174 748.694Z" fill="#EAEBEA"/>
<path d="M100.543 744.814C100.427 745.015 100.311 745.211 100.198 745.412C100.315 745.211 100.431 745.015 100.543 744.814Z" fill="#EAEBEA"/>
<path d="M307.616 748.979C307.416 749.452 307.219 749.926 307.019 750.403C307.219 749.93 307.416 749.456 307.616 748.979Z" fill="#222222"/>
<path d="M306.926 751.121C306.746 751.378 306.565 751.631 306.381 751.888C306.561 751.631 306.742 751.378 306.926 751.121Z" fill="#222222"/>
<path d="M303.161 755.129C302.905 755.306 302.644 755.482 302.387 755.663C302.644 755.486 302.905 755.31 303.161 755.129Z" fill="#222222"/>
<path d="M299.043 737.933C299.3 738.066 299.556 738.198 299.809 738.331C299.552 738.198 299.296 738.066 299.043 737.933Z" fill="#3A3A3A"/>
<path d="M307.243 744.369C307.359 744.618 307.479 744.866 307.596 745.115C307.475 744.866 307.359 744.618 307.243 744.369Z" fill="#222222"/>
<path d="M113.518 689.479C115.223 689.479 116.714 691.06 116.67 692.821C116.634 694.246 114.99 695.818 113.595 695.766C111.871 695.702 110.439 694.194 110.407 692.404C110.383 691.036 112.039 689.479 113.518 689.479Z" fill="#EAEBEA"/>
</g>
<defs>
<linearGradient id="paint0_linear_45_7747" x1="100.391" y1="715.181" x2="287.339" y2="715.181" gradientUnits="userSpaceOnUse">
<stop stop-color="white"/>
<stop offset="1"/>
</linearGradient>
<clipPath id="clip0_45_7747">
<rect width="393" height="852" fill="white"/>
</clipPath>
</defs>
</svg>
