<svg width="393" height="852" viewBox="0 0 393 852" fill="none" xmlns="http://www.w3.org/2000/svg">
<g clip-path="url(#clip0_45_7747)">
<rect width="393" height="852" fill="#E4EBF5"/>
<path d="M105.191 178.381V180.403C105.191 182.723 105.191 185.023 104.579 188.512L102.186 188.308C102.816 185.061 102.816 182.648 102.835 180.403V180.273H93.2793V178.381H105.191ZM107.084 189.551V191.499H91.6836V189.551H107.084ZM122.225 176.841V189.272H119.868V176.841H122.225ZM122.67 191.518V193.41H110.869V188.233H113.226V191.518H122.67ZM116.807 177.936V183.316H111.314V185.19C114.33 185.181 116.259 185.098 118.439 184.671L118.699 186.563C116.25 187.027 114.061 187.12 110.479 187.12H108.995V181.572H114.45V179.828H108.977V177.936H116.807ZM138.534 177.527V179.42H133.877C134.165 180.839 135.909 182.259 139.239 182.611L138.367 184.485C135.204 184.114 133.088 182.797 132.207 181.034C131.316 182.788 129.22 184.114 126.065 184.485L125.212 182.611C128.542 182.259 130.268 180.821 130.556 179.42H125.936V177.527H138.534ZM138.182 191.518V193.41H126.381V188.549H128.756V191.518H138.182ZM139.926 185.617V187.528H124.525V185.617H131.038V183.279H133.376V185.617H139.926ZM155.586 176.822V193.707H153.322V176.822H155.586ZM152.061 177.063V192.928H149.834V184.949H148.479C148.257 188.271 146.847 190.274 144.769 190.274C142.542 190.274 141.095 187.937 141.095 184.133C141.095 180.348 142.542 178.028 144.769 178.028C146.8 178.028 148.192 179.921 148.461 183.075H149.834V177.063H152.061ZM144.769 180.255C143.822 180.255 143.266 181.554 143.284 184.133C143.266 186.73 143.822 188.011 144.769 187.992C145.733 188.011 146.309 186.73 146.309 184.133C146.309 181.554 145.733 180.255 144.769 180.255ZM177.146 186.137V188.029H170.578V193.707H168.24V188.029H161.746V186.137H177.146ZM175.773 177.713V179.568H170.856C171.088 181.22 172.953 182.88 176.423 183.298L175.569 185.153C172.601 184.754 170.476 183.483 169.465 181.739C168.426 183.483 166.32 184.754 163.379 185.153L162.507 183.298C165.921 182.88 167.804 181.22 168.073 179.568H163.138V177.713H175.773ZM184.271 182.11C184.271 184.504 185.515 187.231 188.205 188.493L186.888 190.274C185.088 189.467 183.835 187.872 183.121 185.988C182.397 188.02 181.062 189.736 179.15 190.571L177.852 188.734C180.598 187.528 181.915 184.652 181.934 182.11V181.461H178.445V179.568H181.915V177.193H184.29V179.568H187.723V181.461H184.271V182.11ZM191.489 176.822V183.372H193.976V185.357H191.489V193.707H189.114V176.822H191.489ZM210.025 184.393V186.155H194.569V184.393H210.025ZM208.17 186.99V190.979H198.707V191.944H208.671V193.559H196.351V189.477H205.832V188.623H196.332V186.99H208.17ZM208.151 177.119V181.09H198.855V181.999H208.448V183.595H196.499V179.587H205.776V178.733H196.462V177.119H208.151ZM221.771 179.123C221.752 181.387 222.921 183.465 225.63 184.3L224.387 186.155C222.568 185.524 221.334 184.355 220.639 182.834C219.878 184.597 218.514 185.988 216.482 186.675L215.239 184.782C218.134 183.854 219.358 181.591 219.377 179.234V177.694H221.771V179.123ZM229.619 176.822V186.712H227.263V181.851H224.09V179.921H227.263V176.822H229.619ZM223.849 187.157C227.448 187.157 229.656 188.363 229.675 190.441C229.656 192.52 227.448 193.707 223.849 193.707C220.249 193.707 218.041 192.52 218.041 190.441C218.041 188.363 220.249 187.157 223.849 187.157ZM223.849 188.994C221.604 188.994 220.397 189.477 220.397 190.441C220.397 191.369 221.604 191.87 223.849 191.87C226.094 191.87 227.318 191.369 227.318 190.441C227.318 189.477 226.094 188.994 223.849 188.994ZM239.416 187.343C243.108 187.343 245.428 188.512 245.446 190.534C245.428 192.52 243.108 193.707 239.416 193.707C235.761 193.707 233.404 192.52 233.404 190.534C233.404 188.512 235.761 187.343 239.416 187.343ZM239.416 189.105C237.097 189.105 235.761 189.588 235.761 190.534C235.761 191.443 237.097 191.907 239.416 191.907C241.735 191.907 243.09 191.443 243.09 190.534C243.09 189.588 241.735 189.105 239.416 189.105ZM245.354 177.583V178.956C245.354 180.292 245.354 181.739 244.871 183.483L242.552 183.261C242.923 181.73 242.969 180.589 242.997 179.438H233.571V177.583H245.354ZM247.172 184.355V186.267H231.846V184.355H237.598V181.405H239.936V184.355H247.172ZM262.739 176.841V187.231H260.494V183.075H259.177V187.046H256.969V177.063H259.177V181.164H260.494V176.841H262.739ZM256.431 178.437V180.311H248.137V178.437H251.124V176.915H253.48V178.437H256.431ZM252.312 180.849C254.464 180.849 255.985 182.036 256.004 183.799C255.985 185.524 254.464 186.749 252.312 186.749C250.196 186.749 248.656 185.524 248.656 183.799C248.656 182.036 250.196 180.849 252.312 180.849ZM252.312 182.537C251.384 182.537 250.771 182.964 250.771 183.799C250.771 184.597 251.384 185.042 252.312 185.042C253.239 185.042 253.852 184.597 253.87 183.799C253.852 182.964 253.239 182.537 252.312 182.537ZM254.705 188.104C254.687 189.337 255.234 190.608 256.579 191.443C257.915 190.562 258.509 189.226 258.527 188.104V187.751H260.884V188.104C260.865 189.681 261.812 191.165 264.057 191.74L262.962 193.503C261.329 193.011 260.253 192.028 259.678 190.775C259.121 192.019 258.147 193.113 256.616 193.67C255.039 193.123 254.046 192.093 253.518 190.85C252.896 192.037 251.838 193.002 250.289 193.503L249.176 191.74C251.365 191.109 252.349 189.588 252.349 188.104V187.751H254.705V188.104ZM269.308 178.01C271.59 178.01 273.288 179.893 273.631 182.927H276.562V176.822H278.9V193.744H276.562V184.819H273.649C273.399 188.066 271.664 190.052 269.308 190.052C266.747 190.052 264.91 187.732 264.929 184.021C264.91 180.348 266.747 178.01 269.308 178.01ZM269.308 180.144C268.046 180.144 267.174 181.517 267.192 184.021C267.174 186.545 268.046 187.899 269.308 187.899C270.588 187.899 271.423 186.545 271.423 184.021C271.423 181.517 270.588 180.144 269.308 180.144ZM296.527 189.792V191.74H281.071V189.792H284.522V185.654C283.214 184.875 282.426 183.678 282.426 182.185C282.426 179.457 285.098 177.639 288.771 177.639C292.427 177.639 295.117 179.457 295.136 182.185C295.126 183.641 294.356 184.829 293.095 185.617V189.792H296.527ZM288.771 179.513C286.359 179.513 284.764 180.478 284.764 182.185C284.764 183.836 286.359 184.856 288.771 184.856C291.165 184.856 292.779 183.836 292.798 182.185C292.779 180.478 291.165 179.513 288.771 179.513ZM286.86 189.792H290.701V186.508C290.098 186.628 289.449 186.693 288.771 186.693C288.094 186.693 287.454 186.638 286.86 186.508V189.792ZM301.333 178.566L301.092 187.974H298.717L298.476 178.566H301.333ZM299.923 192.167C299.051 192.167 298.346 191.462 298.364 190.608C298.346 189.755 299.051 189.068 299.923 189.068C300.739 189.068 301.463 189.755 301.463 190.608C301.463 191.462 300.739 192.167 299.923 192.167ZM82.1465 202.476C82.1465 204.517 83.334 206.483 86.0059 207.318L84.7441 209.155C82.9536 208.562 81.7012 207.411 80.9775 205.927C80.2446 207.634 78.9365 208.97 77.0068 209.619L75.7266 207.764C78.5469 206.817 79.7529 204.572 79.7715 202.253V200.713H82.1465V202.476ZM89.3828 199.822V203.774H91.665V205.741H89.3828V209.842H87.0078V199.822H89.3828ZM83.8535 210.176C87.3418 210.176 89.5498 211.382 89.5498 213.441C89.5498 215.52 87.3418 216.707 83.8535 216.707C80.291 216.707 78.0645 215.52 78.0645 213.441C78.0645 211.382 80.291 210.176 83.8535 210.176ZM83.8535 212.031C81.627 212.031 80.4209 212.514 80.4395 213.441C80.4209 214.406 81.627 214.852 83.8535 214.852C86.043 214.852 87.2119 214.406 87.2119 213.441C87.2119 212.514 86.043 212.031 83.8535 212.031ZM98.6416 204.424C98.623 207.003 99.9961 209.972 102.779 211.252L101.462 213.107C99.5786 212.245 98.2334 210.519 97.4912 208.487C96.7305 210.723 95.3481 212.616 93.3906 213.534L92.0176 211.66C94.8379 210.343 96.248 207.207 96.2666 204.424V203.385H92.6855V201.455H102.037V203.385H98.6416V204.424ZM105.729 199.822V206.261H108.216V208.246H105.729V216.707H103.354V199.822H105.729ZM124.266 207.393V209.155H108.81V207.393H124.266ZM122.41 209.99V213.979H112.947V214.944H122.911V216.559H110.591V212.477H120.072V211.623H110.572V209.99H122.41ZM122.392 200.119V204.09H113.096V204.999H122.688V206.595H110.739V202.587H120.017V201.733H110.702V200.119H122.392ZM143.878 199.822V216.744H141.54V207.689H138.571V205.778H141.54V199.822H143.878ZM138.293 201.232V203.144H132.764V205.945H137.681V207.801H132.764V210.992C135.102 210.974 136.976 210.89 139.072 210.565L139.313 212.458C136.846 212.829 134.638 212.922 131.743 212.922H130.407V201.232H138.293ZM160.169 199.822V216.707H157.794V199.822H160.169ZM152.654 205.11C152.654 207.56 154.046 210.324 156.848 211.475L155.567 213.293C153.647 212.504 152.274 210.89 151.504 208.951C150.752 211.011 149.37 212.736 147.403 213.553L146.142 211.734C148.925 210.528 150.298 207.689 150.298 205.11V204.461H146.698V202.568H150.279V200.193H152.636V202.568H156.161V204.461H152.654V205.11ZM170.615 202.401V204.275H162.451V202.401H165.383V200.286H167.721V202.401H170.615ZM166.57 205.036C168.723 205.036 170.263 206.706 170.281 209.044C170.263 211.4 168.723 213.07 166.57 213.07C164.418 213.07 162.841 211.4 162.841 209.044C162.841 206.706 164.418 205.036 166.57 205.036ZM166.57 207.003C165.587 207.003 164.919 207.764 164.919 209.044C164.919 210.324 165.587 211.066 166.57 211.066C167.517 211.066 168.185 210.324 168.203 209.044C168.185 207.764 167.517 207.003 166.57 207.003ZM177.072 199.822V216.707H174.827V208.58H173.454V215.983H171.246V200.156H173.454V206.688H174.827V199.822H177.072ZM189.597 202.717C189.597 204.906 190.766 207.077 193.456 207.968L192.176 209.823C190.385 209.165 189.151 207.921 188.446 206.354C187.713 208.116 186.396 209.508 184.438 210.213L183.158 208.357C185.979 207.43 187.203 205.11 187.203 202.698V200.861H189.597V202.717ZM197.501 199.841V212.31H195.145V205.333H191.972V203.422H195.145V199.841H197.501ZM197.854 214.518V216.41H186.257V210.992H188.65V214.518H197.854ZM215.091 206.521V208.395H208.56V209.471H213.217V213.794H203.81V214.814H213.662V216.596H201.49V212.124H210.879V211.252H201.472V209.471H206.185V208.395H199.69V206.521H215.091ZM213.143 200.305V205.63H201.602V200.305H213.143ZM203.921 202.142V203.812H210.786V202.142H203.921ZM223.812 200.063C227.689 200.063 229.935 201.084 229.953 202.939C229.935 204.813 227.689 205.834 223.812 205.834C219.915 205.834 217.651 204.813 217.651 202.939C217.651 201.084 219.915 200.063 223.812 200.063ZM223.812 201.789C221.325 201.789 220.119 202.197 220.138 202.939C220.119 203.774 221.325 204.09 223.812 204.09C226.316 204.09 227.504 203.774 227.504 202.939C227.504 202.197 226.316 201.789 223.812 201.789ZM231.512 206.632V208.506H216.111V206.632H231.512ZM229.638 209.489V213.794H220.23V214.814H230.083V216.596H217.911V212.143H227.3V211.215H217.893V209.489H229.638ZM245.873 201.14C245.873 203.125 247.896 205.333 251.773 205.815L250.846 207.727C247.896 207.3 245.734 205.936 244.63 204.108C243.517 205.936 241.374 207.3 238.451 207.727L237.505 205.815C241.346 205.333 243.387 203.125 243.387 201.14V200.323H245.873V201.14ZM252.312 209.007V210.937H245.743V216.707H243.405V210.937H236.911V209.007H252.312ZM261.44 200.694V205.945H256.338V207.634C258.852 207.615 260.336 207.541 262.053 207.244L262.275 209.137C260.309 209.489 258.527 209.563 255.262 209.563H254V204.164H259.084V202.605H253.963V200.694H261.44ZM267.563 199.841V210.102H265.188V207.467H262.424V205.574H265.188V203.997H262.424V202.086H265.188V199.841H267.563ZM261.83 210.38C265.43 210.38 267.638 211.567 267.656 213.59C267.638 215.612 265.43 216.763 261.83 216.763C258.193 216.763 255.985 215.612 255.985 213.59C255.985 211.567 258.193 210.38 261.83 210.38ZM261.83 212.18C259.548 212.18 258.379 212.625 258.397 213.59C258.379 214.518 259.548 214.963 261.83 214.963C264.075 214.963 265.3 214.518 265.3 213.59C265.3 212.625 264.075 212.18 261.83 212.18ZM283.075 199.822V206.428H285.562V208.376H283.075V216.707H280.737V199.822H283.075ZM279.587 202.346V204.238H269.66V202.346H273.482V200.082H275.857V202.346H279.587ZM274.67 205.185C277.138 205.185 278.975 206.854 278.975 209.211C278.975 211.567 277.138 213.237 274.67 213.237C272.184 213.237 270.347 211.567 270.347 209.211C270.347 206.854 272.184 205.185 274.67 205.185ZM274.67 207.096C273.482 207.114 272.61 207.912 272.61 209.211C272.61 210.528 273.482 211.308 274.67 211.289C275.857 211.308 276.711 210.528 276.711 209.211C276.711 207.912 275.857 207.114 274.67 207.096ZM291.592 204.071C291.592 206.799 292.353 209.619 294.653 211.104L293.373 212.94C291.917 212.059 290.989 210.612 290.46 208.877C289.848 210.788 288.836 212.384 287.306 213.312L285.858 211.567C288.363 210.009 289.291 207.04 289.291 204.183V201.27H291.592V204.071ZM300.813 199.822V216.707H298.55V199.822H300.813ZM297.27 200.063V215.928H295.062V207.448H292.872V205.519H295.062V200.063H297.27ZM318.051 212.792V214.74H302.595V212.792H306.046V208.654C304.738 207.875 303.949 206.678 303.949 205.185C303.949 202.457 306.621 200.639 310.295 200.639C313.95 200.639 316.641 202.457 316.659 205.185C316.65 206.641 315.88 207.829 314.618 208.617V212.792H318.051ZM310.295 202.513C307.883 202.513 306.287 203.478 306.287 205.185C306.287 206.836 307.883 207.856 310.295 207.856C312.688 207.856 314.303 206.836 314.321 205.185C314.303 203.478 312.688 202.513 310.295 202.513ZM308.384 212.792H312.225V209.508C311.622 209.628 310.972 209.693 310.295 209.693C309.618 209.693 308.978 209.638 308.384 209.508V212.792Z" fill="#12BA54"/>
<ellipse cx="197" cy="836" rx="251" ry="86" fill="#12BA54"/>
<g clip-path="url(#clip1_45_7747)">
<path d="M105.699 607.465C105.134 606.041 104.546 604.623 104.009 603.188C100.876 594.783 101.01 586.388 104.494 578.159C105.637 575.454 107.585 573.104 108.876 570.448C109.864 568.422 110.553 566.21 111.097 564.011C112.401 558.754 114.501 553.803 117.138 549.134C119.623 544.73 122.222 540.289 125.437 536.415C131.913 528.615 138.887 521.249 148.408 516.965C149.61 516.425 150.725 515.692 151.882 515.046C152.825 514.894 153.806 514.86 154.704 514.571C159.586 513.009 164.584 512.104 169.703 512.028C181.779 511.846 193.104 514.781 203.848 520.244C212.023 524.404 219.338 529.647 224.691 537.141C227.259 540.736 228.918 544.961 231.163 548.804C234.998 555.369 237.294 562.446 238.295 569.929C238.877 574.285 239.294 578.685 239.39 583.072C239.473 586.873 239.108 590.699 238.75 594.498C238.22 600.078 237.273 605.586 235.19 610.847C234.984 611.37 235.163 612.282 235.517 612.75C238.519 616.727 240.746 621.107 242.154 625.851C245.39 636.754 245.335 647.836 243.507 658.956C243.321 660.095 243.634 660.569 244.495 661.158C246.805 662.727 249.17 664.258 251.28 666.078C256.757 670.805 261.125 676.489 264.275 682.967C266.864 688.286 269.122 693.791 271.108 699.361C271.986 701.828 272.736 704.075 274.929 705.709C277.796 707.842 280.254 710.412 283.79 711.727C289.68 713.915 295.401 716.564 301.177 719.062C301.576 719.234 301.831 719.746 302.151 720.101C301.638 720.059 301.101 720.101 300.619 719.96C293.497 717.864 286.833 719.272 280.464 722.654C275.511 725.282 271.975 729.356 269.194 734.145C264.912 733.006 260.612 731.922 256.347 730.718C252.023 729.493 247.8 727.842 243.418 726.927C235.944 725.365 228.991 722.722 222.739 718.343C219.755 716.251 216.908 713.97 213.996 711.775C213.534 710.137 213.214 708.444 212.581 706.875C210.433 701.529 206.577 697.593 201.81 694.534C192.763 688.727 183.059 685.782 172.174 687.629C159.93 689.707 149.864 701.229 149.82 713.591C149.809 716.316 150.188 719.041 150.384 721.769C148.298 721.398 146.216 721.03 144.129 720.658C142.556 720.094 140.983 719.533 139.413 718.969C138.945 717.926 138.487 716.88 138.009 715.845C135.937 711.365 133.868 706.886 131.785 702.416C129.527 697.572 127.221 692.749 125.004 687.887C124.209 686.143 123.234 684.35 123.031 682.506C122.832 680.71 123.482 678.811 123.816 676.967C124.419 673.619 125.1 670.285 125.678 666.934C126.295 663.363 126.821 659.778 127.396 656.196C127.816 653.589 128.246 650.981 128.67 648.373C129.527 643.405 130.388 638.44 131.248 633.458C132.598 633.63 133.665 633.764 134.728 633.902C137.661 637.294 141.517 638.677 145.84 639.3C149.111 639.771 152.329 640.614 155.568 641.289C155.854 642.09 156.102 642.906 156.429 643.69C158.966 649.804 162.973 654.979 166.963 660.167L167.717 661.192C167.927 661.416 168.14 661.639 168.35 661.866C168.46 662.293 168.436 662.847 168.701 663.119C170.333 664.801 171.927 666.542 173.723 668.035C177.548 671.207 181.916 673.427 186.77 674.51C189.025 675.013 191.386 675.243 193.693 675.226C195.479 675.212 197.321 674.799 199.035 674.252C202.887 673.021 206.481 671.287 208.739 667.681C211.855 662.702 212.254 657.184 211.593 651.572C210.629 643.398 207.565 635.966 202.959 629.171C202.45 628.418 201.641 627.867 200.97 627.22C200.808 627.062 200.608 626.928 200.488 626.742C196.512 620.608 191.121 616.2 184.357 613.438C183.892 613.248 183.441 612.753 183.218 612.285C181.407 608.476 178.419 605.927 174.656 604.224C168.873 601.609 162.904 601.52 156.908 603.257C150.883 605.002 146.994 608.934 145.469 615.089C142.195 615.21 139.162 616.004 136.611 618.196C136.46 618.327 136.178 618.313 135.957 618.364C135.117 618.296 134.25 618.33 133.438 618.144C129.472 617.226 125.52 616.252 121.561 615.296C120.346 613.909 119.148 612.512 117.909 611.15C117.427 610.62 116.859 610.173 116.329 609.687C116.721 609.746 117.128 609.756 117.499 609.87C120.642 610.85 123.792 611.191 127.121 610.782C138.649 609.361 146.925 597.663 144.477 586.323C142.136 575.489 131.844 568.401 121.3 570.125C113.468 571.405 107.943 575.705 105.134 583.082C102.171 590.868 103.606 598.12 109.196 604.258C111.179 606.433 113.94 607.898 116.346 609.691C112.801 608.955 109.255 608.215 105.713 607.479L105.699 607.465ZM162.701 589.22C164.309 587.475 166.343 587.438 168.274 588.821C168.784 589.185 169.248 589.619 169.727 590.025C172.563 592.426 175.417 592.316 178.143 589.739C178.884 589.041 179.72 588.446 180.581 587.747V585.552C179.094 586.681 177.899 587.51 176.791 588.442C174.842 590.083 173.076 590.197 171.052 588.687C170.412 588.208 169.806 587.678 169.186 587.173C167.696 585.955 165.951 585.597 164.188 586.172C163.1 586.526 162.085 587.286 161.207 588.06C158.791 590.183 156.966 590.293 154.525 588.274C154.085 587.909 153.72 587.414 153.228 587.159C152.174 586.615 151.059 586.196 149.803 585.652V587.61C150.677 588.071 151.414 588.459 152.147 588.852C148.185 591.181 160.605 591.508 162.704 589.227L162.701 589.22ZM229.17 595.901C228.801 584.283 220.275 575.334 208.488 575.361C196.777 575.389 188.047 584.265 187.989 595.833C187.927 607.547 197.073 616.472 208.505 616.489C219.944 616.507 228.839 607.63 229.17 595.901ZM186.546 566.289C182.987 566.285 180.068 569.096 180.006 572.592C179.94 576.156 182.873 579.077 186.519 579.081C190.161 579.081 193.138 576.142 193.063 572.623C192.987 569.11 190.088 566.292 186.55 566.289H186.546ZM148.505 565.257C144.832 565.219 141.854 568.047 141.827 571.597C141.799 575.093 144.687 578.014 148.209 578.048C151.923 578.086 154.828 575.334 154.887 571.725C154.942 568.274 151.999 565.291 148.505 565.257Z" fill="#E3F9B8"/>
<path d="M302.144 720.094C301.824 719.74 301.569 719.23 301.17 719.055C295.394 716.557 289.673 713.911 283.783 711.72C280.247 710.405 277.79 707.835 274.922 705.702C272.726 704.068 271.979 701.825 271.101 699.354C269.118 693.784 266.857 688.279 264.268 682.96C261.118 676.485 256.75 670.798 251.273 666.071C249.166 664.251 246.801 662.72 244.488 661.151C243.624 660.566 243.311 660.088 243.5 658.949C245.328 647.829 245.383 636.751 242.147 625.844C240.739 621.1 238.512 616.72 235.511 612.743C235.159 612.275 234.977 611.363 235.184 610.84C237.266 605.58 238.216 600.075 238.743 594.491C239.104 590.692 239.466 586.867 239.383 583.065C239.287 578.678 238.874 574.278 238.289 569.922C237.287 562.439 234.991 555.362 231.156 548.797C228.912 544.958 227.252 540.729 224.684 537.134C219.331 529.64 212.016 524.397 203.841 520.237C193.094 514.77 181.772 511.839 169.696 512.021C164.577 512.097 159.579 513.005 154.698 514.564C153.799 514.853 152.818 514.887 151.875 515.039C150.952 506.372 157.128 499.264 164.419 496.315C172.016 493.24 179.779 493.37 187.441 495.803C191.331 497.038 195.152 498.748 198.674 500.809C203.221 503.472 206.567 507.28 206.736 513.264C207.342 512.93 207.772 512.727 208.164 512.469C214.467 508.323 221.28 507.783 227.992 510.759C237.958 515.176 243.851 523.238 246.326 533.741C247.473 538.61 246.464 543.162 242.984 547.118C251.514 552.953 255.445 561.328 256.306 571.226C257.142 580.835 256.461 590.132 249.036 597.016C251.369 599.101 253.931 601.021 256.024 603.357C258.629 606.264 259.507 610.001 259.769 613.833C260.258 621.003 258.671 627.585 254.048 633.265C253.91 633.434 253.838 633.658 253.669 633.981C259.951 636.864 263.944 641.526 264.998 648.445C265.993 654.982 264.974 661.189 261.958 666.649C264.932 667.998 268.02 668.971 270.63 670.674C275.793 674.043 277.982 679.245 278.365 685.266C278.74 691.187 277.597 696.767 274.488 701.883C274.347 702.117 274.237 702.375 273.934 702.977C275.469 702.165 276.643 701.412 277.917 700.896C284.13 698.37 290.251 698.893 296.168 701.821C302.351 704.883 307.576 709.06 310.585 715.47C311.907 718.288 312.396 721.26 310.812 724.216C307.917 722.839 305.026 721.463 302.131 720.087L302.144 720.094Z" fill="#57B761"/>
<path d="M128.663 648.359C128.24 650.967 127.809 653.575 127.389 656.183C126.815 659.761 126.288 663.349 125.672 666.921C125.093 670.272 124.412 673.605 123.809 676.953C123.479 678.797 122.828 680.696 123.025 682.492C123.228 684.34 124.202 686.129 124.997 687.873C127.214 692.735 129.52 697.558 131.778 702.403C133.861 706.875 135.933 711.355 138.002 715.831C138.481 716.867 138.939 717.913 139.407 718.955C139.988 720.39 140.567 721.824 141.149 723.259C141.94 725.031 142.736 726.803 143.527 728.578C142.529 730.78 141.717 732.979 142.295 735.497C143.29 739.815 146.371 742.075 150.133 743.703C155.507 746.025 161.211 746.782 166.984 747.188C176.374 747.845 185.717 747.683 194.911 745.358C207.91 745.371 220.908 745.389 233.91 745.395C243.359 745.402 252.809 745.413 262.258 745.389C267.177 745.375 270.664 741.986 270.764 737.204C275.308 737.152 279.848 737.1 284.392 737.049C286.33 737.097 288.268 737.118 290.203 737.197C292.361 737.286 294.547 737.248 296.671 737.582C300.454 738.174 303.38 741.191 304 745.392C304.523 748.956 303.184 751.95 300.22 754.169C298.241 755.652 295.962 756.013 293.614 756.099C290.65 756.209 287.687 756.212 284.719 756.261C279.27 756.219 273.821 756.175 268.371 756.133C268.031 756.12 267.693 756.102 267.353 756.089C266.609 756.102 265.865 756.13 265.118 756.13C226.963 756.13 188.808 756.102 150.656 756.14C142.729 756.147 137.641 752.07 134.243 745.333C131.606 740.104 128.994 734.864 126.377 729.624C125.895 728.657 125.455 727.666 124.994 726.689C124.904 726.177 124.921 725.612 124.708 725.158C122.952 721.446 121.179 717.741 119.355 714.059C118.539 712.411 117.603 710.825 116.722 709.208C116.556 709.225 116.391 709.239 116.222 709.256C115.944 710.023 115.561 710.773 115.403 711.565C114.901 714.076 114.446 716.598 114.04 719.127C113.882 720.121 113.892 721.143 113.823 722.151C113.586 723.424 113.321 724.69 113.117 725.967C112.539 729.603 111.988 733.243 111.427 736.88C111.255 737.235 110.99 737.575 110.925 737.95C110.419 740.864 109.902 743.778 109.479 746.71C108.856 751.017 106.319 753.863 102.821 754.055C97.372 754.355 93.8023 750.109 94.8557 744.731C95.5545 741.167 96.0536 737.561 96.6423 733.973C97.5028 729.063 98.3634 724.157 99.224 719.247C99.5373 718.408 99.9538 717.589 100.14 716.722C100.518 714.947 100.77 713.141 101.079 711.351C101.579 708.492 102.074 705.637 102.587 702.781C103.248 699.093 103.974 695.415 104.573 691.716C104.814 690.234 105.765 688.575 103.988 687.33C103.988 687.227 104.005 687.127 104.036 687.027C104.47 686.628 105.172 686.294 105.289 685.816C105.572 684.67 105.396 683.401 105.747 682.289C106.191 680.899 105.407 678.684 107.954 678.598C108.305 676.771 108.629 675.051 108.969 673.33C109.413 671.097 109.906 668.871 110.308 666.628C110.677 664.571 110.694 662.413 111.338 660.456C112.274 657.614 112.543 654.71 112.952 651.793C113.238 649.752 113.864 647.757 114.336 645.744C116.336 646.136 118.333 646.553 120.339 646.917C123.107 647.42 125.882 647.881 128.653 648.362L128.663 648.359ZM298.84 746.71C298.833 744.177 296.795 742.196 294.224 742.223C291.669 742.251 289.628 744.312 289.683 746.806C289.738 749.242 291.752 751.186 294.237 751.203C296.816 751.224 298.847 749.238 298.84 746.71ZM101.771 742.051C99.2068 742.086 97.224 744.122 97.2825 746.665C97.3411 749.135 99.3204 751.041 101.826 751.041C104.405 751.041 106.443 749.042 106.429 746.527C106.415 744.036 104.315 742.02 101.771 742.051Z" fill="#CBF8A6"/>
<path d="M99.2378 719.251C98.3773 724.161 97.5167 729.067 96.6561 733.976C90.5252 736.134 86.8419 742.956 88.2911 749.469C89.6199 755.435 95.076 760.001 101.159 760.228C107.596 760.468 113.307 756.471 115.121 750.457C116.615 745.499 115.004 739.557 111.441 736.884C112.002 733.247 112.553 729.607 113.131 725.97C113.334 724.694 113.599 723.428 113.837 722.155C114.47 722.33 115.214 722.347 115.716 722.705C117.792 724.174 119.796 725.743 121.827 727.278C129.823 736.048 132.075 745.991 127.606 757.107C123.513 767.288 113.417 773.611 102.446 773.986C91.1448 774.372 80.2085 767.164 75.9675 756.949C70.5044 743.796 76.3909 728.131 89.2584 721.966C89.761 721.725 90.2154 721.388 90.6905 721.092C91.1793 720.982 91.6715 720.868 92.1603 720.765C94.5184 720.259 96.8798 719.753 99.2378 719.251Z" fill="#383838"/>
<path d="M268.375 756.133C273.824 756.175 279.273 756.219 284.723 756.261C285.022 756.598 285.284 756.987 285.631 757.265C291.366 761.824 300.268 760.978 304.864 755.449C309.831 749.472 309.129 741.188 303.222 736.106C297.852 731.485 288.867 731.936 284.395 737.049C279.852 737.1 275.311 737.152 270.767 737.204C269.821 737.176 268.874 737.152 267.931 737.124C268.351 736.127 268.771 735.129 269.187 734.135C271.965 729.345 275.5 725.272 280.457 722.643C286.826 719.265 293.49 717.854 300.612 719.949C301.094 720.09 301.631 720.049 302.144 720.09C305.039 721.467 307.931 722.843 310.826 724.219C310.919 724.295 311.012 724.374 311.108 724.45C312.141 725.382 313.201 726.287 314.196 727.257C317.243 730.212 319.229 733.849 320.843 737.72C322.23 742.351 322.554 747.064 321.683 751.812C319.38 764.37 307.855 773.783 295.07 773.941C283.036 774.093 274.633 768.43 268.819 758.301C268.567 757.864 268.464 757.344 268.292 756.863C268.32 756.618 268.347 756.374 268.378 756.13L268.375 756.133Z" fill="#383838"/>
<path d="M116.322 609.67C116.852 610.155 117.42 610.606 117.902 611.133C119.141 612.495 120.339 613.895 121.554 615.282C121.575 615.736 121.534 616.204 121.623 616.644C122.487 620.89 121.606 624.54 118.129 627.389C117.634 627.795 117.358 628.469 116.98 629.016C116.367 629.092 115.758 629.185 115.145 629.247C113.117 629.45 111.086 629.825 109.066 629.78C107.262 629.742 105.465 629.243 103.665 628.948C102.628 628.703 101.599 628.425 100.556 628.222C94.6249 627.076 88.6455 626.137 82.7728 624.75C77.8605 623.594 75.1996 619.81 74.9311 615.089C74.6626 610.414 77.5025 606.364 81.9157 604.792C84.6936 603.801 87.4131 604.162 90.1877 604.671C95.1171 605.576 100.053 606.426 104.986 607.3C105.224 607.355 105.465 607.41 105.702 607.465C109.248 608.201 112.794 608.941 116.339 609.677L116.326 609.67H116.322Z" fill="#363736"/>
<path d="M104.983 607.3C100.05 606.426 95.1102 605.58 90.1842 604.671C87.4097 604.162 84.6902 603.801 81.9122 604.792C77.4991 606.367 74.6591 610.414 74.9276 615.089C75.1996 619.81 77.8605 623.594 82.7694 624.75C88.642 626.133 94.6214 627.073 100.553 628.222C101.596 628.425 102.625 628.703 103.661 628.948C100.205 638.347 98.4321 648.063 98.1223 658.061C96.1326 656.114 93.957 654.318 92.1911 652.185C89.2754 648.665 86.6523 644.908 83.8399 641.299C83.3477 640.666 82.6144 640.043 81.8709 639.806C73.7848 637.236 69.8915 631.452 69.0997 623.288C68.277 614.835 72.7245 606.956 80.4767 603.526C86.284 600.956 92.2393 601.503 98.0225 603.687C100.449 604.606 102.67 606.078 104.983 607.296V607.3Z" fill="#57B660"/>
<path d="M98.1223 658.058C98.4321 648.06 100.208 638.344 103.661 628.944C105.461 629.24 107.255 629.742 109.062 629.777C111.083 629.818 113.114 629.443 115.141 629.243C115.754 629.181 116.363 629.092 116.976 629.013C116.522 631.851 116.057 634.686 115.61 637.525C115.179 640.263 114.766 643.002 114.346 645.741C113.871 647.757 113.248 649.749 112.962 651.789C112.553 654.703 112.284 657.611 111.348 660.452C110.704 662.41 110.687 664.571 110.319 666.625C109.916 668.864 109.424 671.09 108.98 673.327C108.639 675.047 108.315 676.771 107.964 678.594C105.417 678.684 106.202 680.896 105.757 682.286C105.403 683.397 105.582 684.667 105.3 685.812C105.183 686.291 104.484 686.624 104.047 687.024C102.387 681.457 100.411 675.959 99.1722 670.303C98.3013 666.332 98.4356 662.145 98.1223 658.054V658.058Z" fill="#E3F9B8"/>
<path d="M99.2377 719.251C96.8762 719.757 94.5182 720.259 92.1602 720.765C91.6679 720.871 91.1791 720.982 90.6903 721.092C85.1447 715.7 84.439 706.934 89.0827 700.755C91.4614 697.586 94.4322 695.099 98.0535 693.478C99.6818 692.749 100.942 691.775 101.819 690.182C102.391 689.146 103.265 688.276 104.005 687.333C105.782 688.579 104.828 690.237 104.591 691.72C103.992 695.418 103.269 699.096 102.604 702.785C102.091 705.64 101.596 708.496 101.097 711.355C100.783 713.147 100.535 714.95 100.157 716.726C99.9709 717.593 99.5544 718.411 99.2411 719.251H99.2377Z" fill="#57B761"/>
<path d="M121.826 727.274C119.795 725.74 117.792 724.171 115.716 722.702C115.214 722.344 114.47 722.327 113.837 722.151C113.906 721.143 113.892 720.121 114.054 719.127C114.46 716.598 114.911 714.076 115.417 711.565C115.575 710.774 115.957 710.024 116.236 709.256C116.401 709.239 116.566 709.225 116.735 709.208C117.616 710.822 118.553 712.411 119.369 714.059C121.19 717.741 122.966 721.446 124.721 725.158C124.935 725.613 124.918 726.177 125.007 726.689C123.947 726.886 122.89 727.078 121.83 727.274H121.826Z" fill="#57B660"/>
<path d="M320.84 737.723C319.229 733.853 317.239 730.216 314.193 727.26C313.195 726.294 312.134 725.389 311.105 724.453C313.077 725.643 315.053 726.827 317.016 728.028C318.317 728.822 319.604 729.634 320.888 730.457C321.367 730.759 321.855 731.062 322.272 731.441C324.713 733.677 324.592 734.475 321.745 736.244C321.305 736.515 321.136 737.221 320.84 737.723Z" fill="#E3F9B8"/>
<path d="M268.375 756.133C268.347 756.378 268.32 756.622 268.289 756.866C267.979 756.608 267.666 756.347 267.356 756.089C267.697 756.102 268.034 756.12 268.375 756.133Z" fill="#A2A2A1"/>
<path d="M194.918 745.358C185.72 747.683 176.381 747.849 166.987 747.188C161.214 746.782 155.51 746.025 150.136 743.703C146.374 742.075 143.293 739.815 142.298 735.497C141.716 732.979 142.532 730.78 143.531 728.578C145.758 726.772 148.006 724.993 150.181 723.128C150.446 722.901 150.326 722.224 150.381 721.752C150.181 719.027 149.806 716.299 149.816 713.574C149.861 701.212 159.927 689.693 172.171 687.612C183.056 685.764 192.763 688.706 201.806 694.517C206.571 697.579 210.426 701.512 212.577 706.858C213.207 708.427 213.528 710.12 213.992 711.758C214.192 717.197 213.349 722.409 210.708 727.257C210.443 727.742 210.44 728.592 210.684 729.091C211.786 731.365 211.459 733.498 210.326 735.621C210.061 736.113 209.824 736.619 209.572 737.121C208.443 738.081 207.338 739.068 206.182 739.994C202.853 742.664 198.811 743.851 194.922 745.351L194.918 745.358Z" fill="#57B660"/>
<path d="M145.458 615.072C146.983 608.917 150.87 604.984 156.897 603.24C162.897 601.503 168.866 601.592 174.646 604.207C178.409 605.91 181.397 608.459 183.207 612.268C183.428 612.732 183.882 613.231 184.347 613.421C191.114 616.183 196.502 620.591 200.478 626.725C200.598 626.911 200.798 627.045 200.96 627.203C201.169 627.668 201.338 628.16 201.6 628.593C206.615 636.978 209.514 645.937 208.529 655.804C207.948 661.626 205.393 666.281 199.806 668.975C192.904 672.302 186.071 671.751 179.249 668.947C175.183 667.278 171.565 664.849 168.34 661.849C168.13 661.626 167.916 661.402 167.706 661.178C167.455 660.838 167.204 660.494 166.952 660.153C162.963 654.968 158.956 649.79 156.419 643.676C156.092 642.892 155.844 642.077 155.558 641.275C159.534 642.008 163.517 642.723 167.489 643.473C171.369 644.203 174.794 643.116 177.648 640.566C181.042 637.535 182.109 633.558 181.121 629.185C180.037 624.392 176.89 621.365 172.119 620.36C163.255 618.492 154.346 616.823 145.455 615.072H145.458Z" fill="#57B660"/>
<path d="M116.336 609.677C113.93 607.888 111.169 606.423 109.186 604.245C103.596 598.107 102.16 590.854 105.124 583.068C107.933 575.692 113.458 571.391 121.29 570.111C131.837 568.388 142.13 575.475 144.467 586.309C146.918 597.653 138.639 609.347 127.111 610.768C123.782 611.177 120.636 610.833 117.489 609.856C117.117 609.739 116.711 609.732 116.319 609.674L116.333 609.681L116.336 609.677Z" fill="#ED7C76"/>
<path d="M229.17 595.901C228.836 607.63 219.941 616.507 208.505 616.49C197.073 616.472 187.927 607.548 187.989 595.833C188.051 584.266 196.781 575.392 208.488 575.362C220.275 575.334 228.802 584.283 229.17 595.901Z" fill="#ED7C76"/>
<path d="M145.458 615.072C154.35 616.823 163.255 618.492 172.123 620.36C176.894 621.365 180.04 624.392 181.125 629.185C182.113 633.558 181.045 637.535 177.651 640.566C174.798 643.116 171.372 644.203 167.493 643.474C163.52 642.727 159.538 642.008 155.562 641.275C152.319 640.597 149.104 639.754 145.834 639.286C141.51 638.664 137.651 637.281 134.722 633.888C134.549 633.413 134.415 632.921 134.195 632.471C132.594 629.195 132.264 625.868 133.827 622.49C134.477 621.083 135.241 619.727 135.954 618.351C136.174 618.299 136.453 618.313 136.608 618.182C139.159 615.987 142.192 615.196 145.465 615.075L145.458 615.072Z" fill="#363736"/>
<path d="M135.947 618.351C135.235 619.73 134.47 621.083 133.82 622.49C132.26 625.865 132.587 629.195 134.188 632.471C134.408 632.921 134.543 633.413 134.715 633.888C133.651 633.754 132.584 633.616 131.234 633.444C130.374 638.426 129.517 643.391 128.656 648.359C125.885 647.881 123.11 647.416 120.343 646.914C118.336 646.549 116.343 646.133 114.339 645.741C114.759 643.002 115.172 640.264 115.603 637.525C116.05 634.686 116.511 631.848 116.969 629.013C117.348 628.463 117.623 627.792 118.119 627.386C121.596 624.537 122.477 620.886 121.613 616.641C121.524 616.2 121.565 615.733 121.544 615.278C125.503 616.235 129.455 617.212 133.42 618.127C134.233 618.316 135.1 618.282 135.94 618.347L135.947 618.351Z" fill="#040604"/>
<path d="M168.34 661.849C171.565 664.849 175.183 667.275 179.249 668.947C186.071 671.748 192.901 672.302 199.806 668.975C205.397 666.281 207.951 661.626 208.529 655.804C209.514 645.937 206.615 636.978 201.6 628.593C201.338 628.156 201.173 627.668 200.96 627.203C201.631 627.847 202.436 628.401 202.949 629.154C207.555 635.949 210.619 643.377 211.583 651.555C212.247 657.17 211.848 662.685 208.729 667.664C206.471 671.273 202.877 673.003 199.025 674.235C197.307 674.786 195.469 675.195 193.683 675.209C191.373 675.226 189.011 674.996 186.76 674.493C181.91 673.409 177.538 671.19 173.713 668.018C171.916 666.528 170.323 664.784 168.691 663.102C168.426 662.826 168.45 662.272 168.34 661.849Z" fill="#CBF8A6"/>
<path d="M186.546 566.289C190.085 566.292 192.984 569.113 193.059 572.623C193.135 576.142 190.154 579.084 186.515 579.081C182.87 579.081 179.94 576.156 180.002 572.592C180.064 569.096 182.984 566.285 186.543 566.289H186.546ZM188.681 571.928C189.142 571.243 189.583 570.878 189.565 570.541C189.545 570.173 189.097 569.829 188.839 569.475C188.522 569.781 188.009 570.053 187.947 570.4C187.889 570.744 188.292 571.167 188.684 571.928H188.681Z" fill="#040604"/>
<path d="M148.505 565.257C151.999 565.291 154.942 568.274 154.887 571.725C154.828 575.334 151.923 578.086 148.209 578.048C144.687 578.011 141.799 575.093 141.827 571.597C141.854 568.047 144.832 565.219 148.505 565.257ZM151.18 568.69C150.567 568.25 150.161 567.751 149.885 567.816C149.544 567.895 149.083 568.443 149.09 568.78C149.097 569.11 149.603 569.64 149.94 569.681C150.229 569.719 150.591 569.189 151.18 568.69Z" fill="#040604"/>
<path d="M152.147 588.845C151.41 588.456 150.673 588.067 149.802 587.603V585.645C151.059 586.189 152.174 586.612 153.228 587.152C153.72 587.407 154.085 587.902 154.525 588.267C156.969 590.286 158.79 590.176 161.207 588.054C162.085 587.283 163.1 586.519 164.188 586.165C165.951 585.59 167.696 585.948 169.186 587.166C169.806 587.672 170.408 588.201 171.052 588.68C173.076 590.19 174.842 590.077 176.791 588.435C177.899 587.503 179.097 586.67 180.581 585.545V587.74C179.72 588.439 178.884 589.034 178.143 589.733C175.417 592.309 172.563 592.423 169.727 590.018C169.245 589.612 168.784 589.179 168.274 588.814C166.343 587.434 164.309 587.469 162.701 589.213C160.601 591.491 158.181 592.172 155.262 591.35C154.222 590.514 153.183 589.674 152.143 588.838L152.147 588.845Z" fill="#040604"/>
<path d="M150.901 588.188C152.099 588.577 153.558 590.035 154.45 590.703C153.965 591.584 153.193 592.196 152.815 593.094C152.419 594.026 152.205 594.993 151.92 595.925C148.557 595.01 146.939 589.671 150.901 588.188Z" fill="#FEFEFE"/>
<path d="M144.126 720.648C143.135 721.518 142.143 722.392 141.152 723.263C140.57 721.828 139.992 720.393 139.41 718.958C140.983 719.523 142.556 720.084 144.126 720.648Z" fill="#57B761"/>
<path d="M209.566 737.128C229.018 737.128 248.475 737.128 267.927 737.128C268.874 737.155 269.821 737.18 270.764 737.207C270.664 741.989 267.177 745.382 262.258 745.392C252.808 745.416 243.359 745.402 233.91 745.399C220.912 745.392 207.91 745.375 194.911 745.361C198.801 743.861 202.843 742.674 206.171 740.004C207.328 739.079 208.433 738.091 209.562 737.131L209.566 737.128Z" fill="#040604"/>
<path d="M111.441 736.88C115.004 739.553 116.615 745.495 115.121 750.453C113.307 756.47 107.596 760.468 101.158 760.224C95.0758 759.997 89.6197 755.431 88.2909 749.466C86.8417 742.949 90.5216 736.13 96.6559 733.973C96.0672 737.558 95.5681 741.164 94.8693 744.728C93.8159 750.106 97.3857 754.348 102.835 754.052C106.332 753.859 108.873 751.014 109.492 746.706C109.916 743.778 110.432 740.864 110.938 737.947C111.004 737.572 111.269 737.231 111.441 736.877V736.88Z" fill="#A2A2A1"/>
<path d="M284.396 737.049C288.867 731.933 297.852 731.482 303.222 736.106C309.129 741.188 309.831 749.476 304.864 755.449C300.268 760.974 291.37 761.821 285.631 757.265C285.284 756.987 285.022 756.598 284.723 756.261C287.686 756.213 290.654 756.209 293.618 756.099C295.965 756.013 298.241 755.652 300.224 754.169C303.187 751.95 304.526 748.953 304.003 745.392C303.387 741.188 300.458 738.17 296.674 737.582C294.55 737.252 292.365 737.286 290.206 737.197C288.272 737.118 286.334 737.097 284.396 737.049Z" fill="#A2A2A1"/>
<path d="M298.84 746.71C298.847 749.242 296.816 751.224 294.237 751.203C291.752 751.186 289.738 749.242 289.683 746.806C289.628 744.308 291.666 742.251 294.223 742.223C296.795 742.196 298.833 744.178 298.84 746.71Z" fill="#040604"/>
<path d="M101.771 742.051C104.315 742.02 106.415 744.036 106.429 746.527C106.443 749.042 104.405 751.041 101.826 751.041C99.3204 751.041 97.341 749.135 97.2825 746.665C97.224 744.122 99.2068 742.086 101.771 742.051Z" fill="#040604"/>
<path d="M188.681 571.928C188.288 571.167 187.885 570.744 187.944 570.4C188.002 570.049 188.519 569.781 188.835 569.475C189.097 569.829 189.545 570.173 189.562 570.541C189.579 570.882 189.138 571.243 188.677 571.928H188.681Z" fill="#040604"/>
<path d="M151.179 568.69C150.591 569.189 150.229 569.719 149.94 569.681C149.603 569.636 149.097 569.107 149.09 568.78C149.083 568.443 149.541 567.896 149.885 567.816C150.16 567.754 150.563 568.25 151.179 568.69Z" fill="#FEFEFE"/>
<path d="M150.137 569.788C150.713 569.788 151.18 569.321 151.18 568.745C151.18 568.17 150.713 567.703 150.137 567.703C149.56 567.703 149.094 568.17 149.094 568.745C149.094 569.321 149.56 569.788 150.137 569.788Z" fill="#FEFEFE"/>
<path d="M188.753 571.539C189.329 571.539 189.796 571.072 189.796 570.497C189.796 569.921 189.329 569.454 188.753 569.454C188.177 569.454 187.71 569.921 187.71 570.497C187.71 571.072 188.177 571.539 188.753 571.539Z" fill="#FEFEFE"/>
</g>
</g>
<defs>
<clipPath id="clip0_45_7747">
<rect width="393" height="852" fill="white"/>
</clipPath>
<clipPath id="clip1_45_7747">
<rect width="255" height="280" fill="white" transform="translate(69 494)"/>
</clipPath>
</defs>
</svg>
